<svg width="42" height="33" viewBox="0 0 42 33" fill="none" xmlns="http://www.w3.org/2000/svg">
<path d="M26.6783 23.4342H15.3218V2.80469H26.6785L26.6783 23.4342Z" fill="#6C6BBD"/>
<path d="M16.0425 13.1197C16.0425 8.93504 17.9809 5.20737 20.9997 2.80517C18.7922 1.04854 16.0059 0 12.9783 0C5.81044 0 0 5.87383 0 13.1197C0 20.3658 5.81044 26.2396 12.9783 26.2396C16.0061 26.2396 18.7922 25.1911 20.9997 23.4345C17.9809 21.0323 16.0425 17.3046 16.0425 13.1199" fill="#D32011"/>
<path d="M42 13.1197C42 20.3658 36.1896 26.2396 29.0217 26.2396C25.9939 26.2396 23.2078 25.1911 20.9995 23.4345C24.0191 21.0323 25.9575 17.3046 25.9575 13.1199C25.9575 8.93504 24.0191 5.20737 20.9995 2.80517C23.2078 1.04854 25.9941 0 29.0217 0C36.1896 0 42 5.87383 42 13.1197Z" fill="#0099DF"/>
<path d="M30.521 29.2635C30.6719 29.2635 30.889 29.2926 31.0549 29.3585L30.8239 30.0725C30.6654 30.0065 30.5069 29.985 30.3551 29.985C29.8649 29.985 29.6198 30.3052 29.6198 30.8808V32.8343H28.8697V29.351H29.6124V29.7739C29.8072 29.4678 30.0885 29.2635 30.521 29.2635ZM27.7498 30.0434H26.5243V31.6172C26.5243 31.9668 26.6465 32.2003 27.022 32.2003C27.2168 32.2003 27.4617 32.1345 27.6847 32.0035L27.9008 32.6515C27.6632 32.8192 27.2885 32.9218 26.9641 32.9218C26.077 32.9218 25.7676 32.4406 25.7676 31.6315V30.0434H25.0679V29.351H25.7676V28.2942H26.5243V29.351H27.7498V30.0434ZM18.1532 30.7864C18.2332 30.2835 18.5354 29.9407 19.0693 29.9407C19.552 29.9407 19.8622 30.2468 19.9414 30.7864H18.1532ZM20.7206 31.0926C20.713 30.0065 20.0496 29.2635 19.0832 29.2635C18.0741 29.2635 17.3676 30.0065 17.3676 31.0926C17.3676 32.1995 18.103 32.921 19.1344 32.921C19.6535 32.921 20.1288 32.79 20.5472 32.4331L20.1792 31.8716C19.8912 32.1053 19.5231 32.2361 19.1774 32.2361C18.6946 32.2361 18.2547 32.0101 18.1466 31.3838H20.7056C20.713 31.2886 20.7204 31.1944 20.7204 31.0926H20.7206ZM24.0149 30.2402C23.8061 30.1084 23.381 29.9407 22.9412 29.9407C22.5302 29.9407 22.2851 30.0941 22.2851 30.3495C22.2851 30.5821 22.5443 30.648 22.8686 30.6914L23.2219 30.7423C23.972 30.8524 24.4258 31.1727 24.4258 31.7849C24.4258 32.4482 23.8489 32.9218 22.8545 32.9218C22.2918 32.9218 21.7727 32.7759 21.3616 32.4698L21.715 31.8792C21.9674 32.0761 22.343 32.2437 22.8619 32.2437C23.3736 32.2437 23.6476 32.0912 23.6476 31.8209C23.6476 31.6247 23.4529 31.5148 23.0419 31.457L22.6887 31.4063C21.9171 31.2962 21.4987 30.9466 21.4987 30.3787C21.4987 29.6863 22.0615 29.2635 22.9338 29.2635C23.4817 29.2635 23.9793 29.3878 24.3391 29.628L24.0148 30.2402H24.0149ZM33.2615 29.9832C33.1073 29.9832 32.9646 30.0107 32.8317 30.0649C32.703 30.1176 32.5863 30.1959 32.4883 30.2952C32.3898 30.3969 32.3123 30.5173 32.2606 30.6496C32.2053 30.7873 32.178 30.9392 32.178 31.1043C32.178 31.2702 32.2053 31.4212 32.2606 31.5589C32.3159 31.6965 32.3918 31.8149 32.4883 31.9134C32.5863 32.0127 32.7031 32.091 32.8317 32.1436C32.9646 32.1986 33.1073 32.2253 33.2615 32.2253C33.4157 32.2253 33.5594 32.1988 33.6914 32.1436C33.8206 32.0912 33.9379 32.0129 34.0364 31.9134C34.1347 31.8149 34.2106 31.6965 34.2667 31.5589C34.322 31.4212 34.3492 31.2703 34.3492 31.1043C34.3492 30.9392 34.322 30.7873 34.2667 30.6496C34.2106 30.512 34.1347 30.3936 34.0364 30.2952C33.938 30.1957 33.8207 30.1174 33.6915 30.0649C33.5549 30.0097 33.4088 29.9819 33.2617 29.9832H33.2615ZM33.2615 29.2635C33.5289 29.2635 33.7765 29.3101 34.0042 29.4044C34.2319 29.4978 34.4291 29.6271 34.5952 29.7915C34.7624 29.9572 34.8952 30.1551 34.9855 30.3735C35.0795 30.5981 35.1266 30.8415 35.1266 31.1043C35.1266 31.367 35.0795 31.6106 34.9855 31.835C34.8951 32.0537 34.7624 32.252 34.595 32.418C34.4293 32.5822 34.2319 32.7109 34.0044 32.8051C33.7763 32.8984 33.5289 32.9452 33.2615 32.9452C32.9941 32.9452 32.7465 32.8984 32.5188 32.8051C32.2911 32.7109 32.0955 32.5824 31.9305 32.418C31.7641 32.2515 31.632 32.0533 31.5416 31.835C31.4476 31.6106 31.4005 31.367 31.4005 31.1043C31.4005 30.8415 31.4476 30.5981 31.5416 30.3737C31.632 30.1556 31.7642 29.9577 31.9305 29.7915C32.0993 29.6243 32.2993 29.4928 32.5188 29.4044C32.7465 29.3101 32.9941 29.2635 33.2615 29.2635ZM13.773 31.0926C13.773 30.4803 14.17 29.9774 14.8186 29.9774C15.4384 29.9774 15.8568 30.4588 15.8568 31.0926C15.8568 31.7265 15.4384 32.2069 14.8186 32.2069C14.17 32.2069 13.773 31.7048 13.773 31.0926ZM16.5632 31.0926V29.351H15.8138V29.7739C15.5754 29.4603 15.2156 29.2635 14.7254 29.2635C13.7591 29.2635 13.0023 30.0283 13.0023 31.0926C13.0023 32.1562 13.7591 32.9218 14.7254 32.9218C15.2156 32.9218 15.5752 32.725 15.8138 32.4114V32.8343H16.5632V31.0926ZM12.3386 32.8343V30.648C12.3386 29.8248 11.8195 29.2709 10.9836 29.2633C10.5438 29.2558 10.089 29.3943 9.77219 29.8832C9.53446 29.4969 9.15909 29.2635 8.63261 29.2635C8.26527 29.2635 7.90466 29.3727 7.6233 29.7805V29.351H6.87402V32.8343H7.63068V30.9033C7.63068 30.2986 7.96241 29.9774 8.47396 29.9774C8.97173 29.9774 9.22422 30.3052 9.22422 30.8957V32.8343H9.98104V30.9033C9.98104 30.2986 10.3275 29.9774 10.8243 29.9774C11.3369 29.9774 11.582 30.3052 11.582 30.8957V32.8343H12.3386Z" fill="#110F0D"/>
</svg>
