<svg width="42" height="33" viewBox="0 0 42 33" fill="none" xmlns="http://www.w3.org/2000/svg">
<path d="M7.63553 32.836V30.6519C7.63553 29.8145 7.1312 29.2686 6.26676 29.2686C5.83462 29.2686 5.36638 29.4142 5.0422 29.8874C4.7902 29.487 4.43008 29.2686 3.88982 29.2686C3.52954 29.2686 3.16959 29.3777 2.88133 29.7781V29.3414H2.125V32.836H2.88133V30.9066C2.88133 30.2879 3.20552 29.9965 3.70984 29.9965C4.21384 29.9965 4.46617 30.3242 4.46617 30.9066V32.836H5.2225V30.9066C5.2225 30.2879 5.58245 29.9965 6.05069 29.9965C6.55502 29.9965 6.80702 30.3242 6.80702 30.9066V32.836H7.63553ZM18.8362 29.3414H17.6118V28.2857H16.8555V29.3414H16.1712V30.0329H16.8554V31.6348C16.8554 32.4357 17.1795 32.9088 18.044 32.9088C18.3682 32.9088 18.7281 32.7997 18.9805 32.6541L18.7642 31.9988C18.5481 32.1444 18.2961 32.1808 18.116 32.1808C17.7559 32.1808 17.6118 31.9624 17.6118 31.5983V30.0329H18.8362V29.3414ZM25.2471 29.2684C24.815 29.2684 24.5269 29.487 24.3468 29.7781V29.3414H23.5904V32.836H24.3468V30.8703C24.3468 30.2879 24.5988 29.9602 25.067 29.9602C25.2111 29.9602 25.3912 29.9967 25.5352 30.033L25.7513 29.305C25.6073 29.2686 25.3912 29.2686 25.2471 29.2686V29.2684ZM15.5589 29.6325C15.1986 29.3777 14.6945 29.2686 14.1542 29.2686C13.2899 29.2686 12.7138 29.7053 12.7138 30.397C12.7138 30.9796 13.1459 31.3071 13.9022 31.4164L14.2623 31.4529C14.6586 31.5255 14.8746 31.6348 14.8746 31.8169C14.8746 32.0716 14.5865 32.2536 14.0822 32.2536C13.578 32.2536 13.1818 32.0716 12.9297 31.8897L12.5695 32.472C12.9658 32.7632 13.506 32.9088 14.0461 32.9088C15.0546 32.9088 15.631 32.4357 15.631 31.7804C15.631 31.1615 15.1627 30.8338 14.4423 30.7247L14.0822 30.6882C13.758 30.6517 13.506 30.5791 13.506 30.3607C13.506 30.1058 13.758 29.9602 14.1542 29.9602C14.5865 29.9602 15.0187 30.1421 15.2347 30.2514L15.5589 29.6325ZM35.6558 29.2686C35.2235 29.2686 34.9354 29.487 34.7552 29.7781V29.3414H33.9989V32.836H34.7552V30.8703C34.7552 30.2879 35.0074 29.9602 35.4755 29.9602C35.6197 29.9602 35.7998 29.9967 35.9439 30.033L36.1599 29.305C36.0159 29.2686 35.7998 29.2686 35.6558 29.2686ZM26.0035 31.0887C26.0035 32.1444 26.7237 32.9088 27.8403 32.9088C28.3445 32.9088 28.7046 32.7997 29.0647 32.5085L28.7046 31.8897C28.4165 32.108 28.1284 32.2172 27.8042 32.2172C27.1919 32.2172 26.7598 31.7804 26.7598 31.0887C26.7598 30.4335 27.1919 29.9965 27.8042 29.9602C28.1284 29.9602 28.4165 30.0693 28.7046 30.2879L29.0647 29.669C28.7046 29.3777 28.3445 29.2686 27.8403 29.2686C26.7237 29.2686 26.0035 30.033 26.0035 31.0887ZM32.9906 31.0887V29.3414H32.2342V29.7781C31.9821 29.4506 31.622 29.2686 31.1537 29.2686C30.1813 29.2686 29.425 30.033 29.425 31.0887C29.425 32.1444 30.1813 32.9088 31.1537 32.9088C31.6579 32.9088 32.0182 32.7269 32.2342 32.3992V32.836H32.9906V31.0887ZM30.2173 31.0887C30.2173 30.4698 30.6135 29.9602 31.2617 29.9602C31.874 29.9602 32.3063 30.4335 32.3063 31.0887C32.3063 31.7076 31.874 32.2172 31.2617 32.2172C30.6135 32.1807 30.2173 31.7076 30.2173 31.0887ZM21.1774 29.2686C20.1689 29.2686 19.4485 29.9965 19.4485 31.0887C19.4485 32.1808 20.1688 32.9088 21.2133 32.9088C21.7175 32.9088 22.2218 32.7632 22.618 32.4357L22.2578 31.8897C21.9697 32.108 21.6096 32.2536 21.2494 32.2536C20.7812 32.2536 20.313 32.0352 20.2049 31.4162H22.7621V31.1252C22.7982 29.9965 22.1498 29.2686 21.1773 29.2686H21.1774ZM21.1774 29.9237C21.6455 29.9237 21.9698 30.2151 22.0417 30.7612H20.2409C20.313 30.2879 20.6372 29.9237 21.1774 29.9237ZM39.9416 31.0887V27.958H39.1852V29.7781C38.9331 29.4506 38.573 29.2686 38.1047 29.2686C37.1323 29.2686 36.376 30.033 36.376 31.0887C36.376 32.1444 37.1323 32.9088 38.1047 32.9088C38.6091 32.9088 38.9692 32.7269 39.1852 32.3992V32.836H39.9416V31.0887ZM37.1684 31.0887C37.1684 30.4698 37.5645 29.9602 38.2128 29.9602C38.8251 29.9602 39.2573 30.4335 39.2573 31.0887C39.2573 31.7076 38.8251 32.2172 38.2128 32.2172C37.5645 32.1807 37.1684 31.7076 37.1684 31.0887ZM11.8852 31.0887V29.3414H11.1289V29.7781C10.8767 29.4506 10.5166 29.2686 10.0484 29.2686C9.076 29.2686 8.31967 30.033 8.31967 31.0887C8.31967 32.1444 9.076 32.9088 10.0484 32.9088C10.5527 32.9088 10.9128 32.7269 11.1289 32.3992V32.836H11.8852V31.0887ZM9.076 31.0887C9.076 30.4698 9.47221 29.9602 10.1204 29.9602C10.7327 29.9602 11.165 30.4335 11.165 31.0887C11.165 31.7076 10.7327 32.2172 10.1204 32.2172C9.47221 32.1807 9.076 31.7076 9.076 31.0887Z" fill="black"/>
<path d="M15.3068 2.80298H26.6517V23.4074H15.3068V2.80298Z" fill="#FF5F00"/>
<path d="M16.0271 13.1053C16.0271 8.91895 17.9719 5.20571 20.9611 2.80301C18.7643 1.05567 15.9912 0 12.9659 0C5.79846 0 0 5.8609 0 13.1053C0 20.3496 5.79846 26.2106 12.9657 26.2106C15.991 26.2106 18.7642 25.155 20.9611 23.4074C17.9719 21.0412 16.0271 17.2917 16.0271 13.1053Z" fill="#EB001B"/>
<path d="M41.9583 13.1053C41.9583 20.3496 36.1598 26.2106 28.9926 26.2106C25.9673 26.2106 23.1942 25.155 20.9972 23.4074C24.0225 21.0049 25.9314 17.2917 25.9314 13.1053C25.9314 8.91895 23.9864 5.20571 20.9972 2.80301C23.194 1.05567 25.9673 0 28.9926 0C36.1598 0 41.9585 5.89738 41.9585 13.1053H41.9583Z" fill="#F79E1B"/>
</svg>
