<svg width="44" height="12" viewBox="0 0 44 12" fill="none" xmlns="http://www.w3.org/2000/svg">
<path fill-rule="evenodd" clip-rule="evenodd" d="M11.5939 2.2831e-07V0.0052404C11.5885 0.0052404 9.91426 1.99897e-07 9.46778 1.57729C9.05851 3.02358 7.90511 7.01659 7.87322 7.12664H7.5543C7.5543 7.12664 6.37433 3.04454 5.95974 1.57205C5.51327 -0.00523999 3.83366 2.2831e-07 3.83366 2.2831e-07H0.00671387V12H3.83366V4.87336H3.99312H4.15257L6.38496 12H9.04256L11.2749 4.8786H11.5939V12H15.4208V2.2831e-07H11.5939Z" fill="#4DB45E"/>
<path fill-rule="evenodd" clip-rule="evenodd" d="M25.5729 0C25.5729 0 24.4514 0.0995633 23.9252 1.25764L21.2145 7.12664H20.8955V0H17.0686V12H20.6829C20.6829 12 21.8576 11.8952 22.3838 10.7424L25.0414 4.87336H25.3603V12H29.1873V0H25.5729Z" fill="#4DB45E"/>
<path fill-rule="evenodd" clip-rule="evenodd" d="M30.8881 5.44971V11.9999H34.715V8.1746H38.8609C40.668 8.1746 42.1988 7.03748 42.7675 5.44971H30.8881Z" fill="#4DB45E"/>
<path fill-rule="evenodd" clip-rule="evenodd" d="M38.8608 0H30.3512C30.7764 2.28472 32.5145 4.11878 34.7628 4.71616C35.2731 4.8524 35.8099 4.92576 36.3627 4.92576H42.9217C42.9801 4.65328 43.0067 4.37555 43.0067 4.08734C43.0067 1.82882 41.1517 0 38.8608 0Z" fill="url(#paint0_linear)"/>
<defs>
<linearGradient id="paint0_linear" x1="30.3522" y1="2.46288" x2="43.0067" y2="2.46288" gradientUnits="userSpaceOnUse">
<stop offset="0.3" stop-color="#00B4E6"/>
<stop offset="1" stop-color="#088CCB"/>
</linearGradient>
</defs>
</svg>
