<svg width="46" height="14" viewBox="0 0 46 14" fill="none" xmlns="http://www.w3.org/2000/svg">
<path d="M32.7172 0.564968C31.6713 0.183842 30.5657 -0.00741013 29.4525 0.000219589C25.8525 0.000219589 23.31 1.81372 23.292 4.41697C23.2695 6.32947 25.0987 7.40722 26.4825 8.04622C27.9022 8.70322 28.377 9.11722 28.3725 9.70447C28.3635 10.5977 27.2385 11.0027 26.1922 11.0027C24.7545 11.0027 23.9692 10.8025 22.761 10.3007L22.3132 10.0915L21.8025 13.0885C22.6777 13.453 24.255 13.7657 25.884 13.7927C29.7112 13.7927 32.2132 11.9905 32.2425 9.22072C32.274 7.69297 31.284 6.53872 29.2005 5.58472C27.9338 4.96597 27.1485 4.55197 27.1485 3.92422C27.1485 3.36847 27.8212 2.77447 29.2275 2.77447C30.1634 2.75182 31.0935 2.92742 31.9568 3.28972L32.2943 3.44047L32.805 0.544719L32.7172 0.564968ZM42.0592 0.243219H39.2467C38.3715 0.243219 37.7123 0.483969 37.3298 1.35247L31.9207 13.606H35.748L36.513 11.5967L41.184 11.6012C41.2943 12.0715 41.6318 13.606 41.6318 13.606H45.0068L42.0592 0.243219ZM18.1147 0.130719H21.762L19.4805 13.5002H15.8377L18.1147 0.126219V0.130719ZM8.856 7.49947L9.234 9.35572L12.798 0.243219H16.6612L10.9215 13.588H7.06725L3.91725 2.28847C3.86623 2.10215 3.74642 1.94213 3.582 1.84072C2.44665 1.25423 1.24368 0.809156 0 0.515468L0.0494999 0.234218H5.91975C6.71625 0.265718 7.3575 0.515468 7.57125 1.36597L8.85375 7.50622V7.49947H8.856ZM37.5592 8.86297L39.0128 5.12347C38.9948 5.16397 39.312 4.35172 39.4965 3.84997L39.7463 5.00422L40.59 8.86072H37.557V8.86297H37.5592Z" fill="black"/>
</svg>
