<svg width="33" height="38" fill="none" xmlns="http://www.w3.org/2000/svg"><path d="M10.716 21.848c-.988.32-2.033.746-3.134 1.306a.981.981 0 00-.429 1.323.995.995 0 001.333.427c9.643-4.917 13.77 1.496 13.945 1.777a.994.994 0 001.355.33.973.973 0 00.333-1.345c-.04-.067-3.636-5.769-11.382-4.328-.474-.796-3.924-5.977-12.065-3.235a.98.98 0 00-.616 1.245.99.99 0 001.254.61c5.77-1.945 8.525.724 9.406 1.89z" fill="#000"/><path d="M25.96 3.201c-.029-.045-.063-.078-.096-.118C25.62 2.713 23.56-.079 15.978 0a1 1 0 00-.44.106c-1.48.757-4.11 3.23-3.495 7.165a.9.9 0 00.18.427l1.028 1.39a.997.997 0 00.796.404c.04 0 .073 0 .113-.006l5.437-.628a.98.98 0 00.813-.645c.034-.09.067-.185.107-.28.502.465 1.4 1.446 1.688 2.736.011.045.017.09.028.14.017.084.034.174.046.264a.894.894 0 00.039.185c.277 1.53.485 3.285.294 3.918-.09.303-.322.763-.588 1.29-.513 1.009-1.19 2.36-1.58 3.997.48.219 1.134.55 1.806.998.3-1.654.988-3.033 1.542-4.115.31-.611.575-1.138.717-1.603.383-1.267-.063-3.947-.345-5.366a1.267 1.267 0 00-.045-.157c-.452-1.934-1.824-3.442-2.67-4.053-.017-.022-.04-.04-.057-.056l-.011.011-.096-.062c.13-.28.243-.51.322-.627a.972.972 0 00-.26-1.363.992.992 0 00-1.372.258c-.378.544-.903 1.867-1.208 2.663l-4.263.493-.536-.728c-.339-2.882 1.665-4.39 2.298-4.788h.079c5.967 0 7.695 1.984 7.853 2.18l2.016 3.566c2.168 4.452 5.352 12.951 4.737 23.57-2.507 1.334-14.973 7.366-24.588 1.57.248-.298.406-.46.418-.466a.971.971 0 00-.017-1.385.988.988 0 00-1.395.011c-.085.085-2.1 2.148-3.692 5.601a.978.978 0 00.485 1.3.988.988 0 001.31-.482 20.318 20.318 0 011.7-2.993c3.45 2.136 7.175 2.898 10.732 2.898 8.509 0 16.052-4.339 16.497-4.602a.975.975 0 00.486-.78c1.157-16.718-6.6-28.267-6.927-28.755z" fill="#000"/></svg>