<svg width="30" height="30" fill="none" xmlns="http://www.w3.org/2000/svg"><path d="M1 19l-.707-.707-.293.293V19h1zM19 1l.707-.707a1 1 0 00-1.414 0L19 1zm10 10l.707.707a1 1 0 000-1.414L29 11zM11 29v1h.414l.293-.293L11 29zM1 29H0a1 1 0 001 1v-1zm.707-9.293l18-18L18.293.293l-18 18 1.414 1.414zm16.586-18l10 10 1.414-1.414-10-10-1.414 1.414zm10 8.586l-18 18 1.414 1.414 18-18-1.414-1.414zM11 28H1v2h10v-2zm-9 1V19H0v10h2zM12.293 7.707l10 10 1.414-1.414-10-10-1.414 1.414zM16 30h14v-2H16v2z" fill="#F79E1B"/></svg>