<svg width="41" height="41" fill="none" xmlns="http://www.w3.org/2000/svg"><path d="M12.143 14.929v-1a1 1 0 00-1 1h1zm0 2.785l.707.707.293-.293v-.414h-1zm-4.756.816l-.707.707.707-.707zm10.327 17.291h1v-.414l-.293-.293-.707.707zm-2.785-2.785h-1v.414l.293.293.707-.707zm0-4.179h1v-.414l-.293-.293-.707.707zm-2.786-2.786h-1v.415l.293.293.707-.708zm0-2.785v-1a1 1 0 00-1 1h1zM25.07 1v5.571h2V1h-2zm-1.785 7.357H20.5v2h2.786v-2zm-8.357 5.572h-2.786v2h2.786v-2zm-3.786 1v2.785h2V14.93h-2zm.293 2.078l-.816.816 1.414 1.414.816-.816-1.414-1.414zm-3.342.816L3.1 12.83l-1.414 1.414 4.994 4.994 1.414-1.414zm8.62-5.68c0 .986-.8 1.786-1.785 1.786v2a3.786 3.786 0 003.785-3.786h-2zM20.5 8.357a3.786 3.786 0 00-3.786 3.786h2c0-.986.8-1.786 1.786-1.786v-2zm-9.88 9.466a1.786 1.786 0 01-2.526 0L6.68 19.237a3.786 3.786 0 005.354 0l-1.414-1.414zM25.07 6.571c0 .987-.8 1.786-1.785 1.786v2a3.786 3.786 0 003.785-3.786h-2zM18.714 40v-4.179h-2V40h2zm-.293-4.886l-2.785-2.785-1.414 1.414 2.785 2.785 1.414-1.414zm-2.492-2.078v-4.179h-2v4.179h2zm-.293-4.886l-2.786-2.786-1.414 1.415 2.786 2.785 1.414-1.414zm-2.493-2.079v-2.785h-2v2.785h2zm-1-1.785h11.143v-2H12.143v2zM25.07 26.07v1.858h2V26.07h-2zm4.715 6.572h7.428v-2h-7.428v2zm-1.929-1.929a1.93 1.93 0 001.929 1.929v-2a.07.07 0 01.071.071h-2zM27 29.857c.473 0 .857.384.857.857h2A2.857 2.857 0 0027 27.857v2zm-1.929-1.928c0 1.065.864 1.928 1.929 1.928v-2a.07.07 0 01.071.072h-2zm-1.785-3.643c.986 0 1.785.8 1.785 1.785h2a3.786 3.786 0 00-3.785-3.785v2zM20.5 39C10.283 39 2 30.717 2 20.5H0C0 31.822 9.178 41 20.5 41v-2zM39 20.5C39 30.717 30.717 39 20.5 39v2C31.822 41 41 31.822 41 20.5h-2zM20.5 2C30.717 2 39 10.283 39 20.5h2C41 9.178 31.822 0 20.5 0v2zm0-2C9.178 0 0 9.178 0 20.5h2C2 10.283 10.283 2 20.5 2V0z" fill="#000"/></svg>