<svg width="1440" height="49" fill="none" xmlns="http://www.w3.org/2000/svg"><path d="M720 19v27.376L760.861 19H720z" stroke="#000" stroke-width="2"/><path d="M281 0h-19l9.742 14L281 0zm670 0h-19l9.742 14L951 0z" fill="#000"/><path d="M300 0h-20l10.255 14L300 0zm670 0h-20l10.255 14L970 0z" fill="#000"/><path d="M318 0h-19l9.742 14L318 0zm670 0h-19l9.742 14L988 0z" fill="#000"/><path d="M336 0h-19l9.742 14L336 0zm670 0h-19l9.742 14L1006 0z" fill="#000"/><path d="M355 0h-20l10.255 14L355 0zm670 0h-20l10.25 14L1025 0z" fill="#000"/><path d="M373 0h-19l9.742 14L373 0zm670 0h-19l9.74 14L1043 0z" fill="#000"/><path d="M392 0h-20l10.255 14L392 0zm670 0h-20l10.25 14L1062 0z" fill="#000"/><path d="M410 0h-19l9.742 14L410 0zm670 0h-19l9.74 14L1080 0z" fill="#000"/><path d="M429 0h-20l10.255 14L429 0zm670 0h-20l10.25 14L1099 0z" fill="#000"/><path d="M448 0h-20l10.255 14L448 0zm670 0h-20l10.25 14L1118 0zm169 0h-20l10.25 14L1287 0z" fill="#000"/><path d="M467 0h-20l10.255 14L467 0zm670 0h-20l10.25 14L1137 0zm169 0h-20l10.25 14L1306 0z" fill="#000"/><path d="M487 0h-21l10.768 14L487 0zm670 0h-21l10.77 14L1157 0zm169 0h-21l10.77 14L1326 0z" fill="#000"/><path d="M506 0h-20l10.255 14L506 0zm670 0h-20l10.25 14L1176 0zm169 0h-20l10.25 14L1345 0z" fill="#000"/><path d="M525 0h-20l10.255 14L525 0zm670 0h-20l10.25 14L1195 0zm169 0h-20l10.25 14L1364 0z" fill="#000"/><path d="M543 0h-19l9.742 14L543 0zm670 0h-19l9.74 14L1213 0zm169 0h-19l9.74 14L1382 0zm73 0h-19l9.74 14L1455 0z" fill="#000"/><path d="M562 0h-20l10.255 14L562 0zm670 0h-20l10.25 14L1232 0zm169 0h-20l10.25 14L1401 0z" fill="#000"/><path d="M580 0h-19l9.742 14L580 0zm670 0h-19l9.74 14L1250 0zm169 0h-19l9.74 14L1419 0z" fill="#000"/><path d="M598 0h-19l9.742 14L598 0zm670 0h-19l9.74 14L1268 0zm169 0h-19l9.74 14L1437 0z" fill="#000"/><path d="M616 0h-19l9.742 14L616 0z" fill="#000"/><path d="M635 0h-20l10.255 14L635 0z" fill="#000"/><path d="M653 0h-19l9.742 14L653 0zM1 0h-19l9.742 14L1 0z" fill="#000"/><path d="M671 0h-19l9.742 14L671 0zM20 0H0l10.255 14L20 0z" fill="#000"/><path d="M690 0h-20l10.255 14L690 0zM38 0H19l9.742 14L38 0z" fill="#000"/><path d="M708 0h-19l9.742 14L708 0zM57 0H37l10.255 14L57 0z" fill="#000"/><path d="M727 0h-20l10.255 14L727 0zM75 0H56l9.742 14L75 0z" fill="#000"/><path d="M745 0h-19l9.742 14L745 0zM94 0H74l10.255 14L94 0z" fill="#000"/><path d="M764 0h-20l10.255 14L764 0zM113 0H93l10.255 14L113 0z" fill="#000"/><path d="M783 0h-20l10.255 14L783 0zM132 0h-20l10.255 14L132 0z" fill="#000"/><path d="M802 0h-20l10.255 14L802 0zM152 0h-21l10.768 14L152 0z" fill="#000"/><path d="M822 0h-21l10.768 14L822 0zM171 0h-20l10.255 14L171 0z" fill="#000"/><path d="M841 0h-20l10.255 14L841 0zM190 0h-20l10.255 14L190 0z" fill="#000"/><path d="M860 0h-20l10.255 14L860 0zM208 0h-19l9.742 14L208 0z" fill="#000"/><path d="M878 0h-19l9.742 14L878 0zM227 0h-20l10.255 14L227 0z" fill="#000"/><path d="M897 0h-20l10.255 14L897 0zM245 0h-19l9.742 14L245 0z" fill="#000"/><path d="M915 0h-19l9.742 14L915 0zM263 0h-19l9.742 14L263 0z" fill="#000"/><path d="M933 0h-19l9.742 14L933 0z" fill="#000"/><path d="M728.651 41.25v-22m9 15v-15m9 9v-9" stroke="#000" stroke-width="2" stroke-linejoin="round"/><path d="M764.151 19v27.376L805.012 19h-40.861z" stroke="#000" stroke-width="2"/><path d="M772.801 41.25v-22m9 15v-15m9 9v-9" stroke="#000" stroke-width="2" stroke-linejoin="round"/><path d="M-29.85 19v27.376L11.012 19H-29.85zm838.151 0v27.376L849.163 19h-40.862z" stroke="#000" stroke-width="2"/><path d="M816.952 41.25v-22m9 15v-15m9 9v-9" stroke="#000" stroke-width="2" stroke-linejoin="round"/><path d="M14.301 19v27.376L55.163 19H14.3z" stroke="#000" stroke-width="2"/><path d="M22.952 41.25v-22m9 15v-15m9 9v-9" stroke="#000" stroke-width="2" stroke-linejoin="round"/><path d="M852.452 19v27.376L893.313 19h-40.861z" stroke="#000" stroke-width="2"/><path d="M861.103 41.25v-22m9 15v-15m9 9v-9" stroke="#000" stroke-width="2" stroke-linejoin="round"/><path d="M58.452 19v27.376L99.314 19H58.452z" stroke="#000" stroke-width="2"/><path d="M67.103 41.25v-22m9 15v-15m9 9v-9" stroke="#000" stroke-width="2" stroke-linejoin="round"/><path d="M896.603 19v27.376L937.464 19h-40.861z" stroke="#000" stroke-width="2"/><path d="M905.253 41.25v-22m9 15v-15m9 9v-9" stroke="#000" stroke-width="2" stroke-linejoin="round"/><path d="M102.603 19v27.376L143.464 19h-40.861z" stroke="#000" stroke-width="2"/><path d="M111.253 41.25v-22m9 15v-15m9 9v-9" stroke="#000" stroke-width="2" stroke-linejoin="round"/><path d="M940.753 19v27.376L981.615 19h-40.862z" stroke="#000" stroke-width="2"/><path d="M949.404 41.25v-22m9 15v-15m9 9v-9" stroke="#000" stroke-width="2" stroke-linejoin="round"/><path d="M146.753 19v27.376L187.614 19h-40.861z" stroke="#000" stroke-width="2"/><path d="M155.404 41.25v-22m9 15v-15m9 9v-9" stroke="#000" stroke-width="2" stroke-linejoin="round"/><path d="M984.904 19v27.377L1025.77 19h-40.866z" stroke="#000" stroke-width="2"/><path d="M993.554 41.25v-22m8.996 15v-15m9 9v-9" stroke="#000" stroke-width="2" stroke-linejoin="round"/><path d="M190.904 19v27.376L231.765 19h-40.861z" stroke="#000" stroke-width="2"/><path d="M199.554 41.25v-22m9 15v-15m9 9v-9" stroke="#000" stroke-width="2" stroke-linejoin="round"/><path d="M1029.05 19v27.377L1069.92 19h-40.87z" stroke="#000" stroke-width="2"/><path d="M1037.71 41.25v-22m9 15v-15m9 9v-9" stroke="#000" stroke-width="2" stroke-linejoin="round"/><path d="M235.055 19v27.376L275.916 19h-40.861z" stroke="#000" stroke-width="2"/><path d="M243.705 41.25v-22m9 15v-15m9 9v-9" stroke="#000" stroke-width="2" stroke-linejoin="round"/><path d="M1073.21 19v27.377L1114.07 19h-40.86z" stroke="#000" stroke-width="2"/><path d="M1081.86 41.25v-22m9 15v-15m9 9v-9" stroke="#000" stroke-width="2" stroke-linejoin="round"/><path d="M279.205 19v27.376L320.067 19h-40.862z" stroke="#000" stroke-width="2"/><path d="M287.856 41.25v-22m9 15v-15m9 9v-9" stroke="#000" stroke-width="2" stroke-linejoin="round"/><path d="M1117.36 19v27.377L1158.22 19h-40.86z" stroke="#000" stroke-width="2"/><path d="M1126.01 41.25v-22m9 15v-15m9 9v-9" stroke="#000" stroke-width="2" stroke-linejoin="round"/><path d="M323.355 19v27.376L364.217 19h-40.862z" stroke="#000" stroke-width="2"/><path d="M332.006 41.25v-22m9 15v-15m9 9v-9" stroke="#000" stroke-width="2" stroke-linejoin="round"/><path d="M1161.51 19v27.377L1202.37 19h-40.86z" stroke="#000" stroke-width="2"/><path d="M1170.16 41.25v-22m9 15v-15m9 9v-9" stroke="#000" stroke-width="2" stroke-linejoin="round"/><path d="M367.506 19v27.376L408.368 19h-40.862z" stroke="#000" stroke-width="2"/><path d="M376.157 41.25v-22m9 15v-15m9 9v-9" stroke="#000" stroke-width="2" stroke-linejoin="round"/><path d="M1205.66 19v27.377L1246.52 19h-40.86z" stroke="#000" stroke-width="2"/><path d="M1214.31 41.25v-22m9 15v-15m9 9v-9" stroke="#000" stroke-width="2" stroke-linejoin="round"/><path d="M411.657 19v27.376L452.519 19h-40.862z" stroke="#000" stroke-width="2"/><path d="M420.308 41.25v-22m9 15v-15m9 9v-9" stroke="#000" stroke-width="2" stroke-linejoin="round"/><path d="M1249.81 19v27.377L1290.67 19h-40.86z" stroke="#000" stroke-width="2"/><path d="M1258.46 41.25v-22m9 15v-15m9 9v-9" stroke="#000" stroke-width="2" stroke-linejoin="round"/><path d="M455.808 19v27.376L496.669 19h-40.861z" stroke="#000" stroke-width="2"/><path d="M464.458 41.25v-22m9 15v-15m9 9v-9" stroke="#000" stroke-width="2" stroke-linejoin="round"/><path d="M1293.96 19v27.377L1334.82 19h-40.86z" stroke="#000" stroke-width="2"/><path d="M1302.61 41.25v-22m9 15v-15m9 9v-9" stroke="#000" stroke-width="2" stroke-linejoin="round"/><path d="M499.958 19v27.376L540.82 19h-40.862z" stroke="#000" stroke-width="2"/><path d="M508.609 41.25v-22m9 15v-15m9 9v-9" stroke="#000" stroke-width="2" stroke-linejoin="round"/><path d="M1338.11 19v27.377L1378.97 19h-40.86z" stroke="#000" stroke-width="2"/><path d="M1346.76 41.25v-22m9 15v-15m9 9v-9" stroke="#000" stroke-width="2" stroke-linejoin="round"/><path d="M544.109 19v27.376L584.97 19h-40.861z" stroke="#000" stroke-width="2"/><path d="M552.76 41.25v-22m9 15v-15m9 9v-9" stroke="#000" stroke-width="2" stroke-linejoin="round"/><path d="M1382.26 19v27.377L1423.12 19h-40.86z" stroke="#000" stroke-width="2"/><path d="M1390.91 41.25v-22m9 15v-15m9 9v-9" stroke="#000" stroke-width="2" stroke-linejoin="round"/><path d="M588.26 19v27.376L629.121 19H588.26z" stroke="#000" stroke-width="2"/><path d="M596.91 41.25v-22m9 15v-15m9 9v-9" stroke="#000" stroke-width="2" stroke-linejoin="round"/><path d="M1426.41 19v27.377L1467.27 19h-40.86z" stroke="#000" stroke-width="2"/><path d="M1435.06 41.25v-22" stroke="#000" stroke-width="2" stroke-linejoin="round"/><path d="M632.41 19v27.376L673.272 19H632.41z" stroke="#000" stroke-width="2"/><path d="M641.061 41.25v-22m9 15v-15m9 9v-9" stroke="#000" stroke-width="2" stroke-linejoin="round"/><path d="M676.561 19v27.376L717.422 19h-40.861z" stroke="#000" stroke-width="2"/><path d="M685.211 41.25v-22m9 15v-15m9 9v-9" stroke="#000" stroke-width="2" stroke-linejoin="round"/></svg>