<svg width="1440" height="49" fill="none" xmlns="http://www.w3.org/2000/svg"><path d="M719.711 29.25V1.874L678.85 29.25h40.861z" stroke="#000" stroke-width="2"/><path d="M1158.71 48.25h19l-9.74-14-9.26 14zm-669.999 0h19l-9.742-14-9.258 14z" fill="#000"/><path d="M1139.71 48.25h20l-10.25-14-9.75 14zm-669.999 0h20l-10.254-14-9.746 14z" fill="#000"/><path d="M1121.71 48.25h19l-9.74-14-9.26 14zm-669.999 0h19l-9.742-14-9.258 14z" fill="#000"/><path d="M1103.71 48.25h19l-9.74-14-9.26 14zm-669.999 0h19l-9.742-14-9.258 14z" fill="#000"/><path d="M1084.71 48.25h20l-10.25-14-9.75 14zm-669.999 0h20l-10.254-14-9.746 14z" fill="#000"/><path d="M1066.71 48.25h19l-9.74-14-9.26 14zm-669.999 0h19l-9.742-14-9.258 14z" fill="#000"/><path d="M1047.71 48.25h20l-10.25-14-9.75 14zm-669.999 0h20l-10.254-14-9.746 14z" fill="#000"/><path d="M1029.71 48.25h19l-9.74-14-9.26 14zm-669.999 0h19l-9.742-14-9.258 14z" fill="#000"/><path d="M1010.71 48.25h20l-10.25-14-9.75 14zm-669.999 0h20l-10.254-14-9.746 14z" fill="#000"/><path d="M991.711 48.25h19.999l-10.25-14-9.749 14zm-670 0h20l-10.254-14-9.746 14zm-169 0h20l-10.254-14-9.746 14z" fill="#000"/><path d="M972.711 48.25h20l-10.254-14-9.746 14zm-670 0h20l-10.254-14-9.746 14zm-169 0h20l-10.254-14-9.746 14z" fill="#000"/><path d="M952.711 48.25h21l-10.767-14-10.233 14zm-670 0h21l-10.767-14-10.233 14zm-169 0h21l-10.767-14-10.233 14z" fill="#000"/><path d="M933.711 48.25h20l-10.254-14-9.746 14zm-670 0h20l-10.254-14-9.746 14zm-169 0h20l-10.254-14-9.746 14z" fill="#000"/><path d="M914.711 48.25h20l-10.254-14-9.746 14zm-670 0h20l-10.254-14-9.746 14zm-169 0h20l-10.254-14-9.746 14z" fill="#000"/><path d="M896.711 48.25h19l-9.742-14-9.258 14zm-670 0h19l-9.742-14-9.258 14zm-169 0h19l-9.742-14-9.258 14zm-73 0h19l-9.742-14-9.258 14z" fill="#000"/><path d="M877.711 48.25h20l-10.254-14-9.746 14zm-670 0h20l-10.254-14-9.746 14zm-169 0h20l-10.254-14-9.746 14z" fill="#000"/><path d="M859.711 48.25h19l-9.742-14-9.258 14zm-670 0h19l-9.742-14-9.258 14zm-169 0h19l-9.742-14-9.258 14z" fill="#000"/><path d="M841.711 48.25h19l-9.742-14-9.258 14zm-670 0h19l-9.742-14-9.258 14zm-169 0h19l-9.742-14-9.258 14z" fill="#000"/><path d="M823.711 48.25h19l-9.742-14-9.258 14z" fill="#000"/><path d="M804.711 48.25h20l-10.254-14-9.746 14z" fill="#000"/><path d="M786.711 48.25h19l-9.742-14-9.258 14zm651.999 0h19l-9.74-14-9.26 14z" fill="#000"/><path d="M768.711 48.25h19l-9.742-14-9.258 14zm650.999 0h20l-10.25-14-9.75 14z" fill="#000"/><path d="M749.711 48.25h20l-10.254-14-9.746 14zm651.999 0h19l-9.74-14-9.26 14z" fill="#000"/><path d="M731.711 48.25h19l-9.742-14-9.258 14zm650.999 0h20l-10.25-14-9.75 14z" fill="#000"/><path d="M712.711 48.25h20l-10.254-14-9.746 14zm651.999 0h19l-9.74-14-9.26 14z" fill="#000"/><path d="M694.711 48.25h19l-9.742-14-9.258 14zm650.999 0h20l-10.25-14-9.75 14z" fill="#000"/><path d="M675.711 48.25h20l-10.254-14-9.746 14zm650.999 0h20l-10.25-14-9.75 14z" fill="#000"/><path d="M656.711 48.25h20l-10.254-14-9.746 14zm650.999 0h20l-10.25-14-9.75 14z" fill="#000"/><path d="M637.711 48.25h20l-10.254-14-9.746 14zm649.999 0h21l-10.77-14-10.23 14z" fill="#000"/><path d="M617.711 48.25h21l-10.767-14-10.233 14zm650.999 0h20l-10.25-14-9.75 14z" fill="#000"/><path d="M598.711 48.25h20l-10.254-14-9.746 14zm650.999 0h20l-10.25-14-9.75 14z" fill="#000"/><path d="M579.711 48.25h20l-10.254-14-9.746 14zm651.999 0h19l-9.74-14-9.26 14z" fill="#000"/><path d="M561.711 48.25h19l-9.742-14-9.258 14zm650.999 0h20l-10.25-14-9.75 14z" fill="#000"/><path d="M542.711 48.25h20l-10.254-14-9.746 14zm651.999 0h19l-9.74-14-9.26 14z" fill="#000"/><path d="M524.711 48.25h19l-9.742-14-9.258 14zm651.999 0h19l-9.74-14-9.26 14z" fill="#000"/><path d="M506.711 48.25h19l-9.742-14-9.258 14z" fill="#000"/><path d="M711.061 7v22m-9-15v15m-9-9v9" stroke="#000" stroke-width="2" stroke-linejoin="round"/><path d="M675.561 29.25V1.874L634.699 29.25h40.862z" stroke="#000" stroke-width="2"/><path d="M666.91 7v22m-9-15v15m-9-9v9" stroke="#000" stroke-width="2" stroke-linejoin="round"/><path d="M1469.56 29.25V1.874L1428.7 29.25h40.86zm-838.15 0V1.874L590.549 29.25h40.861z" stroke="#000" stroke-width="2"/><path d="M622.76 7v22m-9-15v15m-9-9v9" stroke="#000" stroke-width="2" stroke-linejoin="round"/><path d="M1425.41 29.25V1.874l-40.86 27.376h40.86z" stroke="#000" stroke-width="2"/><path d="M1416.76 7v22m-9-15v15m-9-9v9" stroke="#000" stroke-width="2" stroke-linejoin="round"/><path d="M587.26 29.25V1.874L546.398 29.25h40.862z" stroke="#000" stroke-width="2"/><path d="M578.609 7v22m-9-15v15m-9-9v9" stroke="#000" stroke-width="2" stroke-linejoin="round"/><path d="M1381.26 29.25V1.874L1340.4 29.25h40.86z" stroke="#000" stroke-width="2"/><path d="M1372.61 7v22m-9-15v15m-9-9v9" stroke="#000" stroke-width="2" stroke-linejoin="round"/><path d="M543.109 29.25V1.874L502.247 29.25h40.862z" stroke="#000" stroke-width="2"/><path d="M534.458 7v22m-9-15v15m-9-9v9" stroke="#000" stroke-width="2" stroke-linejoin="round"/><path d="M1337.11 29.25V1.874l-40.86 27.376h40.86z" stroke="#000" stroke-width="2"/><path d="M1328.46 7v22m-9-15v15m-9-9v9" stroke="#000" stroke-width="2" stroke-linejoin="round"/><path d="M498.958 29.25V1.874L458.097 29.25h40.861z" stroke="#000" stroke-width="2"/><path d="M490.308 7v22m-9-15v15m-9-9v9" stroke="#000" stroke-width="2" stroke-linejoin="round"/><path d="M1292.96 29.25V1.874L1252.1 29.25h40.86z" stroke="#000" stroke-width="2"/><path d="M1284.31 7v22m-9-15v15m-9-9v9" stroke="#000" stroke-width="2" stroke-linejoin="round"/><path d="M454.808 29.25V1.874L413.946 29.25h40.862z" stroke="#000" stroke-width="2"/><path d="M446.157 7v22m-9-15v15m-9-9v9" stroke="#000" stroke-width="2" stroke-linejoin="round"/><path d="M1248.81 29.25V1.874l-40.86 27.376h40.86z" stroke="#000" stroke-width="2"/><path d="M1240.16 7v22m-9-15v15m-9-9v9" stroke="#000" stroke-width="2" stroke-linejoin="round"/><path d="M410.657 29.25V1.874L369.796 29.25h40.861z" stroke="#000" stroke-width="2"/><path d="M402.006 7v22m-9-15v15m-9-9v9" stroke="#000" stroke-width="2" stroke-linejoin="round"/><path d="M1204.66 29.25V1.874L1163.8 29.25h40.86z" stroke="#000" stroke-width="2"/><path d="M1196.01 7v22m-9-15v15m-9-9v9" stroke="#000" stroke-width="2" stroke-linejoin="round"/><path d="M366.506 29.25V1.874L325.645 29.25h40.861z" stroke="#000" stroke-width="2"/><path d="M357.856 7v22m-9-15v15m-9-9v9" stroke="#000" stroke-width="2" stroke-linejoin="round"/><path d="M1160.51 29.25V1.874l-40.87 27.376h40.87z" stroke="#000" stroke-width="2"/><path d="M1151.86 7v22m-9-15v15m-9-9v9" stroke="#000" stroke-width="2" stroke-linejoin="round"/><path d="M322.356 29.25V1.874L281.494 29.25h40.862z" stroke="#000" stroke-width="2"/><path d="M313.705 7v22m-9-15v15m-9-9v9" stroke="#000" stroke-width="2" stroke-linejoin="round"/><path d="M1116.36 29.25V1.874l-40.87 27.376h40.87z" stroke="#000" stroke-width="2"/><path d="M1107.71 7v22m-9-15v15m-9-9v9" stroke="#000" stroke-width="2" stroke-linejoin="round"/><path d="M278.205 29.25V1.874L237.344 29.25h40.861z" stroke="#000" stroke-width="2"/><path d="M269.554 7v22m-9-15v15m-9-9v9" stroke="#000" stroke-width="2" stroke-linejoin="round"/><path d="M1072.21 29.25V1.874l-40.87 27.376h40.87z" stroke="#000" stroke-width="2"/><path d="M1063.55 7v22m-9-15v15m-9-9v9" stroke="#000" stroke-width="2" stroke-linejoin="round"/><path d="M234.054 29.25V1.874L193.193 29.25h40.861z" stroke="#000" stroke-width="2"/><path d="M225.404 7v22m-9-15v15m-9-9v9" stroke="#000" stroke-width="2" stroke-linejoin="round"/><path d="M1028.05 29.25V1.874L987.193 29.25h40.857z" stroke="#000" stroke-width="2"/><path d="M1019.4 7v22m-9-15v15m-9-9v9" stroke="#000" stroke-width="2" stroke-linejoin="round"/><path d="M189.904 29.25V1.874L149.042 29.25h40.862z" stroke="#000" stroke-width="2"/><path d="M181.253 7v22m-9-15v15m-9-9v9" stroke="#000" stroke-width="2" stroke-linejoin="round"/><path d="M983.904 29.25V1.874L943.042 29.25h40.862z" stroke="#000" stroke-width="2"/><path d="M975.253 7v22m-9-15v15m-9-9v9" stroke="#000" stroke-width="2" stroke-linejoin="round"/><path d="M145.753 29.25V1.874L104.892 29.25h40.861z" stroke="#000" stroke-width="2"/><path d="M137.103 7v22m-9-15v15m-9-9v9" stroke="#000" stroke-width="2" stroke-linejoin="round"/><path d="M939.753 29.25V1.874L898.892 29.25h40.861z" stroke="#000" stroke-width="2"/><path d="M931.103 7v22m-9-15v15m-9-9v9" stroke="#000" stroke-width="2" stroke-linejoin="round"/><path d="M101.603 29.25V1.874L60.741 29.25h40.862z" stroke="#000" stroke-width="2"/><path d="M92.952 7v22m-9-15v15m-9-9v9" stroke="#000" stroke-width="2" stroke-linejoin="round"/><path d="M895.603 29.25V1.874L854.741 29.25h40.862z" stroke="#000" stroke-width="2"/><path d="M886.952 7v22m-9-15v15m-9-9v9" stroke="#000" stroke-width="2" stroke-linejoin="round"/><path d="M57.452 29.25V1.874L16.59 29.25h40.86z" stroke="#000" stroke-width="2"/><path d="M48.801 7v22m-9-15v15m-9-9v9" stroke="#000" stroke-width="2" stroke-linejoin="round"/><path d="M851.452 29.25V1.874L810.59 29.25h40.862z" stroke="#000" stroke-width="2"/><path d="M842.801 7v22m-9-15v15m-9-9v9" stroke="#000" stroke-width="2" stroke-linejoin="round"/><path d="M13.301 29.25V1.874L-27.56 29.25H13.3z" stroke="#000" stroke-width="2"/><path d="M4.65 7v22" stroke="#000" stroke-width="2" stroke-linejoin="round"/><path d="M807.301 29.25V1.874L766.44 29.25h40.861z" stroke="#000" stroke-width="2"/><path d="M798.651 7v22m-9-15v15m-9-9v9" stroke="#000" stroke-width="2" stroke-linejoin="round"/><path d="M763.151 29.25V1.874L722.289 29.25h40.862z" stroke="#000" stroke-width="2"/><path d="M754.5 7v22m-9-15v15m-9-9v9" stroke="#000" stroke-width="2" stroke-linejoin="round"/></svg>