<svg width="1142" height="18" fill="none" xmlns="http://www.w3.org/2000/svg"><path d="M1142 17H0" stroke="#000" stroke-width="2"/><path d="M972 14h19l-9.742-14L972 14zm-672 0h19l-9.742-14L300 14z" fill="#000"/><path d="M953 14h20L962.745 0 953 14zm-672 0h20L290.745 0 281 14z" fill="#000"/><path d="M935 14h19l-9.742-14L935 14zm-672 0h19l-9.742-14L263 14z" fill="#000"/><path d="M917 14h19l-9.742-14L917 14zm-672 0h19l-9.742-14L245 14z" fill="#000"/><path d="M898 14h20L907.745 0 898 14zm-672 0h20L235.745 0 226 14z" fill="#000"/><path d="M880 14h19l-9.742-14L880 14zm-672 0h19l-9.742-14L208 14z" fill="#000"/><path d="M861 14h20L870.745 0 861 14zm-672 0h20L198.745 0 189 14z" fill="#000"/><path d="M843 14h19l-9.742-14L843 14zm-672 0h19l-9.742-14L171 14z" fill="#000"/><path d="M824 14h20L833.745 0 824 14zm-672 0h20L161.745 0 152 14z" fill="#000"/><path d="M805 14h20L814.745 0 805 14zm-673 0h21L142.232 0 132 14z" fill="#000"/><path d="M786 14h20L795.745 0 786 14zm-673 0h20L122.745 0 113 14z" fill="#000"/><path d="M766 14h21L776.232 0 766 14zM93 14h21L103.232 0 93 14z" fill="#000"/><path d="M747 14h20L756.745 0 747 14zM74 14h20L83.745 0 74 14z" fill="#000"/><path d="M728 14h20L737.745 0 728 14zM55 14h20L64.745 0 55 14z" fill="#000"/><path d="M709 14h20L718.745 0 709 14zM37 14h19L46.258 0 37 14z" fill="#000"/><path d="M690 14h20L699.745 0 690 14zM18 14h20L27.745 0 18 14z" fill="#000"/><path d="M672 14h19l-9.742-14L672 14zM0 14h19L9.258 0 0 14z" fill="#000"/><path d="M654 14h19l-9.742-14L654 14z" fill="#000"/><path d="M636 14h19l-9.742-14L636 14z" fill="#000"/><path d="M617 14h20L626.745 0 617 14z" fill="#000"/><path d="M599 14h19l-9.742-14L599 14z" fill="#000"/><path d="M581 14h19l-9.742-14L581 14z" fill="#000"/><path d="M562 14h20L571.745 0 562 14z" fill="#000"/><path d="M544 14h19l-9.742-14L544 14z" fill="#000"/><path d="M525 14h20L534.745 0 525 14z" fill="#000"/><path d="M507 14h19l-9.742-14L507 14z" fill="#000"/><path d="M488 14h20L497.745 0 488 14z" fill="#000"/><path d="M469 14h20L478.745 0 469 14zm653 0h20l-10.25-14-9.75 14z" fill="#000"/><path d="M450 14h20L459.745 0 450 14zm652 0h21l-10.77-14L1102 14z" fill="#000"/><path d="M430 14h21L440.232 0 430 14zm653 0h20l-10.25-14-9.75 14z" fill="#000"/><path d="M410 14h21L420.232 0 410 14zm654 0h20l-10.25-14-9.75 14z" fill="#000"/><path d="M391 14h20L400.745 0 391 14zm655 0h19l-9.74-14-9.26 14z" fill="#000"/><path d="M373 14h19l-9.742-14L373 14zm654 0h20l-10.25-14-9.75 14z" fill="#000"/><path d="M354 14h20L363.745 0 354 14zm655 0h19l-9.74-14-9.26 14z" fill="#000"/><path d="M336 14h19l-9.742-14L336 14zm654 0h20L999.745 0 990 14z" fill="#000"/><path d="M318 14h19l-9.742-14L318 14z" fill="#000"/></svg>