<svg width="38" height="39" fill="none" xmlns="http://www.w3.org/2000/svg"><path d="M31.974 31.632a2.77 2.77 0 00-.521.055l-16.28 3.126a1.183 1.183 0 00.221 2.345h16.58a2.766 2.766 0 002.763-2.763 2.766 2.766 0 00-2.763-2.763zM21.316 14.263a2.365 2.365 0 01-2.369 2.369 2.365 2.365 0 01-2.368-2.369v-1.579a2.365 2.365 0 012.368-2.368 2.365 2.365 0 012.369 2.368v1.58z" stroke="#000" stroke-width="2" stroke-miterlimit="10"/><path d="M20.526.053V3.21l7.445 6.086c.75.616 1.05 1.627.758 2.55L25.532 21.96a14.168 14.168 0 00-.427 6.82l.727 3.988M17.369.053V3.21L9.924 9.297a2.375 2.375 0 00-.758 2.55l3.197 10.114c.695 2.202.845 4.547.427 6.82l-.727 3.988" stroke="#000" stroke-width="2" stroke-miterlimit="10"/><path d="M12.632 13.474L14.7 17.61a3.954 3.954 0 003.529 2.179h1.437a3.945 3.945 0 003.529-2.18l2.068-4.136m-6.316 20.614l-12.505-2.4a2.771 2.771 0 00-.521-.055 2.766 2.766 0 00-2.763 2.763 2.766 2.766 0 002.763 2.763h9.474m-7.24-14.921L3.711 25.52M34.184 3.005L29.74 6.29M8.155 22.237L3.711 25.52M34.184 3.005L29.74 6.29m-21.585 0L3.711 3.004m30.473 22.517l-4.445-3.284M8.155 6.29L3.711 3.004m30.473 22.517l-4.445-3.284m8.156-7.974h-5.527m-26.842 0H0" stroke="#000" stroke-width="2" stroke-miterlimit="10"/></svg>