<svg width="43" height="40" fill="none" xmlns="http://www.w3.org/2000/svg"><path d="M9.507 29.46c-.186 2.232-.742 4.729-2.122 7.307-.77 1.425-.37 1.925 1.093 1.18 4.021-2.042 6.986-3.994 9.237-5.819a25.95 25.95 0 003.595.254c11.128 0 20.143-6.862 20.143-15.341 0-8.47-9.015-15.333-20.143-15.333-11.127 0-20.142 6.863-20.142 15.342 0 5.101 3.298 9.622 8.339 12.41z" stroke="#000" stroke-width="2" stroke-miterlimit="10"/><path d="M19.068 21.126c2.715-.999 4.336-3.432 4.336-6.119v-2.396c0-.409.621-1.172.621-2.996 0-1.852-.324-2.533-1.121-3.55-.815-1.026-2.28-.835-2.28.155v.798c0 2.225-1.278 3.287-2.779 4.948 0 0-2.01 1.816-2.78 1.816H11.36l.166 10.893h2.613c1.835 0 1.436 1.816 4.021 1.816h9.784c.899 0 1.946-1.008 1.946-1.888l1.297-7.562c.287-1.707-1.047-3.26-2.807-3.26h-3.123" stroke="#000" stroke-width="2" stroke-miterlimit="10"/></svg>