<svg width="48" height="42" fill="none" xmlns="http://www.w3.org/2000/svg"><path d="M31 42V9m-5 10l5 5m4-10l-4 4" stroke="#000" stroke-width="2" stroke-miterlimit="10"/><path d="M2 39v3m1-17v8m20 6v3m-1-17v8m0-6H3v4h19v-4zm2 8H1v4h23v-4z" stroke="#000" stroke-width="2" stroke-miterlimit="10" stroke-linejoin="round"/><path d="M25 28h12.5c5.2 0 9.5-4.3 9.5-9.5 0-4.4-3-8.1-7.1-9.2-.6-4.7-4.6-8.3-9.4-8.3-4.8 0-8.8 3.6-9.4 8.3-4.1 1.1-7.1 4.8-7.1 9.2 0 2.1.6 3.9 1.8 5.5" stroke="#000" stroke-width="2" stroke-miterlimit="10"/></svg>