<svg width="42" height="33" fill="none" xmlns="http://www.w3.org/2000/svg"><path d="M26.678 23.434H15.322V2.804h11.357v20.63z" fill="#6C6BBD"/><path d="M16.043 13.12c0-4.185 1.938-7.913 4.957-10.315A12.837 12.837 0 0012.978 0C5.81 0 0 5.874 0 13.12c0 7.246 5.81 13.12 12.978 13.12 3.028 0 5.814-1.049 8.022-2.805a13.148 13.148 0 01-4.957-10.315" fill="#D32011"/><path d="M42 13.12c0 7.246-5.81 13.12-12.978 13.12A12.84 12.84 0 0121 23.435a13.147 13.147 0 004.957-10.315c0-4.185-1.938-7.913-4.957-10.315A12.841 12.841 0 0129.022 0C36.19 0 42 5.874 42 13.12z" fill="#0099DF"/><path d="M30.521 29.264c.15 0 .368.029.534.095l-.231.713a1.202 1.202 0 00-.469-.087c-.49 0-.735.32-.735.896v1.953h-.75v-3.483h.742v.423c.195-.306.477-.51.909-.51zm-2.771.78h-1.226v1.573c0 .35.122.583.498.583.195 0 .44-.066.663-.197l.216.648c-.238.168-.613.27-.937.27-.887 0-1.196-.48-1.196-1.29v-1.588h-.7v-.692h.7v-1.057h.756v1.057h1.226v.692zm-9.597.742c.08-.503.382-.845.916-.845.483 0 .793.306.872.845h-1.788zm2.568.307c-.008-1.087-.671-1.83-1.638-1.83-1.009 0-1.715.743-1.715 1.83 0 1.107.735 1.828 1.766 1.828.52 0 .995-.131 1.413-.488l-.368-.561a1.627 1.627 0 01-1.002.364c-.482 0-.922-.226-1.03-.852h2.559c.007-.095.014-.19.014-.291zm3.294-.853a2.193 2.193 0 00-1.074-.3c-.41 0-.656.154-.656.41 0 .232.26.298.584.341l.353.051c.75.11 1.204.43 1.204 1.043 0 .663-.577 1.137-1.571 1.137-.563 0-1.082-.146-1.493-.452l.353-.59c.252.196.628.364 1.147.364.512 0 .786-.153.786-.423 0-.196-.195-.306-.606-.364l-.353-.05c-.772-.11-1.19-.46-1.19-1.028 0-.693.563-1.116 1.435-1.116.548 0 1.045.125 1.405.365l-.324.612zm9.246-.257c-.154 0-.296.028-.43.082a1.032 1.032 0 00-.57.585 1.21 1.21 0 00-.083.454c0 .166.027.317.083.455a1.03 1.03 0 00.571.585c.133.055.275.081.43.081.154 0 .297-.026.43-.081a1.03 1.03 0 00.575-.585c.055-.138.082-.289.082-.455a1.21 1.21 0 00-.082-.454 1.03 1.03 0 00-.575-.585 1.121 1.121 0 00-.43-.082zm0-.72c.268 0 .515.047.743.141a1.773 1.773 0 01.981.97c.095.224.142.468.142.73 0 .263-.047.507-.142.731a1.777 1.777 0 01-.98.97c-.229.093-.476.14-.744.14a1.94 1.94 0 01-.742-.14 1.793 1.793 0 01-.588-.387 1.797 1.797 0 01-.39-.583 1.872 1.872 0 01-.14-.73c0-.264.047-.507.14-.731a1.782 1.782 0 01.977-.97c.228-.094.476-.14.743-.14zm-19.488 1.83c0-.613.397-1.116 1.046-1.116.62 0 1.038.482 1.038 1.116 0 .634-.419 1.114-1.038 1.114-.649 0-1.046-.502-1.046-1.114zm2.79 0V29.35h-.75v.423c-.238-.314-.597-.51-1.088-.51-.966 0-1.723.764-1.723 1.829 0 1.063.757 1.829 1.723 1.829.49 0 .85-.197 1.089-.51v.422h.75v-1.741zm-4.224 1.741v-2.186c0-.823-.52-1.377-1.355-1.385-.44-.007-.895.131-1.212.62-.238-.386-.613-.62-1.14-.62-.367 0-.727.11-1.009.517v-.429h-.749v3.483h.757v-1.93c0-.605.331-.927.843-.927.498 0 .75.328.75.919v1.938h.757v-1.93c0-.605.347-.927.843-.927.513 0 .758.328.758.919v1.938h.757z" fill="#110F0D"/></svg>