<svg width="132" height="123" fill="none" xmlns="http://www.w3.org/2000/svg"><path d="M71.422-74.544a135.965 135.965 0 00-4.602-35.128 135.061 135.061 0 00-13.578-32.773l-.022-.038-.014-.025-.01-.015a136.149 136.149 0 00-21.583-28.085 136.196 136.196 0 00-28.087-21.584l-.015-.009c-.009-.004-.016-.01-.023-.015l-.039-.022a134.98 134.98 0 00-32.774-13.579 135.862 135.862 0 00-35.137-4.602h-.072c-11.91 0-23.733 1.548-35.137 4.602a135.045 135.045 0 00-32.774 13.579l-.038.022c-.009.005-.017.009-.025.015l-.015.009a136.196 136.196 0 00-28.085 21.584 136.25 136.25 0 00-21.584 28.085l-.024.04-.007.013-.015.025a135.01 135.01 0 00-13.58 32.774 135.901 135.901 0 00-4.601 35.128v.089a135.88 135.88 0 004.601 35.128 135.024 135.024 0 0013.58 32.774l.022.038a.155.155 0 00.015.024l.009.015a136.197 136.197 0 0021.584 28.086 136.151 136.151 0 0028.085 21.583l.015.009.025.016.038.022a135.059 135.059 0 0032.774 13.58c11.4 3.051 23.218 4.6 35.128 4.602h.089a135.95 135.95 0 0035.128-4.602A135.052 135.052 0 003.448 43.24l.038-.022a.648.648 0 00.025-.016l.014-.009A136.128 136.128 0 0031.61 21.611 136.179 136.179 0 0053.194-6.474l.025-.039.017-.03.005-.008a135.07 135.07 0 0013.578-32.774 135.98 135.98 0 004.602-35.128v-.044l.001-.046zM-98.57 52.707a130.814 130.814 0 01-31.783-13.177l-.019-.011A131.98 131.98 0 01-157.597 18.6a132.004 132.004 0 01-20.918-27.225l-.012-.02a130.777 130.777 0 01-13.176-31.78 131.693 131.693 0 01-4.457-34.073 131.651 131.651 0 014.457-34.07 130.77 130.77 0 0113.176-31.783 131.996 131.996 0 0120.93-27.245 131.966 131.966 0 0127.245-20.931 130.91 130.91 0 0131.783-13.175 131.672 131.672 0 0134.04-4.457h.063c11.543 0 22.994 1.5 34.04 4.457a130.781 130.781 0 0131.78 13.175 131.987 131.987 0 0127.248 20.931 131.924 131.924 0 0120.93 27.245l.014.028a130.847 130.847 0 0113.162 31.755 131.645 131.645 0 014.455 34.07 131.734 131.734 0 01-4.455 34.072 130.73 130.73 0 01-13.176 31.78l-.012.02A131.932 131.932 0 0128.6 18.602a131.923 131.923 0 01-27.246 20.93l-.027.014a130.746 130.746 0 01-31.755 13.16 131.739 131.739 0 01-34.04 4.456h-.064a131.726 131.726 0 01-34.04-4.454z" fill="#000" fill-opacity=".2"/><path d="M12.08-22.055l-.04-.04-.032.046A93.654 93.654 0 012.985-10.87l-.024.025.02.03a201.716 201.716 0 014.03 6.498l.006.01.01.006a208.424 208.424 0 0027.69 13.125l.123.047-.07-.113C28.124-2.262 20.49-12.63 12.08-22.055zM1.794-9.55l-.032-.05-.04.043A93.692 93.692 0 01-9.098-.105l-.028.023.013.032a203.892 203.892 0 012.849 7.097l.004.012.009.007a208.233 208.233 0 0025.007 17.708l.112.07-.048-.123C14.18 12.731 8.452 1.201 1.794-9.55zM-10.503.993l-.021-.055-.049.034a93.457 93.457 0 01-7.56 4.879A93.059 93.059 0 01-22.85 8.4l-.034.016.01.035a199.058 199.058 0 011.574 7.484l.002.012.007.009A206.969 206.969 0 00.263 37.733l.1.087-.024-.13C-2.15 25.088-5.795 12.74-10.503.993zm-54 14.484h.049a90.124 90.124 0 0023.263-3.042 89.204 89.204 0 0021.635-8.963l.037-.022.038-.023A90.309 90.309 0 00-.875-10.875a90.389 90.389 0 0014.304-18.607l.008-.015.015-.024.022-.038a89.274 89.274 0 008.963-21.634A90.164 90.164 0 0025.48-74.5a90.223 90.223 0 00-3.043-23.308 89.114 89.114 0 00-8.963-21.632l-.022-.039-.022-.04A90.385 90.385 0 00-.874-138.125a90.263 90.263 0 00-18.606-14.302l-.038-.022-.012-.007-.025-.015a89.232 89.232 0 00-21.634-8.963 90.185 90.185 0 00-23.3-3.043h-.015a90.177 90.177 0 00-23.3 3.043 89.206 89.206 0 00-21.634 8.963l-.007.004-.03.018-.039.022a90.281 90.281 0 00-18.606 14.302 90.345 90.345 0 00-14.303 18.606l-.009.015-.014.025-.022.039a89.125 89.125 0 00-8.963 21.634 90.16 90.16 0 00-3.045 23.308 90.25 90.25 0 003.043 23.306 89.201 89.201 0 008.963 21.634l.005.008a.24.24 0 00.017.03l.022.038a90.348 90.348 0 0014.303 18.607 90.353 90.353 0 0018.606 14.302l.039.023.03.016.007.004a89.267 89.267 0 0021.634 8.963 90.186 90.186 0 0023.264 3.043h.04v.001zm-22.722-5.218a86.835 86.835 0 01-21.126-8.76 88.046 88.046 0 01-18.178-13.968 88.037 88.037 0 01-13.969-18.178 87.012 87.012 0 01-8.759-21.126 87.946 87.946 0 01-2.968-22.727c0-7.72.999-15.368 2.968-22.727a87.009 87.009 0 018.743-21.1l.016-.026a88.066 88.066 0 0113.968-18.179 88.148 88.148 0 0118.179-13.969 87.054 87.054 0 0121.126-8.758 87.945 87.945 0 0122.73-2.967 87.9 87.9 0 0122.723 2.967 87.079 87.079 0 0121.126 8.758 88.1 88.1 0 0118.178 13.969 88.098 88.098 0 0113.967 18.179l.017.026a86.978 86.978 0 018.743 21.1A87.937 87.937 0 0123.227-74.5c0 7.723-1 15.372-2.968 22.727a86.851 86.851 0 01-8.76 21.126l-.011.019A87.982 87.982 0 01-2.468-12.47 88.062 88.062 0 01-20.646 1.498l-.012.008a86.898 86.898 0 01-21.115 8.752A87.985 87.985 0 01-64.5 13.225h-.004a87.92 87.92 0 01-22.721-2.966zM36.762 22.452a2.763 2.763 0 00-.574.621 2.742 2.742 0 002.28 4.263 2.743 2.743 0 002.146-4.456 2.738 2.738 0 00-3.852-.428zm-7.885 7.591a2.82 2.82 0 00-.399.387 2.74 2.74 0 004.006 3.733 2.742 2.742 0 00.245-3.69 2.738 2.738 0 00-3.852-.43zM47.28 14.14a2.744 2.744 0 10-1.523 5.026 2.73 2.73 0 002.28-1.226 2.74 2.74 0 00-.758-3.8zM11.687 43.175a2.74 2.74 0 103.118 4.507 2.741 2.741 0 00-3.118-4.507zm8.827-6.225a2.742 2.742 0 003.153 4.484c.068-.046.133-.093.193-.145a2.74 2.74 0 00-3.346-4.339zM53.922 5.437a2.742 2.742 0 00-3.663.574 2.742 2.742 0 002.14 4.451 2.728 2.728 0 002.283-1.225 2.74 2.74 0 00-.76-3.8zm5.665-9.355a2.739 2.739 0 00-3.612 1.102 2.737 2.737 0 00.863 3.63 2.737 2.737 0 003.973-1.058 2.734 2.734 0 00-1.224-3.674zM2.555 48.618a2.74 2.74 0 102.774 4.718 2.741 2.741 0 00-2.774-4.718zM88.632-3.9l-.13.278c.824-1.779 1.62-3.57 2.383-5.376-4.786.68-9.55 1.167-14.28 1.469a169.768 169.768 0 00-2.11-2.9l-.73 1.555a183.35 183.35 0 019.818 15.013 170.04 170.04 0 004.5-8.867l-.254.541a192.256 192.256 0 019.423 15.785 183.66 183.66 0 007.981-16.542A194.176 194.176 0 0190.668-.842c-.67-1.03-1.348-2.047-2.037-3.057z" fill="#000" fill-opacity=".2"/><path d="M80.834 10.987l-.232.385a169.328 169.328 0 002.98-5.233 186.47 186.47 0 01-14.354.035 184.43 184.43 0 00-1.812-3.096l-.882 1.478a184.611 184.611 0 018.27 15.919c1.892-2.773 3.7-5.602 5.426-8.48l-.371.62a193.807 193.807 0 017.805 16.642 184.022 184.022 0 009.588-15.661c-4.94.401-9.842.61-14.7.633a173.695 173.695 0 00-1.718-3.242z" fill="#000" fill-opacity=".2"/><path d="M71.584 25.024l-.196.267a172.045 172.045 0 003.418-4.816c-4.826-.285-9.593-.75-14.29-1.392a182.804 182.804 0 00-1.493-3.26l-1.025 1.384a185.146 185.146 0 016.647 16.66 168.429 168.429 0 006.147-7.774l-.336.456a193.446 193.446 0 016.112 17.334 184.607 184.607 0 0011.096-14.625 193.955 193.955 0 01-14.687-.833 208.6 208.6 0 00-1.393-3.401z" fill="#000" fill-opacity=".2"/><path d="M60.992 38.077l-1.27 1.398a195.399 195.399 0 014.367 17.854A185.2 185.2 0 0076.571 43.88a195.576 195.576 0 01-14.532-2.284c-.34-1.179-.688-2.354-1.047-3.52zM49.16 50.01l-1.409 1.27a193.303 193.303 0 012.577 18.2 186.157 186.157 0 0013.76-12.15 194.42 194.42 0 01-14.236-3.715c-.22-1.205-.452-2.409-.692-3.605z" fill="#000" fill-opacity=".2"/><path d="M49.402 27.674l-1.154 1.271a186.562 186.562 0 014.966 17.239 170.286 170.286 0 0011.432-12.317 184.88 184.88 0 01-14.08-2.801c-.378-1.14-.768-2.268-1.164-3.392zM38.657 38.512l-1.279 1.153a185.838 185.838 0 013.235 17.647 170.218 170.218 0 0012.601-11.128 187.24 187.24 0 01-13.736-4.181 177.065 177.065 0 00-.821-3.491zM36.2 60.718l-.285.208a161.386 161.386 0 004.696-3.614c-4.53-1.687-8.95-3.53-13.252-5.52-.144-1.19-.304-2.376-.472-3.558l-1.385 1.024a185.992 185.992 0 011.47 17.877 166.427 166.427 0 008.197-5.659l-.499.369c.539 6.03.797 12.16.76 18.365a184.18 184.18 0 0014.897-10.727 195.838 195.838 0 01-13.798-5.106 156.139 156.139 0 00-.33-3.659z" fill="#000" fill-opacity=".2"/><path d="M22.243 70.086l-.357.213a170.979 170.979 0 005.087-3.165 185.23 185.23 0 01-12.639-6.81 160.378 160.378 0 00-.116-3.584l-1.475.877c.187 5.91.082 11.893-.318 17.934a167.359 167.359 0 008.759-4.836l-.567.337a192.621 192.621 0 01-1.075 18.351 184.704 184.704 0 0015.89-9.193 193.478 193.478 0 01-13.223-6.45c.023-1.228.034-2.454.034-3.674zM7.424 78.014l-.326.154c1.79-.842 3.567-1.713 5.326-2.618A184.683 184.683 0 01.532 67.513c.093-1.195.174-2.388.242-3.578l-1.56.728a183.656 183.656 0 01-2.108 17.812 167.69 167.69 0 009.15-3.915l-.55.257a192.077 192.077 0 01-2.907 18.152 182.598 182.598 0 0016.742-7.565 194.12 194.12 0 01-12.518-7.735c.147-1.224.28-2.438.401-3.655z" fill="#000" fill-opacity=".2"/><path d="M-8.117 84.424l-.375.131a166.313 166.313 0 005.598-2.082 184.213 184.213 0 01-11.027-9.189c.211-1.178.412-2.358.598-3.535l-1.624.566a183.146 183.146 0 01-3.882 17.51 169.468 169.468 0 009.525-2.985l-.604.208a191.322 191.322 0 01-4.712 17.771 183.142 183.142 0 0017.42-5.85 192.586 192.586 0 01-11.678-8.95c.267-1.2.52-2.399.761-3.595z" fill="#000" fill-opacity=".2"/><path d="M-64.499 78.576c-20.665 0-40.712-4.047-59.583-12.027-18.229-7.711-34.599-18.75-48.656-32.806-14.058-14.059-25.096-30.429-32.805-48.657-7.983-18.872-12.03-38.919-12.03-59.584 0-20.663 4.047-40.712 12.03-59.583 7.709-18.229 18.746-34.599 32.805-48.658 14.059-14.059 30.427-25.095 48.656-32.805 18.871-7.982 38.92-12.029 59.583-12.029 20.665 0 40.712 4.047 59.584 12.029 18.228 7.71 34.6 18.746 48.657 32.805 14.056 14.059 25.095 30.429 32.804 48.658 7.982 18.873 12.03 38.92 12.03 59.583 0 20.665-4.048 40.712-12.03 59.584-7.71 18.228-18.748 34.6-32.804 48.657C29.683 47.8 13.313 58.838-4.915 66.55c-18.872 7.98-38.919 12.027-59.584 12.027zm0-303.587c-82.993 0-150.512 67.518-150.512 150.512 0 82.993 67.519 150.513 150.512 150.513 82.994 0 150.514-67.52 150.514-150.513-.002-82.992-67.522-150.512-150.514-150.512z" fill="#000" fill-opacity=".2"/><path d="M-64.5 122.002c-26.526 0-52.261-5.197-76.488-15.444-23.399-9.897-44.414-24.064-62.458-42.11-18.045-18.046-32.212-39.06-42.11-62.459C-255.804-22.239-261-47.972-261-74.498c0-26.527 5.196-52.261 15.444-76.488 9.898-23.4 24.065-44.414 42.11-62.458 18.044-18.046 39.059-32.214 62.458-42.112C-116.759-265.804-91.026-271-64.5-271c26.526 0 52.26 5.196 76.488 15.444 23.4 9.898 44.412 24.066 62.458 42.112 18.047 18.045 32.213 39.058 42.11 62.458C126.805-126.759 132-101.025 132-74.499c0 26.527-5.195 52.261-15.444 76.488-9.898 23.4-24.063 44.414-42.11 62.458-18.044 18.047-39.059 32.214-62.458 42.111-24.227 10.247-49.96 15.444-76.488 15.444zm0-387.942c-105.56 0-191.441 85.88-191.441 191.441 0 105.562 85.881 191.442 191.441 191.442 105.561 0 191.441-85.88 191.441-191.442 0-105.561-85.878-191.441-191.441-191.441z" fill="#000" fill-opacity=".2"/></svg>