<svg width="224" height="238" fill="none" xmlns="http://www.w3.org/2000/svg"><path d="M196.5 22.294c-10.039 0-18.206 8.168-18.206 18.206 0 10.039 8.168 18.207 18.206 18.207 10.04 0 18.207-8.168 18.207-18.207.001-10.038-8.167-18.206-18.207-18.206zm0 34.3c-8.873 0-16.091-7.22-16.091-16.092 0-8.873 7.218-16.092 16.091-16.092 8.873 0 16.093 7.219 16.093 16.092 0 8.873-7.218 16.091-16.093 16.091zM219.102 40.5c.005 3.97-1.04 7.88-3.021 11.297a22.743 22.743 0 01-8.284 8.284c2.957 1.177 6.36 1.792 9.985 1.7 3.622-.09 7.468-.886 11.274-2.477-.517-4.093-1.74-7.83-3.478-11.012-1.734-3.186-3.977-5.806-6.476-7.792zm-33.898 19.581c.454 3.15 1.611 6.404 3.505 9.497 1.889 3.093 4.52 6.016 7.79 8.513 3.27-2.497 5.903-5.422 7.792-8.513 1.895-3.091 3.052-6.346 3.506-9.495a22.5 22.5 0 01-11.297 3.02 22.5 22.5 0 01-11.296-3.022zm-8.285-8.284a22.491 22.491 0 01-3.02-11.297c-2.499 1.984-4.741 4.606-6.477 7.792-1.737 3.182-2.96 6.919-3.478 11.012 3.807 1.591 7.652 2.388 11.275 2.478 3.625.091 7.026-.524 9.985-1.7a22.753 22.753 0 01-8.285-8.285z" fill="#000" fill-opacity=".2"/><path d="M185.204 20.92c-2.956-1.177-6.358-1.792-9.983-1.7-3.623.09-7.468.886-11.275 2.478.518 4.093 1.741 7.83 3.478 11.013 1.736 3.186 3.978 5.808 6.476 7.792a22.482 22.482 0 013.021-11.297 22.748 22.748 0 018.283-8.285zm22.594 0c-.454-3.148-1.611-6.404-3.505-9.497-1.889-3.092-4.52-6.016-7.79-8.513-3.27 2.497-5.903 5.42-7.792 8.514-1.895 3.091-3.052 6.348-3.506 9.497a22.5 22.5 0 0111.296-3.021 22.5 22.5 0 0111.297 3.02zm8.285 8.285a22.502 22.502 0 013.021 11.297c2.498-1.984 4.74-4.606 6.476-7.79 1.737-3.182 2.96-6.92 3.479-11.013-3.807-1.59-7.652-2.387-11.274-2.477-3.625-.092-7.027.523-9.985 1.7a22.74 22.74 0 018.283 8.283zm-54.417 7.414l-3.892 3.89 3.892 3.892 3.891-3.891-3.891-3.891zm18.982 30.041l-5.315 1.424 1.424 5.316 5.315-1.424-1.424-5.316zm34.111-59.068l-5.316 1.425 1.425 5.315 5.315-1.425-1.424-5.315zm-3.901 59.072l-1.424 5.315 5.315 1.424 1.424-5.315-5.315-1.424zM176.766 7.612l-1.424 5.315 5.315 1.424 1.424-5.315-5.315-1.424z" fill="#000" fill-opacity=".2"/><path d="M196.5-3.79c-24.422 0-44.292 19.868-44.292 44.291 0 24.422 19.869 44.29 44.292 44.29 24.423 0 44.291-19.868 44.291-44.29 0-24.423-19.868-44.291-44.291-44.291zm0 86.467c-23.257 0-42.177-18.92-42.177-42.176S173.243-1.675 196.5-1.675c23.256 0 42.176 18.92 42.176 42.176.002 23.255-18.92 42.176-42.176 42.176z" fill="#000" fill-opacity=".2"/><path d="M269.651 39.927h-.004a73.522 73.522 0 00-1.386-13.69 72.703 72.703 0 00-3.95-13.208l.004-.001-.174-.419c-.015-.037-.029-.075-.046-.114v.002l-.001-.003.001.001c-.014-.035-.031-.07-.045-.107l-.176-.424-.006.003a72.916 72.916 0 00-6.547-12.12 73.527 73.527 0 00-8.696-10.664l.003-.003-.403-.409-.408-.404-.003.003a72.993 72.993 0 00-22.783-15.242l.003-.005-.424-.176-.107-.046.001.002-.003-.002h.002c-.037-.016-.075-.03-.112-.045l-.419-.174-.002.006a72.799 72.799 0 00-13.209-3.95 73.59 73.59 0 00-13.689-1.387v-.004l-.572-.003-.572.003v.004a73.462 73.462 0 00-13.689 1.387 72.646 72.646 0 00-13.208 3.95l-.001-.005-.424.176-.109.044h.002l-.003.001.001-.001a2.73 2.73 0 00-.097.043l-.434.18.003.005a73.026 73.026 0 00-22.784 15.244l-.003-.003-.407.402-.404.409.003.003A73.53 73.53 0 00135.677-.15a73.097 73.097 0 00-6.545 12.119l-.006-.003-.176.425c-.014.035-.031.07-.045.107l.001-.001-.001.003v-.002c-.017.037-.03.076-.046.114l-.174.419.004.001a72.635 72.635 0 00-3.949 13.21 73.58 73.58 0 00-1.387 13.688h-.004l-.003.573.003.572h.004a73.605 73.605 0 001.385 13.69 72.702 72.702 0 003.95 13.208l-.005.001.177.43c.015.034.027.069.042.103v-.002l.001.003h-.001l.04.095.181.436.006-.003a72.983 72.983 0 0015.242 22.785l-.003.003.404.407.408.404.003-.003a73.592 73.592 0 0010.664 8.696 73.041 73.041 0 0012.119 6.546l-.003.006.43.178.101.044-.001-.001.003.001s-.002 0-.002.002l.109.044.424.176.001-.005a72.604 72.604 0 0013.21 3.95 73.485 73.485 0 0013.688 1.386v.005l.573.003.573-.003v-.005a73.411 73.411 0 0013.689-1.386 72.63 72.63 0 0013.208-3.95l.001.005.419-.174c.037-.017.075-.03.114-.046h-.002l.003-.002v.002l.108-.046.423-.175-.003-.006a73.088 73.088 0 0012.121-6.546 73.5 73.5 0 0010.664-8.696l.003.003.407-.403.404-.408-.003-.003a73.527 73.527 0 008.696-10.664 73.173 73.173 0 006.546-12.12l.006.002.175-.425.046-.106c-.002 0-.002 0-.002.002l.002-.003.001.003.046-.114.174-.419-.004-.001a72.913 72.913 0 003.95-13.21 73.664 73.664 0 001.386-13.688h.004l.003-.573-.006-.58zm-.51.005l-11.482.088a61.356 61.356 0 00-1.074-10.983 60.177 60.177 0 016.506 4.911 66.33 66.33 0 016.05 5.984zm-24.634 26.22a50.48 50.48 0 00-3.183-6.678l10.589 4.49a59.942 59.942 0 01-5.129 9.574 54.833 54.833 0 00-2.277-7.385zm1.757 8.165a60.382 60.382 0 01-6.89 8.387l-8.196-8.067c2.398.299 4.867.435 7.393.385a55.367 55.367 0 007.693-.706zm-4.636-15.545a50.728 50.728 0 006.963-2.469 54.998 54.998 0 006.83-3.6 59.306 59.306 0 01-3.146 10.386l-10.647-4.317zm9.032-12.93a52.23 52.23 0 00-5.501-4.959l11.501.089a60.335 60.335 0 01-1.056 10.81 55.282 55.282 0 00-4.944-5.94zm-6.153-30.994a54.979 54.979 0 002.277-7.385 59.94 59.94 0 015.129 9.574l-10.589 4.49a50.605 50.605 0 003.183-6.68zm-5.936-8.869a51.434 51.434 0 00-7.394.385l8.196-8.069a60.451 60.451 0 016.889 8.386c-2.6-.417-5.172-.65-7.691-.702zm13.704 11.93a59.329 59.329 0 013.145 10.386 54.728 54.728 0 00-6.83-3.6 50.788 50.788 0 00-6.963-2.468l10.648-4.317zm-7.115 22.207a51.859 51.859 0 005.5-4.959 55.4 55.4 0 004.943-5.94 60.426 60.426 0 011.057 10.81l-11.5.09zm15.384-19.041a59.77 59.77 0 01-4.146 7.013 60.623 60.623 0 00-3.196-10.553l10.64-4.314a64.638 64.638 0 01-3.298 7.854zm-5.027-12.124a64.51 64.51 0 017.896 3.211l-10.58 4.485a60.865 60.865 0 00-5.211-9.728 60.07 60.07 0 017.895 2.032zm-7.243-19.419a65.29 65.29 0 01-.053 8.518 60.522 60.522 0 01-1.137 8.065 61.376 61.376 0 00-6.999-8.52l8.189-8.063zm-9.323-.752a65.237 65.237 0 018.518-.053l-8.062 8.189a61.343 61.343 0 00-8.521-6.999 60.293 60.293 0 018.065-1.137zm-.246 8.848l-8.068 8.195c.298-2.398.437-4.867.385-7.392a55.595 55.595 0 00-.704-7.692 60.356 60.356 0 018.387 6.89zm-13.866-24.04a64.45 64.45 0 013.211 7.896 60.278 60.278 0 012.032 7.894 60.848 60.848 0 00-9.727-5.21l4.484-10.58zm4.699 16.629a55.112 55.112 0 00-7.385 2.277 50.779 50.779 0 00-6.677 3.183l4.49-10.588a59.887 59.887 0 019.572 5.128zm-13.613-13.76a64.713 64.713 0 017.855-3.297l-4.314 10.64a60.356 60.356 0 00-10.553-3.197 59.733 59.733 0 017.012-4.146zm3.166 8.269l-4.317 10.649a50.776 50.776 0 00-2.469-6.965 55.214 55.214 0 00-3.599-6.83 59.64 59.64 0 0110.385 3.146zM197.069-32.14a66.32 66.32 0 015.984 6.049 60.467 60.467 0 014.912 6.506 61.426 61.426 0 00-10.984-1.074l.088-11.48zm-.096 12.482c3.627.027 7.25.38 10.812 1.056a55.467 55.467 0 00-5.941 4.943 52.207 52.207 0 00-4.958 5.501l.087-11.5zm-.856 11.5a52.218 52.218 0 00-4.959-5.501 55.467 55.467 0 00-5.941-4.943 60.295 60.295 0 0110.811-1.056l.089 11.5zm-6.169-17.932a66.245 66.245 0 015.984-6.048l.089 11.48a61.289 61.289 0 00-10.984 1.074 60.17 60.17 0 014.911-6.506zM173.91-15.274a59.536 59.536 0 0110.385-3.146 54.945 54.945 0 00-3.599 6.83 50.821 50.821 0 00-2.469 6.963l-4.317-10.647zm3.617 10.951a50.612 50.612 0 00-6.679-3.181 55.067 55.067 0 00-7.385-2.278 59.757 59.757 0 019.576-5.128l4.488 10.587zm-.452-19.22a59.887 59.887 0 017.014 4.146 60.579 60.579 0 00-10.553 3.196l-4.315-10.64a64.765 64.765 0 017.854 3.298zm-12.123 5.027a64.443 64.443 0 013.21-7.895l4.486 10.58a60.84 60.84 0 00-9.729 5.21 59.986 59.986 0 012.033-7.895zm-2.587 24.34l-8.07-8.196a60.41 60.41 0 018.388-6.889 55.438 55.438 0 00-.703 7.692c-.05 2.525.087 4.994.385 7.393zm-13.871 60.329a55.122 55.122 0 00-2.277 7.385 59.792 59.792 0 01-5.128-9.575l10.588-4.489a50.987 50.987 0 00-3.183 6.679zm5.937 8.868a51.443 51.443 0 007.394-.384l-8.196 8.069a60.387 60.387 0 01-6.89-8.388c2.602.419 5.173.652 7.692.704zm-13.705-11.93a59.411 59.411 0 01-3.144-10.385 54.784 54.784 0 006.83 3.599 50.52 50.52 0 006.963 2.467l-10.649 4.319zm-3.327-11.307a60.242 60.242 0 01-1.056-10.81l11.5-.09a51.957 51.957 0 00-5.5 4.96 55.29 55.29 0 00-4.944 5.94zm-1.056-11.755c.026-3.627.38-7.249 1.056-10.811a55.503 55.503 0 004.942 5.941 52.326 52.326 0 005.502 4.959l-11.5-.089zm8.069-15.332a54.46 54.46 0 00-6.83 3.6 59.542 59.542 0 013.144-10.384l10.649 4.317a50.322 50.322 0 00-6.963 2.467zm-3.323-7.66a59.855 59.855 0 015.128-9.574 55.123 55.123 0 002.277 7.385 50.621 50.621 0 003.183 6.677l-10.588-4.488zm5.65-10.353a60.313 60.313 0 016.89-8.388l8.196 8.068a51.619 51.619 0 00-7.392-.385 55.35 55.35 0 00-7.694.705zm7.311-17.904c2.773.2 5.464.59 8.065 1.137a61.44 61.44 0 00-8.52 6.999l-8.062-8.189a65.22 65.22 0 018.517.053zm-9.322.754l8.188 8.062a61.369 61.369 0 00-6.998 8.52 60.556 60.556 0 01-1.137-8.064 65.11 65.11 0 01-.053-8.518zm-7.244 19.417a60.128 60.128 0 017.894-2.03 60.856 60.856 0 00-5.209 9.726l-10.58-4.485a64.56 64.56 0 017.895-3.21zm2.316 8.584a60.28 60.28 0 00-3.196 10.553 59.77 59.77 0 01-4.146-7.013 64.638 64.638 0 01-3.298-7.854l10.64 4.314zm-9.891 16.415a60.374 60.374 0 016.506-4.912 61.342 61.342 0 00-1.074 10.984l-11.482-.089a66.198 66.198 0 016.05-5.983zm-6.047 7.119l11.482-.089a61.355 61.355 0 001.074 10.984 60.289 60.289 0 01-6.506-4.911 65.884 65.884 0 01-6.05-5.984zm8.596 18.857a59.641 59.641 0 014.146-7.014 60.575 60.575 0 003.196 10.554l-10.64 4.314a64.638 64.638 0 013.298-7.854zm5.026 12.125a64.55 64.55 0 01-7.895-3.21l10.58-4.486a60.943 60.943 0 005.21 9.728 60.67 60.67 0 01-7.895-2.032zm7.244 19.417c-.169-2.9-.149-5.747.053-8.517.202-2.773.59-5.465 1.137-8.065a61.437 61.437 0 006.998 8.52l-8.188 8.062zm9.322.754a65.5 65.5 0 01-8.517.053l8.062-8.189a61.455 61.455 0 008.52 7c-2.6.546-5.292.934-8.065 1.136zm.247-8.848l8.068-8.196a51.636 51.636 0 00-.385 7.392c.051 2.52.284 5.09.703 7.692a60.338 60.338 0 01-8.386-6.888zm13.865 24.038a64.377 64.377 0 01-3.21-7.895 60.28 60.28 0 01-2.033-7.894 60.933 60.933 0 009.727 5.21l-4.484 10.579zm-4.699-16.628a55.068 55.068 0 007.385-2.277 50.613 50.613 0 006.679-3.183l-4.49 10.588a59.902 59.902 0 01-9.574-5.128zm13.614 13.759a64.607 64.607 0 01-7.854 3.298l4.314-10.64a60.27 60.27 0 0010.553 3.196 59.663 59.663 0 01-7.013 4.146zm-3.165-8.268l4.317-10.649a50.689 50.689 0 002.469 6.963 54.574 54.574 0 003.599 6.83 59.377 59.377 0 01-10.385-3.144zm22.022 16.866a66.218 66.218 0 01-5.984-6.05 60.222 60.222 0 01-4.912-6.506 61.26 61.26 0 0010.984 1.073l-.088 11.483zm.096-12.482a60.48 60.48 0 01-10.812-1.056 55.29 55.29 0 005.941-4.943 52.34 52.34 0 004.959-5.501l-.088 11.5zm-8.943-12.903a47.795 47.795 0 01-8.941-2.7l-.15-.063a48.073 48.073 0 01-8.252-4.426 48.465 48.465 0 01-13.31-13.31 48.146 48.146 0 01-4.425-8.249l-.063-.152a47.767 47.767 0 01-2.701-8.94 48.61 48.61 0 01-.917-9.415c0-3.17.307-6.324.917-9.414a47.72 47.72 0 012.708-8.96l.047-.115a48.2 48.2 0 0110.435-15.576 48.443 48.443 0 017.307-6 48.153 48.153 0 018.243-4.424l.163-.068a47.708 47.708 0 018.936-2.7 48.57 48.57 0 019.415-.917c3.171.002 6.324.307 9.414.918a47.717 47.717 0 018.951 2.705l.13.053a48.072 48.072 0 018.261 4.43 48.55 48.55 0 017.308 6.003 48.545 48.545 0 016.002 7.307A48.078 48.078 0 01241 22.015l.044.106a47.637 47.637 0 012.711 8.966c.612 3.09.917 6.243.919 9.414a48.611 48.611 0 01-.919 9.415 47.8 47.8 0 01-2.696 8.93l-.073.173a48.019 48.019 0 01-4.42 8.237 48.44 48.44 0 01-13.31 13.31 48.063 48.063 0 01-8.26 4.43l-.126.052a47.661 47.661 0 01-8.956 2.706 48.56 48.56 0 01-9.414.918 48.339 48.339 0 01-9.413-.916zm42.453 3.028a59.87 59.87 0 01-9.576 5.128l-4.489-10.588a50.85 50.85 0 006.678 3.183 55.097 55.097 0 007.387 2.277zm-32.655-1.625a51.957 51.957 0 004.959 5.5 55.29 55.29 0 005.941 4.942 60.343 60.343 0 01-10.812 1.056l-.088-11.498zm6.168 17.932a66.071 66.071 0 01-5.984 6.048l-.088-11.481a61.27 61.27 0 0010.984-1.073 60.222 60.222 0 01-4.912 6.506zm9.252-14.502a50.689 50.689 0 002.469-6.963l4.317 10.649a59.377 59.377 0 01-10.385 3.145 54.477 54.477 0 003.599-6.83zm3.621 11.954a59.776 59.776 0 01-7.013-4.146 60.578 60.578 0 0010.553-3.196l4.314 10.64a64.607 64.607 0 01-7.854-3.298zm12.125-5.026a64.377 64.377 0 01-3.21 7.895l-4.486-10.58a60.84 60.84 0 009.729-5.21 60.24 60.24 0 01-2.033 7.895zm2.971-16.947a51.236 51.236 0 00-.385-7.394l8.069 8.197a60.356 60.356 0 01-8.388 6.889c.421-2.6.652-5.173.704-7.692zm7.929 9.65a60.538 60.538 0 01-8.065-1.137 61.446 61.446 0 008.521-6.998l8.062 8.189a65.29 65.29 0 01-8.518-.053zm9.323-.753l-8.189-8.062a61.385 61.385 0 007-8.52 60.74 60.74 0 011.137 8.066c.201 2.77.222 5.616.052 8.516zm7.243-19.417a60.063 60.063 0 01-7.895 2.03 60.857 60.857 0 005.209-9.727l10.58 4.486a64.36 64.36 0 01-7.894 3.21zm-2.315-8.584a60.403 60.403 0 003.196-10.553 59.919 59.919 0 014.146 7.013 64.88 64.88 0 013.298 7.855l-10.64-4.315zm9.89-16.413a60.476 60.476 0 01-6.505 4.911c.685-3.62 1.047-7.3 1.072-10.983l11.482.088a66.194 66.194 0 01-6.049 5.984zm-113.925 55.309a2.653 2.653 0 10-3.236 4.207 2.642 2.642 0 001.575.519c.779 0 1.55-.341 2.074-.996a2.652 2.652 0 00-.413-3.73zM131.159 87.37a2.655 2.655 0 102.947 4.416 2.655 2.655 0 00-2.947-4.417zm6.549 8.242a2.653 2.653 0 000 3.753l.003.002a2.652 2.652 0 103.751-3.754 2.655 2.655 0 00-3.754-.001zm29.077 16.908a2.656 2.656 0 10-2.135 4.864 2.656 2.656 0 002.135-4.864zm-9.044-4.438a2.655 2.655 0 10-1.475 4.863 2.653 2.653 0 001.475-4.863zm18.725 7.708a2.654 2.654 0 00-1.606 5.058c.037.011.077.025.114.035a2.654 2.654 0 001.492-5.093zM125.501 2.682a2.659 2.659 0 003.496-1.065 2.655 2.655 0 00-4.515-2.785 2.59 2.59 0 00-.166.29 2.652 2.652 0 001.185 3.56zm-4.655 9.453a2.653 2.653 0 003.74-1.649 2.653 2.653 0 00-5.016-1.716 2.654 2.654 0 001.276 3.365zm-2.918 10.163a2.654 2.654 0 003.346-2.118 2.655 2.655 0 00-2.181-3.055 2.652 2.652 0 00-3.019 2.006 2.658 2.658 0 001.854 3.167zm-.903 31.43a2.656 2.656 0 002.253-3.003c-.003-.02-.006-.044-.011-.065a2.653 2.653 0 00-5.242.832 2.655 2.655 0 003 2.236zm7.537 16.684a2.653 2.653 0 10-4.836 2.177 2.653 2.653 0 004.836-2.177zm-8.311-37.704a2.654 2.654 0 002.998-2.223 2.652 2.652 0 00-2.186-3.025 2.655 2.655 0 00-3.054 2.182c-.003.02-.008.044-.01.064a2.653 2.653 0 002.252 3.002zm5.036 28.109a2.654 2.654 0 10-5.134 1.344 2.654 2.654 0 005.134-1.344zm7.69 18.543a2.652 2.652 0 00-3.68-.736 2.656 2.656 0 002.661 4.585 2.654 2.654 0 001.019-3.85zm-13.018-36.117a2.654 2.654 0 000-5.308 2.653 2.653 0 00-2.653 2.653v.003a2.65 2.65 0 002.653 2.652zm91.097 74.46a2.654 2.654 0 10.364 5.283 2.654 2.654 0 00-.364-5.283zm-10.513.686a2.654 2.654 0 000 5.308h.003a2.651 2.651 0 002.652-2.653 2.655 2.655 0 00-2.655-2.655zm-10.143-.649a2.653 2.653 0 10-.365 5.282 2.654 2.654 0 00.365-5.282zm30.257-1.984c-.037.01-.076.024-.113.035a2.654 2.654 0 001.606 5.058 2.653 2.653 0 00-1.493-5.093z" fill="#000" fill-opacity=".2"/><path d="M332.423 40.456a135.976 135.976 0 00-4.602-35.128 135.047 135.047 0 00-13.578-32.773l-.022-.038c-.005-.008-.011-.016-.015-.025l-.01-.015a136.159 136.159 0 00-21.583-28.085 136.192 136.192 0 00-28.087-21.584l-.014-.01c-.009-.004-.017-.01-.024-.014l-.038-.022a135.033 135.033 0 00-32.774-13.58 135.906 135.906 0 00-35.137-4.601h-.073a135.916 135.916 0 00-35.136 4.602 135.05 135.05 0 00-32.775 13.579l-.038.022a.217.217 0 00-.025.015l-.015.009a136.26 136.26 0 00-28.085 21.584 136.278 136.278 0 00-21.584 28.085l-.024.04-.007.013-.015.025A134.99 134.99 0 0065.182 5.33a135.91 135.91 0 00-4.6 35.128v.089a135.894 135.894 0 004.6 35.128 135.016 135.016 0 0013.58 32.774l.022.038.015.024.01.015a136.186 136.186 0 0021.583 28.086 136.21 136.21 0 0028.085 21.583l.015.009c.009.006.018.01.025.016l.038.022a135.04 135.04 0 0032.775 13.58 135.954 135.954 0 0035.128 4.601h.088c11.91-.001 23.73-1.55 35.128-4.601a135.069 135.069 0 0032.774-13.58l.039-.022.025-.016.013-.009a136.11 136.11 0 0028.087-21.583 136.169 136.169 0 0021.582-28.086l.025-.039a.853.853 0 00.018-.031l.004-.007a135.059 135.059 0 0013.578-32.774 135.941 135.941 0 004.602-35.128v-.044l.002-.046zM162.43 167.707a130.79 130.79 0 01-31.783-13.177l-.019-.012a131.904 131.904 0 01-27.224-20.917 132.012 132.012 0 01-20.919-27.225l-.012-.021a130.77 130.77 0 01-13.175-31.78 131.69 131.69 0 01-4.457-34.072 131.654 131.654 0 014.457-34.07A130.767 130.767 0 0182.473-25.35a131.98 131.98 0 0120.931-27.245 131.93 131.93 0 0127.244-20.93 130.858 130.858 0 0131.783-13.176 131.671 131.671 0 0134.04-4.457h.063c11.543 0 22.994 1.5 34.041 4.457a130.745 130.745 0 0131.78 13.175 131.954 131.954 0 0127.248 20.93 131.918 131.918 0 0120.929 27.246l.015.028a130.902 130.902 0 0113.162 31.755 131.655 131.655 0 014.454 34.07 131.718 131.718 0 01-4.454 34.072 130.761 130.761 0 01-13.177 31.78l-.012.021a131.936 131.936 0 01-20.919 27.225 131.899 131.899 0 01-27.246 20.929l-.026.015a130.754 130.754 0 01-31.755 13.161 131.766 131.766 0 01-34.041 4.455h-.064a131.713 131.713 0 01-34.039-4.454z" fill="#000" fill-opacity=".2"/><path d="M236.577 124.236l-.011-.055-.051.024a92.115 92.115 0 01-13.368 5.166l-.036.011.002.037c.13 2.534.209 5.103.242 7.643v.011l.006.011a205.884 205.884 0 0017.421 25.207l.083.101-.003-.132c-.246-12.85-1.689-25.642-4.285-38.024zm-15.125 5.625l-.055.015a92.532 92.532 0 01-14.073 2.751l-.034.004-.005.037c-.32 2.534-.688 5.08-1.097 7.569l-.001.012.004.012a207.293 207.293 0 0012.752 27.861l.062.116.021-.131c2.006-12.715 2.821-25.561 2.429-38.187l-.003-.059zm-15.896 3.01l.007-.056-.057.006a95.292 95.292 0 01-9.007.431 96.718 96.718 0 01-5.382-.154l-.034-.001-.011.034a201.526 201.526 0 01-2.38 7.268l-.004.011.001.011a210.282 210.282 0 007.767 29.64l.041.126.041-.126c4.173-12.221 7.205-24.734 9.018-37.19zm-9.059-2.394h.049a90.141 90.141 0 0023.264-3.042 89.251 89.251 0 0021.634-8.963l.037-.023.038-.022a90.29 90.29 0 0018.606-14.302 90.414 90.414 0 0014.304-18.607l.009-.015c.004-.007.008-.016.014-.024l.022-.038a89.275 89.275 0 008.964-21.634A90.189 90.189 0 00286.48 40.5c0-7.917-1.023-15.76-3.042-23.308a89.122 89.122 0 00-8.964-21.632l-.022-.039-.022-.04a90.343 90.343 0 00-14.304-18.606 90.222 90.222 0 00-18.606-14.302l-.038-.022-.012-.008-.025-.014a89.205 89.205 0 00-21.634-8.963 90.178 90.178 0 00-23.299-3.043h-.016a90.18 90.18 0 00-23.3 3.043 89.212 89.212 0 00-21.634 8.963l-.007.004-.029.018-.04.022a90.275 90.275 0 00-18.606 14.302 90.33 90.33 0 00-14.303 18.606l-.008.015a.15.15 0 00-.015.025l-.022.039a89.138 89.138 0 00-8.963 21.634 90.16 90.16 0 00-3.045 23.308 90.25 90.25 0 003.043 23.306 89.242 89.242 0 008.963 21.634l.005.008.017.03.022.038a90.345 90.345 0 0014.303 18.607 90.37 90.37 0 0018.606 14.302l.04.022.029.017.007.004a89.281 89.281 0 0021.635 8.963 90.172 90.172 0 0023.263 3.043h.04v.001zm-22.722-5.218a86.871 86.871 0 01-21.126-8.759 88.056 88.056 0 01-18.178-13.969 88.081 88.081 0 01-13.969-18.179 87.012 87.012 0 01-8.759-21.125 87.946 87.946 0 01-2.968-22.727c0-7.721.999-15.368 2.968-22.727a86.996 86.996 0 018.743-21.1l.016-.026a88.07 88.07 0 0113.968-18.179A88.099 88.099 0 01152.649-35.5a87.019 87.019 0 0121.126-8.758 87.938 87.938 0 0122.731-2.967 87.91 87.91 0 0122.723 2.967 87.028 87.028 0 0121.125 8.758 88.066 88.066 0 0118.178 13.97A88.116 88.116 0 01272.5-3.354l.016.026a86.956 86.956 0 018.743 21.1 87.937 87.937 0 012.968 22.727c0 7.723-.999 15.372-2.968 22.727a86.854 86.854 0 01-8.759 21.125l-.012.02a88.024 88.024 0 01-13.956 18.159 88.073 88.073 0 01-18.178 13.967l-.012.008a86.951 86.951 0 01-21.115 8.752 88.005 88.005 0 01-22.727 2.967h-.004a87.874 87.874 0 01-22.721-2.966zm15.577 7.722l-.056-.005a93.03 93.03 0 01-14.18-2.199l-.034-.007-.016.031a202.693 202.693 0 01-3.605 6.744l-.006.011v.012c.072 10.114.92 20.389 2.519 30.535l.022.131.062-.117a206.303 206.303 0 0015.276-35.083l.018-.053zm-15.946-2.623l-.056-.013a92.134 92.134 0 01-13.56-4.637l-.032-.015-.021.03a207.387 207.387 0 01-4.729 6.01l-.007.009-.001.012a206.183 206.183 0 00-2.86 30.508l-.003.131.082-.1c8.077-10.009 15.196-20.737 21.159-31.883l.028-.052zm-15.23-5.366l-.053-.024a92.304 92.304 0 01-12.556-6.939l-.03-.022-.025.026a204.343 204.343 0 01-5.703 5.093l-.009.008-.005.01a207.597 207.597 0 00-8.132 29.544l-.025.13.099-.087c9.707-8.459 18.591-17.774 26.403-27.696l.036-.043zm-14.076-7.951l-.048-.032a93.368 93.368 0 01-11.176-9.024l-.026-.024-.031.02a208.148 208.148 0 01-6.498 4.032l-.01.006-.006.01a208.505 208.505 0 00-13.124 27.69l-.047.123.112-.07c11.019-6.647 21.385-14.281 30.811-22.69l.043-.041zm-12.499-10.278l-.04-.04a93.442 93.442 0 01-9.454-10.82l-.021-.028-.032.013a204.238 204.238 0 01-7.098 2.848l-.011.005-.008.008a208.147 208.147 0 00-17.706 25.008l-.068.112.123-.047c11.991-4.643 23.52-10.372 34.269-17.028l.046-.031zm-10.538-12.287l-.034-.048a92.874 92.874 0 01-7.427-12.278l-.016-.033-.034.008c-2.469.57-4.987 1.1-7.484 1.574l-.012.002-.009.007a207.17 207.17 0 00-21.777 21.554l-.085.099.128-.025c12.606-2.489 24.954-6.135 36.697-10.842l.053-.018zm-8.242-13.913l-.025-.05a92.49 92.49 0 01-5.168-13.369l-.01-.034-.035.002c-2.539.13-5.11.21-7.643.242h-.012l-.01.006A205.763 205.763 0 0074.71 84.783l-.102.082.132-.002c12.85-.248 25.642-1.69 38.024-4.288l.056-.012zm-11.95-15.013c2.065 0 4.155-.03 6.212-.097l.058-.002-.015-.054a92.736 92.736 0 01-2.752-14.074l-.004-.034-.036-.004a204.98 204.98 0 01-7.568-1.098l-.011-.001-.012.004a207.046 207.046 0 00-27.861 12.753l-.115.062.13.02a205.815 205.815 0 0031.974 2.525zm3.316-15.985l-.006-.058a95.364 95.364 0 01-.431-9.006c0-1.789.053-3.601.154-5.382l.001-.033-.032-.01a212.664 212.664 0 01-7.27-2.381l-.01-.005-.012.002a210.417 210.417 0 00-29.64 7.768l-.126.041.126.042c12.22 4.168 24.733 7.2 37.19 9.014l.056.008zm-.22-16.231l.055.017.004-.056a92.835 92.835 0 012.199-14.18l.009-.033-.031-.017a206.997 206.997 0 01-6.746-3.603l-.01-.006h-.012a206.18 206.18 0 00-30.537 2.52l-.13.021.116.063a206.314 206.314 0 0035.083 15.274zm2.627-15.956l.051.028.013-.056a92.219 92.219 0 014.636-13.56l.014-.033-.029-.02a198.976 198.976 0 01-6.011-4.73L105.26-1h-.012a205.892 205.892 0 00-30.507-2.86l-.132-.003.102.083c10.009 8.076 20.734 15.196 31.883 21.159zm5.372-15.237l.045.035.024-.053a92.56 92.56 0 016.939-12.557l.02-.03-.024-.025a198.276 198.276 0 01-5.094-5.703l-.009-.009-.011-.004a207.65 207.65 0 00-29.542-8.133l-.128-.025.085.099c8.454 9.706 17.773 18.59 27.695 26.405zM75.983 112.115a2.74 2.74 0 00-3.8-.758 2.736 2.736 0 00-.86 3.635 2.733 2.733 0 003.61 1.098 2.739 2.739 0 001.05-3.975zm35.671 39.965a2.74 2.74 0 10-1.714 4.879 2.74 2.74 0 001.714-4.879zm47.852 23.656a2.736 2.736 0 00-3.388 1.755 2.742 2.742 0 001.733 3.468c.039.012.078.025.118.035a2.741 2.741 0 003.387-1.883 2.737 2.737 0 00-1.85-3.375zm-71.482-46.374a2.741 2.741 0 10-.189 4.423 2.74 2.74 0 00.189-4.423zm-6.422-8.489a2.74 2.74 0 00-4.08 3.647 2.746 2.746 0 003.665.576 2.74 2.74 0 00.415-4.223zm10.478 16.512a2.742 2.742 0 103.663 3.997 2.743 2.743 0 00-3.662-3.997zm57.072 35.085c-.038-.012-.078-.027-.118-.039a2.74 2.74 0 00-3.388 1.882 2.743 2.743 0 005.238 1.623 2.739 2.739 0 00-1.732-3.466zm-9.926-4a2.742 2.742 0 00-2.467 4.888 2.778 2.778 0 001.363.364 2.742 2.742 0 001.104-5.252zm-18.733-10.177a2.74 2.74 0 10-3.118 4.507 2.744 2.744 0 003.8-.758 2.74 2.74 0 00-.682-3.749zm9.334 5.545a2.74 2.74 0 00-4.121 1.412 2.741 2.741 0 104.121-1.412zm-30.09-18.692a2.745 2.745 0 001.755 4.85 2.74 2.74 0 001.901-4.717 2.743 2.743 0 00-3.656-.133zM59.41.188a2.741 2.741 0 003.373-1.835 2.738 2.738 0 00-1.753-3.404 2.743 2.743 0 00-3.467 1.734A2.742 2.742 0 0059.41.187zm-5.801 32.259a2.74 2.74 0 003.127-2.715 2.74 2.74 0 00-5.471-.232 2.744 2.744 0 002.344 2.947zm6.419 40.143a2.742 2.742 0 10-5.338 1.252 2.742 2.742 0 005.338-1.253zm-4.365-7.4a2.744 2.744 0 002.316-3.17 2.74 2.74 0 00-3.154-2.25 2.74 2.74 0 00-2.258 3.118 2.74 2.74 0 003.096 2.302zM62.9 83.017a2.742 2.742 0 00-3.503-1.851 2.742 2.742 0 00-1.757 3.394 2.74 2.74 0 005.26-1.543zm3.617 10.03a2.738 2.738 0 00-3.296-1.618 2.739 2.739 0 00-1.696 3.862 2.74 2.74 0 003.675 1.226 2.739 2.739 0 001.317-3.47zM56.53 10.746a2.742 2.742 0 003.457-2.187 2.742 2.742 0 10-3.457 2.187zm-2.12 43.573a2.742 2.742 0 10-.78-5.428 2.742 2.742 0 00.78 5.428zm.427-32.746a2.742 2.742 0 003.097-2.302 2.742 2.742 0 00-5.413-.865l-.01.066a2.742 2.742 0 002.326 3.1zm16.075 81.238a2.741 2.741 0 00-4.902 2.451l.001.003a2.736 2.736 0 003.676 1.224 2.74 2.74 0 001.225-3.678zM53.597 43.407a2.742 2.742 0 000-5.483 2.74 2.74 0 00-2.74 2.74v.003a2.742 2.742 0 002.74 2.74zm148.458 137.154a2.741 2.741 0 000 5.482h.003a2.74 2.74 0 00-.003-5.482zm-10.947.006a2.74 2.74 0 100 5.482h.003a2.74 2.74 0 00-.003-5.482zm21.859-.838a2.74 2.74 0 10.376 5.456 2.739 2.739 0 002.364-2.715 2.74 2.74 0 00-2.74-2.741zm-42.833-1.526a2.74 2.74 0 10-.752 5.376 2.742 2.742 0 00.752-5.376zm10.438 1.569a2.742 2.742 0 10-.75 5.433 2.742 2.742 0 00.75-5.433zm42.782-1.673a2.74 2.74 0 10.855 5.417 2.74 2.74 0 00-.855-5.417zm-3.076 29.322l-.414.055c1.978-.274 3.953-.581 5.919-.926a185.14 185.14 0 01-8.975-11.204 192 192 0 001.292-3.345l-1.706.232a185.509 185.509 0 01-7.295 16.387 167.95 167.95 0 009.986-1.039l-.689.094a193.98 193.98 0 01-8.148 16.473 184.247 184.247 0 0018.219-2.259 192.89 192.89 0 01-9.655-11.1c.5-1.12.989-2.245 1.466-3.368zm-16.744 1.518l-.368.013a170.31 170.31 0 005.933-.332 187.743 187.743 0 01-7.823-12.038c.552-1.065 1.09-2.131 1.618-3.202l-1.721.062a188.1 188.1 0 01-8.879 15.591c3.32.081 6.642.062 9.962-.049l-.617.023a197.017 197.017 0 01-9.727 15.594c6.112.15 12.23 0 18.336-.452a194.157 194.157 0 01-8.504-12.001 192.375 192.375 0 001.79-3.209z" fill="#000" fill-opacity=".2"/><path d="M186.725 208.805l-.463-.03c2.007.121 4.021.205 6.034.257a187.665 187.665 0 01-6.606-12.749 190.225 190.225 0 001.925-3.027l-1.714-.106a186.51 186.51 0 01-10.364 14.64c3.327.413 6.668.724 10.011.938l-.709-.044a193.998 193.998 0 01-11.22 14.56 185.838 185.838 0 0018.295 1.354 198.582 198.582 0 01-7.285-12.778c.71-1 1.409-2.008 2.096-3.015z" fill="#000" fill-opacity=".2"/><path d="M170.016 207.016l-.432-.071c1.979.317 3.963.602 5.951.848a184.472 184.472 0 01-5.305-13.339 177.96 177.96 0 002.214-2.822l-1.698-.277a183.747 183.747 0 01-11.768 13.537c3.258.742 6.537 1.38 9.831 1.925l-.665-.108a191.64 191.64 0 01-12.618 13.367 183.621 183.621 0 0018.093 3.17 192.98 192.98 0 01-5.988-13.44c.805-.922 1.6-1.854 2.385-2.79zm-16.453-3.45l-.417-.111c1.935.513 3.879.994 5.832 1.437a183.576 183.576 0 01-3.943-13.803c.838-.853 1.666-1.715 2.483-2.585l-1.66-.445a183.896 183.896 0 01-13.064 12.289 167.922 167.922 0 009.59 2.902l-.652-.175a191.934 191.934 0 01-13.897 12.035 182.778 182.778 0 0017.69 4.966 191.704 191.704 0 01-4.618-13.97c.898-.84 1.782-1.686 2.656-2.54zm-16.025-5.08l-.389-.147c1.87.703 3.752 1.375 5.644 2.009a185.238 185.238 0 01-2.54-14.128c.921-.767 1.831-1.54 2.732-2.323l-1.603-.61a183.05 183.05 0 01-14.232 10.916 165.752 165.752 0 009.257 3.853l-.637-.242a192.261 192.261 0 01-15.033 10.581 182.998 182.998 0 0017.098 6.715 191.85 191.85 0 01-3.192-14.363c.976-.746 1.941-1.503 2.895-2.261z" fill="#000" fill-opacity=".2"/><path d="M122.109 191.826l-.293-.148c1.764.873 3.541 1.715 5.336 2.527a184.711 184.711 0 01-1.112-14.31c.992-.673 1.975-1.35 2.951-2.041l-1.54-.767a183.537 183.537 0 01-15.253 9.436 165.455 165.455 0 008.748 4.721l-.534-.265a193.31 193.31 0 01-16.014 9.024 183.242 183.242 0 0016.338 8.392c-.77-4.895-1.347-9.77-1.736-14.611a170.917 170.917 0 003.109-1.958z" fill="#000" fill-opacity=".2"/><path d="M104.134 185.293a170.398 170.398 0 003.285-1.642l-.388-.243a168.06 168.06 0 005.168 3.113c-.077-4.83.031-9.616.323-14.352 1.053-.568 2.1-1.146 3.139-1.732l-1.456-.918a184.528 184.528 0 01-16.12 7.87 169.278 169.278 0 008.322 5.622l-.591-.373a192.958 192.958 0 01-16.83 7.386 183.607 183.607 0 0015.415 9.977 191.743 191.743 0 01-.267-14.708zm-10.519-11.234l-.295-.231a171.49 171.49 0 004.764 3.562c.404-4.815.988-9.57 1.746-14.249a194.43 194.43 0 003.297-1.413l-1.354-1.056a185.696 185.696 0 01-16.822 6.232 170.053 170.053 0 007.655 6.367l-.484-.376a193.76 193.76 0 01-17.48 5.681 185.029 185.029 0 0014.34 11.45c.219-4.948.62-9.839 1.2-14.662 1.153-.425 2.296-.859 3.433-1.305z" fill="#000" fill-opacity=".2"/><path d="M80.837 163.147l-1.374-1.309a193.275 193.275 0 01-17.955 3.921 183.983 183.983 0 0013.138 12.817c.707-4.902 1.592-9.73 2.645-14.47 1.189-.308 2.369-.63 3.546-.959z" fill="#000" fill-opacity=".2"/><path d="M91.52 151.819l-1.244-1.188a186.33 186.33 0 01-17.357 4.536 170.022 170.022 0 0012.034 11.737 186.03 186.03 0 013.149-14.007 156.86 156.86 0 003.419-1.078z" fill="#000" fill-opacity=".2"/><path d="M69.196 151.017l-.261-.302a172.757 172.757 0 003.985 4.453 186.217 186.217 0 014.52-13.628c1.176-.235 2.347-.478 3.51-.733l-1.122-1.307a185.6 185.6 0 01-17.72 2.796 169.46 169.46 0 006.256 7.757l-.404-.471a194.75 194.75 0 01-18.257 2.126c3.7 4.877 7.64 9.569 11.805 14.054a195.303 195.303 0 014.065-14.137c1.211-.193 2.42-.394 3.623-.608z" fill="#000" fill-opacity=".2"/><path d="M58.813 137.798l-.17-.244a166.812 166.812 0 003.466 4.741 185.269 185.269 0 015.848-13.111c1.194-.118 2.381-.245 3.567-.385l-.985-1.404c-5.876.623-11.856.969-17.907 1.022a169.48 169.48 0 005.404 8.269l-.306-.437c-6.04.389-12.176.494-18.378.302a184.03 184.03 0 0010.352 15.157 194.857 194.857 0 015.445-13.668c1.225-.07 2.444-.151 3.664-.242zm-9.016-14.182l-.209-.374a160.83 160.83 0 003.043 5.175 184.689 184.689 0 017.124-12.463c1.197.003 2.393-.007 3.585-.028l-.84-1.5a185.147 185.147 0 01-17.92-.765 167.914 167.914 0 004.623 8.893l-.332-.592a193.297 193.297 0 01-18.318-1.536 183.722 183.722 0 008.798 16.124 191.828 191.828 0 016.777-13.059c1.225.053 2.45.096 3.67.125z" fill="#000" fill-opacity=".2"/><path d="M42.238 108.6l-.134-.306a170.098 170.098 0 002.473 5.368 184.428 184.428 0 018.334-11.687c1.191.122 2.38.235 3.57.329l-.687-1.575a183.327 183.327 0 01-17.755-2.555 167.307 167.307 0 003.675 9.224l-.234-.537a191.15 191.15 0 01-18.074-3.361 182.926 182.926 0 007.143 16.928 193.166 193.166 0 018.047-12.319c1.217.177 2.43.341 3.642.491z" fill="#000" fill-opacity=".2"/><path d="M36.22 92.904l-.134-.417a171.01 171.01 0 001.954 5.687 184.058 184.058 0 019.465-10.793c1.172.242 2.346.47 3.519.686l-.524-1.633a182.715 182.715 0 01-17.407-4.32 167.26 167.26 0 002.763 9.647l-.211-.655a192.099 192.099 0 01-17.646-5.159 183.125 183.125 0 005.409 17.555 192.79 192.79 0 019.241-11.45c1.19.295 2.382.58 3.571.852z" fill="#000" fill-opacity=".2"/><path d="M28.343 75.48c1.155.416 2.312.817 3.468 1.208l-.095-.444c.424 1.963.883 3.922 1.377 5.87a184.365 184.365 0 0110.498-9.787c1.143.358 2.288.702 3.432 1.036l-.357-1.682a182.969 182.969 0 01-16.887-6.045 167.037 167.037 0 001.786 9.893l-.148-.694a192.204 192.204 0 01-17.038-6.898 183.23 183.23 0 003.62 18.01c3.349-3.656 6.8-7.146 10.344-10.467zm.702-15.373l-.044-.413c.224 1.982.482 3.963.777 5.94a185.885 185.885 0 0111.425-8.695c1.1.472 2.206.929 3.311 1.376l-.189-1.713a185.848 185.848 0 01-16.202-7.7c.164 3.34.428 6.67.788 9.995l-.074-.677a194.396 194.396 0 01-16.267-8.553c.3 6.11.902 12.21 1.807 18.267 3.695-3.3 7.478-6.427 11.338-9.377 1.109.53 2.22 1.045 3.33 1.55z" fill="#000" fill-opacity=".2"/><path d="M27.942 43.332l-.003-.334c.028 1.97.088 3.94.186 5.905a189.37 189.37 0 0112.227-7.526c1.051.578 2.103 1.144 3.16 1.697l-.019-1.72a188.177 188.177 0 01-15.368-9.256c-.164 3.3-.227 6.605-.198 9.907l-.006-.565a196.272 196.272 0 01-15.35-10.107c-.3 6.109-.3 12.224 0 18.333a196.307 196.307 0 0112.207-8.205c1.053.638 2.105 1.26 3.164 1.871z" fill="#000" fill-opacity=".2"/><path d="M28.488 26.536l.04-.463a164.2 164.2 0 00-.403 6.025A185.898 185.898 0 0141.03 25.81c.989.677 1.983 1.344 2.978 1.998l.152-1.716A184.625 184.625 0 0129.778 15.37c-.495 3.315-.89 6.647-1.186 9.985l.062-.708a192.912 192.912 0 01-14.277-11.578 184.198 184.198 0 00-1.807 18.267 196.065 196.065 0 0112.954-6.968 228.36 228.36 0 002.964 2.168zm2.206-16.665l.082-.432a167.4 167.4 0 00-.997 5.93 184.101 184.101 0 0113.466-4.97c.917.773 1.837 1.533 2.765 2.283l.322-1.69a182.85 182.85 0 01-13.24-12.103 168.055 168.055 0 00-2.168 9.765l.124-.646A191.77 191.77 0 0118-4.942a183.732 183.732 0 00-3.621 18.01c4.498-2.075 9.03-3.96 13.582-5.653.906.83 1.818 1.65 2.733 2.456z" fill="#000" fill-opacity=".2"/><path d="M196.501 193.576c-20.665 0-40.712-4.047-59.584-12.028-18.228-7.71-34.598-18.749-48.656-32.805-14.057-14.059-25.095-30.429-32.805-48.657-7.982-18.872-12.03-38.919-12.03-59.584 0-20.663 4.048-40.712 12.03-59.583C63.166-37.31 74.202-53.68 88.261-67.74c14.059-14.059 30.428-25.096 48.656-32.805 18.872-7.982 38.92-12.029 59.584-12.029 20.665 0 40.712 4.047 59.583 12.029 18.229 7.71 34.6 18.746 48.658 32.805 14.056 14.06 25.094 30.43 32.803 48.658 7.983 18.873 12.03 38.92 12.03 59.583 0 20.665-4.047 40.712-12.03 59.584-7.709 18.228-18.747 34.6-32.803 48.657-14.059 14.056-30.429 25.095-48.658 32.805-18.871 7.981-38.918 12.028-59.583 12.028zm0-303.587c-82.994 0-150.512 67.518-150.512 150.512 0 82.993 67.518 150.513 150.512 150.513 82.993 0 150.513-67.52 150.513-150.513-.001-82.992-67.521-150.512-150.513-150.512z" fill="#000" fill-opacity=".2"/><path d="M196.5 237.002c-26.526 0-52.261-5.197-76.488-15.444-23.4-9.897-44.414-24.064-62.458-42.111-18.045-18.045-32.212-39.058-42.11-62.458C5.196 92.761 0 67.028 0 40.501c0-26.526 5.196-52.26 15.444-76.487 9.898-23.4 24.065-44.414 42.11-62.458 18.044-18.046 39.059-32.214 62.458-42.112C144.241-150.804 169.974-156 196.5-156c26.526 0 52.261 5.196 76.488 15.444 23.399 9.898 44.412 24.066 62.458 42.112 18.047 18.045 32.213 39.058 42.11 62.458C387.805-11.76 393 13.975 393 40.5c0 26.527-5.195 52.261-15.444 76.488-9.898 23.4-24.063 44.414-42.11 62.458-18.044 18.047-39.059 32.214-62.458 42.111-24.227 10.247-49.96 15.444-76.488 15.444zm0-387.942C90.94-150.94 5.059-65.06 5.059 40.501c0 105.562 85.881 191.442 191.441 191.442 105.561 0 191.441-85.88 191.441-191.442 0-105.56-85.878-191.441-191.441-191.441z" fill="#000" fill-opacity=".2"/></svg>