<svg width="197" height="187" fill="none" xmlns="http://www.w3.org/2000/svg"><path d="M196.5 178.294c-10.04 0-18.206 8.168-18.206 18.206 0 10.039 8.168 18.207 18.206 18.207 10.04 0 18.206-8.168 18.206-18.207.002-10.038-8.166-18.206-18.206-18.206zm0 34.299c-8.873 0-16.091-7.218-16.091-16.091 0-8.873 7.218-16.092 16.091-16.092 8.873 0 16.093 7.219 16.093 16.092 0 8.873-7.218 16.091-16.093 16.091zm-11.296-35.673c-2.956-1.177-6.359-1.792-9.984-1.7-3.622.09-7.468.886-11.274 2.478.517 4.093 1.74 7.83 3.478 11.013 1.735 3.186 3.977 5.808 6.476 7.792a22.456 22.456 0 013.021-11.296 22.746 22.746 0 018.283-8.287zm22.594 0c-.454-3.149-1.611-6.404-3.505-9.497-1.889-3.093-4.52-6.016-7.79-8.513-3.27 2.497-5.903 5.42-7.792 8.513-1.895 3.092-3.052 6.348-3.506 9.497a22.501 22.501 0 0111.296-3.02 22.502 22.502 0 0111.297 3.02zm-31.033-13.308l-1.424 5.315 5.316 1.424 1.424-5.315-5.316-1.424z" fill="#000" fill-opacity=".2"/><path d="M196.5 152.209c-24.422 0-44.292 19.869-44.292 44.292 0 24.422 19.869 44.29 44.292 44.29 24.423 0 44.292-19.868 44.292-44.29 0-24.423-19.869-44.292-44.292-44.292zm0 86.467c-23.257 0-42.177-18.92-42.177-42.175 0-23.256 18.92-42.177 42.177-42.177 23.256 0 42.177 18.921 42.177 42.177.001 23.255-18.921 42.175-42.177 42.175z" fill="#000" fill-opacity=".2"/><path d="M269.651 195.927h-.004a73.525 73.525 0 00-1.387-13.69 72.628 72.628 0 00-3.949-13.208l.004-.001-.174-.419c-.015-.037-.029-.075-.046-.114v.002l-.001-.003.001.001c-.014-.035-.031-.07-.045-.107l-.176-.424-.006.003a72.952 72.952 0 00-15.243-22.784l.003-.003-.403-.409-.408-.404-.003.003a73.001 73.001 0 00-22.783-15.242l.003-.006-.424-.175-.107-.046.001.002-.003-.002h.002c-.037-.016-.076-.029-.112-.045l-.419-.175-.002.006a72.82 72.82 0 00-13.209-3.949 73.582 73.582 0 00-13.689-1.387v-.004l-.572-.003-.572.003v.004a73.497 73.497 0 00-13.689 1.387 72.628 72.628 0 00-13.208 3.949l-.001-.004-.424.175c-.037.015-.072.028-.109.045h.002l-.003.001.001-.001-.097.042-.434.18.003.006a73.099 73.099 0 00-12.121 6.547 73.273 73.273 0 00-10.663 8.697l-.003-.003-.407.402-.404.409.002.003a73.559 73.559 0 00-8.696 10.663 73.12 73.12 0 00-6.545 12.12l-.006-.003-.176.425c-.014.035-.031.07-.045.107l.001-.001-.001.003v-.002c-.017.037-.03.075-.046.114l-.174.419.004.001a72.73 72.73 0 00-3.95 13.21 73.655 73.655 0 00-1.386 13.688h-.004l-.003.572.003.573h.004a73.607 73.607 0 001.385 13.69 72.71 72.71 0 003.95 13.208l-.005.001.177.429c.015.034.027.07.042.104v-.002l.001.003h-.001l.039.095.182.436.006-.003a73.049 73.049 0 006.545 12.121 73.454 73.454 0 008.697 10.664l-.003.003.404.407.408.404.003-.003a73.645 73.645 0 0010.664 8.696 73.001 73.001 0 0012.119 6.546l-.003.006.429.178.102.044-.001-.001.003.001s-.002 0-.002.002l.109.044.424.176.001-.005a72.617 72.617 0 0013.209 3.95 73.589 73.589 0 0013.689 1.386v.005l.572.003.574-.003v-.005a73.411 73.411 0 0013.689-1.386 72.63 72.63 0 0013.208-3.95l.001.005.419-.175c.037-.016.075-.029.114-.045h-.002l.003-.002v.002l.108-.046.423-.175-.003-.006a73.128 73.128 0 0012.121-6.546 73.513 73.513 0 0010.664-8.696l.003.003.407-.403.404-.408-.003-.003a73.513 73.513 0 008.696-10.664 73.19 73.19 0 006.546-12.119l.006.001.175-.425.046-.106c-.002 0-.002 0-.002.002l.002-.003.001.003.046-.114.174-.419-.004-.001a72.83 72.83 0 003.949-13.21 73.571 73.571 0 001.387-13.688h.004l.003-.573-.006-.581zm-.51.005l-11.482.088a61.342 61.342 0 00-1.074-10.983 60.081 60.081 0 016.506 4.911 66.218 66.218 0 016.05 5.984zm-24.634 26.221a50.462 50.462 0 00-3.183-6.679l10.589 4.49a59.953 59.953 0 01-5.129 9.574 54.808 54.808 0 00-2.277-7.385zm1.757 8.163a60.354 60.354 0 01-6.89 8.388l-8.196-8.068a51.2 51.2 0 007.392.385 55.184 55.184 0 007.694-.705zm-4.636-15.544a50.674 50.674 0 006.963-2.469 55.076 55.076 0 006.83-3.6 59.298 59.298 0 01-3.146 10.386l-10.647-4.317zm9.032-12.93a52.266 52.266 0 00-5.501-4.959l11.501.089a60.34 60.34 0 01-1.056 10.811 55.243 55.243 0 00-4.944-5.941zm-6.153-30.994a55.142 55.142 0 002.277-7.385 59.91 59.91 0 015.129 9.574l-10.589 4.489a50.635 50.635 0 003.183-6.678zm-5.937-8.869a51.509 51.509 0 00-7.393.385l8.196-8.069a60.447 60.447 0 016.889 8.386c-2.6-.417-5.172-.65-7.692-.702zm13.705 11.931a59.31 59.31 0 013.145 10.385 54.667 54.667 0 00-6.83-3.599 50.734 50.734 0 00-6.964-2.469l10.649-4.317zm-7.115 22.206a51.938 51.938 0 005.5-4.959 55.353 55.353 0 004.943-5.941 60.435 60.435 0 011.057 10.812l-11.5.088zm15.384-19.041a59.776 59.776 0 01-4.146 7.013 60.613 60.613 0 00-3.196-10.553l10.64-4.314a64.607 64.607 0 01-3.298 7.854zm-5.027-12.124a64.549 64.549 0 017.895 3.211l-10.579 4.485a60.866 60.866 0 00-5.211-9.728 60.053 60.053 0 017.895 2.032zm-7.243-19.419a65.29 65.29 0 01-.053 8.518 60.515 60.515 0 01-1.137 8.065 61.471 61.471 0 00-6.999-8.521l8.189-8.062zm-9.323-.752a65.29 65.29 0 018.518-.053l-8.062 8.189a61.329 61.329 0 00-8.521-6.999c2.6-.547 5.292-.936 8.065-1.137zm-.246 8.848l-8.068 8.195c.298-2.398.436-4.867.385-7.392a55.584 55.584 0 00-.704-7.692 60.313 60.313 0 018.387 6.889zm-13.866-24.039a64.549 64.549 0 013.211 7.895 60.238 60.238 0 012.032 7.894 60.803 60.803 0 00-9.727-5.21l4.484-10.579zm4.699 16.628a55.142 55.142 0 00-7.385 2.277 50.688 50.688 0 00-6.677 3.183l4.49-10.589a59.903 59.903 0 019.572 5.129zm-13.613-13.76a64.873 64.873 0 017.855-3.298l-4.314 10.64a60.407 60.407 0 00-10.553-3.196 59.844 59.844 0 017.012-4.146zm3.166 8.269l-4.317 10.649a50.793 50.793 0 00-2.469-6.965 55.203 55.203 0 00-3.599-6.83 59.57 59.57 0 0110.385 3.146zm-22.022-16.866a66.466 66.466 0 015.984 6.049 60.365 60.365 0 014.911 6.505 61.433 61.433 0 00-10.983-1.073l.088-11.481zm-.096 12.482c3.627.027 7.25.381 10.812 1.056a55.353 55.353 0 00-5.941 4.943 52.145 52.145 0 00-4.958 5.501l.087-11.5zm-.857 11.5a52.035 52.035 0 00-4.958-5.501 55.353 55.353 0 00-5.941-4.943 60.332 60.332 0 0110.811-1.056l.088 11.5zm-6.168-17.932a66.08 66.08 0 015.984-6.049l.089 11.481a61.353 61.353 0 00-10.984 1.074 60.211 60.211 0 014.911-6.506zm-16.038 10.816a59.425 59.425 0 0110.385-3.146 54.933 54.933 0 00-3.599 6.83 50.674 50.674 0 00-2.469 6.963l-4.317-10.647zm3.617 10.951a50.584 50.584 0 00-6.679-3.182 55.097 55.097 0 00-7.385-2.277 59.798 59.798 0 019.575-5.128l4.489 10.587zm-.452-19.22a60.068 60.068 0 017.014 4.146 60.676 60.676 0 00-10.554 3.196l-4.314-10.64a64.925 64.925 0 017.854 3.298zm-12.124 5.027a64.549 64.549 0 013.211-7.895l4.486 10.579a60.833 60.833 0 00-9.729 5.211 60.094 60.094 0 012.032-7.895zm-2.587 24.34l-8.069-8.196a60.405 60.405 0 018.388-6.889 55.427 55.427 0 00-.703 7.692 51.655 51.655 0 00.384 7.393zm-13.87 60.329a55.097 55.097 0 00-2.277 7.385 59.765 59.765 0 01-5.128-9.576l10.588-4.488a50.969 50.969 0 00-3.183 6.679zm5.937 8.868a51.378 51.378 0 007.394-.385l-8.196 8.07a60.412 60.412 0 01-6.89-8.388c2.602.419 5.173.652 7.692.703zm-13.705-11.93a59.507 59.507 0 01-3.145-10.385 55.016 55.016 0 006.831 3.599 50.398 50.398 0 006.963 2.467l-10.649 4.319zm-3.327-11.307a60.24 60.24 0 01-1.056-10.811l11.499-.089a52.039 52.039 0 00-5.499 4.959 55.243 55.243 0 00-4.944 5.941zm-1.056-11.755c.026-3.627.38-7.249 1.056-10.811a55.464 55.464 0 004.942 5.941 52.366 52.366 0 005.501 4.959l-11.499-.089zm8.069-15.332a54.626 54.626 0 00-6.831 3.601 59.601 59.601 0 013.145-10.385l10.649 4.317a50.398 50.398 0 00-6.963 2.467zm-3.323-7.66a59.826 59.826 0 015.128-9.574 55.142 55.142 0 002.277 7.385 50.688 50.688 0 003.183 6.677l-10.588-4.488zm5.65-10.353a60.341 60.341 0 016.89-8.388l8.196 8.068a51.653 51.653 0 00-7.393-.385c-2.52.052-5.092.285-7.693.705zm7.311-17.904c2.773.201 5.463.59 8.065 1.137a61.404 61.404 0 00-8.52 6.999l-8.062-8.189a65.274 65.274 0 018.517.053zm-9.323.754l8.189 8.062a61.313 61.313 0 00-6.998 8.52 60.538 60.538 0 01-1.137-8.065 65.097 65.097 0 01-.054-8.517zm-7.243 19.417a60.114 60.114 0 017.894-2.031 60.968 60.968 0 00-5.21 9.727l-10.579-4.485a64.613 64.613 0 017.895-3.211zm2.316 8.584a60.185 60.185 0 00-3.196 10.553 59.776 59.776 0 01-4.146-7.013 64.607 64.607 0 01-3.298-7.854l10.64 4.314zm-9.891 16.414a60.408 60.408 0 016.506-4.911 61.335 61.335 0 00-1.074 10.984l-11.482-.089a66.215 66.215 0 016.05-5.984zm-6.047 7.12l11.482-.089a61.262 61.262 0 001.074 10.984 60.31 60.31 0 01-6.506-4.911 65.964 65.964 0 01-6.05-5.984zm8.596 18.857a59.514 59.514 0 014.146-7.014 60.553 60.553 0 003.196 10.553l-10.64 4.315a64.607 64.607 0 013.298-7.854zm5.026 12.125a64.613 64.613 0 01-7.895-3.211l10.579-4.485a61.026 61.026 0 005.211 9.728 60.492 60.492 0 01-7.895-2.032zm7.243 19.417c-.168-2.9-.149-5.748.054-8.517.202-2.773.59-5.465 1.137-8.065a61.456 61.456 0 006.998 8.52l-8.189 8.062zm9.323.754c-2.77.2-5.616.221-8.517.053l8.062-8.189a61.34 61.34 0 008.52 7c-2.6.546-5.292.934-8.065 1.136zm.247-8.848l8.067-8.196a51.633 51.633 0 00-.384 7.392c.051 2.519.284 5.09.703 7.692a60.368 60.368 0 01-8.386-6.888zm13.865 24.038a64.613 64.613 0 01-3.211-7.895 60.437 60.437 0 01-2.032-7.894 60.883 60.883 0 009.727 5.209l-4.484 10.58zm-4.699-16.628a55.097 55.097 0 007.385-2.277 50.714 50.714 0 006.679-3.183l-4.49 10.588a59.917 59.917 0 01-9.574-5.128zm13.614 13.759a64.673 64.673 0 01-7.854 3.298l4.314-10.64a60.27 60.27 0 0010.553 3.196 59.663 59.663 0 01-7.013 4.146zm-3.165-8.268l4.317-10.649a50.674 50.674 0 002.469 6.963 54.651 54.651 0 003.598 6.83 59.408 59.408 0 01-10.384-3.144zm22.022 16.866a66.227 66.227 0 01-5.984-6.051 60.114 60.114 0 01-4.912-6.505 61.26 61.26 0 0010.984 1.073l-.088 11.483zm.095-12.483a60.34 60.34 0 01-10.811-1.056 55.228 55.228 0 005.941-4.942 52.275 52.275 0 004.959-5.502l-.089 11.5zm-8.942-12.902a47.79 47.79 0 01-8.941-2.701l-.15-.062a48.104 48.104 0 01-8.253-4.426 48.462 48.462 0 01-13.309-13.31 48.063 48.063 0 01-4.425-8.249l-.063-.152a47.744 47.744 0 01-2.701-8.941 48.529 48.529 0 01-.917-9.414c0-3.171.306-6.324.917-9.414a47.705 47.705 0 012.708-8.96l.047-.116a48.219 48.219 0 0110.435-15.575 48.462 48.462 0 017.307-6.001 48.106 48.106 0 018.243-4.423l.163-.068a47.638 47.638 0 018.936-2.699 48.689 48.689 0 0118.829 0 47.682 47.682 0 018.951 2.705l.13.053a48.09 48.09 0 018.261 4.43 48.604 48.604 0 017.308 6.003 48.568 48.568 0 016.002 7.307 48.098 48.098 0 014.435 8.271l.044.107a47.602 47.602 0 012.711 8.966c.612 3.09.917 6.243.919 9.414a48.609 48.609 0 01-.919 9.414 47.804 47.804 0 01-2.696 8.931l-.073.173a48.107 48.107 0 01-4.42 8.237 48.468 48.468 0 01-13.31 13.31 48.053 48.053 0 01-8.261 4.43l-.125.052a47.66 47.66 0 01-8.956 2.706 48.53 48.53 0 01-9.414.918 48.37 48.37 0 01-9.413-.916zm42.453 3.028a59.845 59.845 0 01-9.576 5.128l-4.489-10.588a51.017 51.017 0 006.678 3.183 55.125 55.125 0 007.387 2.277zm-32.655-1.626a51.84 51.84 0 004.959 5.5 55.235 55.235 0 005.941 4.943 60.343 60.343 0 01-10.812 1.056l-.088-11.499zm6.168 17.932a65.954 65.954 0 01-5.984 6.049l-.088-11.481a61.25 61.25 0 0010.983-1.073 59.973 59.973 0 01-4.911 6.505zm9.252-14.501a50.674 50.674 0 002.469-6.963l4.317 10.649a59.393 59.393 0 01-10.385 3.144 54.39 54.39 0 003.599-6.83zm3.621 11.954a59.776 59.776 0 01-7.013-4.146 60.579 60.579 0 0010.553-3.196l4.314 10.64a64.607 64.607 0 01-7.854-3.298zm12.125-5.026a64.296 64.296 0 01-3.211 7.895l-4.485-10.58a60.828 60.828 0 009.729-5.21 60.416 60.416 0 01-2.033 7.895zm2.971-16.947a51.386 51.386 0 00-.385-7.394l8.069 8.196a60.354 60.354 0 01-8.388 6.89c.421-2.601.652-5.173.704-7.692zm7.929 9.65a60.515 60.515 0 01-8.065-1.137 61.464 61.464 0 008.521-6.998l8.062 8.188c-2.9.169-5.747.149-8.518-.053zm9.323-.753l-8.189-8.062a61.407 61.407 0 007-8.521 60.755 60.755 0 011.137 8.067c.201 2.769.222 5.616.052 8.516zm7.243-19.418a59.89 59.89 0 01-7.895 2.031 60.798 60.798 0 005.209-9.727l10.58 4.486a64.305 64.305 0 01-7.894 3.21zm-2.315-8.584a60.381 60.381 0 003.196-10.553 60.068 60.068 0 014.146 7.014 64.873 64.873 0 013.298 7.855l-10.64-4.316zm9.89-16.412a60.497 60.497 0 01-6.505 4.911 61.351 61.351 0 001.072-10.984l11.482.089a66.34 66.34 0 01-6.049 5.984zm-115.705-67.737c.551 0 1.107-.171 1.579-.523a2.653 2.653 0 00-3.051-4.341 2.653 2.653 0 001.472 4.864zm-7.907 6.955a2.651 2.651 0 001.879-4.529 2.654 2.654 0 00-3.754 0l-.003.003a2.651 2.651 0 001.878 4.526zm-8.599 7.346a2.64 2.64 0 001.656.581 2.648 2.648 0 002.211-1.185 2.655 2.655 0 10-3.867.604zm44.644-28.246a2.654 2.654 0 10-.728-5.206 2.653 2.653 0 00.728 5.206zm-9.966 3.401a2.655 2.655 0 10-.727-5.208 2.655 2.655 0 00.727 5.208zm-9.429 4.675a2.632 2.632 0 001.473-.446 2.653 2.653 0 00-2.789-4.512 2.654 2.654 0 001.316 4.958zm-30.628 29.235a2.659 2.659 0 003.495-1.065 2.655 2.655 0 00-4.514-2.785 2.654 2.654 0 001.019 3.85zm-4.657 9.453a2.652 2.652 0 003.561-1.187 2.652 2.652 0 00-1.643-3.742 2.655 2.655 0 00-3.193 1.565 2.655 2.655 0 001.275 3.364zm-2.917 10.163a2.654 2.654 0 003.347-2.118 2.657 2.657 0 00-2.182-3.055 2.653 2.653 0 00-3.019 2.006 2.659 2.659 0 001.854 3.167zm-1.677 10.41a2.654 2.654 0 002.999-2.223 2.653 2.653 0 00-5.241-.843l-.01.065a2.655 2.655 0 002.252 3.001zm69.602-69.397c.125 0 .25-.009.379-.027l.064-.01a2.656 2.656 0 10-.443.037zm10.514-.698a2.653 2.653 0 000-5.307h-.003a2.652 2.652 0 10.003 5.307z" fill="#000" fill-opacity=".2"/><path d="M332.422 196.456a135.929 135.929 0 00-4.602-35.128 135.053 135.053 0 00-13.578-32.773l-.022-.038-.014-.025-.011-.015a136.136 136.136 0 00-21.582-28.085 136.21 136.21 0 00-28.087-21.584l-.015-.009-.023-.015-.039-.022a134.997 134.997 0 00-32.774-13.58 135.899 135.899 0 00-35.137-4.601h-.072c-11.91 0-23.733 1.548-35.137 4.602a135.04 135.04 0 00-32.774 13.58l-.038.021a.157.157 0 00-.025.015l-.015.009a136.23 136.23 0 00-28.086 21.584 136.275 136.275 0 00-21.583 28.085l-.024.04-.007.013-.015.025a134.997 134.997 0 00-13.58 32.774 135.91 135.91 0 00-4.601 35.128v.089a135.898 135.898 0 004.601 35.128 134.997 134.997 0 0013.58 32.774l.022.038a.12.12 0 00.015.024l.009.015a136.234 136.234 0 0021.583 28.087 136.22 136.22 0 0028.086 21.582l.015.009.025.016.038.022a135.033 135.033 0 0032.774 13.58 135.96 135.96 0 0035.128 4.601h.089c11.91-.001 23.73-1.55 35.128-4.601a135.101 135.101 0 0032.774-13.58l.038-.022a.482.482 0 00.025-.016l.013-.009a136.114 136.114 0 0028.087-21.582 136.206 136.206 0 0021.583-28.087l.025-.039a.853.853 0 00.018-.031l.004-.007a135.043 135.043 0 0013.578-32.774 135.983 135.983 0 004.602-35.128v-.044l.001-.046zM162.429 323.707a130.782 130.782 0 01-31.783-13.177l-.019-.012a131.93 131.93 0 01-27.224-20.917 132.027 132.027 0 01-20.919-27.225l-.011-.021a130.776 130.776 0 01-13.176-31.78 131.692 131.692 0 01-4.457-34.072 131.654 131.654 0 014.457-34.07 130.764 130.764 0 0113.176-31.783 131.997 131.997 0 0120.93-27.245 131.932 131.932 0 0127.245-20.93 130.863 130.863 0 0131.783-13.176 131.658 131.658 0 0134.039-4.457h.064c11.543 0 22.994 1.5 34.041 4.457a130.75 130.75 0 0131.78 13.175 131.945 131.945 0 0127.247 20.931 131.903 131.903 0 0120.929 27.245l.015.028a130.803 130.803 0 0113.162 31.755 131.61 131.61 0 014.455 34.07 131.716 131.716 0 01-4.455 34.072 130.686 130.686 0 01-13.177 31.78l-.011.021a131.936 131.936 0 01-20.919 27.225 131.926 131.926 0 01-27.246 20.929l-.027.015a130.721 130.721 0 01-31.755 13.161 131.766 131.766 0 01-34.041 4.455h-.063a131.72 131.72 0 01-34.04-4.454z" fill="#000" fill-opacity=".2"/><path d="M196.497 286.477h.049a90.141 90.141 0 0023.264-3.042 89.251 89.251 0 0021.634-8.963l.036-.023.039-.022a90.316 90.316 0 0018.606-14.302 90.417 90.417 0 0014.304-18.607l.008-.015.015-.024.022-.038a89.281 89.281 0 008.963-21.634 90.151 90.151 0 003.043-23.307 90.185 90.185 0 00-3.043-23.308 89.083 89.083 0 00-8.963-21.633l-.022-.038-.022-.04a90.395 90.395 0 00-14.304-18.606 90.254 90.254 0 00-18.606-14.302l-.038-.022a.047.047 0 00-.012-.007l-.025-.015a89.185 89.185 0 00-21.634-8.963 90.183 90.183 0 00-23.299-3.043h-.016a90.185 90.185 0 00-23.3 3.043 89.172 89.172 0 00-21.634 8.963l-.007.004-.03.018-.039.022a90.281 90.281 0 00-18.606 14.302 90.345 90.345 0 00-14.303 18.606l-.009.015-.014.025-.022.038a89.146 89.146 0 00-8.963 21.635 90.155 90.155 0 00-3.045 23.308 90.247 90.247 0 003.043 23.306 89.195 89.195 0 008.963 21.634l.005.008.017.029.022.039a90.361 90.361 0 0014.303 18.607 90.343 90.343 0 0018.606 14.302l.039.022.03.017.007.004a89.29 89.29 0 0021.634 8.963 90.229 90.229 0 0023.264 3.043h.04v.001zm-22.722-5.218a86.855 86.855 0 01-21.126-8.759 88.056 88.056 0 01-18.178-13.969 88.017 88.017 0 01-13.969-18.179 86.993 86.993 0 01-8.759-21.125 87.948 87.948 0 01-2.968-22.727c0-7.721.999-15.368 2.968-22.727a87.011 87.011 0 018.743-21.1l.016-.027a88.086 88.086 0 0113.968-18.178 88.148 88.148 0 0118.179-13.969 87.05 87.05 0 0121.126-8.758 87.937 87.937 0 0122.731-2.967c7.721 0 15.367.998 22.722 2.967a87.083 87.083 0 0121.126 8.758 88.115 88.115 0 0118.178 13.969 88.092 88.092 0 0113.967 18.178l.017.027a87.011 87.011 0 018.743 21.1 87.941 87.941 0 012.967 22.727c0 7.723-.998 15.372-2.967 22.727a86.837 86.837 0 01-8.76 21.125l-.011.02a88.03 88.03 0 01-13.956 18.159 88.1 88.1 0 01-18.178 13.967l-.012.008a86.951 86.951 0 01-21.115 8.752 88.005 88.005 0 01-22.727 2.967h-.004a87.874 87.874 0 01-22.721-2.966zm-69.808-91.925l.054.017.005-.056a92.581 92.581 0 012.199-14.179l.009-.034-.031-.017a203.98 203.98 0 01-6.747-3.603l-.01-.006h-.012a206.582 206.582 0 00-30.536 2.519l-.13.023.115.062a206.335 206.335 0 0035.084 15.274zm2.627-15.956l.05.028.013-.056a92.22 92.22 0 014.636-13.561l.015-.032-.03-.021a199.714 199.714 0 01-6.01-4.728l-.009-.008-.012-.001a205.878 205.878 0 00-30.507-2.86l-.131-.003.101.083c10.01 8.076 20.735 15.196 31.884 21.159zm5.371-15.237l.046.036.024-.054a92.747 92.747 0 016.939-12.557l.019-.029-.023-.026a199.4 199.4 0 01-5.095-5.703l-.009-.009-.01-.004a207.564 207.564 0 00-29.542-8.133l-.129-.025.086.099c8.454 9.706 17.772 18.591 27.694 26.405zm7.957-14.086l.037.043.033-.047a93.543 93.543 0 019.022-11.177l.025-.025-.019-.031a200.299 200.299 0 01-4.03-6.5l-.006-.011-.01-.005a208.63 208.63 0 00-27.689-13.124l-.122-.047.068.112c6.649 11.023 14.283 21.389 22.691 30.812zm10.288-12.503l.029.049.042-.04a93.38 93.38 0 0110.818-9.454l.028-.021-.013-.032a198.034 198.034 0 01-2.848-7.097l-.005-.012-.008-.007a208.418 208.418 0 00-25.008-17.707l-.112-.068.047.123c4.641 11.988 10.371 23.519 17.03 34.266zm26.216-18.787l.012.056.052-.025a92.204 92.204 0 0113.367-5.167l.034-.01-.001-.035c-.13-2.543-.211-5.114-.242-7.644v-.011l-.006-.01a205.851 205.851 0 00-17.422-25.207l-.083-.102.003.132c.247 12.85 1.691 25.643 4.286 38.023zm15.124-5.624l.055-.015a92.68 92.68 0 0114.073-2.752l.036-.004.004-.036a199.85 199.85 0 011.098-7.567l.001-.012-.004-.012a207.328 207.328 0 00-12.752-27.861l-.062-.115-.021.13c-2.004 12.718-2.822 25.566-2.428 38.187v.057zm-29.045 13.869l.022.053.046-.034a92.755 92.755 0 0112.278-7.429l.031-.016-.007-.034a202.568 202.568 0 01-1.574-7.484l-.001-.012-.008-.009a206.677 206.677 0 00-21.557-21.777l-.099-.085.025.13c2.49 12.604 6.139 24.949 10.844 36.697zm53.996-17.259c1.791 0 3.602.053 5.382.153l.034.002.011-.033a207.283 207.283 0 012.382-7.27l.004-.01-.002-.012a210.376 210.376 0 00-7.768-29.64l-.041-.125-.041.125c-4.169 12.22-7.201 24.732-9.014 37.189l-.007.056.057-.006a95.51 95.51 0 019.003-.429zm-95.21-11.077a2.72 2.72 0 001.844-.713 2.74 2.74 0 10-3.78-3.966 2.74 2.74 0 001.936 4.679zm-7.877 7.601a2.734 2.734 0 002.144-1.03 2.74 2.74 0 00-4.17-3.554 2.74 2.74 0 002.026 4.584zm16.309-14.578a2.74 2.74 0 10-1.714-4.879 2.74 2.74 0 001.714 4.88zm-31.737 31.007a2.74 2.74 0 003.748-.684 2.74 2.74 0 10-4.506-3.118 2.738 2.738 0 00.758 3.802zm6.441-8.851a2.735 2.735 0 003.847-.423 2.741 2.741 0 00-4.238-3.476c-.012.014-.025.032-.037.045a2.742 2.742 0 00.428 3.854zm63.547-43.061a2.734 2.734 0 001.082-.224 2.741 2.741 0 00-2.045-5.084 2.74 2.74 0 00-1.639 3.432 2.744 2.744 0 002.602 1.876zm10.427-3.316a2.742 2.742 0 10.007-5.486 2.742 2.742 0 00-.007 5.486zm-20.56 7.421a2.72 2.72 0 001.019-.198 2.74 2.74 0 10-2.246-4.994 2.74 2.74 0 001.227 5.192zm-9.791 4.873a2.734 2.734 0 001.521-.462 2.74 2.74 0 00-2.88-4.66 2.74 2.74 0 001.359 5.123zm-9.389 5.613a2.742 2.742 0 002.351-4.155 2.74 2.74 0 00-3.873-.867 2.74 2.74 0 001.522 5.022zM59.41 156.188a2.74 2.74 0 003.373-1.835 2.739 2.739 0 00-1.753-3.404 2.743 2.743 0 10-1.62 5.239zm12.921-30.121a2.737 2.737 0 003.61-1.101 2.744 2.744 0 00-.864-3.635 2.745 2.745 0 00-3.973 1.059 2.742 2.742 0 001.227 3.677zm-9.701 19.622a2.737 2.737 0 003.863-1.702 2.74 2.74 0 00-5.18-1.77 2.74 2.74 0 001.316 3.472zm4.474-10a2.741 2.741 0 10-1.226-3.68l-.001.003a2.741 2.741 0 001.227 3.677zm-13.495 52.758a2.734 2.734 0 003.127-2.715 2.74 2.74 0 00-5.471-.232 2.744 2.744 0 002.344 2.947zm2.921-21.701a2.742 2.742 0 003.457-2.187 2.742 2.742 0 00-2.252-3.155 2.743 2.743 0 00-1.204 5.342zm-1.693 10.827a2.742 2.742 0 003.097-2.303 2.74 2.74 0 00-5.412-.864c-.003.021-.008.044-.01.066a2.743 2.743 0 002.325 3.101zm114.216-118.6c.129 0 .26-.009.391-.026.162-.026.326-.063.482-.116a2.741 2.741 0 10-.873.142zm10.814-1.675a2.742 2.742 0 002.75-2.74 2.742 2.742 0 00-3.133-2.715 2.742 2.742 0 00.383 5.455zm10.915-.846a2.74 2.74 0 10-.192-5.476 2.74 2.74 0 00.192 5.476zM28.488 182.536l.041-.463a164.408 164.408 0 00-.404 6.025 185.971 185.971 0 0112.906-6.288c.988.677 1.982 1.344 2.977 1.997l.152-1.715a184.453 184.453 0 01-14.381-10.723c-.496 3.316-.89 6.648-1.186 9.986l.062-.708a193.112 193.112 0 01-14.278-11.578 184.23 184.23 0 00-1.806 18.266 196.596 196.596 0 0112.954-6.967c.984.731 1.973 1.456 2.963 2.168z" fill="#000" fill-opacity=".2"/><path d="M30.694 165.871l.082-.432c-.368 1.97-.7 3.948-.998 5.93a184.112 184.112 0 0113.466-4.97c.918.773 1.838 1.532 2.766 2.283l.321-1.69a182.985 182.985 0 01-13.238-12.103 167.992 167.992 0 00-2.169 9.765l.124-.646A191.68 191.68 0 0118 151.058a183.771 183.771 0 00-3.621 18.011 193.004 193.004 0 0113.582-5.654 181.46 181.46 0 002.733 2.456z" fill="#000" fill-opacity=".2"/><path d="M34.556 149.51l.12-.409c-.563 1.919-1.09 3.85-1.584 5.788a184.31 184.31 0 0113.899-3.595c.833.86 1.675 1.71 2.522 2.549l.486-1.643a183.476 183.476 0 01-11.958-13.37 166.667 166.667 0 00-3.137 9.506l.188-.639a191.819 191.819 0 01-11.684-14.195 183.19 183.19 0 00-5.41 17.556 192.895 192.895 0 0114.083-4.264c.818.915 1.644 1.82 2.475 2.716zm5.48-15.887l.155-.379a166.678 166.678 0 00-2.15 5.586 184.53 184.53 0 0114.189-2.183c.745.939 1.494 1.867 2.252 2.787l.652-1.591c-3.71-4.6-7.235-9.441-10.556-14.503a165.53 165.53 0 00-4.081 9.155l.255-.628a192.05 192.05 0 01-10.2-15.294 182.631 182.631 0 00-7.142 16.928 193.657 193.657 0 0114.438-2.829 176.87 176.87 0 002.188 2.951z" fill="#000" fill-opacity=".2"/><path d="M47.084 118.363l.181-.341a171.06 171.06 0 00-2.687 5.32c4.812-.438 9.595-.689 14.336-.752.644 1.009 1.3 2.009 1.963 3l.807-1.519a183.748 183.748 0 01-9.053-15.485 168.916 168.916 0 00-4.968 8.685l.31-.584a192.408 192.408 0 01-8.622-16.234 183.543 183.543 0 00-8.798 16.122c4.911-.646 9.8-1.102 14.649-1.367a182.24 182.24 0 001.882 3.155z" fill="#000" fill-opacity=".2"/><path d="M54.062 100.555a202.16 202.16 0 001.557 3.326l.248-.374a167.763 167.763 0 00-3.238 5.079c4.832.044 9.615.271 14.34.68a192.858 192.858 0 001.653 3.181l.951-1.428a184.549 184.549 0 01-7.466-16.31 168.433 168.433 0 00-5.837 8.194l.395-.595A193.71 193.71 0 0149.7 85.297a184.172 184.172 0 00-10.352 15.156c4.956-.152 9.861-.117 14.714.102zm11.489-10.231l.248-.302a168.289 168.289 0 00-3.689 4.687c4.804.522 9.543 1.226 14.2 2.099.434 1.116.878 2.227 1.33 3.33l1.092-1.33a185.792 185.792 0 01-5.812-16.972 171.34 171.34 0 00-6.577 7.52l.41-.498a193.985 193.985 0 01-5.246-17.616 184.401 184.401 0 00-11.805 14.054c4.94.34 9.823.864 14.628 1.562a188.01 188.01 0 001.221 3.466z" fill="#000" fill-opacity=".2"/><path d="M76.78 77.814l1.34-1.339a194.502 194.502 0 01-3.476-18.048 184.452 184.452 0 00-13.137 12.816c4.883.83 9.688 1.834 14.4 3.003.283 1.195.572 2.384.873 3.568zm12.412-11.338l.35-.284a165.727 165.727 0 00-4.589 3.908 186.112 186.112 0 0113.51 4.856c.206 1.18.421 2.355.647 3.526l1.33-1.085a185.657 185.657 0 01-2.355-17.785 169.661 169.661 0 00-7.99 6.127l.56-.457a193.833 193.833 0 01-1.67-18.307 185.282 185.282 0 00-14.34 11.451 194.511 194.511 0 0114.033 4.416c.16 1.216.332 2.428.514 3.634z" fill="#000" fill-opacity=".2"/><path d="M102.663 56.43l.301-.201a169.449 169.449 0 00-4.88 3.383 185.04 185.04 0 0112.962 6.174c.086 1.196.183 2.385.294 3.574l1.433-.951a184.143 184.143 0 01-.576-17.93 168.166 168.166 0 00-8.465 5.24l.507-.337a193.048 193.048 0 01.16-18.38 183.83 183.83 0 00-15.416 9.975 194.686 194.686 0 0113.528 5.784c.04 1.226.088 2.449.152 3.668zM87.838 88.777l1.219-1.217a185.939 185.939 0 01-4.105-17.463 169.502 169.502 0 00-12.034 11.738c4.73.997 9.375 2.163 13.925 3.495.323 1.156.653 2.304.995 3.447zm29.232-41.01l.404-.212a163.923 163.923 0 00-5.274 2.925 185.346 185.346 0 0112.28 7.434 179.056 179.056 0 00-.062 3.584l1.522-.804c.108-5.909.51-11.882 1.212-17.895a167.013 167.013 0 00-9.05 4.424l.645-.34a193.393 193.393 0 011.992-18.275 183.406 183.406 0 00-16.337 8.393 195.16 195.16 0 0112.885 7.1 182.796 182.796 0 00-.217 3.666z" fill="#000" fill-opacity=".2"/><path d="M132.269 40.587l.321-.13a171.79 171.79 0 00-5.438 2.341 184.51 184.51 0 0111.475 8.626 173.774 173.774 0 00-.419 3.56l1.589-.645a183.19 183.19 0 012.998-17.682 166.277 166.277 0 00-9.326 3.445l.553-.226a191.042 191.042 0 013.815-17.982 182.906 182.906 0 00-17.098 6.714 192.769 192.769 0 0112.114 8.353 169.693 169.693 0 00-.584 3.626z" fill="#000" fill-opacity=".2"/><path d="M148.106 34.969l.394-.117a169.001 169.001 0 00-5.708 1.803 182.914 182.914 0 0110.55 9.731 177.814 177.814 0 00-.774 3.5l1.65-.483a183.458 183.458 0 014.757-17.292 166.788 166.788 0 00-9.678 2.508l.626-.184a191.238 191.238 0 015.601-17.51 182.503 182.503 0 00-17.69 4.969 192.493 192.493 0 0111.213 9.525 223.97 223.97 0 00-.941 3.55zm17.623-7.441c-.444 1.145-.876 2.29-1.297 3.438l.431-.08c-1.969.374-3.932.781-5.886 1.226a183.806 183.806 0 019.522 10.74c-.387 1.135-.76 2.27-1.121 3.406l1.69-.315a183.687 183.687 0 016.466-16.73 167.29 167.29 0 00-9.914 1.532l.677-.125a193.07 193.07 0 017.321-16.861 183.512 183.512 0 00-18.093 3.168 191.377 191.377 0 0110.204 10.601zm15.349 1.088l.407-.034c-1.985.175-3.969.383-5.949.63a184.858 184.858 0 018.405 11.637 187.5 187.5 0 00-1.456 3.275l1.711-.144a186.259 186.259 0 018.1-16.009 171.24 171.24 0 00-9.992.54l.659-.056a195.718 195.718 0 018.951-16.053c-6.11.15-12.219.599-18.294 1.354a193.356 193.356 0 019.09 11.566 197.594 197.594 0 00-1.632 3.294z" fill="#000" fill-opacity=".2"/><path d="M197.87 27.925l.353.005c-1.977-.02-3.952-.008-5.928.04a188.96 188.96 0 017.224 12.41 203.858 203.858 0 00-1.774 3.117l1.725.022a187.876 187.876 0 019.63-15.135 171.31 171.31 0 00-9.995-.443l.66.01c3.216-5.13 6.71-10.17 10.484-15.098-6.106-.45-12.224-.6-18.336-.45a197.352 197.352 0 017.9 12.406 215.804 215.804 0 00-1.943 3.116z" fill="#000" fill-opacity=".2"/><path d="M196.501 349.576c-20.665 0-40.712-4.047-59.583-12.028-18.229-7.71-34.599-18.749-48.656-32.805-14.058-14.058-25.096-30.429-32.805-48.657-7.983-18.872-12.03-38.919-12.03-59.584 0-20.663 4.047-40.712 12.03-59.583 7.709-18.229 18.746-34.599 32.805-48.658 14.059-14.059 30.427-25.095 48.656-32.805 18.871-7.982 38.92-12.03 59.583-12.03 20.665 0 40.712 4.048 59.584 12.03 18.228 7.71 34.6 18.746 48.657 32.805 14.056 14.059 25.094 30.429 32.804 48.658 7.982 18.873 12.029 38.92 12.029 59.583 0 20.665-4.047 40.712-12.029 59.584-7.71 18.228-18.748 34.6-32.804 48.657-14.059 14.056-30.429 25.095-48.657 32.805-18.872 7.981-38.919 12.028-59.584 12.028zm0-303.587c-82.993 0-150.512 67.518-150.512 150.512 0 82.993 67.519 150.513 150.512 150.513 82.994 0 150.514-67.52 150.514-150.513-.002-82.992-67.522-150.512-150.514-150.512z" fill="#000" fill-opacity=".2"/><path d="M196.5 393.002c-26.526 0-52.261-5.197-76.488-15.444-23.4-9.897-44.414-24.064-62.458-42.111-18.045-18.045-32.212-39.058-42.11-62.458C5.196 248.761 0 223.028 0 196.501c0-26.526 5.196-52.26 15.444-76.487 9.898-23.4 24.065-44.414 42.11-62.458 18.044-18.046 39.059-32.214 62.458-42.112C144.241 5.196 169.974 0 196.5 0c26.526 0 52.261 5.196 76.488 15.444 23.399 9.898 44.412 24.066 62.458 42.112 18.047 18.045 32.213 39.058 42.11 62.458C387.805 144.241 393 169.975 393 196.501c0 26.527-5.195 52.261-15.444 76.488-9.898 23.4-24.063 44.414-42.11 62.458-18.044 18.047-39.059 32.214-62.458 42.111-24.227 10.247-49.96 15.444-76.488 15.444zm0-387.942C90.94 5.06 5.059 90.94 5.059 196.501c0 105.562 85.881 191.442 191.441 191.442 105.561 0 191.441-85.88 191.441-191.442 0-105.56-85.878-191.44-191.441-191.44z" fill="#000" fill-opacity=".2"/></svg>