<svg width="42" height="33" fill="none" xmlns="http://www.w3.org/2000/svg"><path d="M7.636 32.836v-2.184c0-.838-.505-1.383-1.37-1.383-.431 0-.9.145-1.224.618-.252-.4-.612-.618-1.152-.618-.36 0-.72.109-1.009.51v-.438h-.756v3.495h.756v-1.93c0-.618.325-.91.829-.91s.756.328.756.91v1.93h.756v-1.93c0-.618.36-.91.829-.91.504 0 .756.328.756.91v1.93h.829zm11.2-3.495h-1.224v-1.055h-.756v1.055h-.685v.692h.684v1.602c0 .8.325 1.274 1.189 1.274a2 2 0 00.936-.255L18.764 32a1.175 1.175 0 01-.648.182c-.36 0-.504-.219-.504-.583v-1.565h1.224v-.692zm6.411-.073c-.432 0-.72.219-.9.51v-.437h-.757v3.495h.757V30.87c0-.582.252-.91.72-.91.144 0 .324.037.468.073l.216-.728c-.144-.036-.36-.036-.504-.036zm-9.688.364c-.36-.254-.864-.363-1.405-.363-.864 0-1.44.436-1.44 1.128 0 .583.432.91 1.188 1.02l.36.036c.397.073.613.182.613.364 0 .255-.289.437-.793.437s-.9-.182-1.152-.364l-.36.582c.396.291.936.437 1.476.437 1.009 0 1.585-.473 1.585-1.129 0-.619-.468-.946-1.189-1.055l-.36-.037c-.324-.036-.576-.109-.576-.327 0-.255.252-.4.648-.4.432 0 .865.181 1.08.29l.325-.619zm20.097-.363c-.432 0-.72.218-.9.51v-.438h-.757v3.495h.756V30.87c0-.582.252-.91.72-.91.145 0 .325.037.469.073l.216-.728c-.144-.036-.36-.036-.504-.036zm-9.652 1.82c0 1.055.72 1.82 1.836 1.82.505 0 .865-.11 1.225-.4l-.36-.62c-.288.219-.577.328-.9.328-.613 0-1.045-.437-1.045-1.128 0-.655.432-1.092 1.044-1.129.324 0 .613.11.9.328l.36-.619c-.36-.291-.72-.4-1.224-.4-1.116 0-1.837.764-1.837 1.82zm6.987 0V29.34h-.757v.437c-.252-.327-.612-.51-1.08-.51-.973 0-1.729.765-1.729 1.82 0 1.056.756 1.82 1.729 1.82.504 0 .864-.181 1.08-.509v.437h.757v-1.747zm-2.774 0c0-.62.396-1.129 1.045-1.129.612 0 1.044.473 1.044 1.129 0 .619-.432 1.128-1.044 1.128-.649-.036-1.045-.51-1.045-1.128zm-9.04-1.82c-1.008 0-1.729.728-1.729 1.82s.72 1.82 1.765 1.82c.505 0 1.009-.146 1.405-.473l-.36-.546c-.288.218-.648.364-1.009.364-.468 0-.936-.219-1.044-.838h2.557v-.29c.036-1.13-.612-1.857-1.585-1.857zm0 .655c.468 0 .793.291.865.837H20.24c.072-.473.396-.837.936-.837zm18.765 1.165v-3.131h-.757v1.82c-.252-.327-.612-.51-1.08-.51-.973 0-1.729.765-1.729 1.82 0 1.056.756 1.82 1.729 1.82.504 0 .864-.181 1.08-.509v.437h.757v-1.747zm-2.774 0c0-.62.397-1.129 1.045-1.129.612 0 1.044.473 1.044 1.129 0 .619-.432 1.128-1.044 1.128-.648-.036-1.045-.51-1.045-1.128zm-25.283 0V29.34h-.756v.437c-.252-.327-.612-.51-1.08-.51-.973 0-1.73.765-1.73 1.82 0 1.056.757 1.82 1.73 1.82.504 0 .864-.181 1.08-.509v.437h.756v-1.747zm-2.809 0c0-.62.396-1.129 1.044-1.129.613 0 1.045.473 1.045 1.129 0 .619-.432 1.128-1.045 1.128-.648-.036-1.044-.51-1.044-1.128z" fill="#000"/><path d="M15.307 2.803h11.345v20.604H15.307V2.803z" fill="#FF5F00"/><path d="M16.027 13.105c0-4.186 1.945-7.9 4.934-10.302A12.799 12.799 0 0012.966 0C5.798 0 0 5.86 0 13.105s5.798 13.106 12.966 13.106c3.025 0 5.798-1.056 7.995-2.804-2.99-2.366-4.934-6.115-4.934-10.302z" fill="#EB001B"/><path d="M41.958 13.105c0 7.245-5.798 13.106-12.965 13.106a12.798 12.798 0 01-7.996-2.804c3.026-2.402 4.934-6.115 4.934-10.302 0-4.186-1.945-7.9-4.934-10.302A12.8 12.8 0 0128.993 0c7.167 0 12.966 5.897 12.966 13.105z" fill="#F79E1B"/></svg>