<svg width="30" height="30" fill="none" xmlns="http://www.w3.org/2000/svg"><path d="M7 22.986h1v-1H7v1zm0 5.996H6a1 1 0 001.6.8l-.6-.8zm8-5.996v-1h-.333l-.267.2.6.8zM9 7.995H8v2h1v-2zm12 2h1v-2h-1v2zM9 13.99H8v2h1v-2zm8 2h1v-2h-1v2zM6 22.986v5.996h2v-5.996H6zm1.6 6.796l8-5.996-1.2-1.6-8 5.995 1.2 1.6zm7.4-5.796h12v-2H15v2zm12 0c1.658 0 3-1.34 3-3h-2a.997.997 0 01-1 1v2zm3-3V3h-2v17.988h2zM30 3a2.998 2.998 0 00-3-3v2c.554 0 1 .446 1 .999h2zm-3-3H3v2h24V0zM3 0C1.342 0 0 1.34 0 2.999h2A.997.997 0 013 2V0zM0 2.999v17.988h2V2.999H0zm0 17.988a2.998 2.998 0 003 2.999v-2c-.554 0-1-.447-1-1H0zm3 2.999h4v-2H3v2zM9 9.995h12v-2H9v2zm0 5.996h8v-2H9v2z" fill="#F79E1B"/></svg>