<svg width="44" height="12" fill="none" xmlns="http://www.w3.org/2000/svg"><path fill-rule="evenodd" clip-rule="evenodd" d="M11.594 0v.005c-.005 0-1.68-.005-2.126 1.572-.41 1.447-1.563 5.44-1.595 5.55h-.319S6.374 3.045 5.96 1.572C5.513-.005 3.834 0 3.834 0H.007v12h3.827V4.873h.319L6.385 12h2.658l2.232-7.121h.319V12h3.827V0h-3.827zm13.979 0s-1.122.1-1.648 1.258l-2.71 5.869h-.32V0H17.07v12h3.614s1.175-.105 1.7-1.258l2.658-5.869h.32V12h3.826V0h-3.614zm5.315 5.45V12h3.827V8.175h4.146a4.137 4.137 0 003.907-2.725h-11.88z" fill="#4DB45E"/><path fill-rule="evenodd" clip-rule="evenodd" d="M38.86 0h-8.509c.425 2.285 2.163 4.119 4.412 4.716.51.136 1.047.21 1.6.21h6.559c.058-.273.085-.55.085-.839C43.007 1.83 41.152 0 38.86 0z" fill="url(#paint0_linear)"/><defs><linearGradient id="paint0_linear" x1="30.352" y1="2.463" x2="43.007" y2="2.463" gradientUnits="userSpaceOnUse"><stop offset=".3" stop-color="#00B4E6"/><stop offset="1" stop-color="#088CCB"/></linearGradient></defs></svg>