<svg width="83" height="82" fill="none" xmlns="http://www.w3.org/2000/svg"><path d="M41.994 67.913a.822.822 0 01-.216.252.574.574 0 01-.278.105.55.55 0 01-.444-.138c-.125-.109-.202-.307-.231-.594l-.103-1.015c-.03-.287.006-.499.106-.635a.55.55 0 01.407-.224.548.548 0 01.398.095c.106.08.195.24.267.48a.73.73 0 00.202.362c.177.159.415.276.713.351.294.076.585.1.873.07.357-.036.678-.147.961-.333.284-.186.522-.465.716-.838.194-.374.266-.801.217-1.283l-.08-.775a1.89 1.89 0 00-.77-1.377c-.458-.342-1.059-.475-1.801-.4-.443.046-.812.144-1.107.296-.171.088-.348.245-.529.472a1.33 1.33 0 01-.267.269.487.487 0 01-.233.082.579.579 0 01-.438-.138.585.585 0 01-.224-.407c-.017-.163.047-.346.191-.55.21-.296.493-.54.85-.734a4.282 4.282 0 011.63-.484c.707-.072 1.359.01 1.956.243.482.186.91.514 1.284.982.374.473.59 1.006.651 1.6l.083.811a3.638 3.638 0 01-.255 1.781 3.102 3.102 0 01-1.08 1.37 3.27 3.27 0 01-1.587.604 3.687 3.687 0 01-.98-.024 2.986 2.986 0 01-.882-.276zM30.94 64.775c.04.001.353-.236.938-.711.418-.337.694-.556.829-.656l.11-.112c-.266-.419-.447-.933-.54-1.543l-.247-1.54-.212-.068c-.371-.12-.608-.245-.71-.372-.107-.129-.126-.297-.058-.506.067-.208.18-.335.34-.382.157-.043.424-.004.799.117l.128.042c.394.128.62.232.675.311.055.084.113.31.175.679l.247 1.534c.138.829.413 1.31.826 1.444l.323.105.61-1.884a2.297 2.297 0 01-.157-.045c-.524-.17-.724-.446-.6-.829.068-.208.18-.336.34-.383.154-.044.417-.006.788.114l1.143.37c.368.12.605.244.71.373.103.128.12.296.053.504-.067.208-.18.333-.338.377-.162.045-.428.009-.796-.11l-1.449 4.47c.053.013.106.028.158.045.528.17.729.45.604.836-.068.208-.18.334-.338.377-.158.043-.423.005-.794-.116l-1.143-.37c-.368-.12-.603-.243-.705-.37-.103-.128-.12-.296-.053-.504.068-.208.181-.336.34-.383.158-.043.42-.005.788.114l.467-1.438-.156-.05a.6.6 0 00-.338-.024c-.098.026-.261.13-.488.31l-1.232.987c-.26.207-.523.347-.79.421-.266.074-.598.046-.995-.082-.249-.081-.413-.175-.493-.284a.494.494 0 01-.112-.32c.005-.104.056-.305.152-.603l.036-.111c.117-.36.238-.593.362-.696.122-.1.286-.117.49-.05.375.121.48.459.312 1.012zm-4.703-7.178l.823-.922-.905-.807c-.215-.193-.33-.372-.346-.537a.548.548 0 01.15-.448.559.559 0 01.428-.199c.163 0 .352.095.568.287l1.941 1.732c.216.193.334.371.354.536a.575.575 0 01-.157.449.541.541 0 01-.424.194c-.169.002-.36-.093-.572-.282l-.14-.125-3.129 3.506.14.125c.216.192.334.371.354.536a.574.574 0 01-.157.449.556.556 0 01-.424.202c-.169.002-.36-.094-.576-.286l-2.06-1.846c-.607-.54-.938-1.135-.994-1.782a2.12 2.12 0 01.543-1.682c.234-.263.515-.457.843-.584.246-.094.552-.132.919-.114.36.018.69.082.99.192.294.11.622.327.983.65l.848.756zm-.8.897l-.83-.741c-.39-.349-.778-.537-1.161-.565-.389-.028-.694.082-.915.33-.187.21-.258.477-.212.8.044.322.237.636.581.943l1.032.92 1.506-1.687zM17.82 46.658c.97-.442 1.92-.5 2.849-.177.923.322 1.57.888 1.939 1.699.332.729.363 1.508.093 2.34-.335 1.027-1.032 1.783-2.09 2.265-1.06.483-2.09.513-3.088.092-.804-.342-1.372-.877-1.704-1.606-.369-.81-.37-1.67-.003-2.58.362-.912 1.03-1.59 2.004-2.033zm.498 1.093c-.665.303-1.123.754-1.374 1.353-.254.601-.264 1.157-.031 1.67.231.508.657.863 1.277 1.066.62.202 1.261.153 1.922-.148.662-.301 1.12-.752 1.374-1.353.25-.6.26-1.153.029-1.661-.234-.512-.659-.87-1.275-1.075-.617-.204-1.257-.154-1.922.148zm-3.431-10.345l4.7-.058c-.005-.332.043-.563.143-.693.1-.13.248-.196.443-.199.219-.002.376.066.471.205.092.136.14.4.145.79l.012.96c.005.391-.037.657-.125.8-.088.137-.244.207-.466.21-.207.002-.359-.062-.454-.194-.1-.131-.15-.357-.155-.677l-4.699.058.02 1.646 3.346-.041c.883-.011 1.564.146 2.045.472.477.323.719.804.727 1.445.01.84-.191 1.262-.605 1.267l-.727.009c-.379.005-.631-.043-.758-.143-.126-.1-.19-.25-.193-.449-.005-.398.284-.601.866-.608l.187-.003c.004-.05.005-.09.005-.117-.003-.207-.124-.371-.364-.493-.24-.123-.63-.18-1.168-.174l-3.346.042c.005.062.008.127.009.193.007.559-.193.84-.6.845-.214.003-.367-.063-.459-.199-.095-.136-.145-.4-.15-.795l-.05-3.967c-.004-.386.038-.65.126-.792.088-.142.241-.214.46-.217.191-.002.34.06.448.188.107.128.162.357.166.69zm3.385-10.562l4.323 1.841c.13-.305.268-.497.412-.576.143-.079.305-.08.485-.004.201.086.317.212.349.378.029.161-.033.421-.186.78l-.377.885c-.153.36-.298.586-.436.68-.136.09-.307.093-.512.005-.19-.08-.303-.2-.337-.36-.038-.16.006-.388.132-.683L17.8 27.95l-.645 1.514 3.078 1.31c.813.347 1.373.766 1.681 1.258.306.487.334 1.025.083 1.615-.329.773-.684 1.078-1.065.916l-.668-.285c-.349-.149-.56-.294-.636-.437-.075-.142-.074-.305.004-.488.156-.367.502-.436 1.038-.208l.172.074c.023-.046.04-.08.051-.106.082-.19.037-.39-.133-.598-.17-.209-.504-.418-1-.63l-3.078-1.31a2.76 2.76 0 01-.07.18c-.219.514-.515.69-.89.532-.197-.084-.31-.207-.34-.368-.032-.163.029-.425.184-.788l1.554-3.65c.152-.356.296-.58.434-.675.138-.094.307-.098.508-.013a.543.543 0 01.334.353c.047.16.005.392-.125.698zM43.233 12.93a.823.823 0 01.236-.233.575.575 0 01.285-.082.55.55 0 01.431.174c.116.119.176.323.181.612l.02 1.02c.005.288-.048.496-.159.623a.55.55 0 01-.424.19.549.549 0 01-.39-.127c-.099-.088-.174-.255-.225-.5a.731.731 0 00-.172-.378c-.163-.173-.39-.31-.681-.41a2.467 2.467 0 00-.864-.141c-.36.006-.688.09-.986.252-.298.162-.559.421-.782.777-.224.356-.332.776-.323 1.26l.015.78a1.89 1.89 0 00.653 1.434c.43.38 1.017.562 1.763.548.445-.008.821-.076 1.127-.203.179-.074.367-.216.567-.427.122-.127.218-.209.288-.245.07-.04.15-.062.24-.063a.579.579 0 01.424.174c.124.118.187.26.19.424.003.164-.076.341-.236.532a2.441 2.441 0 01-.908.661 4.3 4.3 0 01-1.664.348c-.71.013-1.354-.122-1.93-.404-.465-.226-.864-.587-1.198-1.085a3.022 3.022 0 01-.517-1.65l-.015-.814a3.639 3.639 0 01.401-1.753 3.1 3.1 0 011.19-1.277 3.27 3.27 0 011.631-.47c.348-.006.673.029.975.105.306.073.592.189.857.348zm10.757 4.041c-.041-.004-.373.207-.996.632-.443.301-.736.496-.88.585l-.119.102c.231.44.369.967.412 1.582l.118 1.555.205.086c.36.151.586.294.678.43.095.137.1.306.016.508-.085.202-.208.32-.37.354-.161.03-.424-.032-.788-.184l-.124-.052c-.382-.16-.598-.282-.647-.366-.048-.088-.087-.318-.118-.69l-.12-1.55c-.069-.837-.303-1.34-.703-1.507l-.313-.131-.765 1.826c.052.018.103.037.154.058.508.213.684.505.529.876-.084.202-.208.32-.37.353-.157.032-.416-.028-.777-.178l-1.108-.464c-.356-.15-.582-.293-.677-.43-.092-.136-.095-.304-.01-.506.084-.202.206-.318.367-.348.166-.032.427.026.784.176l1.814-4.335a2.284 2.284 0 01-.153-.058c-.512-.214-.69-.509-.533-.883.085-.202.207-.318.368-.348.161-.03.422.03.782.18l1.108.465c.357.149.58.291.672.427.092.136.095.304.01.506-.084.202-.207.32-.37.353-.16.03-.419-.03-.776-.178l-.583 1.394.151.063a.6.6 0 00.334.051c.1-.017.272-.106.513-.268l1.309-.881c.276-.185.55-.303.822-.355.27-.052.6.003.985.165.241.1.398.208.468.323.071.114.1.223.085.327-.014.105-.08.3-.202.59l-.045.107c-.146.35-.285.571-.417.664-.13.09-.295.093-.493.01-.364-.153-.44-.498-.228-1.036zm4.092 7.543l-.897.85.835.88c.2.21.3.398.3.564a.548.548 0 01-.185.434.56.56 0 01-.443.163c-.163-.013-.344-.124-.543-.333l-1.791-1.887c-.2-.21-.302-.397-.309-.563a.575.575 0 01.194-.435.541.541 0 01.44-.158c.167.012.35.122.546.329l.13.136 3.407-3.236-.13-.136c-.198-.21-.301-.397-.308-.563a.574.574 0 01.194-.434.556.556 0 01.44-.167c.167.012.351.123.55.333l1.9 2.01c.56.59.84 1.208.843 1.858a2.121 2.121 0 01-.68 1.632 2.16 2.16 0 01-.888.511c-.254.074-.562.087-.925.038a3.344 3.344 0 01-.972-.273c-.283-.135-.592-.378-.926-.729l-.782-.824zm.87-.827l.767.807c.36.38.73.6 1.11.659.386.06.699-.025.94-.254.204-.193.296-.453.277-.78-.017-.324-.184-.653-.5-.987l-.953-1.003-1.64 1.558zm6.613 12.425c-1.003.36-1.955.34-2.853-.06-.894-.397-1.491-1.014-1.792-1.853-.27-.753-.237-1.533.1-2.34.419-.996 1.176-1.69 2.272-2.084 1.095-.393 2.123-.339 3.084.163.772.408 1.294.988 1.565 1.742.3.839.23 1.696-.21 2.572-.437.878-1.158 1.498-2.166 1.86zm-.405-1.13c.687-.247 1.18-.659 1.48-1.235.303-.578.36-1.132.17-1.661-.189-.526-.584-.915-1.185-1.169-.601-.253-1.244-.257-1.928-.011-.684.245-1.177.657-1.48 1.234-.3.577-.355 1.128-.166 1.654.19.529.583.921 1.18 1.176.599.254 1.241.258 1.929.011zm2.563 10.592l-4.688-.33c-.023.33-.09.557-.2.678-.111.122-.264.176-.458.162-.219-.015-.37-.097-.453-.244-.08-.142-.106-.408-.079-.798l.068-.959c.027-.39.09-.651.19-.785.1-.13.26-.187.482-.172.207.015.352.092.436.231.088.14.121.369.099.688l4.687.331.116-1.642-3.337-.236c-.88-.062-1.547-.275-2-.64-.448-.36-.65-.86-.604-1.5.059-.837.295-1.242.708-1.212l.725.05c.378.027.626.096.743.206.118.11.17.264.155.463-.028.398-.332.576-.913.535l-.187-.013c-.007.05-.012.089-.014.116-.014.207.093.38.322.522.229.142.612.231 1.15.27l3.337.235c0-.063.003-.127.008-.194.04-.557.261-.821.667-.792.214.015.361.094.441.236.084.143.112.412.084.805l-.279 3.957c-.027.386-.09.646-.19.78s-.258.193-.477.177a.543.543 0 01-.43-.224c-.096-.136-.133-.37-.11-.7zM63.476 55.82l-4.157-2.192c-.154.294-.307.474-.457.54-.15.067-.311.055-.484-.036-.193-.102-.299-.237-.316-.405-.016-.163.068-.417.25-.763l.448-.85c.182-.345.346-.56.491-.642.143-.079.314-.066.51.038.184.096.286.225.306.386.025.163-.038.386-.187.67l4.156 2.192.769-1.456-2.96-1.561c-.78-.412-1.304-.876-1.57-1.392-.266-.51-.249-1.05.05-1.616.392-.743.771-1.018 1.137-.824l.643.339c.335.176.534.339.597.487.064.148.049.31-.044.487-.186.352-.537.392-1.051.12l-.166-.087a1.64 1.64 0 00-.06.101c-.097.183-.069.386.084.608.152.221.467.458.944.71l2.959 1.56a2.75 2.75 0 01.085-.173c.26-.494.57-.647.93-.457.19.1.293.232.308.395.02.164-.063.421-.247.77l-1.851 3.509c-.18.342-.343.554-.488.636-.146.083-.315.073-.508-.03a.543.543 0 01-.304-.378c-.033-.163.028-.392.183-.685z" fill="#fff"/><path d="M34.79 60.535a.753.753 0 01.375-.49c.193-.107.426-.125.698-.054.273.07.467.2.584.388a.753.753 0 01.089.61.753.753 0 01-.376.49c-.194.107-.426.125-.699.054-.272-.07-.466-.2-.583-.388a.752.752 0 01-.089-.61zm-5.357-39.361l.49-2.102-2.102-.49-.49 2.102 2.102.49zm12.772 20.748l.49-2.102-2.103-.49-.49 2.102 2.103.49zm13.455 20.69l.497-2.1-2.1-.498-.497 2.1 2.1.498z" fill="#fff"/></svg>