<svg width="83" height="82" fill="none" xmlns="http://www.w3.org/2000/svg"><path d="M41.994 67.913a.821.821 0 01-.216.252.574.574 0 01-.278.105.55.55 0 01-.444-.138c-.125-.109-.202-.307-.231-.594l-.103-1.015c-.03-.287.006-.499.106-.635a.549.549 0 01.407-.224.548.548 0 01.398.095c.107.08.196.24.267.48a.73.73 0 00.202.362c.177.159.415.276.713.351.294.076.585.1.873.07.357-.036.678-.147.961-.333.284-.186.522-.465.716-.838.194-.374.266-.801.217-1.283l-.079-.775a1.89 1.89 0 00-.77-1.377c-.46-.342-1.06-.475-1.802-.4-.443.046-.812.144-1.107.296-.171.088-.348.245-.529.472a1.33 1.33 0 01-.267.269.487.487 0 01-.233.082.579.579 0 01-.438-.138.585.585 0 01-.224-.407c-.017-.163.047-.346.191-.55.21-.296.493-.54.85-.734a4.283 4.283 0 011.63-.484c.707-.072 1.359.01 1.956.243.482.186.91.514 1.284.982.374.473.591 1.006.652 1.6l.082.811a3.638 3.638 0 01-.255 1.781 3.1 3.1 0 01-1.08 1.37 3.27 3.27 0 01-1.587.604 3.687 3.687 0 01-.98-.024 2.987 2.987 0 01-.882-.276zM30.94 64.775c.04.001.354-.236.939-.711.417-.337.693-.556.828-.656l.11-.112c-.266-.419-.446-.933-.54-1.543l-.246-1.54-.212-.068c-.372-.12-.609-.245-.71-.372-.107-.129-.126-.297-.059-.506.068-.208.18-.335.34-.382.158-.043.424-.004.8.117l.128.042c.394.128.619.232.675.311.055.084.113.31.174.679l.248 1.534c.138.829.413 1.31.825 1.444l.323.105.611-1.884a2.31 2.31 0 01-.157-.045c-.525-.17-.724-.446-.6-.829.067-.208.18-.336.34-.383.153-.044.416-.006.788.114l1.142.37c.368.12.605.244.711.373.103.128.12.296.053.504-.068.208-.18.333-.338.377-.163.045-.428.009-.796-.11l-1.45 4.47c.054.013.107.028.159.045.527.17.728.45.603.836-.067.208-.18.334-.338.377-.158.043-.422.005-.794-.116l-1.142-.37c-.368-.12-.603-.243-.706-.37-.102-.128-.12-.296-.052-.504.067-.208.18-.336.34-.383.157-.043.42-.005.788.114l.466-1.438-.156-.05a.6.6 0 00-.337-.024c-.099.026-.262.13-.489.31l-1.231.987a2.24 2.24 0 01-.79.421c-.266.074-.598.046-.996-.082-.248-.081-.413-.175-.493-.284a.494.494 0 01-.112-.32c.005-.104.056-.305.153-.603l.036-.111c.117-.36.237-.593.361-.696.123-.1.286-.117.49-.05.376.121.48.459.313 1.012zm-4.702-7.178l.823-.922-.905-.807c-.216-.193-.331-.372-.346-.537a.548.548 0 01.149-.448.56.56 0 01.428-.199c.163 0 .353.095.568.287l1.942 1.732c.215.193.333.371.354.536a.574.574 0 01-.157.449.541.541 0 01-.425.194c-.169.002-.36-.093-.572-.282l-.14-.125-3.129 3.506.14.125c.216.192.334.371.355.536a.575.575 0 01-.157.449.556.556 0 01-.425.202c-.168.002-.36-.094-.576-.286l-2.06-1.846c-.606-.54-.937-1.135-.994-1.782a2.12 2.12 0 01.544-1.682c.234-.263.514-.457.842-.584.246-.094.553-.132.919-.114.36.018.69.082.99.192.294.11.622.327.984.65l.848.756zm-.8.897l-.83-.741c-.391-.349-.778-.537-1.162-.565-.389-.028-.694.082-.915.33-.187.21-.257.477-.211.8.043.322.236.636.58.943l1.032.92 1.506-1.687zM17.82 46.658c.97-.442 1.92-.5 2.849-.177.924.322 1.57.888 1.939 1.699.332.729.363 1.508.093 2.34-.334 1.027-1.031 1.783-2.09 2.265-1.06.483-2.09.513-3.088.092-.804-.342-1.372-.877-1.703-1.606-.37-.81-.37-1.67-.004-2.58.362-.912 1.03-1.59 2.004-2.033zm.498 1.093c-.665.303-1.123.754-1.373 1.353-.255.601-.265 1.157-.032 1.67.231.508.657.863 1.277 1.066.62.202 1.261.153 1.922-.148.662-.301 1.12-.752 1.374-1.353.25-.6.26-1.153.029-1.661-.233-.512-.658-.87-1.275-1.075-.616-.204-1.257-.154-1.922.148zm-3.43-10.345l4.698-.058c-.004-.332.044-.563.144-.693.1-.13.248-.196.443-.199.219-.002.376.066.471.205.092.136.14.4.145.79l.012.96c.005.391-.037.657-.125.8-.088.137-.244.207-.466.21-.207.002-.358-.062-.454-.194-.1-.131-.15-.357-.155-.677l-4.699.058.02 1.646 3.346-.041c.883-.011 1.565.146 2.045.472.477.323.72.804.727 1.445.01.84-.191 1.262-.605 1.267l-.727.009c-.379.005-.631-.043-.758-.143-.126-.1-.19-.25-.193-.449-.005-.398.284-.601.866-.608l.187-.003c.004-.05.005-.09.005-.117-.003-.207-.124-.371-.364-.493-.24-.123-.629-.18-1.168-.174l-3.345.042c.004.062.007.127.008.193.007.559-.193.84-.6.845-.214.003-.367-.063-.459-.199-.095-.136-.145-.4-.15-.795l-.05-3.967c-.004-.386.038-.65.126-.792.088-.142.241-.214.46-.217.192-.002.34.06.448.188.107.128.162.357.167.69zm3.384-10.562l4.324 1.841c.13-.305.267-.497.41-.576.145-.079.306-.08.486-.004.201.086.318.212.349.378.029.161-.033.421-.186.78l-.377.885c-.153.36-.298.586-.436.68-.136.09-.307.093-.511.005-.191-.08-.303-.2-.337-.36-.038-.16.006-.388.131-.683l-4.323-1.84-.646 1.514 3.079 1.31c.812.347 1.372.766 1.68 1.258.307.487.334 1.025.083 1.615-.329.773-.684 1.078-1.065.916l-.668-.285c-.349-.149-.56-.294-.636-.437-.075-.142-.074-.305.004-.488.157-.367.502-.436 1.038-.208l.172.074c.024-.046.04-.08.052-.106.08-.19.036-.39-.134-.598-.17-.209-.503-.418-1-.63l-3.078-1.31a3.13 3.13 0 01-.07.18c-.219.514-.515.69-.889.532-.197-.084-.31-.207-.34-.368-.033-.163.028-.425.183-.788l1.554-3.65c.152-.356.296-.58.434-.675.138-.094.307-.098.509-.013a.543.543 0 01.334.353c.046.16.004.392-.126.698zM43.233 12.93a.823.823 0 01.236-.233.575.575 0 01.285-.082.55.55 0 01.431.174c.116.119.176.323.182.612l.019 1.02c.005.288-.048.496-.159.623a.55.55 0 01-.424.19.549.549 0 01-.389-.127c-.1-.088-.175-.255-.226-.5a.73.73 0 00-.171-.378 1.66 1.66 0 00-.682-.41 2.467 2.467 0 00-.864-.141c-.36.006-.688.09-.986.252-.297.162-.558.421-.782.777-.224.356-.332.776-.322 1.26l.014.78a1.89 1.89 0 00.654 1.434c.429.38 1.016.562 1.762.548.446-.008.821-.076 1.128-.203.178-.074.367-.216.566-.427a1.34 1.34 0 01.288-.245c.07-.04.15-.062.24-.063a.579.579 0 01.425.174c.123.118.186.26.19.424.002.164-.076.341-.237.532a2.441 2.441 0 01-.908.661c-.5.22-1.054.336-1.663.348-.711.013-1.355-.122-1.93-.404-.465-.226-.865-.587-1.198-1.085a3.022 3.022 0 01-.518-1.65l-.015-.814a3.637 3.637 0 01.401-1.753 3.1 3.1 0 011.19-1.277 3.27 3.27 0 011.632-.47 3.73 3.73 0 01.975.105c.306.073.591.189.856.348zm10.757 4.041c-.041-.004-.373.207-.995.632-.444.301-.737.496-.88.585l-.12.102c.232.44.369.967.412 1.582l.118 1.555.205.086c.36.151.587.294.678.43.095.137.1.306.016.508s-.208.32-.37.354c-.161.03-.423-.032-.787-.184l-.125-.052c-.382-.16-.597-.282-.647-.366-.048-.088-.087-.318-.117-.69l-.12-1.55c-.07-.837-.303-1.34-.703-1.507l-.314-.131-.764 1.826c.052.018.103.037.153.058.508.213.685.505.53.876-.085.202-.209.32-.37.353-.158.032-.417-.028-.777-.178l-1.108-.464c-.357-.15-.583-.293-.678-.43-.091-.136-.095-.304-.01-.506.084-.202.207-.318.367-.348.166-.032.428.026.784.176l1.815-4.335a2.326 2.326 0 01-.154-.058c-.512-.214-.69-.509-.532-.883.084-.202.207-.318.368-.348.16-.03.421.03.781.18l1.108.465c.357.149.581.291.673.427.091.136.095.304.01.506-.084.202-.208.32-.37.353-.16.03-.42-.03-.776-.178l-.584 1.394.151.063a.6.6 0 00.335.051c.1-.017.271-.106.512-.268l1.31-.881c.276-.185.55-.303.82-.355.272-.052.6.003.986.165.242.1.398.208.469.323.07.114.099.223.085.327-.014.105-.082.3-.202.59l-.045.107c-.147.35-.286.571-.418.664-.13.09-.295.093-.493.01-.364-.153-.44-.498-.227-1.036zm4.092 7.543l-.897.85.835.88c.2.21.3.398.3.564a.548.548 0 01-.184.434.56.56 0 01-.444.163c-.163-.013-.344-.124-.543-.333l-1.791-1.887c-.199-.21-.302-.397-.309-.563a.575.575 0 01.194-.435.541.541 0 01.44-.158c.167.012.35.122.546.329l.13.136 3.407-3.236-.129-.136c-.199-.21-.302-.397-.309-.563a.574.574 0 01.194-.434.556.556 0 01.44-.167c.168.012.351.123.55.333l1.9 2.01c.56.59.84 1.208.843 1.858a2.12 2.12 0 01-.68 1.632 2.153 2.153 0 01-.888.511c-.253.074-.562.087-.925.038a3.344 3.344 0 01-.971-.273c-.284-.135-.593-.378-.926-.729l-.783-.824zm.871-.827l.766.807c.36.38.731.6 1.11.659.386.06.7-.025.94-.254.204-.193.296-.453.277-.78-.016-.324-.183-.653-.5-.987l-.953-1.003-1.64 1.558zm6.613 12.425c-1.004.36-1.956.34-2.854-.06-.894-.397-1.491-1.014-1.792-1.853-.27-.753-.237-1.533.1-2.34.42-.996 1.176-1.69 2.272-2.084 1.096-.393 2.123-.339 3.084.163.773.408 1.294.988 1.565 1.742.3.839.23 1.696-.21 2.572-.436.878-1.158 1.498-2.165 1.86zm-.406-1.13c.687-.247 1.18-.659 1.48-1.235.303-.578.36-1.132.17-1.661-.189-.526-.584-.915-1.185-1.169-.601-.253-1.244-.257-1.928-.011-.683.245-1.177.657-1.48 1.234-.3.577-.355 1.128-.166 1.654.19.529.583.921 1.181 1.176.598.254 1.24.258 1.928.011zm2.563 10.592l-4.688-.33c-.023.33-.09.557-.2.678-.11.122-.263.176-.458.162-.219-.015-.37-.097-.453-.244-.08-.142-.106-.408-.079-.798l.068-.959c.027-.39.091-.651.19-.785.1-.13.26-.187.483-.172.206.015.351.092.436.231.088.14.12.369.098.688l4.687.331.116-1.642-3.337-.236c-.88-.062-1.547-.275-2-.64-.447-.36-.65-.86-.604-1.5.06-.837.295-1.242.708-1.212l.725.05c.378.027.626.096.743.206.118.11.17.264.156.463-.028.398-.333.576-.913.535l-.187-.013a1.61 1.61 0 00-.014.116c-.015.207.092.38.321.522.229.142.612.231 1.15.27l3.337.235c0-.063.003-.127.008-.194.04-.557.262-.821.667-.792.214.015.361.094.441.236.084.143.112.412.085.805l-.28 3.957c-.027.386-.09.646-.19.78s-.258.193-.477.177a.543.543 0 01-.43-.224c-.096-.136-.133-.37-.11-.7zM63.476 55.82l-4.156-2.192c-.155.294-.308.474-.458.54-.15.067-.311.055-.484-.036-.193-.102-.299-.237-.316-.405-.016-.163.068-.417.25-.763l.448-.85c.183-.345.346-.56.491-.642.144-.079.314-.066.51.038.184.096.286.225.307.386.024.163-.038.386-.188.67l4.156 2.192.769-1.456-2.96-1.561c-.78-.412-1.304-.876-1.57-1.392-.266-.51-.249-1.05.05-1.616.392-.743.771-1.018 1.137-.824l.643.339c.335.176.534.339.598.487.063.148.048.31-.045.487-.186.352-.536.392-1.051.12l-.166-.087a1.64 1.64 0 00-.06.101c-.096.183-.069.386.084.608.152.221.467.458.944.71l2.959 1.56c.026-.057.054-.114.085-.173.26-.494.57-.647.93-.457.19.1.293.232.308.395.02.164-.063.421-.247.77l-1.851 3.509c-.18.342-.343.554-.488.636-.145.083-.315.073-.508-.03a.543.543 0 01-.304-.378c-.033-.163.028-.392.183-.685z" fill="#000"/><path d="M34.79 60.535a.753.753 0 01.375-.49c.194-.107.426-.125.699-.054.272.07.466.2.583.388a.752.752 0 01.089.61.753.753 0 01-.376.49c-.193.107-.426.125-.698.054-.273-.07-.467-.2-.584-.388a.752.752 0 01-.089-.61zm-5.357-39.361l.49-2.102-2.102-.49-.49 2.102 2.102.49zm12.772 20.748l.49-2.102-2.102-.49-.49 2.102 2.102.49zm13.455 20.69l.498-2.1-2.1-.498-.498 2.1 2.1.498z" fill="#000"/></svg>