<svg width="44" height="43" fill="none" xmlns="http://www.w3.org/2000/svg"><path d="M22 15.316a7.35 7.35 0 01-7.351-7.35c-.043-4.103 3.29-7.394 7.35-7.394a7.35 7.35 0 017.351 7.35c0 4.06-3.29 7.394-7.35 7.394zm0-13.035c-3.12 0-5.642 2.565-5.642 5.642A5.636 5.636 0 0022 13.564a5.636 5.636 0 005.64-5.641c0-3.077-2.52-5.642-5.64-5.642z" fill="#000"/><path d="M11.87 17.71c1.155-1.624 2.95-2.95 5.898-3.761-.555-.385-1.025-.855-1.453-1.368-2.393.812-4.103 2.009-5.256 3.377l.812 1.752zm20.257 0l.855-1.71c-1.197-1.41-2.863-2.564-5.256-3.376-.428.513-.898.983-1.453 1.368 2.863.769 4.7 2.094 5.854 3.718zM13.922 35.488l-1.196-1.154-2.907-1.581c-.128-.086-.256-.086-.384-.086s-.257.043-.385.086l-3.76 1.966.726-4.146a.862.862 0 00-.257-.769l-3.034-2.949 4.188-.598a.822.822 0 00.641-.47l1.88-3.804 1.881 3.804a.895.895 0 00.641.47l1.667.256L17.042 26l.47-.683-4.83-.684-2.435-4.958c-.128-.299-.428-.47-.77-.47-.341 0-.64.171-.769.47l-2.436 4.958-5.555.77A.772.772 0 00.033 26c-.086.299 0 .64.213.897l3.932 3.846-.897 5.428a.93.93 0 00.342.855c.256.213.598.213.897.085l4.872-2.564 4.872 2.564c.043.043.128.043.171.085l-.513-1.709zM43.966 26a.887.887 0 00-.684-.598l-5.47-.812-2.436-4.957c-.128-.3-.427-.47-.77-.47-.341 0-.64.17-.769.47l-2.436 4.957-4.829.684.47.684 3.42.513 1.666-.257a.822.822 0 00.641-.47l1.88-3.803 1.88 3.803a.895.895 0 00.642.47l4.188.599-3.034 2.948a.861.861 0 00-.257.77l.727 4.145-3.76-1.966c-.13-.085-.257-.085-.385-.085-.129 0-.257.042-.385.085l-2.906 1.539-1.197 1.154-.812 1.709c.171 0 .342 0 .47-.085l4.872-2.565 4.872 2.565c.129.085.257.085.385.085a.83.83 0 00.513-.17.929.929 0 00.342-.856l-.94-5.427 3.931-3.846c.171-.171.257-.513.171-.813z" fill="#000"/><path d="M28.026 42.026c-.129 0-.257-.042-.385-.085L22 38.992l-5.642 2.95a.773.773 0 01-.897-.086.93.93 0 01-.342-.855l1.068-6.24-4.572-4.487c-.214-.214-.3-.556-.214-.898a.887.887 0 01.684-.598l6.325-.855 2.82-5.726c.129-.3.428-.47.77-.47.341 0 .64.17.769.47l2.82 5.726 6.283.898a.772.772 0 01.684.598c.085.3 0 .641-.214.898l-4.53 4.444 1.068 6.283a.93.93 0 01-.342.854 1.138 1.138 0 01-.512.128zM22 37.112c.128 0 .256.042.384.085l4.488 2.35-.855-5a.862.862 0 01.256-.769l3.633-3.547-5.043-.726a.822.822 0 01-.641-.47l-2.265-4.573-2.265 4.573a.896.896 0 01-.641.47l-4.958.769 3.633 3.547c.214.214.3.47.256.77l-.854 5 4.487-2.351c.086-.086.256-.128.385-.128z" fill="#000"/></svg>