<svg width="20" height="20" fill="none" xmlns="http://www.w3.org/2000/svg"><path d="M8.714 7.429l.278-.416a.5.5 0 00-.778.416h.5zm0 5.142h-.5a.5.5 0 00.778.417l-.278-.417zM12.571 10l.278.416a.5.5 0 000-.832L12.57 10zM10 18.5A8.5 8.5 0 011.5 10h-1a9.5 9.5 0 009.5 9.5v-1zm8.5-8.5a8.5 8.5 0 01-8.5 8.5v1a9.5 9.5 0 009.5-9.5h-1zM10 1.5a8.5 8.5 0 018.5 8.5h1A9.5 9.5 0 0010 .5v1zm0-1A9.5 9.5 0 00.5 10h1A8.5 8.5 0 0110 1.5v-1zM8.214 7.429v5.142h1V7.43h-1zm.778 5.559l3.857-2.572-.555-.832-3.857 2.571.555.833zm3.857-3.404L8.992 7.013l-.555.832 3.857 2.571.555-.832z" fill="#fff"/></svg>