<svg width="46" height="14" fill="none" xmlns="http://www.w3.org/2000/svg"><path d="M32.717.565A9.348 9.348 0 0029.453 0c-3.6 0-6.143 1.814-6.161 4.417-.023 1.912 1.807 2.99 3.19 3.63 1.42.656 1.895 1.07 1.89 1.657-.009.894-1.134 1.299-2.18 1.299-1.438 0-2.223-.2-3.431-.702l-.448-.21-.51 2.998c.875.364 2.452.677 4.081.704 3.827 0 6.33-1.802 6.358-4.572.032-1.528-.958-2.682-3.041-3.636-1.267-.619-2.053-1.033-2.053-1.66 0-.557.673-1.15 2.08-1.15a6.638 6.638 0 012.729.515l.337.15.511-2.895-.088.02zM42.06.243h-2.812c-.876 0-1.535.241-1.917 1.11l-5.41 12.253h3.828l.765-2.01 4.671.005c.11.47.448 2.005.448 2.005h3.375L42.059.243zM18.115.131h3.647L19.48 13.5h-3.642L18.115.125V.13zM8.856 7.499l.378 1.857L12.798.243h3.863l-5.74 13.345H7.067l-3.15-11.3a.763.763 0 00-.335-.447A15.633 15.633 0 000 .515l.05-.28h5.87c.796.03 1.438.28 1.651 1.131l1.283 6.14V7.5h.002zm28.703 1.364l1.454-3.74c-.018.041.299-.771.483-1.273l.25 1.154.844 3.857h-3.033v.002h.002z" fill="#000"/></svg>