<svg width="29" height="43" fill="none" xmlns="http://www.w3.org/2000/svg"><path d="M23.409 42h-6.357a.48.48 0 01-.451-.37l-1.559-6.767c-.082-.287-.328-.492-.615-.492s-.574.205-.615.492l-1.559 6.768a.48.48 0 01-.451.369H5.445a.455.455 0 01-.451-.451c0-.123-.37-10.54 2.42-19.81.164-.574.246-1.19.246-1.846V12.84L5.69 8.122c-.081-.246 0-.492.247-.615.246-.082.492 0 .615.246l2.01 4.799c.041.04.041.123.041.164v7.136c0 .739-.082 1.436-.287 2.133-2.42 8.039-2.42 16.98-2.379 19.072h5.537l1.476-6.399c.165-.697.78-1.23 1.518-1.23s1.353.492 1.518 1.23l1.476 6.399h5.537c.04-2.092.04-11.033-2.379-19.072-.205-.656-.287-1.353-.287-2.133v-7.095c0-.041 0-.123.041-.164l2.01-4.799c.082-.246.369-.328.615-.246.246.082.328.37.246.615l-1.969 4.717v7.054c0 .657.082 1.272.246 1.846 2.79 9.228 2.42 19.687 2.42 19.81-.082.205-.287.41-.533.41z" fill="#000" stroke="#000"/><path d="M4.666 17.022a.466.466 0 01-.328-.123l-3.2-3.199c-.123-.123-.164-.246-.123-.41.041-.164.739-4.552 2.092-7.793.615-1.476 1.887-2.583 3.445-3.076l4.389-1.394a.408.408 0 01.369.041 6.071 6.071 0 006.234 0 .485.485 0 01.41-.041l4.389 1.394c1.558.493 2.789 1.641 3.445 3.076 1.353 3.24 2.05 7.588 2.092 7.793.04.164-.041.287-.123.41l-3.2 3.2a.466.466 0 01-.328.122.373.373 0 01-.328-.164l-3.445-3.814c-.164-.205-.164-.492.041-.656.205-.164.492-.164.656.04l3.117 3.446 2.707-2.707c-.164-.943-.82-4.634-1.968-7.341a4.609 4.609 0 00-2.871-2.584L17.872 1.97a7.02 7.02 0 01-6.85 0L6.799 3.283a4.609 4.609 0 00-2.87 2.584c-1.149 2.707-1.846 6.357-1.97 7.341l2.708 2.707 3.117-3.445c.164-.205.45-.205.656-.041.205.164.205.451.04.656L5.036 16.9c-.082.082-.205.123-.37.123.042 0 .042 0 0 0z" fill="#000"/><path d="M4.666 17.022a.466.466 0 01-.328-.123l-3.2-3.199c-.123-.123-.164-.246-.123-.41.041-.164.739-4.552 2.092-7.793.615-1.476 1.887-2.583 3.445-3.076l4.389-1.394a.408.408 0 01.369.041 6.071 6.071 0 006.234 0 .485.485 0 01.41-.041l4.389 1.394c1.558.493 2.789 1.641 3.445 3.076 1.353 3.24 2.05 7.588 2.092 7.793.04.164-.041.287-.123.41l-3.2 3.2a.466.466 0 01-.328.122.373.373 0 01-.328-.164l-3.445-3.814c-.164-.205-.164-.492.041-.656.205-.164.492-.164.656.04l3.117 3.446 2.707-2.707c-.164-.943-.82-4.634-1.968-7.341a4.609 4.609 0 00-2.871-2.584L17.872 1.97a7.02 7.02 0 01-6.85 0L6.799 3.283a4.609 4.609 0 00-2.87 2.584c-1.149 2.707-1.846 6.357-1.97 7.341l2.708 2.707 3.117-3.445c.164-.205.45-.205.656-.041.205.164.205.451.04.656L5.036 16.9c-.082.082-.205.123-.37.123zm0 0c.04 0 .04 0 0 0z" stroke="#000"/><path d="M20.049 20.5c.04 0 .123 0 .164.041.164.082.287.246.287.41v3.076a.466.466 0 01-.123.328l-3.24 3.24a.499.499 0 01-.656 0 .5.5 0 010-.656l3.117-3.117v-1.764l-1.518 1.518a.5.5 0 01-.656 0 .5.5 0 010-.656l2.297-2.297a.655.655 0 01.328-.123z" fill="#000" stroke="#000" stroke-width=".5"/><path d="M17.503 23.626a.455.455 0 01-.451-.452v-3.24c0-.123.04-.246.123-.328L20 17a.499.499 0 01.656 0 .499.499 0 010 .656l-2.702 2.484v3.075c0 .206-.205.41-.451.41z" fill="#000" stroke="#000" stroke-width=".5"/></svg>