<svg width="18" height="14" viewBox="0 0 18 14" fill="none" xmlns="http://www.w3.org/2000/svg">
<path d="M7.63564 2.7016L8.33725 1.98904L6.91212 0.585828L6.21051 1.2984L7.63564 2.7016ZM2 7L1.28743 6.29839L0.596623 7L1.28743 7.7016L2 7ZM6.21051 12.7016L6.91211 13.4142L8.33725 12.011L7.63564 11.2984L6.21051 12.7016ZM6.21051 1.2984L1.28743 6.29839L2.71257 7.7016L7.63564 2.7016L6.21051 1.2984ZM1.28743 7.7016L6.21051 12.7016L7.63564 11.2984L2.71257 6.29839L1.28743 7.7016ZM2 8L18 8L18 6L2 6L2 8Z" fill="black"/>
</svg>
