<svg width="33" height="38" viewBox="0 0 33 38" fill="none" xmlns="http://www.w3.org/2000/svg">
<path d="M10.7158 21.848C9.7278 22.1676 8.68331 22.5937 7.58237 23.1543C7.09683 23.401 6.90487 23.9953 7.15329 24.4774C7.4017 24.9596 8.00016 25.1502 8.48571 24.9035C18.1288 19.9867 22.2559 26.4004 22.431 26.6807C22.6173 26.9835 22.9447 27.1516 23.2778 27.1516C23.4529 27.1516 23.6279 27.1068 23.786 27.0115C24.2546 26.7312 24.4014 26.1313 24.1191 25.666C24.0796 25.5987 20.4831 19.897 12.737 21.3378C12.2628 20.5417 8.81317 15.3614 0.671849 18.103C0.158076 18.2768 -0.11857 18.8318 0.0564511 19.3476C0.231472 19.8577 0.790412 20.1325 1.30983 19.9587C7.07989 18.0133 9.83507 20.6819 10.7158 21.848Z" fill="black"/>
<path d="M25.9596 3.20122C25.9313 3.15636 25.8975 3.12273 25.8636 3.08348C25.6208 2.71346 23.5601 -0.0785138 15.9777 -2.45193e-05C15.8253 -2.45193e-05 15.6728 0.0392201 15.5373 0.106497C14.0581 0.863357 11.4271 3.33577 12.0425 7.27144C12.0651 7.42842 12.1272 7.57419 12.2232 7.69753L13.2508 9.08791C13.4371 9.34019 13.7363 9.49157 14.0468 9.49157C14.0863 9.49157 14.1202 9.49157 14.1597 9.48596L19.5967 8.85805C19.9693 8.8132 20.2855 8.56651 20.4097 8.21331C20.4436 8.12361 20.4774 8.0283 20.517 7.93299C21.0194 8.39832 21.9171 9.37944 22.2051 10.6689C22.2164 10.7138 22.222 10.7586 22.2333 10.8091C22.2502 10.8932 22.2672 10.9829 22.2785 11.0726C22.2841 11.1398 22.3011 11.2015 22.318 11.2576C22.5946 12.7881 22.8035 14.5429 22.6116 15.1764C22.5212 15.4792 22.2898 15.9389 22.0244 16.4659C21.5106 17.475 20.8331 18.8262 20.4436 20.4632C20.9235 20.6819 21.5784 21.0127 22.2502 21.4612C22.5495 19.8073 23.2383 18.4281 23.7916 17.3461C24.1021 16.735 24.3674 16.208 24.5086 15.7427C24.8925 14.4756 24.4465 11.7958 24.1642 10.3774C24.1529 10.3213 24.136 10.2709 24.119 10.2204C23.6674 8.2862 22.2954 6.77808 21.4485 6.16699C21.4316 6.14456 21.409 6.12774 21.3921 6.11092L21.3808 6.12214C21.3469 6.09971 21.3187 6.08289 21.2848 6.06047C21.4147 5.78015 21.5276 5.55029 21.6066 5.43255C21.9171 4.98404 21.7986 4.37295 21.3469 4.0702C20.8952 3.76746 20.2798 3.87959 19.975 4.3281C19.5967 4.87191 19.0716 6.19502 18.7668 6.99112L14.5041 7.48449L13.9678 6.75566C13.629 3.87398 15.6333 2.36587 16.2656 1.96781C16.2939 1.96781 16.3165 1.96781 16.3447 1.96781C22.3123 1.96781 24.04 3.95247 24.1981 4.14869L26.2136 7.71435C28.3816 12.1658 31.5659 20.6651 30.9505 31.2835C28.4437 32.6179 15.9777 38.6503 6.36282 32.8533C6.61124 32.5562 6.76932 32.3936 6.78061 32.388C7.16453 32.0012 7.15324 31.3789 6.76367 31.0032C6.37411 30.622 5.74742 30.6276 5.36915 31.0144C5.28446 31.0985 3.26889 33.1617 1.67676 36.6152C1.45093 37.1086 1.66547 37.6916 2.16231 37.9159C2.29781 37.9776 2.43331 38.0056 2.57445 38.0056C2.94708 38.0056 3.30841 37.7925 3.47214 37.4337C4.01979 36.2452 4.6239 35.236 5.17154 34.4399C8.62116 36.576 12.3474 37.3384 15.9043 37.3384C24.4126 37.3384 31.9555 32.9991 32.4015 32.7356C32.6838 32.573 32.8644 32.2815 32.887 31.9563C34.0444 15.2381 26.287 3.68897 25.9596 3.20122Z" fill="black"/>
</svg>
