<svg width="30" height="30" viewBox="0 0 30 30" fill="none" xmlns="http://www.w3.org/2000/svg">
<path d="M1 19L0.292893 18.2929L0 18.5858V19H1ZM19 1L19.7071 0.292893C19.3166 -0.0976311 18.6834 -0.0976311 18.2929 0.292893L19 1ZM29 11L29.7071 11.7071C30.0976 11.3166 30.0976 10.6834 29.7071 10.2929L29 11ZM11 29V30H11.4142L11.7071 29.7071L11 29ZM1 29H0C0 29.5523 0.447715 30 1 30L1 29ZM1.70711 19.7071L19.7071 1.70711L18.2929 0.292893L0.292893 18.2929L1.70711 19.7071ZM18.2929 1.70711L28.2929 11.7071L29.7071 10.2929L19.7071 0.292893L18.2929 1.70711ZM28.2929 10.2929L10.2929 28.2929L11.7071 29.7071L29.7071 11.7071L28.2929 10.2929ZM11 28H1V30H11V28ZM2 29V19H0V29H2ZM12.2929 7.70711L22.2929 17.7071L23.7071 16.2929L13.7071 6.29289L12.2929 7.70711ZM16 30H30V28H16V30Z" fill="#F79E1B"/>
</svg>
