<svg width="41" height="41" viewBox="0 0 41 41" fill="none" xmlns="http://www.w3.org/2000/svg">
<path d="M12.1429 14.9286V13.9286C11.5906 13.9286 11.1429 14.3763 11.1429 14.9286H12.1429ZM12.1429 17.7143L12.85 18.4214L13.1429 18.1285V17.7143H12.1429ZM7.38735 18.5302L6.68024 19.2373H6.68024L7.38735 18.5302ZM17.7143 35.8214H18.7143V35.4072L18.4214 35.1143L17.7143 35.8214ZM14.9286 33.0357H13.9286V33.4499L14.2215 33.7428L14.9286 33.0357ZM14.9286 28.8571H15.9286V28.4429L15.6357 28.15L14.9286 28.8571ZM12.1429 26.0714H11.1429V26.4856L11.4358 26.7785L12.1429 26.0714ZM12.1429 23.2857V22.2857C11.5906 22.2857 11.1429 22.7334 11.1429 23.2857H12.1429ZM25.0714 1V6.57143H27.0714V1H25.0714ZM23.2857 8.35714H20.5V10.3571H23.2857V8.35714ZM14.9286 13.9286H12.1429V15.9286H14.9286V13.9286ZM11.1429 14.9286V17.7143H13.1429V14.9286H11.1429ZM11.4358 17.0072L10.6198 17.8231L12.034 19.2373L12.85 18.4214L11.4358 17.0072ZM8.09445 17.8231L3.09996 12.8286L1.68575 14.2428L6.68024 19.2373L8.09445 17.8231ZM16.7143 12.1429C16.7143 13.1291 15.9148 13.9286 14.9286 13.9286V15.9286C17.0194 15.9286 18.7143 14.2337 18.7143 12.1429H16.7143ZM20.5 8.35714C18.4092 8.35714 16.7143 10.0521 16.7143 12.1429H18.7143C18.7143 11.1566 19.5138 10.3571 20.5 10.3571V8.35714ZM10.6198 17.8231C9.92247 18.5205 8.79182 18.5205 8.09445 17.8231L6.68024 19.2373C8.15865 20.7157 10.5556 20.7157 12.034 19.2373L10.6198 17.8231ZM25.0714 6.57143C25.0714 7.55765 24.2719 8.35714 23.2857 8.35714V10.3571C25.3765 10.3571 27.0714 8.66222 27.0714 6.57143H25.0714ZM18.7143 40V35.8214H16.7143V40H18.7143ZM18.4214 35.1143L15.6357 32.3286L14.2215 33.7428L17.0072 36.5285L18.4214 35.1143ZM15.9286 33.0357V28.8571H13.9286V33.0357H15.9286ZM15.6357 28.15L12.85 25.3643L11.4358 26.7785L14.2215 29.5643L15.6357 28.15ZM13.1429 26.0714V23.2857H11.1429V26.0714H13.1429ZM12.1429 24.2857H23.2857V22.2857H12.1429V24.2857ZM25.0714 26.0714V27.9286H27.0714V26.0714H25.0714ZM29.7857 32.6429H37.2143V30.6429H29.7857V32.6429ZM27.8571 30.7143C27.8571 31.7794 28.7206 32.6429 29.7857 32.6429V30.6429C29.8252 30.6429 29.8571 30.6748 29.8571 30.7143H27.8571ZM27 29.8571C27.4734 29.8571 27.8571 30.2409 27.8571 30.7143H29.8571C29.8571 29.1363 28.578 27.8571 27 27.8571V29.8571ZM25.0714 27.9286C25.0714 28.9937 25.9349 29.8571 27 29.8571V27.8571C27.0394 27.8571 27.0714 27.8891 27.0714 27.9286H25.0714ZM23.2857 24.2857C24.2719 24.2857 25.0714 25.0852 25.0714 26.0714H27.0714C27.0714 23.9806 25.3765 22.2857 23.2857 22.2857V24.2857ZM20.5 39C10.2827 39 2 30.7173 2 20.5H0C0 31.8218 9.17816 41 20.5 41V39ZM39 20.5C39 30.7173 30.7173 39 20.5 39V41C31.8218 41 41 31.8218 41 20.5H39ZM20.5 2C30.7173 2 39 10.2827 39 20.5H41C41 9.17816 31.8218 0 20.5 0V2ZM20.5 0C9.17816 0 0 9.17816 0 20.5H2C2 10.2827 10.2827 2 20.5 2V0Z" fill="black"/>
</svg>
