<svg width="38" height="39" viewBox="0 0 38 39" fill="none" xmlns="http://www.w3.org/2000/svg">
<path d="M31.9737 31.6317C31.7921 31.6317 31.6185 31.6553 31.4527 31.6869L15.1737 34.8132C14.6211 34.9159 14.2106 35.3974 14.2106 35.9738C14.2106 36.629 14.7395 37.158 15.3948 37.158H31.9737C33.4974 37.158 34.7369 35.9185 34.7369 34.3948C34.7369 32.8711 33.4974 31.6317 31.9737 31.6317Z" stroke="black" stroke-width="2" stroke-miterlimit="10"/>
<path d="M21.3158 14.2633C21.3158 15.5738 20.2579 16.6317 18.9474 16.6317C17.6369 16.6317 16.579 15.5738 16.579 14.2633V12.6843C16.579 11.3738 17.6369 10.3159 18.9474 10.3159C20.2579 10.3159 21.3158 11.3738 21.3158 12.6843V14.2633Z" stroke="black" stroke-width="2" stroke-miterlimit="10"/>
<path d="M20.5264 0.0527344V3.21063L27.9711 9.29747C28.7211 9.91326 29.0211 10.9238 28.729 11.8475L25.5316 21.9606C24.8369 24.1633 24.6869 26.508 25.1053 28.7817L25.8316 32.7685" stroke="black" stroke-width="2" stroke-miterlimit="10"/>
<path d="M17.3685 0.0527344V3.21063L9.92375 9.29747C9.17375 9.91326 8.87375 10.9238 9.16585 11.8475L12.3632 21.9606C13.058 24.1633 13.208 26.508 12.7895 28.7817L12.0632 32.7685" stroke="black" stroke-width="2" stroke-miterlimit="10"/>
<path d="M12.6316 13.4738L14.7 17.6107C15.3711 18.9449 16.7369 19.7896 18.229 19.7896H19.6658C21.1579 19.7896 22.5316 18.9449 23.1947 17.6107L25.2632 13.4738" stroke="black" stroke-width="2" stroke-miterlimit="10"/>
<path d="M18.9473 34.0869L6.44205 31.6869C6.27626 31.6553 6.10257 31.6317 5.92099 31.6317C4.39731 31.6317 3.15784 32.8711 3.15784 34.3948C3.15784 35.9185 4.39731 37.158 5.92099 37.158H15.3947" stroke="black" stroke-width="2" stroke-miterlimit="10"/>
<path d="M8.15531 22.2369L3.71057 25.5211" stroke="black" stroke-width="2" stroke-miterlimit="10"/>
<path d="M34.1841 3.00525L29.7394 6.28946" stroke="black" stroke-width="2" stroke-miterlimit="10"/>
<path d="M8.15531 22.2369L3.71057 25.5211" stroke="black" stroke-width="2" stroke-miterlimit="10"/>
<path d="M34.1841 3.00525L29.7394 6.28946" stroke="black" stroke-width="2" stroke-miterlimit="10"/>
<path d="M8.15531 6.28946L3.71057 3.00525" stroke="black" stroke-width="2" stroke-miterlimit="10"/>
<path d="M34.1841 25.5211L29.7394 22.2369" stroke="black" stroke-width="2" stroke-miterlimit="10"/>
<path d="M8.15531 6.28946L3.71057 3.00525" stroke="black" stroke-width="2" stroke-miterlimit="10"/>
<path d="M34.1841 25.5211L29.7394 22.2369" stroke="black" stroke-width="2" stroke-miterlimit="10"/>
<path d="M37.8947 14.2632H32.3684" stroke="black" stroke-width="2" stroke-miterlimit="10"/>
<path d="M5.52632 14.2632H0" stroke="black" stroke-width="2" stroke-miterlimit="10"/>
</svg>
