<svg width="43" height="40" viewBox="0 0 43 40" fill="none" xmlns="http://www.w3.org/2000/svg">
<path d="M9.50655 29.4593C9.32124 31.6925 8.76534 34.189 7.38483 36.7671C6.61582 38.1924 7.01422 38.6917 8.47812 37.9473C12.4992 35.9047 15.464 33.9529 17.7155 32.1282C18.8829 32.2917 20.0874 32.3824 21.3104 32.3824C32.4378 32.3824 41.4528 25.5195 41.4528 17.0406C41.4528 8.5708 32.4378 1.70782 21.3104 1.70782C10.1829 1.70782 1.16791 8.5708 1.16791 17.0497C1.16791 22.1515 4.4663 26.6724 9.50655 29.4593Z" stroke="black" stroke-width="2" stroke-miterlimit="10"/>
<path d="M19.0682 21.1257C21.7829 20.1271 23.4043 17.6942 23.4043 15.0071C23.4043 15.0071 23.4043 12.9645 23.4043 12.6105C23.4043 12.202 24.0251 11.4394 24.0251 9.61475C24.0251 7.76284 23.7008 7.08199 22.904 6.06525C22.0887 5.03943 20.6248 5.23007 20.6248 6.21958V7.01844C20.6248 9.24256 19.3462 10.3047 17.8452 11.966C17.8452 11.966 15.8347 13.7816 15.0657 13.7816C14.2967 13.7816 11.3596 13.7816 11.3596 13.7816L11.5264 24.6752H14.1392C15.9737 24.6752 15.5753 26.4908 18.1602 26.4908C18.6791 26.4908 27.9442 26.4908 27.9442 26.4908C28.843 26.4908 29.8899 25.4831 29.8899 24.6026L31.1871 17.0406C31.4743 15.3339 30.1401 13.7816 28.3797 13.7816H25.2574" stroke="black" stroke-width="2" stroke-miterlimit="10"/>
</svg>
