<svg width="48" height="42" viewBox="0 0 48 42" fill="none" xmlns="http://www.w3.org/2000/svg">
<path d="M31 42V9" stroke="black" stroke-width="2" stroke-miterlimit="10"/>
<path d="M26 19L31 24" stroke="black" stroke-width="2" stroke-miterlimit="10"/>
<path d="M35 14L31 18" stroke="black" stroke-width="2" stroke-miterlimit="10"/>
<path d="M2 39V42" stroke="black" stroke-width="2" stroke-miterlimit="10" stroke-linejoin="round"/>
<path d="M3 25V33" stroke="black" stroke-width="2" stroke-miterlimit="10" stroke-linejoin="round"/>
<path d="M23 39V42" stroke="black" stroke-width="2" stroke-miterlimit="10" stroke-linejoin="round"/>
<path d="M22 25V33" stroke="black" stroke-width="2" stroke-miterlimit="10" stroke-linejoin="round"/>
<path d="M22 27H3V31H22V27Z" stroke="black" stroke-width="2" stroke-miterlimit="10" stroke-linejoin="round"/>
<path d="M24 35H1V39H24V35Z" stroke="black" stroke-width="2" stroke-miterlimit="10" stroke-linejoin="round"/>
<path d="M25 28C25 28 35.1 28 37.5 28C42.7 28 47 23.7 47 18.5C47 14.1 44 10.4 39.9 9.3C39.3 4.6 35.3 1 30.5 1C25.7 1 21.7 4.6 21.1 9.3C17 10.4 14 14.1 14 18.5C14 20.6 14.6 22.4 15.8 24" stroke="black" stroke-width="2" stroke-miterlimit="10"/>
</svg>
