<svg width="44" height="43" viewBox="0 0 44 43" fill="none" xmlns="http://www.w3.org/2000/svg">
<path d="M21.9996 15.3162C17.9396 15.3162 14.6488 12.0255 14.6488 7.96548C14.6061 3.86275 17.9396 0.572021 21.9996 0.572021C26.0596 0.572021 29.3503 3.86275 29.3503 7.92275C29.3503 11.9827 26.0596 15.3162 21.9996 15.3162ZM21.9996 2.28149C18.8798 2.28149 16.3583 4.8457 16.3583 7.92275C16.3583 11.0425 18.8798 13.564 21.9996 13.564C25.1194 13.564 27.6408 11.0425 27.6408 7.92275C27.6408 4.8457 25.1194 2.28149 21.9996 2.28149Z" fill="black"/>
<path d="M11.8706 17.7097C13.0245 16.0857 14.8194 14.7609 17.7683 13.9489C17.2127 13.5642 16.7426 13.0941 16.3152 12.5813C13.922 13.3933 12.2125 14.5899 11.0586 15.9575L11.8706 17.7097Z" fill="black"/>
<path d="M32.1274 17.7097L32.9821 16.0002C31.7855 14.5899 30.1188 13.436 27.7255 12.624C27.2981 13.1369 26.828 13.607 26.2725 13.9916C29.1358 14.7609 30.9735 16.0857 32.1274 17.7097Z" fill="black"/>
<path d="M13.9222 35.488L12.7256 34.3341L9.81948 32.7529C9.69127 32.6674 9.56306 32.6674 9.43485 32.6674C9.30663 32.6674 9.17842 32.7101 9.05021 32.7529L5.28938 34.7188L6.0159 30.5733C6.05864 30.2741 5.97317 30.0177 5.75948 29.804L2.72517 26.8552L6.91338 26.2569C7.21253 26.2142 7.42622 26.0432 7.55443 25.7868L9.43485 21.9832L11.3153 25.7868C11.4435 26.0432 11.6999 26.2142 11.9563 26.2569L13.623 26.5133L17.042 26.0005L17.5121 25.3167L12.6828 24.6329L10.2468 19.6754C10.1186 19.3763 9.81948 19.2053 9.47758 19.2053C9.13569 19.2053 8.83653 19.3763 8.70832 19.6754L6.27232 24.6329L0.716542 25.4022C0.374648 25.4449 0.118227 25.6586 0.0327538 26.0005C-0.0527198 26.2996 0.0327538 26.6415 0.246438 26.8979L4.17822 30.7443L3.28075 36.1718C3.23801 36.5137 3.36622 36.8129 3.62264 37.0266C3.87906 37.2402 4.22096 37.2402 4.52012 37.112L9.39211 34.5478L14.2641 37.112C14.3068 37.1548 14.3923 37.1548 14.435 37.1975L13.9222 35.488Z" fill="black"/>
<path d="M43.9661 26.0005C43.8807 25.7013 43.5815 25.4449 43.2823 25.4022L37.812 24.5902L35.376 19.6327C35.2478 19.3335 34.9487 19.1626 34.6068 19.1626C34.2649 19.1626 33.9657 19.3335 33.8375 19.6327L31.4015 24.5902L26.5723 25.274L27.0424 25.9577L30.4613 26.4706L32.128 26.2142C32.4272 26.1714 32.6409 26.0005 32.7691 25.7441L34.6495 21.9405L36.5299 25.7441C36.6581 26.0005 36.9146 26.1714 37.171 26.2142L41.3592 26.8125L38.3249 29.7613C38.1112 29.975 38.0257 30.2314 38.0685 30.5306L38.795 34.6761L35.0341 32.7102C34.9059 32.6247 34.7777 32.6247 34.6495 32.6247C34.5213 32.6247 34.3931 32.6674 34.2649 32.7102L31.3588 34.2487L30.1622 35.4026L29.3502 37.112C29.5211 37.112 29.6921 37.112 29.8203 37.0266L34.6923 34.4624L39.5642 37.0266C39.6925 37.112 39.8207 37.112 39.9489 37.112C40.1198 37.112 40.2908 37.0693 40.4617 36.9411C40.7181 36.7274 40.8464 36.4283 40.8036 36.0864L39.8634 30.6588L43.7952 26.8125C43.9661 26.6415 44.0516 26.2996 43.9661 26.0005Z" fill="black"/>
<path d="M28.0255 42.0265C27.8973 42.0265 27.7691 41.9838 27.6409 41.9411L21.9996 38.9922L16.3584 41.9411C16.0592 42.112 15.7173 42.0693 15.4609 41.8556C15.2045 41.6419 15.0763 41.3427 15.119 41.0009L16.1874 34.7613L11.6146 30.2739C11.4009 30.0602 11.3154 29.7183 11.4009 29.3764C11.4864 29.0773 11.7855 28.8209 12.0847 28.7781L18.4097 27.9234L21.2304 22.1967C21.3586 21.8975 21.6577 21.7266 21.9996 21.7266C22.3415 21.7266 22.6407 21.8975 22.7689 22.1967L25.5895 27.9234L31.8718 28.8209C32.2137 28.8636 32.4701 29.0773 32.5556 29.4192C32.6411 29.7183 32.5556 30.0602 32.3419 30.3167L27.8118 34.7613L28.8803 41.0436C28.923 41.3855 28.7948 41.6846 28.5384 41.8983C28.3674 41.9838 28.1965 42.0265 28.0255 42.0265ZM21.9996 37.1118C22.1278 37.1118 22.2561 37.1545 22.3843 37.1973L26.8716 39.5478L26.0169 34.5476C25.9742 34.2484 26.0596 33.992 26.2733 33.7783L29.9059 30.2312L24.863 29.5047C24.5638 29.4619 24.3502 29.291 24.222 29.0346L21.9569 24.4617L19.6919 29.0346C19.5636 29.291 19.3072 29.4619 19.0508 29.5047L14.0933 30.2739L17.726 33.8211C17.9396 34.0348 18.0251 34.2912 17.9824 34.5903L17.1276 39.5905L21.615 37.24C21.7005 37.1545 21.8714 37.1118 21.9996 37.1118Z" fill="black"/>
</svg>
