<svg width="29" height="41" viewBox="0 0 29 41" fill="none" xmlns="http://www.w3.org/2000/svg">
<path d="M28.1077 39.2626H26.2393C28.0703 34.2904 28.9985 29.0374 28.9985 23.628C28.9985 15.6874 26.95 7.94234 23.0746 1.23026C22.6298 0.459924 21.8238 0 20.9184 0C20.013 0 19.207 0.459838 18.7623 1.23026C16.4376 5.25647 14.7711 9.65459 13.8091 14.2434C11.6581 10.0503 8.89631 6.26171 5.57642 2.95432C4.94201 2.32238 4.04117 2.08121 3.16674 2.30935C2.29231 2.53749 1.63595 3.18489 1.4111 4.04098C0.398719 7.89586 -0.067673 11.8943 0.00790274 15.9167C0.00674278 15.9377 0.00442317 15.9584 0.00486931 15.9796C0.0554614 18.4963 0.322252 21.0262 0.797746 23.5272C0.801226 23.5457 0.804795 23.5642 0.808364 23.5826C0.849677 23.7986 0.892595 24.0143 0.937031 24.2299C0.942384 24.2558 0.947649 24.2819 0.953002 24.3079C1.00065 24.5366 1.04964 24.7651 1.10076 24.9933C1.10165 24.9974 1.10255 25.0016 1.10344 25.0057C1.15421 25.2321 1.20632 25.4582 1.26048 25.684C1.26119 25.6871 1.26244 25.6901 1.26325 25.6932C1.38156 26.1861 1.508 26.6778 1.64291 27.1682C2.82625 31.468 4.60214 35.5284 6.9267 39.2624H3.22295C2.73014 39.2624 2.33067 39.6514 2.33067 40.1311C2.33067 40.6109 2.73014 40.9999 3.22295 40.9999H8.54083L8.54225 41L8.5435 40.9999H16.8834H24.9534H28.1077C28.6005 40.9999 29 40.6109 29 40.1311C29 39.6514 28.6005 39.2626 28.1077 39.2626ZM3.14015 4.47154C3.2308 4.12629 3.51205 4.01821 3.62876 3.98781C3.74538 3.95731 4.04438 3.91396 4.30029 4.16886C6.95383 6.81234 9.2351 9.77778 11.1183 13.0207L7.70075 18.7842L1.78523 15.4588C1.75212 11.7357 2.20317 8.03903 3.14015 4.47154ZM2.88085 24.7813C2.83954 24.6001 2.80001 24.4186 2.76102 24.237C2.73996 24.1388 2.71792 24.0408 2.69758 23.9427C2.64583 23.6934 2.59675 23.4438 2.54937 23.194C2.52367 23.0585 2.49967 22.9229 2.47531 22.7874C2.45149 22.6551 2.42802 22.5228 2.40545 22.3904C2.37984 22.24 2.35468 22.0894 2.33068 21.9389C2.3131 21.829 2.29659 21.7189 2.27982 21.6089C2.1905 21.0208 2.11269 20.4321 2.04747 19.843C2.04122 19.787 2.03489 19.731 2.02882 19.6748C2.00678 19.4684 1.98599 19.262 1.96698 19.0555C1.96458 19.0293 1.96234 19.0031 1.96002 18.9769C1.91559 18.4855 1.8799 17.9941 1.85224 17.5028L7.26121 20.5434L8.16259 23.8189C8.2694 24.207 8.62988 24.4631 9.0239 24.4631C9.10028 24.4631 9.17809 24.4534 9.25545 24.4332C9.73139 24.3089 10.0139 23.8326 9.88638 23.3692L8.985 20.0937L12.1096 14.8245C12.5234 15.6214 12.9157 16.4327 13.2831 17.2598C12.989 19.3574 12.8385 21.4855 12.8385 23.6281C12.8385 24.2187 12.8501 24.8073 12.8722 25.3939C12.8329 25.4371 12.7973 25.4849 12.7666 25.5368L10.5758 29.2313L2.91422 24.9244C2.90307 24.8767 2.89174 24.829 2.88085 24.7813ZM9.02944 39.2626C6.61217 35.5839 4.76284 31.556 3.52561 27.2744L10.4562 31.1704C10.5967 31.2493 10.7501 31.2869 10.9015 31.2869C11.2099 31.2869 11.5098 31.1311 11.675 30.8524L13.09 28.4661C13.4787 32.174 14.3176 35.7868 15.5976 39.2626H9.02944ZM24.3393 39.2626H17.4974C15.5898 34.3066 14.6229 29.0497 14.6229 23.628C14.6229 15.9849 16.5922 8.53432 20.3179 2.08174C20.4972 1.77107 20.7976 1.73762 20.9184 1.73762C21.0392 1.73762 21.3395 1.77115 21.5189 2.08174C25.2446 8.53432 27.2138 15.985 27.2138 23.628C27.2138 29.0497 26.2469 34.3067 24.3393 39.2626Z" fill="#F79E1B"/>
</svg>
