<svg width="20" height="20" viewBox="0 0 20 20" fill="none" xmlns="http://www.w3.org/2000/svg">
<path d="M8.71429 7.42857L8.99164 7.01255C8.83821 6.91026 8.64094 6.90072 8.47836 6.98773C8.31578 7.07474 8.21429 7.24417 8.21429 7.42857H8.71429ZM8.71429 12.5714H8.21429C8.21429 12.7558 8.31578 12.9253 8.47836 13.0123C8.64094 13.0993 8.83821 13.0897 8.99164 12.9875L8.71429 12.5714ZM12.5714 10L12.8488 10.416C12.9879 10.3233 13.0714 10.1672 13.0714 10C13.0714 9.83282 12.9879 9.67671 12.8488 9.58397L12.5714 10ZM10 18.5C5.30558 18.5 1.5 14.6944 1.5 10H0.5C0.5 15.2467 4.7533 19.5 10 19.5V18.5ZM18.5 10C18.5 14.6944 14.6944 18.5 10 18.5V19.5C15.2467 19.5 19.5 15.2467 19.5 10H18.5ZM10 1.5C14.6944 1.5 18.5 5.30558 18.5 10H19.5C19.5 4.7533 15.2467 0.5 10 0.5V1.5ZM10 0.5C4.7533 0.5 0.5 4.7533 0.5 10H1.5C1.5 5.30558 5.30558 1.5 10 1.5V0.5ZM8.21429 7.42857V12.5714H9.21429V7.42857H8.21429ZM8.99164 12.9875L12.8488 10.416L12.2941 9.58397L8.43694 12.1554L8.99164 12.9875ZM12.8488 9.58397L8.99164 7.01255L8.43694 7.8446L12.2941 10.416L12.8488 9.58397Z" fill="white"/>
</svg>
