<svg width="29" height="43" viewBox="0 0 29 43" fill="none" xmlns="http://www.w3.org/2000/svg">
<path d="M23.409 41.9999H17.0518C16.8468 41.9999 16.6417 41.8359 16.6007 41.6308L15.0422 34.8635C14.9601 34.5764 14.714 34.3713 14.4269 34.3713C14.1398 34.3713 13.8527 34.5764 13.8117 34.8635L12.2532 41.6308C12.2122 41.8359 12.0071 41.9999 11.802 41.9999H5.44486C5.19878 41.9999 4.99371 41.7948 4.99371 41.5488C4.99371 41.4257 4.62458 31.0081 7.41354 21.739C7.5776 21.1648 7.65962 20.5496 7.65962 19.8933V12.8389L5.69095 8.12229C5.60892 7.87621 5.69095 7.63012 5.93703 7.50708C6.18312 7.42505 6.4292 7.50708 6.55224 7.75316L8.56193 12.5518C8.60295 12.5928 8.60295 12.6749 8.60295 12.7159V19.8523C8.60295 20.5906 8.52092 21.2878 8.31585 21.985C5.89602 30.0238 5.89602 38.9649 5.93703 41.0566H11.4739L12.9504 34.6584C13.1145 33.9612 13.7297 33.428 14.468 33.428C15.2062 33.428 15.8214 33.9201 15.9855 34.6584L17.462 41.0566H22.9989C23.0399 38.9649 23.0399 30.0238 20.6201 21.985C20.415 21.3288 20.333 20.6316 20.333 19.8523V12.7569C20.333 12.7159 20.333 12.6338 20.374 12.5928L22.3837 7.79418C22.4657 7.54809 22.7528 7.46606 22.9989 7.54809C23.245 7.63012 23.327 7.91722 23.245 8.1633L21.2763 12.8799V19.9343C21.2763 20.5906 21.3583 21.2058 21.5224 21.78C24.3113 31.0081 23.9422 41.4667 23.9422 41.5898C23.8602 41.7948 23.6551 41.9999 23.409 41.9999Z" fill="black" stroke="black"/>
<path d="M4.66563 17.0224C4.54259 17.0224 4.41955 16.9814 4.33752 16.8994L1.13842 13.7003C1.01538 13.5772 0.974366 13.4542 1.01538 13.2901C1.05639 13.1261 1.75363 8.73759 3.1071 5.49747C3.72231 4.02097 4.99375 2.91359 6.55228 2.42142L10.9408 1.02694C11.0228 0.985926 11.1869 0.985926 11.3099 1.06795C13.2376 2.21635 15.6164 2.21635 17.5441 1.06795C17.6671 0.985926 17.8311 0.985926 17.9542 1.02694L22.3427 2.42142C23.9012 2.91359 25.1317 4.06198 25.7879 5.49747C27.1413 8.73759 27.8386 13.0851 27.8796 13.2901C27.9206 13.4542 27.8386 13.5772 27.7566 13.7003L24.5575 16.8994C24.4754 16.9814 24.3524 17.0224 24.2293 17.0224C24.1063 17.0224 23.9833 16.9814 23.9012 16.8584L20.456 13.0441C20.292 12.839 20.292 12.5519 20.4971 12.3878C20.7021 12.2238 20.9892 12.2238 21.1533 12.4289L24.2704 15.874L26.9773 13.1671C26.8132 12.2238 26.157 8.53252 25.0086 5.82559C24.4754 4.59516 23.4501 3.65184 22.1376 3.2417L17.8722 1.97026C15.7394 3.15967 13.1555 3.15967 11.0228 1.97026L6.79836 3.28271C5.48591 3.69285 4.46056 4.63618 3.92738 5.8666C2.77899 8.57353 2.08175 12.2238 1.9587 13.2081L4.66563 15.915L7.7827 12.4699C7.94676 12.2648 8.23386 12.2648 8.43893 12.4289C8.644 12.5929 8.644 12.88 8.47994 13.0851L5.03476 16.8994C4.95273 16.9814 4.82969 17.0224 4.66563 17.0224C4.70665 17.0224 4.70665 17.0224 4.66563 17.0224Z" fill="black"/>
<path d="M4.66563 17.0224C4.54259 17.0224 4.41955 16.9814 4.33752 16.8994L1.13842 13.7003C1.01538 13.5772 0.974366 13.4542 1.01538 13.2901C1.05639 13.1261 1.75363 8.73759 3.1071 5.49747C3.72231 4.02097 4.99375 2.91359 6.55228 2.42142L10.9408 1.02694C11.0228 0.985926 11.1869 0.985926 11.3099 1.06795C13.2376 2.21635 15.6164 2.21635 17.5441 1.06795C17.6671 0.985926 17.8311 0.985926 17.9542 1.02694L22.3427 2.42142C23.9012 2.91359 25.1317 4.06198 25.7879 5.49747C27.1413 8.73759 27.8386 13.0851 27.8796 13.2901C27.9206 13.4542 27.8386 13.5772 27.7566 13.7003L24.5575 16.8994C24.4754 16.9814 24.3524 17.0224 24.2293 17.0224C24.1063 17.0224 23.9833 16.9814 23.9012 16.8584L20.456 13.0441C20.292 12.839 20.292 12.5519 20.4971 12.3878C20.7021 12.2238 20.9892 12.2238 21.1533 12.4289L24.2704 15.874L26.9773 13.1671C26.8132 12.2238 26.157 8.53252 25.0086 5.82559C24.4754 4.59516 23.4501 3.65184 22.1376 3.2417L17.8722 1.97026C15.7394 3.15967 13.1555 3.15967 11.0228 1.97026L6.79836 3.28271C5.48591 3.69285 4.46056 4.63618 3.92738 5.8666C2.77899 8.57353 2.08175 12.2238 1.9587 13.2081L4.66563 15.915L7.7827 12.4699C7.94676 12.2648 8.23386 12.2648 8.43893 12.4289C8.644 12.5929 8.644 12.88 8.47994 13.0851L5.03476 16.8994C4.95273 16.9814 4.82969 17.0224 4.66563 17.0224ZM4.66563 17.0224C4.70665 17.0224 4.70665 17.0224 4.66563 17.0224Z" stroke="black"/>
<path d="M20.0488 20.5C20.0899 20.5 20.1719 20.5 20.2129 20.541C20.377 20.623 20.5 20.7871 20.5 20.9512L20.5 24.0272C20.5 24.1503 20.459 24.2733 20.377 24.3553L17.1368 27.5954C16.9728 27.7595 16.6447 27.7595 16.4806 27.5954C16.3166 27.4314 16.3166 27.1033 16.4806 26.9392L19.5977 23.8221L19.5977 22.0585L18.0802 23.5761C17.9161 23.7401 17.588 23.7401 17.4239 23.5761C17.2599 23.412 17.2599 23.0839 17.4239 22.9198L19.7207 20.623C19.8438 20.541 19.9668 20.5 20.0488 20.5Z" fill="black" stroke="black" stroke-width="0.5"/>
<path d="M17.5029 23.6257C17.2568 23.6257 17.0518 23.4206 17.0518 23.1745V19.9344C17.0518 19.8114 17.0928 19.6883 17.1748 19.6063L20 17C20.1641 16.8359 20.4922 16.8359 20.6562 17C20.8203 17.1641 20.8203 17.4922 20.6562 17.6562L17.9541 20.1395V23.2155C17.9541 23.4206 17.749 23.6257 17.5029 23.6257Z" fill="black" stroke="black" stroke-width="0.5"/>
</svg>
