<svg width="1142" height="18" viewBox="0 0 1142 18" fill="none" xmlns="http://www.w3.org/2000/svg">
<path d="M1142 17L4.12464e-05 17" stroke="black" stroke-width="2"/>
<path d="M972 14L991 14L981.258 -2.05167e-06L972 14Z" fill="black"/>
<path d="M300 14L319 14L309.258 -2.05167e-06L300 14Z" fill="black"/>
<path d="M953 14L973 14L962.745 -2.00907e-06L953 14Z" fill="black"/>
<path d="M281 14L301 14L290.745 -2.00907e-06L281 14Z" fill="black"/>
<path d="M935 14L954 14L944.258 -2.05167e-06L935 14Z" fill="black"/>
<path d="M263 14L282 14L272.258 -2.05167e-06L263 14Z" fill="black"/>
<path d="M917 14L936 14L926.258 -2.05167e-06L917 14Z" fill="black"/>
<path d="M245 14L264 14L254.258 -2.05167e-06L245 14Z" fill="black"/>
<path d="M898 14L918 14L907.745 -2.00907e-06L898 14Z" fill="black"/>
<path d="M226 14L246 14L235.745 -2.00907e-06L226 14Z" fill="black"/>
<path d="M880 14L899 14L889.258 -2.05167e-06L880 14Z" fill="black"/>
<path d="M208 14L227 14L217.258 -2.05167e-06L208 14Z" fill="black"/>
<path d="M861 14L881 14L870.745 -2.00907e-06L861 14Z" fill="black"/>
<path d="M189 14L209 14L198.745 -2.00907e-06L189 14Z" fill="black"/>
<path d="M843 14L862 14L852.258 -2.05167e-06L843 14Z" fill="black"/>
<path d="M171 14L190 14L180.258 -2.05167e-06L171 14Z" fill="black"/>
<path d="M824 14L844 14L833.745 -2.00907e-06L824 14Z" fill="black"/>
<path d="M152 14L172 14L161.745 -2.00907e-06L152 14Z" fill="black"/>
<path d="M805 14L825 14L814.745 -2.00907e-06L805 14Z" fill="black"/>
<path d="M132 14L153 14L142.232 -1.96648e-06L132 14Z" fill="black"/>
<path d="M786 14L806 14L795.745 -2.00907e-06L786 14Z" fill="black"/>
<path d="M113 14L133 14L122.745 -2.00907e-06L113 14Z" fill="black"/>
<path d="M766 14L787 14L776.232 -1.96648e-06L766 14Z" fill="black"/>
<path d="M93 14L114 14L103.232 -1.96648e-06L93 14Z" fill="black"/>
<path d="M747 14L767 14L756.745 -2.00907e-06L747 14Z" fill="black"/>
<path d="M74 14L94 14L83.7452 -2.00907e-06L74 14Z" fill="black"/>
<path d="M728 14L748 14L737.745 -2.00907e-06L728 14Z" fill="black"/>
<path d="M55 14L75 14L64.7452 -2.00907e-06L55 14Z" fill="black"/>
<path d="M709 14L729 14L718.745 -2.00907e-06L709 14Z" fill="black"/>
<path d="M37 14L56 14L46.2579 -2.05167e-06L37 14Z" fill="black"/>
<path d="M690 14L710 14L699.745 -2.00907e-06L690 14Z" fill="black"/>
<path d="M18 14L38 14L27.7452 -2.00907e-06L18 14Z" fill="black"/>
<path d="M672 14L691 14L681.258 -2.05167e-06L672 14Z" fill="black"/>
<path d="M0 14L19 14L9.2579 -2.05167e-06L0 14Z" fill="black"/>
<path d="M654 14L673 14L663.258 -2.05167e-06L654 14Z" fill="black"/>
<path d="M636 14L655 14L645.258 -2.05167e-06L636 14Z" fill="black"/>
<path d="M617 14L637 14L626.745 -2.00907e-06L617 14Z" fill="black"/>
<path d="M599 14L618 14L608.258 -2.05167e-06L599 14Z" fill="black"/>
<path d="M581 14L600 14L590.258 -2.05167e-06L581 14Z" fill="black"/>
<path d="M562 14L582 14L571.745 -2.00907e-06L562 14Z" fill="black"/>
<path d="M544 14L563 14L553.258 -2.05167e-06L544 14Z" fill="black"/>
<path d="M525 14L545 14L534.745 -2.00907e-06L525 14Z" fill="black"/>
<path d="M507 14L526 14L516.258 -2.05167e-06L507 14Z" fill="black"/>
<path d="M488 14L508 14L497.745 -2.00907e-06L488 14Z" fill="black"/>
<path d="M469 14L489 14L478.745 -2.00907e-06L469 14Z" fill="black"/>
<path d="M1122 14L1142 14L1131.75 -2.00907e-06L1122 14Z" fill="black"/>
<path d="M450 14L470 14L459.745 -2.00907e-06L450 14Z" fill="black"/>
<path d="M1102 14L1123 14L1112.23 -1.96648e-06L1102 14Z" fill="black"/>
<path d="M430 14L451 14L440.232 -1.96648e-06L430 14Z" fill="black"/>
<path d="M1083 14L1103 14L1092.75 -2.00907e-06L1083 14Z" fill="black"/>
<path d="M410 14L431 14L420.232 -1.96648e-06L410 14Z" fill="black"/>
<path d="M1064 14L1084 14L1073.75 -2.00907e-06L1064 14Z" fill="black"/>
<path d="M391 14L411 14L400.745 -2.00907e-06L391 14Z" fill="black"/>
<path d="M1046 14L1065 14L1055.26 -2.05167e-06L1046 14Z" fill="black"/>
<path d="M373 14L392 14L382.258 -2.05167e-06L373 14Z" fill="black"/>
<path d="M1027 14L1047 14L1036.75 -2.00907e-06L1027 14Z" fill="black"/>
<path d="M354 14L374 14L363.745 -2.00907e-06L354 14Z" fill="black"/>
<path d="M1009 14L1028 14L1018.26 -2.05167e-06L1009 14Z" fill="black"/>
<path d="M336 14L355 14L345.258 -2.05167e-06L336 14Z" fill="black"/>
<path d="M990 14L1010 14L999.745 -2.00907e-06L990 14Z" fill="black"/>
<path d="M318 14L337 14L327.258 -2.05167e-06L318 14Z" fill="black"/>
</svg>
