<svg width="1440" height="49" viewBox="0 0 1440 49" fill="none" xmlns="http://www.w3.org/2000/svg">
<path d="M719.711 29.2499L719.711 1.87361L678.85 29.2499L719.711 29.2499Z" stroke="black" stroke-width="2"/>
<path d="M1158.71 48.25L1177.71 48.25L1167.97 34.25L1158.71 48.25Z" fill="black"/>
<path d="M488.711 48.25L507.711 48.25L497.969 34.25L488.711 48.25Z" fill="black"/>
<path d="M1139.71 48.25L1159.71 48.25L1149.46 34.25L1139.71 48.25Z" fill="black"/>
<path d="M469.711 48.25L489.711 48.25L479.457 34.25L469.711 48.25Z" fill="black"/>
<path d="M1121.71 48.25L1140.71 48.25L1130.97 34.25L1121.71 48.25Z" fill="black"/>
<path d="M451.711 48.25L470.711 48.25L460.969 34.25L451.711 48.25Z" fill="black"/>
<path d="M1103.71 48.25L1122.71 48.25L1112.97 34.25L1103.71 48.25Z" fill="black"/>
<path d="M433.711 48.25L452.711 48.25L442.969 34.25L433.711 48.25Z" fill="black"/>
<path d="M1084.71 48.25L1104.71 48.25L1094.46 34.25L1084.71 48.25Z" fill="black"/>
<path d="M414.711 48.25L434.711 48.25L424.457 34.25L414.711 48.25Z" fill="black"/>
<path d="M1066.71 48.25L1085.71 48.25L1075.97 34.25L1066.71 48.25Z" fill="black"/>
<path d="M396.711 48.25L415.711 48.25L405.969 34.25L396.711 48.25Z" fill="black"/>
<path d="M1047.71 48.25L1067.71 48.25L1057.46 34.25L1047.71 48.25Z" fill="black"/>
<path d="M377.711 48.25L397.711 48.25L387.457 34.25L377.711 48.25Z" fill="black"/>
<path d="M1029.71 48.25L1048.71 48.25L1038.97 34.25L1029.71 48.25Z" fill="black"/>
<path d="M359.711 48.25L378.711 48.25L368.969 34.25L359.711 48.25Z" fill="black"/>
<path d="M1010.71 48.25L1030.71 48.25L1020.46 34.25L1010.71 48.25Z" fill="black"/>
<path d="M340.711 48.25L360.711 48.25L350.457 34.25L340.711 48.25Z" fill="black"/>
<path d="M991.711 48.25L1011.71 48.25L1001.46 34.25L991.711 48.25Z" fill="black"/>
<path d="M321.711 48.25L341.711 48.25L331.457 34.25L321.711 48.25Z" fill="black"/>
<path d="M152.711 48.25L172.711 48.25L162.457 34.25L152.711 48.25Z" fill="black"/>
<path d="M972.711 48.25L992.711 48.25L982.457 34.25L972.711 48.25Z" fill="black"/>
<path d="M302.711 48.25L322.711 48.25L312.457 34.25L302.711 48.25Z" fill="black"/>
<path d="M133.711 48.25L153.711 48.25L143.457 34.25L133.711 48.25Z" fill="black"/>
<path d="M952.711 48.25L973.711 48.25L962.944 34.25L952.711 48.25Z" fill="black"/>
<path d="M282.711 48.25L303.711 48.25L292.944 34.25L282.711 48.25Z" fill="black"/>
<path d="M113.711 48.25L134.711 48.25L123.944 34.25L113.711 48.25Z" fill="black"/>
<path d="M933.711 48.25L953.711 48.25L943.457 34.25L933.711 48.25Z" fill="black"/>
<path d="M263.711 48.25L283.711 48.25L273.457 34.25L263.711 48.25Z" fill="black"/>
<path d="M94.7114 48.25L114.711 48.25L104.457 34.25L94.7114 48.25Z" fill="black"/>
<path d="M914.711 48.25L934.711 48.25L924.457 34.25L914.711 48.25Z" fill="black"/>
<path d="M244.711 48.25L264.711 48.25L254.457 34.25L244.711 48.25Z" fill="black"/>
<path d="M75.7114 48.25L95.7114 48.25L85.4566 34.25L75.7114 48.25Z" fill="black"/>
<path d="M896.711 48.25L915.711 48.25L905.969 34.25L896.711 48.25Z" fill="black"/>
<path d="M226.711 48.25L245.711 48.25L235.969 34.25L226.711 48.25Z" fill="black"/>
<path d="M57.7114 48.25L76.7114 48.25L66.9693 34.25L57.7114 48.25Z" fill="black"/>
<path d="M-15.2886 48.25L3.71143 48.25L-6.03068 34.25L-15.2886 48.25Z" fill="black"/>
<path d="M877.711 48.25L897.711 48.25L887.457 34.25L877.711 48.25Z" fill="black"/>
<path d="M207.711 48.25L227.711 48.25L217.457 34.25L207.711 48.25Z" fill="black"/>
<path d="M38.7114 48.25L58.7114 48.25L48.4566 34.25L38.7114 48.25Z" fill="black"/>
<path d="M859.711 48.25L878.711 48.25L868.969 34.25L859.711 48.25Z" fill="black"/>
<path d="M189.711 48.25L208.711 48.25L198.969 34.25L189.711 48.25Z" fill="black"/>
<path d="M20.7114 48.25L39.7114 48.25L29.9693 34.25L20.7114 48.25Z" fill="black"/>
<path d="M841.711 48.25L860.711 48.25L850.969 34.25L841.711 48.25Z" fill="black"/>
<path d="M171.711 48.25L190.711 48.25L180.969 34.25L171.711 48.25Z" fill="black"/>
<path d="M2.71143 48.25L21.7114 48.25L11.9693 34.25L2.71143 48.25Z" fill="black"/>
<path d="M823.711 48.25L842.711 48.25L832.969 34.25L823.711 48.25Z" fill="black"/>
<path d="M804.711 48.25L824.711 48.25L814.457 34.25L804.711 48.25Z" fill="black"/>
<path d="M786.711 48.25L805.711 48.25L795.969 34.25L786.711 48.25Z" fill="black"/>
<path d="M1438.71 48.25L1457.71 48.25L1447.97 34.25L1438.71 48.25Z" fill="black"/>
<path d="M768.711 48.25L787.711 48.25L777.969 34.25L768.711 48.25Z" fill="black"/>
<path d="M1419.71 48.25L1439.71 48.25L1429.46 34.25L1419.71 48.25Z" fill="black"/>
<path d="M749.711 48.25L769.711 48.25L759.457 34.25L749.711 48.25Z" fill="black"/>
<path d="M1401.71 48.25L1420.71 48.25L1410.97 34.25L1401.71 48.25Z" fill="black"/>
<path d="M731.711 48.25L750.711 48.25L740.969 34.25L731.711 48.25Z" fill="black"/>
<path d="M1382.71 48.25L1402.71 48.25L1392.46 34.25L1382.71 48.25Z" fill="black"/>
<path d="M712.711 48.25L732.711 48.25L722.457 34.25L712.711 48.25Z" fill="black"/>
<path d="M1364.71 48.25L1383.71 48.25L1373.97 34.25L1364.71 48.25Z" fill="black"/>
<path d="M694.711 48.25L713.711 48.25L703.969 34.25L694.711 48.25Z" fill="black"/>
<path d="M1345.71 48.25L1365.71 48.25L1355.46 34.25L1345.71 48.25Z" fill="black"/>
<path d="M675.711 48.25L695.711 48.25L685.457 34.25L675.711 48.25Z" fill="black"/>
<path d="M1326.71 48.25L1346.71 48.25L1336.46 34.25L1326.71 48.25Z" fill="black"/>
<path d="M656.711 48.25L676.711 48.25L666.457 34.25L656.711 48.25Z" fill="black"/>
<path d="M1307.71 48.25L1327.71 48.25L1317.46 34.25L1307.71 48.25Z" fill="black"/>
<path d="M637.711 48.25L657.711 48.25L647.457 34.25L637.711 48.25Z" fill="black"/>
<path d="M1287.71 48.25L1308.71 48.25L1297.94 34.25L1287.71 48.25Z" fill="black"/>
<path d="M617.711 48.25L638.711 48.25L627.944 34.25L617.711 48.25Z" fill="black"/>
<path d="M1268.71 48.25L1288.71 48.25L1278.46 34.25L1268.71 48.25Z" fill="black"/>
<path d="M598.711 48.25L618.711 48.25L608.457 34.25L598.711 48.25Z" fill="black"/>
<path d="M1249.71 48.25L1269.71 48.25L1259.46 34.25L1249.71 48.25Z" fill="black"/>
<path d="M579.711 48.25L599.711 48.25L589.457 34.25L579.711 48.25Z" fill="black"/>
<path d="M1231.71 48.25L1250.71 48.25L1240.97 34.25L1231.71 48.25Z" fill="black"/>
<path d="M561.711 48.25L580.711 48.25L570.969 34.25L561.711 48.25Z" fill="black"/>
<path d="M1212.71 48.25L1232.71 48.25L1222.46 34.25L1212.71 48.25Z" fill="black"/>
<path d="M542.711 48.25L562.711 48.25L552.457 34.25L542.711 48.25Z" fill="black"/>
<path d="M1194.71 48.25L1213.71 48.25L1203.97 34.25L1194.71 48.25Z" fill="black"/>
<path d="M524.711 48.25L543.711 48.25L533.969 34.25L524.711 48.25Z" fill="black"/>
<path d="M1176.71 48.25L1195.71 48.25L1185.97 34.25L1176.71 48.25Z" fill="black"/>
<path d="M506.711 48.25L525.711 48.25L515.969 34.25L506.711 48.25Z" fill="black"/>
<path d="M711.061 6.99994L711.061 28.9999" stroke="black" stroke-width="2" stroke-linejoin="round"/>
<path d="M702.061 13.9999L702.061 28.9999" stroke="black" stroke-width="2" stroke-linejoin="round"/>
<path d="M693.061 19.9999L693.061 28.9999" stroke="black" stroke-width="2" stroke-linejoin="round"/>
<path d="M675.561 29.2499L675.561 1.87361L634.699 29.2499L675.561 29.2499Z" stroke="black" stroke-width="2"/>
<path d="M666.91 6.99994L666.91 28.9999" stroke="black" stroke-width="2" stroke-linejoin="round"/>
<path d="M657.91 13.9999L657.91 28.9999" stroke="black" stroke-width="2" stroke-linejoin="round"/>
<path d="M648.91 19.9999L648.91 28.9999" stroke="black" stroke-width="2" stroke-linejoin="round"/>
<path d="M1469.56 29.25L1469.56 1.87367L1428.7 29.25L1469.56 29.25Z" stroke="black" stroke-width="2"/>
<path d="M631.41 29.2499L631.41 1.87361L590.549 29.2499L631.41 29.2499Z" stroke="black" stroke-width="2"/>
<path d="M622.76 6.99994L622.76 28.9999" stroke="black" stroke-width="2" stroke-linejoin="round"/>
<path d="M613.76 13.9999L613.76 28.9999" stroke="black" stroke-width="2" stroke-linejoin="round"/>
<path d="M604.76 19.9999L604.76 28.9999" stroke="black" stroke-width="2" stroke-linejoin="round"/>
<path d="M1425.41 29.25L1425.41 1.87367L1384.55 29.25L1425.41 29.25Z" stroke="black" stroke-width="2"/>
<path d="M1416.76 7L1416.76 29" stroke="black" stroke-width="2" stroke-linejoin="round"/>
<path d="M1407.76 14L1407.76 29" stroke="black" stroke-width="2" stroke-linejoin="round"/>
<path d="M1398.76 20L1398.76 29" stroke="black" stroke-width="2" stroke-linejoin="round"/>
<path d="M587.26 29.2499L587.26 1.87361L546.398 29.2499L587.26 29.2499Z" stroke="black" stroke-width="2"/>
<path d="M578.609 6.99994L578.609 28.9999" stroke="black" stroke-width="2" stroke-linejoin="round"/>
<path d="M569.609 13.9999L569.609 28.9999" stroke="black" stroke-width="2" stroke-linejoin="round"/>
<path d="M560.609 19.9999L560.609 28.9999" stroke="black" stroke-width="2" stroke-linejoin="round"/>
<path d="M1381.26 29.25L1381.26 1.87367L1340.4 29.25L1381.26 29.25Z" stroke="black" stroke-width="2"/>
<path d="M1372.61 7L1372.61 29" stroke="black" stroke-width="2" stroke-linejoin="round"/>
<path d="M1363.61 14L1363.61 29" stroke="black" stroke-width="2" stroke-linejoin="round"/>
<path d="M1354.61 20L1354.61 29" stroke="black" stroke-width="2" stroke-linejoin="round"/>
<path d="M543.109 29.2499L543.109 1.87361L502.247 29.2499L543.109 29.2499Z" stroke="black" stroke-width="2"/>
<path d="M534.458 6.99994L534.458 28.9999" stroke="black" stroke-width="2" stroke-linejoin="round"/>
<path d="M525.458 13.9999L525.458 28.9999" stroke="black" stroke-width="2" stroke-linejoin="round"/>
<path d="M516.458 19.9999L516.458 28.9999" stroke="black" stroke-width="2" stroke-linejoin="round"/>
<path d="M1337.11 29.25L1337.11 1.87367L1296.25 29.25L1337.11 29.25Z" stroke="black" stroke-width="2"/>
<path d="M1328.46 7L1328.46 29" stroke="black" stroke-width="2" stroke-linejoin="round"/>
<path d="M1319.46 14L1319.46 29" stroke="black" stroke-width="2" stroke-linejoin="round"/>
<path d="M1310.46 20L1310.46 29" stroke="black" stroke-width="2" stroke-linejoin="round"/>
<path d="M498.958 29.2499L498.958 1.87361L458.097 29.2499L498.958 29.2499Z" stroke="black" stroke-width="2"/>
<path d="M490.308 6.99994L490.308 28.9999" stroke="black" stroke-width="2" stroke-linejoin="round"/>
<path d="M481.308 13.9999L481.308 28.9999" stroke="black" stroke-width="2" stroke-linejoin="round"/>
<path d="M472.308 19.9999L472.308 28.9999" stroke="black" stroke-width="2" stroke-linejoin="round"/>
<path d="M1292.96 29.25L1292.96 1.87367L1252.1 29.25L1292.96 29.25Z" stroke="black" stroke-width="2"/>
<path d="M1284.31 7L1284.31 29" stroke="black" stroke-width="2" stroke-linejoin="round"/>
<path d="M1275.31 14L1275.31 29" stroke="black" stroke-width="2" stroke-linejoin="round"/>
<path d="M1266.31 20L1266.31 29" stroke="black" stroke-width="2" stroke-linejoin="round"/>
<path d="M454.808 29.2499L454.808 1.87355L413.946 29.2499L454.808 29.2499Z" stroke="black" stroke-width="2"/>
<path d="M446.157 6.99988L446.157 28.9999" stroke="black" stroke-width="2" stroke-linejoin="round"/>
<path d="M437.157 13.9999L437.157 28.9999" stroke="black" stroke-width="2" stroke-linejoin="round"/>
<path d="M428.157 19.9999L428.157 28.9999" stroke="black" stroke-width="2" stroke-linejoin="round"/>
<path d="M1248.81 29.25L1248.81 1.87367L1207.95 29.25L1248.81 29.25Z" stroke="black" stroke-width="2"/>
<path d="M1240.16 7L1240.16 29" stroke="black" stroke-width="2" stroke-linejoin="round"/>
<path d="M1231.16 14L1231.16 29" stroke="black" stroke-width="2" stroke-linejoin="round"/>
<path d="M1222.16 20L1222.16 29" stroke="black" stroke-width="2" stroke-linejoin="round"/>
<path d="M410.657 29.2499L410.657 1.87355L369.796 29.2499L410.657 29.2499Z" stroke="black" stroke-width="2"/>
<path d="M402.006 6.99988L402.006 28.9999" stroke="black" stroke-width="2" stroke-linejoin="round"/>
<path d="M393.006 13.9999L393.006 28.9999" stroke="black" stroke-width="2" stroke-linejoin="round"/>
<path d="M384.006 19.9999L384.006 28.9999" stroke="black" stroke-width="2" stroke-linejoin="round"/>
<path d="M1204.66 29.25L1204.66 1.87367L1163.8 29.25L1204.66 29.25Z" stroke="black" stroke-width="2"/>
<path d="M1196.01 7L1196.01 29" stroke="black" stroke-width="2" stroke-linejoin="round"/>
<path d="M1187.01 14L1187.01 29" stroke="black" stroke-width="2" stroke-linejoin="round"/>
<path d="M1178.01 20L1178.01 29" stroke="black" stroke-width="2" stroke-linejoin="round"/>
<path d="M366.506 29.2499L366.506 1.87355L325.645 29.2499L366.506 29.2499Z" stroke="black" stroke-width="2"/>
<path d="M357.856 6.99988L357.856 28.9999" stroke="black" stroke-width="2" stroke-linejoin="round"/>
<path d="M348.856 13.9999L348.856 28.9999" stroke="black" stroke-width="2" stroke-linejoin="round"/>
<path d="M339.856 19.9999L339.856 28.9999" stroke="black" stroke-width="2" stroke-linejoin="round"/>
<path d="M1160.51 29.2499L1160.51 1.87361L1119.64 29.2499L1160.51 29.2499Z" stroke="black" stroke-width="2"/>
<path d="M1151.86 6.99994L1151.86 28.9999" stroke="black" stroke-width="2" stroke-linejoin="round"/>
<path d="M1142.86 13.9999L1142.86 28.9999" stroke="black" stroke-width="2" stroke-linejoin="round"/>
<path d="M1133.86 19.9999L1133.86 28.9999" stroke="black" stroke-width="2" stroke-linejoin="round"/>
<path d="M322.356 29.2499L322.356 1.87355L281.494 29.2499L322.356 29.2499Z" stroke="black" stroke-width="2"/>
<path d="M313.705 6.99988L313.705 28.9999" stroke="black" stroke-width="2" stroke-linejoin="round"/>
<path d="M304.705 13.9999L304.705 28.9999" stroke="black" stroke-width="2" stroke-linejoin="round"/>
<path d="M295.705 19.9999L295.705 28.9999" stroke="black" stroke-width="2" stroke-linejoin="round"/>
<path d="M1116.36 29.2499L1116.36 1.87361L1075.49 29.2499L1116.36 29.2499Z" stroke="black" stroke-width="2"/>
<path d="M1107.71 6.99994L1107.71 28.9999" stroke="black" stroke-width="2" stroke-linejoin="round"/>
<path d="M1098.71 13.9999L1098.71 28.9999" stroke="black" stroke-width="2" stroke-linejoin="round"/>
<path d="M1089.71 19.9999L1089.71 28.9999" stroke="black" stroke-width="2" stroke-linejoin="round"/>
<path d="M278.205 29.2499L278.205 1.87355L237.344 29.2499L278.205 29.2499Z" stroke="black" stroke-width="2"/>
<path d="M269.554 6.99988L269.554 28.9999" stroke="black" stroke-width="2" stroke-linejoin="round"/>
<path d="M260.554 13.9999L260.554 28.9999" stroke="black" stroke-width="2" stroke-linejoin="round"/>
<path d="M251.554 19.9999L251.554 28.9999" stroke="black" stroke-width="2" stroke-linejoin="round"/>
<path d="M1072.21 29.2499L1072.21 1.87361L1031.34 29.2499L1072.21 29.2499Z" stroke="black" stroke-width="2"/>
<path d="M1063.55 6.99994L1063.55 28.9999" stroke="black" stroke-width="2" stroke-linejoin="round"/>
<path d="M1054.55 13.9999L1054.55 28.9999" stroke="black" stroke-width="2" stroke-linejoin="round"/>
<path d="M1045.55 19.9999L1045.55 28.9999" stroke="black" stroke-width="2" stroke-linejoin="round"/>
<path d="M234.054 29.2499L234.054 1.87355L193.193 29.2499L234.054 29.2499Z" stroke="black" stroke-width="2"/>
<path d="M225.404 6.99988L225.404 28.9999" stroke="black" stroke-width="2" stroke-linejoin="round"/>
<path d="M216.404 13.9999L216.404 28.9999" stroke="black" stroke-width="2" stroke-linejoin="round"/>
<path d="M207.404 19.9999L207.404 28.9999" stroke="black" stroke-width="2" stroke-linejoin="round"/>
<path d="M1028.05 29.2499L1028.05 1.87361L987.193 29.2499L1028.05 29.2499Z" stroke="black" stroke-width="2"/>
<path d="M1019.4 6.99994L1019.4 28.9999" stroke="black" stroke-width="2" stroke-linejoin="round"/>
<path d="M1010.4 13.9999L1010.4 28.9999" stroke="black" stroke-width="2" stroke-linejoin="round"/>
<path d="M1001.4 19.9999L1001.4 28.9999" stroke="black" stroke-width="2" stroke-linejoin="round"/>
<path d="M189.904 29.2499L189.904 1.87355L149.042 29.2499L189.904 29.2499Z" stroke="black" stroke-width="2"/>
<path d="M181.253 6.99988L181.253 28.9999" stroke="black" stroke-width="2" stroke-linejoin="round"/>
<path d="M172.253 13.9999L172.253 28.9999" stroke="black" stroke-width="2" stroke-linejoin="round"/>
<path d="M163.253 19.9999L163.253 28.9999" stroke="black" stroke-width="2" stroke-linejoin="round"/>
<path d="M983.904 29.2499L983.904 1.87361L943.042 29.2499L983.904 29.2499Z" stroke="black" stroke-width="2"/>
<path d="M975.253 6.99994L975.253 28.9999" stroke="black" stroke-width="2" stroke-linejoin="round"/>
<path d="M966.253 13.9999L966.253 28.9999" stroke="black" stroke-width="2" stroke-linejoin="round"/>
<path d="M957.253 19.9999L957.253 28.9999" stroke="black" stroke-width="2" stroke-linejoin="round"/>
<path d="M145.753 29.2499L145.753 1.87355L104.892 29.2499L145.753 29.2499Z" stroke="black" stroke-width="2"/>
<path d="M137.103 6.99988L137.103 28.9999" stroke="black" stroke-width="2" stroke-linejoin="round"/>
<path d="M128.103 13.9999L128.103 28.9999" stroke="black" stroke-width="2" stroke-linejoin="round"/>
<path d="M119.103 19.9999L119.103 28.9999" stroke="black" stroke-width="2" stroke-linejoin="round"/>
<path d="M939.753 29.2499L939.753 1.87361L898.892 29.2499L939.753 29.2499Z" stroke="black" stroke-width="2"/>
<path d="M931.103 6.99994L931.103 28.9999" stroke="black" stroke-width="2" stroke-linejoin="round"/>
<path d="M922.103 13.9999L922.103 28.9999" stroke="black" stroke-width="2" stroke-linejoin="round"/>
<path d="M913.103 19.9999L913.103 28.9999" stroke="black" stroke-width="2" stroke-linejoin="round"/>
<path d="M101.603 29.2499L101.603 1.87355L60.7411 29.2499L101.603 29.2499Z" stroke="black" stroke-width="2"/>
<path d="M92.9519 6.99988L92.9519 28.9999" stroke="black" stroke-width="2" stroke-linejoin="round"/>
<path d="M83.9519 13.9999L83.9519 28.9999" stroke="black" stroke-width="2" stroke-linejoin="round"/>
<path d="M74.9519 19.9999L74.9519 28.9999" stroke="black" stroke-width="2" stroke-linejoin="round"/>
<path d="M895.603 29.2499L895.603 1.87361L854.741 29.2499L895.603 29.2499Z" stroke="black" stroke-width="2"/>
<path d="M886.952 6.99994L886.952 28.9999" stroke="black" stroke-width="2" stroke-linejoin="round"/>
<path d="M877.952 13.9999L877.952 28.9999" stroke="black" stroke-width="2" stroke-linejoin="round"/>
<path d="M868.952 19.9999L868.952 28.9999" stroke="black" stroke-width="2" stroke-linejoin="round"/>
<path d="M57.4519 29.2499L57.4519 1.87355L16.5905 29.2499L57.4519 29.2499Z" stroke="black" stroke-width="2"/>
<path d="M48.8013 6.99988L48.8013 28.9999" stroke="black" stroke-width="2" stroke-linejoin="round"/>
<path d="M39.8013 13.9999L39.8013 28.9999" stroke="black" stroke-width="2" stroke-linejoin="round"/>
<path d="M30.8013 19.9999L30.8013 28.9999" stroke="black" stroke-width="2" stroke-linejoin="round"/>
<path d="M851.452 29.2499L851.452 1.87361L810.59 29.2499L851.452 29.2499Z" stroke="black" stroke-width="2"/>
<path d="M842.801 6.99994L842.801 28.9999" stroke="black" stroke-width="2" stroke-linejoin="round"/>
<path d="M833.801 13.9999L833.801 28.9999" stroke="black" stroke-width="2" stroke-linejoin="round"/>
<path d="M824.801 19.9999L824.801 28.9999" stroke="black" stroke-width="2" stroke-linejoin="round"/>
<path d="M13.3013 29.2499L13.3013 1.87355L-27.5602 29.2499L13.3013 29.2499Z" stroke="black" stroke-width="2"/>
<path d="M4.65063 6.99988L4.65063 28.9999" stroke="black" stroke-width="2" stroke-linejoin="round"/>
<path d="M807.301 29.2499L807.301 1.87361L766.44 29.2499L807.301 29.2499Z" stroke="black" stroke-width="2"/>
<path d="M798.651 6.99994L798.651 28.9999" stroke="black" stroke-width="2" stroke-linejoin="round"/>
<path d="M789.651 13.9999L789.651 28.9999" stroke="black" stroke-width="2" stroke-linejoin="round"/>
<path d="M780.651 19.9999L780.651 28.9999" stroke="black" stroke-width="2" stroke-linejoin="round"/>
<path d="M763.151 29.2499L763.151 1.87361L722.289 29.2499L763.151 29.2499Z" stroke="black" stroke-width="2"/>
<path d="M754.5 6.99994L754.5 28.9999" stroke="black" stroke-width="2" stroke-linejoin="round"/>
<path d="M745.5 13.9999L745.5 28.9999" stroke="black" stroke-width="2" stroke-linejoin="round"/>
<path d="M736.5 19.9999L736.5 28.9999" stroke="black" stroke-width="2" stroke-linejoin="round"/>
</svg>
