<svg width="1440" height="49" viewBox="0 0 1440 49" fill="none" xmlns="http://www.w3.org/2000/svg">
<path d="M720 19L720 46.3763L760.861 19L720 19Z" stroke="black" stroke-width="2"/>
<path d="M281 0L262 1.65768e-07L271.742 14L281 0Z" fill="black"/>
<path d="M951 0L932 1.65768e-07L941.742 14L951 0Z" fill="black"/>
<path d="M300 0L280 7.83454e-08L290.255 14L300 0Z" fill="black"/>
<path d="M970 0L950 7.83454e-08L960.255 14L970 0Z" fill="black"/>
<path d="M318 0L299 1.65768e-07L308.742 14L318 0Z" fill="black"/>
<path d="M988 0L969 1.65768e-07L978.742 14L988 0Z" fill="black"/>
<path d="M336 0L317 1.65768e-07L326.742 14L336 0Z" fill="black"/>
<path d="M1006 0L987 1.65768e-07L996.742 14L1006 0Z" fill="black"/>
<path d="M355 0L335 7.83454e-08L345.255 14L355 0Z" fill="black"/>
<path d="M1025 0L1005 7.83454e-08L1015.25 14L1025 0Z" fill="black"/>
<path d="M373 0L354 1.65768e-07L363.742 14L373 0Z" fill="black"/>
<path d="M1043 0L1024 1.65768e-07L1033.74 14L1043 0Z" fill="black"/>
<path d="M392 0L372 7.83454e-08L382.255 14L392 0Z" fill="black"/>
<path d="M1062 0L1042 7.83454e-08L1052.25 14L1062 0Z" fill="black"/>
<path d="M410 0L391 1.65768e-07L400.742 14L410 0Z" fill="black"/>
<path d="M1080 0L1061 1.65768e-07L1070.74 14L1080 0Z" fill="black"/>
<path d="M429 0L409 7.83454e-08L419.255 14L429 0Z" fill="black"/>
<path d="M1099 0L1079 7.83454e-08L1089.25 14L1099 0Z" fill="black"/>
<path d="M448 0L428 7.83454e-08L438.255 14L448 0Z" fill="black"/>
<path d="M1118 0L1098 7.83454e-08L1108.25 14L1118 0Z" fill="black"/>
<path d="M1287 0L1267 7.83454e-08L1277.25 14L1287 0Z" fill="black"/>
<path d="M467 0L447 7.83454e-08L457.255 14L467 0Z" fill="black"/>
<path d="M1137 0L1117 7.83454e-08L1127.25 14L1137 0Z" fill="black"/>
<path d="M1306 0L1286 7.83454e-08L1296.25 14L1306 0Z" fill="black"/>
<path d="M487 0L466 -9.07737e-09L476.768 14L487 0Z" fill="black"/>
<path d="M1157 0L1136 -9.07737e-09L1146.77 14L1157 0Z" fill="black"/>
<path d="M1326 0L1305 -9.07737e-09L1315.77 14L1326 0Z" fill="black"/>
<path d="M506 0L486 7.83454e-08L496.255 14L506 0Z" fill="black"/>
<path d="M1176 0L1156 7.83454e-08L1166.25 14L1176 0Z" fill="black"/>
<path d="M1345 0L1325 7.83454e-08L1335.25 14L1345 0Z" fill="black"/>
<path d="M525 0L505 7.83454e-08L515.255 14L525 0Z" fill="black"/>
<path d="M1195 0L1175 7.83454e-08L1185.25 14L1195 0Z" fill="black"/>
<path d="M1364 0L1344 7.83454e-08L1354.25 14L1364 0Z" fill="black"/>
<path d="M543 0L524 1.65768e-07L533.742 14L543 0Z" fill="black"/>
<path d="M1213 0L1194 1.65768e-07L1203.74 14L1213 0Z" fill="black"/>
<path d="M1382 0L1363 1.65768e-07L1372.74 14L1382 0Z" fill="black"/>
<path d="M1455 0L1436 1.65768e-07L1445.74 14L1455 0Z" fill="black"/>
<path d="M562 0L542 7.83454e-08L552.255 14L562 0Z" fill="black"/>
<path d="M1232 0L1212 7.83454e-08L1222.25 14L1232 0Z" fill="black"/>
<path d="M1401 0L1381 7.83454e-08L1391.25 14L1401 0Z" fill="black"/>
<path d="M580 0L561 1.65768e-07L570.742 14L580 0Z" fill="black"/>
<path d="M1250 0L1231 1.65768e-07L1240.74 14L1250 0Z" fill="black"/>
<path d="M1419 0L1400 1.65768e-07L1409.74 14L1419 0Z" fill="black"/>
<path d="M598 0L579 1.65768e-07L588.742 14L598 0Z" fill="black"/>
<path d="M1268 0L1249 1.65768e-07L1258.74 14L1268 0Z" fill="black"/>
<path d="M1437 0L1418 1.65768e-07L1427.74 14L1437 0Z" fill="black"/>
<path d="M616 0L597 1.65768e-07L606.742 14L616 0Z" fill="black"/>
<path d="M635 0L615 7.83454e-08L625.255 14L635 0Z" fill="black"/>
<path d="M653 0L634 1.65768e-07L643.742 14L653 0Z" fill="black"/>
<path d="M1 0L-18 1.65768e-07L-8.2579 14L1 0Z" fill="black"/>
<path d="M671 0L652 1.65768e-07L661.742 14L671 0Z" fill="black"/>
<path d="M20 0L0 7.83454e-08L10.2548 14L20 0Z" fill="black"/>
<path d="M690 0L670 7.83454e-08L680.255 14L690 0Z" fill="black"/>
<path d="M38 0L19 1.65768e-07L28.7421 14L38 0Z" fill="black"/>
<path d="M708 0L689 1.65768e-07L698.742 14L708 0Z" fill="black"/>
<path d="M57 0L37 7.83454e-08L47.2548 14L57 0Z" fill="black"/>
<path d="M727 0L707 7.83454e-08L717.255 14L727 0Z" fill="black"/>
<path d="M75 0L56 1.65768e-07L65.7421 14L75 0Z" fill="black"/>
<path d="M745 0L726 1.65768e-07L735.742 14L745 0Z" fill="black"/>
<path d="M94 0L74 7.83454e-08L84.2548 14L94 0Z" fill="black"/>
<path d="M764 0L744 7.83454e-08L754.255 14L764 0Z" fill="black"/>
<path d="M113 0L93 7.83454e-08L103.255 14L113 0Z" fill="black"/>
<path d="M783 0L763 7.83454e-08L773.255 14L783 0Z" fill="black"/>
<path d="M132 0L112 7.83454e-08L122.255 14L132 0Z" fill="black"/>
<path d="M802 0L782 7.83454e-08L792.255 14L802 0Z" fill="black"/>
<path d="M152 0L131 -9.07737e-09L141.768 14L152 0Z" fill="black"/>
<path d="M822 0L801 -9.07737e-09L811.768 14L822 0Z" fill="black"/>
<path d="M171 0L151 7.83454e-08L161.255 14L171 0Z" fill="black"/>
<path d="M841 0L821 7.83454e-08L831.255 14L841 0Z" fill="black"/>
<path d="M190 0L170 7.83454e-08L180.255 14L190 0Z" fill="black"/>
<path d="M860 0L840 7.83454e-08L850.255 14L860 0Z" fill="black"/>
<path d="M208 0L189 1.65768e-07L198.742 14L208 0Z" fill="black"/>
<path d="M878 0L859 1.65768e-07L868.742 14L878 0Z" fill="black"/>
<path d="M227 0L207 7.83454e-08L217.255 14L227 0Z" fill="black"/>
<path d="M897 0L877 7.83454e-08L887.255 14L897 0Z" fill="black"/>
<path d="M245 0L226 1.65768e-07L235.742 14L245 0Z" fill="black"/>
<path d="M915 0L896 1.65768e-07L905.742 14L915 0Z" fill="black"/>
<path d="M263 0L244 1.65768e-07L253.742 14L263 0Z" fill="black"/>
<path d="M933 0L914 1.65768e-07L923.742 14L933 0Z" fill="black"/>
<path d="M728.651 41.25L728.651 19.25" stroke="black" stroke-width="2" stroke-linejoin="round"/>
<path d="M737.651 34.25L737.651 19.25" stroke="black" stroke-width="2" stroke-linejoin="round"/>
<path d="M746.651 28.2501L746.651 19.2501" stroke="black" stroke-width="2" stroke-linejoin="round"/>
<path d="M764.151 19L764.151 46.3763L805.012 19L764.151 19Z" stroke="black" stroke-width="2"/>
<path d="M772.801 41.25L772.801 19.25" stroke="black" stroke-width="2" stroke-linejoin="round"/>
<path d="M781.801 34.25L781.801 19.25" stroke="black" stroke-width="2" stroke-linejoin="round"/>
<path d="M790.801 28.25L790.801 19.25" stroke="black" stroke-width="2" stroke-linejoin="round"/>
<path d="M-29.8496 19L-29.8496 46.3763L11.0118 19L-29.8496 19Z" stroke="black" stroke-width="2"/>
<path d="M808.301 19L808.301 46.3763L849.163 19L808.301 19Z" stroke="black" stroke-width="2"/>
<path d="M816.952 41.25L816.952 19.25" stroke="black" stroke-width="2" stroke-linejoin="round"/>
<path d="M825.952 34.25L825.952 19.25" stroke="black" stroke-width="2" stroke-linejoin="round"/>
<path d="M834.952 28.25L834.952 19.25" stroke="black" stroke-width="2" stroke-linejoin="round"/>
<path d="M14.3013 19L14.3013 46.3763L55.1627 19L14.3013 19Z" stroke="black" stroke-width="2"/>
<path d="M22.9519 41.25L22.9519 19.25" stroke="black" stroke-width="2" stroke-linejoin="round"/>
<path d="M31.9519 34.25L31.9519 19.25" stroke="black" stroke-width="2" stroke-linejoin="round"/>
<path d="M40.9519 28.25L40.9519 19.25" stroke="black" stroke-width="2" stroke-linejoin="round"/>
<path d="M852.452 19L852.452 46.3763L893.313 19L852.452 19Z" stroke="black" stroke-width="2"/>
<path d="M861.103 41.25L861.103 19.25" stroke="black" stroke-width="2" stroke-linejoin="round"/>
<path d="M870.103 34.25L870.103 19.25" stroke="black" stroke-width="2" stroke-linejoin="round"/>
<path d="M879.103 28.25L879.103 19.25" stroke="black" stroke-width="2" stroke-linejoin="round"/>
<path d="M58.4522 19L58.4521 46.3763L99.3136 19L58.4522 19Z" stroke="black" stroke-width="2"/>
<path d="M67.1028 41.25L67.1028 19.25" stroke="black" stroke-width="2" stroke-linejoin="round"/>
<path d="M76.1028 34.25L76.1028 19.25" stroke="black" stroke-width="2" stroke-linejoin="round"/>
<path d="M85.1028 28.25L85.1028 19.25" stroke="black" stroke-width="2" stroke-linejoin="round"/>
<path d="M896.603 19L896.603 46.3763L937.464 19L896.603 19Z" stroke="black" stroke-width="2"/>
<path d="M905.253 41.25L905.253 19.25" stroke="black" stroke-width="2" stroke-linejoin="round"/>
<path d="M914.253 34.25L914.253 19.25" stroke="black" stroke-width="2" stroke-linejoin="round"/>
<path d="M923.253 28.25L923.253 19.25" stroke="black" stroke-width="2" stroke-linejoin="round"/>
<path d="M102.603 19L102.603 46.3763L143.464 19L102.603 19Z" stroke="black" stroke-width="2"/>
<path d="M111.253 41.25L111.253 19.25" stroke="black" stroke-width="2" stroke-linejoin="round"/>
<path d="M120.253 34.25L120.253 19.25" stroke="black" stroke-width="2" stroke-linejoin="round"/>
<path d="M129.253 28.25L129.253 19.25" stroke="black" stroke-width="2" stroke-linejoin="round"/>
<path d="M940.753 19L940.753 46.3763L981.615 19L940.753 19Z" stroke="black" stroke-width="2"/>
<path d="M949.404 41.25L949.404 19.25" stroke="black" stroke-width="2" stroke-linejoin="round"/>
<path d="M958.404 34.25L958.404 19.25" stroke="black" stroke-width="2" stroke-linejoin="round"/>
<path d="M967.404 28.25L967.404 19.25" stroke="black" stroke-width="2" stroke-linejoin="round"/>
<path d="M146.753 19L146.753 46.3763L187.614 19L146.753 19Z" stroke="black" stroke-width="2"/>
<path d="M155.404 41.25L155.404 19.25" stroke="black" stroke-width="2" stroke-linejoin="round"/>
<path d="M164.404 34.25L164.404 19.25" stroke="black" stroke-width="2" stroke-linejoin="round"/>
<path d="M173.404 28.25L173.404 19.25" stroke="black" stroke-width="2" stroke-linejoin="round"/>
<path d="M984.904 19.0001L984.904 46.3765L1025.77 19.0001L984.904 19.0001Z" stroke="black" stroke-width="2"/>
<path d="M993.554 41.2501L993.554 19.2501" stroke="black" stroke-width="2" stroke-linejoin="round"/>
<path d="M1002.55 34.2501L1002.55 19.2501" stroke="black" stroke-width="2" stroke-linejoin="round"/>
<path d="M1011.55 28.2501L1011.55 19.2501" stroke="black" stroke-width="2" stroke-linejoin="round"/>
<path d="M190.904 19L190.904 46.3763L231.765 19L190.904 19Z" stroke="black" stroke-width="2"/>
<path d="M199.554 41.25L199.554 19.25" stroke="black" stroke-width="2" stroke-linejoin="round"/>
<path d="M208.554 34.25L208.554 19.25" stroke="black" stroke-width="2" stroke-linejoin="round"/>
<path d="M217.554 28.25L217.554 19.25" stroke="black" stroke-width="2" stroke-linejoin="round"/>
<path d="M1029.05 19.0001L1029.05 46.3765L1069.92 19.0001L1029.05 19.0001Z" stroke="black" stroke-width="2"/>
<path d="M1037.71 41.2501L1037.71 19.2501" stroke="black" stroke-width="2" stroke-linejoin="round"/>
<path d="M1046.71 34.2501L1046.71 19.2501" stroke="black" stroke-width="2" stroke-linejoin="round"/>
<path d="M1055.71 28.2501L1055.71 19.2501" stroke="black" stroke-width="2" stroke-linejoin="round"/>
<path d="M235.055 19L235.055 46.3763L275.916 19L235.055 19Z" stroke="black" stroke-width="2"/>
<path d="M243.705 41.25L243.705 19.25" stroke="black" stroke-width="2" stroke-linejoin="round"/>
<path d="M252.705 34.25L252.705 19.25" stroke="black" stroke-width="2" stroke-linejoin="round"/>
<path d="M261.705 28.25L261.705 19.25" stroke="black" stroke-width="2" stroke-linejoin="round"/>
<path d="M1073.21 19.0001L1073.21 46.3765L1114.07 19.0001L1073.21 19.0001Z" stroke="black" stroke-width="2"/>
<path d="M1081.86 41.2501L1081.86 19.2501" stroke="black" stroke-width="2" stroke-linejoin="round"/>
<path d="M1090.86 34.2501L1090.86 19.2501" stroke="black" stroke-width="2" stroke-linejoin="round"/>
<path d="M1099.86 28.2501L1099.86 19.2501" stroke="black" stroke-width="2" stroke-linejoin="round"/>
<path d="M279.205 19L279.205 46.3763L320.067 19L279.205 19Z" stroke="black" stroke-width="2"/>
<path d="M287.856 41.25L287.856 19.25" stroke="black" stroke-width="2" stroke-linejoin="round"/>
<path d="M296.856 34.25L296.856 19.25" stroke="black" stroke-width="2" stroke-linejoin="round"/>
<path d="M305.856 28.25L305.856 19.25" stroke="black" stroke-width="2" stroke-linejoin="round"/>
<path d="M1117.36 19.0001L1117.36 46.3765L1158.22 19.0001L1117.36 19.0001Z" stroke="black" stroke-width="2"/>
<path d="M1126.01 41.2501L1126.01 19.2501" stroke="black" stroke-width="2" stroke-linejoin="round"/>
<path d="M1135.01 34.2501L1135.01 19.2501" stroke="black" stroke-width="2" stroke-linejoin="round"/>
<path d="M1144.01 28.2501L1144.01 19.2501" stroke="black" stroke-width="2" stroke-linejoin="round"/>
<path d="M323.355 19L323.355 46.3763L364.217 19L323.355 19Z" stroke="black" stroke-width="2"/>
<path d="M332.006 41.25L332.006 19.25" stroke="black" stroke-width="2" stroke-linejoin="round"/>
<path d="M341.006 34.25L341.006 19.25" stroke="black" stroke-width="2" stroke-linejoin="round"/>
<path d="M350.006 28.25L350.006 19.25" stroke="black" stroke-width="2" stroke-linejoin="round"/>
<path d="M1161.51 19.0001L1161.51 46.3765L1202.37 19.0001L1161.51 19.0001Z" stroke="black" stroke-width="2"/>
<path d="M1170.16 41.2501L1170.16 19.2501" stroke="black" stroke-width="2" stroke-linejoin="round"/>
<path d="M1179.16 34.2501L1179.16 19.2501" stroke="black" stroke-width="2" stroke-linejoin="round"/>
<path d="M1188.16 28.2501L1188.16 19.2501" stroke="black" stroke-width="2" stroke-linejoin="round"/>
<path d="M367.506 19L367.506 46.3763L408.368 19L367.506 19Z" stroke="black" stroke-width="2"/>
<path d="M376.157 41.25L376.157 19.25" stroke="black" stroke-width="2" stroke-linejoin="round"/>
<path d="M385.157 34.25L385.157 19.25" stroke="black" stroke-width="2" stroke-linejoin="round"/>
<path d="M394.157 28.25L394.157 19.25" stroke="black" stroke-width="2" stroke-linejoin="round"/>
<path d="M1205.66 19.0001L1205.66 46.3765L1246.52 19.0001L1205.66 19.0001Z" stroke="black" stroke-width="2"/>
<path d="M1214.31 41.2501L1214.31 19.2501" stroke="black" stroke-width="2" stroke-linejoin="round"/>
<path d="M1223.31 34.2501L1223.31 19.2501" stroke="black" stroke-width="2" stroke-linejoin="round"/>
<path d="M1232.31 28.2501L1232.31 19.2501" stroke="black" stroke-width="2" stroke-linejoin="round"/>
<path d="M411.657 19L411.657 46.3763L452.519 19L411.657 19Z" stroke="black" stroke-width="2"/>
<path d="M420.308 41.25L420.308 19.25" stroke="black" stroke-width="2" stroke-linejoin="round"/>
<path d="M429.308 34.25L429.308 19.25" stroke="black" stroke-width="2" stroke-linejoin="round"/>
<path d="M438.308 28.25L438.308 19.25" stroke="black" stroke-width="2" stroke-linejoin="round"/>
<path d="M1249.81 19.0001L1249.81 46.3765L1290.67 19.0001L1249.81 19.0001Z" stroke="black" stroke-width="2"/>
<path d="M1258.46 41.2501L1258.46 19.2501" stroke="black" stroke-width="2" stroke-linejoin="round"/>
<path d="M1267.46 34.2501L1267.46 19.2501" stroke="black" stroke-width="2" stroke-linejoin="round"/>
<path d="M1276.46 28.2501L1276.46 19.2501" stroke="black" stroke-width="2" stroke-linejoin="round"/>
<path d="M455.808 19L455.808 46.3763L496.669 19L455.808 19Z" stroke="black" stroke-width="2"/>
<path d="M464.458 41.25L464.458 19.25" stroke="black" stroke-width="2" stroke-linejoin="round"/>
<path d="M473.458 34.25L473.458 19.25" stroke="black" stroke-width="2" stroke-linejoin="round"/>
<path d="M482.458 28.25L482.458 19.25" stroke="black" stroke-width="2" stroke-linejoin="round"/>
<path d="M1293.96 19.0001L1293.96 46.3765L1334.82 19.0001L1293.96 19.0001Z" stroke="black" stroke-width="2"/>
<path d="M1302.61 41.2501L1302.61 19.2501" stroke="black" stroke-width="2" stroke-linejoin="round"/>
<path d="M1311.61 34.2501L1311.61 19.2501" stroke="black" stroke-width="2" stroke-linejoin="round"/>
<path d="M1320.61 28.2501L1320.61 19.2501" stroke="black" stroke-width="2" stroke-linejoin="round"/>
<path d="M499.958 19L499.958 46.3763L540.82 19L499.958 19Z" stroke="black" stroke-width="2"/>
<path d="M508.609 41.25L508.609 19.25" stroke="black" stroke-width="2" stroke-linejoin="round"/>
<path d="M517.609 34.25L517.609 19.25" stroke="black" stroke-width="2" stroke-linejoin="round"/>
<path d="M526.609 28.25L526.609 19.25" stroke="black" stroke-width="2" stroke-linejoin="round"/>
<path d="M1338.11 19.0001L1338.11 46.3765L1378.97 19.0001L1338.11 19.0001Z" stroke="black" stroke-width="2"/>
<path d="M1346.76 41.2501L1346.76 19.2501" stroke="black" stroke-width="2" stroke-linejoin="round"/>
<path d="M1355.76 34.2501L1355.76 19.2501" stroke="black" stroke-width="2" stroke-linejoin="round"/>
<path d="M1364.76 28.2501L1364.76 19.2501" stroke="black" stroke-width="2" stroke-linejoin="round"/>
<path d="M544.109 19L544.109 46.3763L584.97 19L544.109 19Z" stroke="black" stroke-width="2"/>
<path d="M552.76 41.25L552.76 19.25" stroke="black" stroke-width="2" stroke-linejoin="round"/>
<path d="M561.76 34.25L561.76 19.25" stroke="black" stroke-width="2" stroke-linejoin="round"/>
<path d="M570.76 28.25L570.76 19.25" stroke="black" stroke-width="2" stroke-linejoin="round"/>
<path d="M1382.26 19.0001L1382.26 46.3765L1423.12 19.0001L1382.26 19.0001Z" stroke="black" stroke-width="2"/>
<path d="M1390.91 41.2501L1390.91 19.2501" stroke="black" stroke-width="2" stroke-linejoin="round"/>
<path d="M1399.91 34.2501L1399.91 19.2501" stroke="black" stroke-width="2" stroke-linejoin="round"/>
<path d="M1408.91 28.2501L1408.91 19.2501" stroke="black" stroke-width="2" stroke-linejoin="round"/>
<path d="M588.26 19L588.26 46.3763L629.121 19L588.26 19Z" stroke="black" stroke-width="2"/>
<path d="M596.91 41.25L596.91 19.25" stroke="black" stroke-width="2" stroke-linejoin="round"/>
<path d="M605.91 34.25L605.91 19.25" stroke="black" stroke-width="2" stroke-linejoin="round"/>
<path d="M614.91 28.25L614.91 19.25" stroke="black" stroke-width="2" stroke-linejoin="round"/>
<path d="M1426.41 19.0001L1426.41 46.3765L1467.27 19.0001L1426.41 19.0001Z" stroke="black" stroke-width="2"/>
<path d="M1435.06 41.2501L1435.06 19.2501" stroke="black" stroke-width="2" stroke-linejoin="round"/>
<path d="M632.41 19L632.41 46.3763L673.272 19L632.41 19Z" stroke="black" stroke-width="2"/>
<path d="M641.061 41.25L641.061 19.25" stroke="black" stroke-width="2" stroke-linejoin="round"/>
<path d="M650.061 34.25L650.061 19.25" stroke="black" stroke-width="2" stroke-linejoin="round"/>
<path d="M659.061 28.25L659.061 19.25" stroke="black" stroke-width="2" stroke-linejoin="round"/>
<path d="M676.561 19L676.561 46.3763L717.422 19L676.561 19Z" stroke="black" stroke-width="2"/>
<path d="M685.211 41.25L685.211 19.25" stroke="black" stroke-width="2" stroke-linejoin="round"/>
<path d="M694.211 34.25L694.211 19.25" stroke="black" stroke-width="2" stroke-linejoin="round"/>
<path d="M703.211 28.25L703.211 19.25" stroke="black" stroke-width="2" stroke-linejoin="round"/>
</svg>
