<svg width="12" height="10" viewBox="0 0 7 10" fill="none" xmlns="http://www.w3.org/2000/svg">
<path fill-rule="evenodd" clip-rule="evenodd" d="M0.98972 8.51034C1.62242 9.14304 2.48023 9.49897 3.375 9.50006C4.26977 9.49897 5.12758 9.14304 5.76028 8.51034C6.39298 7.87764 6.74891 7.01983 6.75 6.12506C6.72856 5.45977 6.53152 4.81199 6.17887 4.24744L3.69263 0.288938C3.65656 0.238317 3.60891 0.197049 3.55366 0.168575C3.49841 0.1401 3.43716 0.125244 3.375 0.125244C3.31284 0.125244 3.25159 0.1401 3.19634 0.168575C3.14109 0.197049 3.09344 0.238317 3.05737 0.288938L0.56025 4.26694C0.213426 4.8263 0.0201829 5.46721 0 6.12506C0.00109161 7.01983 0.357021 7.87764 0.98972 8.51034ZM3.375 7.25006V8.00006C3.86445 7.97582 4.3274 7.77049 4.67392 7.42398C5.02043 7.07746 5.22576 6.61451 5.25 6.12506H4.5C4.47494 6.41502 4.34837 6.68684 4.14257 6.89263C3.93678 7.09843 3.66496 7.225 3.375 7.25006Z" fill="white"/>
</svg>
