<svg width="12" height="12" viewBox="0 0 12 12" fill="none" xmlns="http://www.w3.org/2000/svg">
<path d="M6 9V8.25C6.28996 8.22494 6.56178 8.09837 6.76757 7.89257C6.97337 7.68678 7.09994 7.41496 7.125 7.125H7.875C7.85076 7.61445 7.64543 8.0774 7.29892 8.42392C6.9524 8.77043 6.48945 8.97576 6 9Z" fill="white"/>
<path d="M6 10.5001C5.10523 10.499 4.24742 10.143 3.61472 9.51034C2.98202 8.87765 2.62609 8.01983 2.625 7.12506C2.64518 6.46721 2.83843 5.8263 3.18525 5.26694L5.68237 1.28894C5.71844 1.23832 5.76609 1.19705 5.82134 1.16857C5.87659 1.1401 5.93784 1.12524 6 1.12524C6.06216 1.12524 6.12341 1.1401 6.17866 1.16857C6.23391 1.19705 6.28156 1.23832 6.31763 1.28894L8.80387 5.24744C9.15652 5.81199 9.35356 6.45977 9.375 7.12506C9.37391 8.01983 9.01798 8.87765 8.38528 9.51034C7.75258 10.143 6.89477 10.499 6 10.5001ZM6 2.19306L3.83175 5.64606C3.55237 6.09045 3.39485 6.60053 3.375 7.12506C3.375 7.82126 3.65156 8.48894 4.14384 8.98122C4.63613 9.4735 5.30381 9.75006 6 9.75006C6.69619 9.75006 7.36387 9.4735 7.85616 8.98122C8.34844 8.48894 8.625 7.82126 8.625 7.12506C8.60361 6.5932 8.44217 6.07641 8.157 5.62694L6 2.19306Z" fill="white"/>
</svg>
