<svg width="167" height="330" viewBox="0 0 167 330" fill="none" xmlns="http://www.w3.org/2000/svg">
<path d="M167.499 146.98C158.941 146.98 151.98 153.943 151.98 162.5C151.98 171.057 158.943 178.019 167.499 178.019C176.057 178.019 183.019 171.057 183.019 162.5C183.02 153.943 176.057 146.98 167.499 146.98ZM167.499 176.218C159.936 176.218 153.783 170.065 153.783 162.501C153.783 154.938 159.936 148.785 167.499 148.785C175.063 148.785 181.217 154.938 181.217 162.501C181.217 170.065 175.064 176.218 167.499 176.218Z" fill="black" fill-opacity="0.2"/>
<path d="M157.87 179.191C158.257 181.876 159.243 184.65 160.857 187.287C162.468 189.923 164.711 192.415 167.498 194.543C170.285 192.415 172.53 189.922 174.14 187.287C175.756 184.652 176.741 181.877 177.129 179.193C174.217 180.881 170.884 181.771 167.499 181.767C164.115 181.771 160.782 180.88 157.87 179.191Z" fill="black" fill-opacity="0.2"/>
<path d="M150.808 172.129C149.12 169.217 148.23 165.884 148.234 162.5C146.104 164.191 144.193 166.426 142.713 169.142C141.232 171.854 140.19 175.04 139.748 178.528C142.993 179.885 146.271 180.564 149.359 180.641C152.449 180.719 155.348 180.194 157.87 179.191C154.957 177.511 152.489 175.042 150.808 172.129Z" fill="black" fill-opacity="0.2"/>
<path d="M157.87 145.81C155.351 144.807 152.45 144.283 149.36 144.361C146.272 144.437 142.995 145.116 139.75 146.473C140.191 149.962 141.233 153.147 142.714 155.861C144.194 158.576 146.105 160.812 148.235 162.503C148.23 159.118 149.12 155.785 150.81 152.873C152.489 149.959 154.958 147.49 157.87 145.81Z" fill="black" fill-opacity="0.2"/>
<path d="M177.13 145.81C176.743 143.126 175.757 140.351 174.143 137.715C172.532 135.078 170.289 132.587 167.502 130.458C164.715 132.587 162.47 135.078 160.86 137.715C159.244 140.35 158.259 143.126 157.871 145.81C160.783 144.122 164.116 143.232 167.501 143.235C170.885 143.232 174.218 144.122 177.13 145.81Z" fill="black" fill-opacity="0.2"/>
<path d="M137.806 159.191L134.489 162.508L137.806 165.825L141.123 162.508L137.806 159.191Z" fill="black" fill-opacity="0.2"/>
<path d="M153.987 184.798L149.457 186.012L150.671 190.543L155.201 189.329L153.987 184.798Z" fill="black" fill-opacity="0.2"/>
<path d="M150.677 134.465L149.463 138.996L153.994 140.21L155.208 135.679L150.677 134.465Z" fill="black" fill-opacity="0.2"/>
<path d="M167.499 124.746C146.682 124.746 129.744 141.682 129.744 162.501C129.744 183.318 146.681 200.254 167.499 200.254C188.318 200.254 205.254 183.318 205.254 162.501C205.254 141.682 188.318 124.746 167.499 124.746ZM167.499 198.451C147.675 198.451 131.547 182.323 131.547 162.501C131.547 142.676 147.675 126.548 167.499 126.548C187.323 126.548 203.451 142.676 203.451 162.501C203.452 182.323 187.323 198.451 167.499 198.451Z" fill="black" fill-opacity="0.2"/>
<path d="M229.855 162.011H229.851C229.821 158.106 229.431 154.19 228.669 150.341C227.908 146.494 226.777 142.717 225.302 139.083L225.306 139.081L225.158 138.724C225.145 138.693 225.132 138.66 225.119 138.627V138.629L225.117 138.626C225.117 138.626 225.119 138.626 225.119 138.627C225.106 138.597 225.092 138.567 225.08 138.536L224.93 138.175L224.925 138.177C223.394 134.565 221.524 131.1 219.344 127.845C217.165 124.59 214.677 121.545 211.931 118.756L211.934 118.753L211.591 118.405L211.242 118.06L211.24 118.063C208.45 115.317 205.405 112.829 202.15 110.65C198.895 108.471 195.43 106.601 191.819 105.071L191.822 105.066L191.461 104.916C191.43 104.903 191.399 104.889 191.369 104.877C191.369 104.877 191.369 104.878 191.37 104.878L191.368 104.877C191.369 104.877 191.369 104.877 191.369 104.877C191.338 104.863 191.305 104.852 191.274 104.838L190.917 104.69L190.915 104.695C187.279 103.221 183.503 102.088 179.656 101.328C175.808 100.566 171.892 100.177 167.987 100.146V100.142L167.499 100.14L167.011 100.142V100.146C163.106 100.176 159.19 100.566 155.343 101.328C151.496 102.088 147.719 103.22 144.084 104.695L144.083 104.691L143.722 104.84C143.691 104.853 143.661 104.864 143.629 104.878H143.631L143.628 104.879C143.628 104.879 143.628 104.878 143.629 104.878C143.602 104.889 143.574 104.902 143.546 104.915L143.177 105.068L143.179 105.073C139.567 106.604 136.102 108.474 132.847 110.654C129.591 112.833 126.547 115.32 123.757 118.067L123.755 118.064L123.408 118.407L123.063 118.756L123.066 118.758C120.32 121.548 117.832 124.593 115.653 127.848C113.474 131.103 111.605 134.568 110.074 138.179L110.069 138.176L109.919 138.538C109.906 138.568 109.893 138.599 109.88 138.63C109.88 138.63 109.881 138.63 109.881 138.629L109.88 138.631V138.63C109.866 138.661 109.855 138.694 109.841 138.727L109.693 139.084L109.696 139.085C108.222 142.721 107.09 146.497 106.33 150.345C105.568 154.192 105.179 158.108 105.148 162.013H105.144L105.141 162.501L105.144 162.989H105.148C105.178 166.894 105.568 170.81 106.328 174.659C107.089 178.506 108.222 182.283 109.695 185.917L109.691 185.919L109.842 186.284C109.855 186.313 109.865 186.343 109.878 186.372V186.371L109.879 186.374H109.878C109.889 186.4 109.9 186.426 109.911 186.454L110.066 186.826L110.071 186.824C111.602 190.436 113.472 193.901 115.651 197.156C117.83 200.411 120.318 203.456 123.063 206.246L123.061 206.248L123.405 206.595L123.754 206.94L123.756 206.937C126.546 209.683 129.591 212.17 132.846 214.35C136.101 216.528 139.566 218.399 143.177 219.929L143.174 219.934L143.54 220.086C143.569 220.099 143.598 220.112 143.627 220.124C143.627 220.123 143.627 220.123 143.626 220.123L143.628 220.124C143.628 220.124 143.627 220.124 143.627 220.125C143.658 220.138 143.69 220.151 143.72 220.163L144.081 220.313L144.082 220.309C147.717 221.784 151.493 222.915 155.342 223.676C159.189 224.438 163.105 224.826 167.01 224.858V224.861L167.498 224.864L167.987 224.861V224.858C171.892 224.828 175.808 224.438 179.656 223.676C183.503 222.915 187.279 221.784 190.914 220.309L190.915 220.313L191.272 220.164C191.304 220.151 191.337 220.139 191.369 220.125H191.368L191.37 220.124V220.125C191.401 220.113 191.431 220.099 191.462 220.086L191.823 219.937L191.821 219.932C195.433 218.401 198.898 216.531 202.153 214.352C205.408 212.173 208.453 209.685 211.242 206.94L211.245 206.942L211.592 206.599L211.936 206.251L211.934 206.248C214.68 203.458 217.168 200.413 219.347 197.158C221.525 193.903 223.395 190.438 224.926 186.827L224.931 186.829L225.081 186.467C225.093 186.436 225.107 186.406 225.12 186.376C225.119 186.376 225.119 186.376 225.119 186.377L225.12 186.375C225.12 186.376 225.12 186.376 225.121 186.377C225.134 186.346 225.146 186.313 225.16 186.281L225.308 185.924L225.305 185.922C226.778 182.286 227.911 178.51 228.671 174.662C229.433 170.815 229.822 166.899 229.853 162.994H229.857L229.86 162.506L229.855 162.011ZM229.42 162.015L219.632 162.09C219.609 158.951 219.303 155.813 218.717 152.727C220.615 153.966 222.471 155.363 224.262 156.914C226.053 158.463 227.774 160.172 229.42 162.015ZM208.421 184.366C207.64 182.361 206.728 180.462 205.708 178.673L214.734 182.5C213.528 185.346 212.062 188.08 210.362 190.661C209.848 188.473 209.202 186.367 208.421 184.366ZM209.919 191.325C208.18 193.878 206.213 196.274 204.046 198.475L197.059 191.597C199.104 191.853 201.208 191.968 203.361 191.926C205.508 191.882 207.701 191.683 209.919 191.325ZM205.967 178.075C207.95 177.531 209.935 176.832 211.902 175.97C213.867 175.108 215.815 174.083 217.725 172.901C217.102 175.926 216.206 178.893 215.043 181.755L205.967 178.075ZM213.666 167.052C212.174 165.501 210.602 164.095 208.977 162.826L218.781 162.901C218.758 165.993 218.456 169.08 217.881 172.117C216.564 170.296 215.156 168.601 213.666 167.052ZM208.421 140.633C209.201 138.631 209.848 136.525 210.362 134.338C212.062 136.919 213.528 139.652 214.734 142.499L205.708 146.326C206.726 144.537 207.64 142.638 208.421 140.633ZM203.361 133.073C201.208 133.029 199.104 133.147 197.058 133.401L204.045 126.523C206.212 128.723 208.178 131.119 209.917 133.671C207.701 133.316 205.508 133.117 203.361 133.073ZM215.043 143.243C216.206 146.104 217.101 149.071 217.723 152.095C215.814 150.913 213.867 149.889 211.901 149.027C209.934 148.165 207.948 147.466 205.966 146.923L215.043 143.243ZM208.978 162.172C210.604 160.902 212.175 159.498 213.666 157.945C215.155 156.396 216.563 154.701 217.879 152.881C218.455 155.917 218.758 159.005 218.781 162.096L208.978 162.172ZM222.091 145.941C221.027 148.059 219.839 150.052 218.557 151.919C217.923 148.846 217.013 145.83 215.833 142.923L224.902 139.246C224.093 141.586 223.153 143.825 222.091 145.941ZM217.806 135.606C220.056 136.349 222.306 137.262 224.536 138.343L215.518 142.167C214.294 139.275 212.804 136.498 211.076 133.874C213.306 134.287 215.555 134.862 217.806 135.606ZM211.632 119.054C211.775 121.525 211.759 123.952 211.587 126.314C211.415 128.678 211.084 130.972 210.618 133.189C208.851 130.595 206.853 128.161 204.652 125.926L211.632 119.054ZM203.685 118.412C206.047 118.24 208.474 118.224 210.946 118.367L204.074 125.347C201.838 123.146 199.404 121.147 196.811 119.382C199.027 118.915 201.322 118.583 203.685 118.412ZM203.475 125.955L196.598 132.94C196.852 130.895 196.97 128.791 196.926 126.638C196.882 124.491 196.684 122.298 196.326 120.082C198.879 121.819 201.275 123.787 203.475 125.955ZM191.656 105.463C192.737 107.693 193.65 109.944 194.393 112.193C195.137 114.445 195.71 116.694 196.125 118.922C193.503 117.195 190.726 115.706 187.834 114.481L191.656 105.463ZM195.661 119.637C193.474 120.151 191.368 120.799 189.366 121.578C187.361 122.36 185.463 123.273 183.675 124.291L187.502 115.265C190.346 116.47 193.08 117.937 195.661 119.637ZM184.057 107.908C186.173 106.846 188.412 105.908 190.753 105.097L187.076 114.167C184.168 112.985 181.153 112.075 178.08 111.442C179.947 110.16 181.94 108.972 184.057 107.908ZM186.756 114.956L183.076 124.033C182.533 122.051 181.834 120.066 180.972 118.097C180.109 116.132 179.085 114.184 177.904 112.275C180.928 112.898 183.895 113.795 186.756 114.956ZM167.985 100.58C169.828 102.225 171.536 103.947 173.085 105.736C174.637 107.528 176.033 109.384 177.272 111.281C174.187 110.697 171.048 110.389 167.909 110.366L167.985 100.58ZM167.903 111.22C170.994 111.242 174.082 111.544 177.118 112.12C175.298 113.436 173.603 114.844 172.054 116.333C170.503 117.825 169.097 119.397 167.829 121.022L167.903 111.22ZM167.172 121.022C165.903 119.397 164.498 117.825 162.946 116.333C161.397 114.844 159.702 113.436 157.881 112.12C160.918 111.544 164.005 111.241 167.097 111.22L167.172 121.022ZM161.915 105.737C163.464 103.948 165.171 102.225 167.015 100.581L167.091 110.367C163.951 110.39 160.813 110.697 157.728 111.283C158.966 109.384 160.363 107.528 161.915 105.737ZM148.243 114.956C151.105 113.793 154.072 112.898 157.096 112.275C155.914 114.184 154.889 116.132 154.028 118.097C153.165 120.064 152.466 122.05 151.923 124.032L148.243 114.956ZM151.326 124.291C149.537 123.273 147.639 122.36 145.633 121.579C143.632 120.8 141.526 120.152 139.338 119.638C141.919 117.938 144.654 116.471 147.5 115.267L151.326 124.291ZM150.941 107.908C153.06 108.973 155.053 110.16 156.92 111.442C153.847 112.076 150.832 112.986 147.924 114.167L144.247 105.097C146.586 105.908 148.825 106.846 150.941 107.908ZM140.607 112.193C141.35 109.944 142.263 107.693 143.344 105.463L147.167 114.481C144.276 115.706 141.498 117.195 138.874 118.923C139.288 116.695 139.863 114.445 140.607 112.193ZM138.402 132.941L131.523 125.955C133.724 123.787 136.12 121.821 138.673 120.082C138.316 122.298 138.118 124.491 138.074 126.638C138.031 128.791 138.148 130.895 138.402 132.941ZM126.579 184.366C125.799 186.367 125.152 188.473 124.637 190.661C122.938 188.08 121.471 185.345 120.266 182.499L129.292 178.673C128.273 180.462 127.361 182.361 126.579 184.366ZM131.639 191.926C133.791 191.97 135.897 191.851 137.942 191.597L130.955 198.476C128.788 196.276 126.821 193.879 125.083 191.326C127.3 191.683 129.492 191.882 131.639 191.926ZM119.957 181.756C118.794 178.894 117.899 175.927 117.276 172.904C119.186 174.085 121.134 175.11 123.099 175.971C125.066 176.834 127.051 177.533 129.034 178.075L119.957 181.756ZM117.12 172.118C116.545 169.082 116.242 165.994 116.22 162.902L126.023 162.827C124.397 164.097 122.826 165.501 121.335 167.054C119.845 168.603 118.437 170.297 117.12 172.118ZM116.22 162.098C116.243 159.006 116.545 155.918 117.12 152.882C118.437 154.703 119.845 156.397 121.333 157.946C122.826 159.498 124.397 160.903 126.023 162.173L116.22 162.098ZM123.099 149.029C121.132 149.89 119.186 150.914 117.276 152.098C117.9 149.074 118.795 146.106 119.957 143.245L129.034 146.925C127.051 147.466 125.066 148.166 123.099 149.029ZM120.266 142.499C121.472 139.652 122.938 136.919 124.637 134.338C125.152 136.525 125.799 138.631 126.579 140.633C127.359 142.638 128.273 144.537 129.292 146.324L120.266 142.499ZM125.083 133.674C126.82 131.121 128.788 128.724 130.955 126.524L137.942 133.401C135.897 133.147 133.793 133.03 131.64 133.073C129.492 133.117 127.299 133.316 125.083 133.674ZM131.315 118.412C133.678 118.583 135.971 118.915 138.189 119.382C135.596 121.148 133.162 123.146 130.926 125.347L124.054 118.367C126.526 118.224 128.954 118.24 131.315 118.412ZM123.368 119.055L130.348 125.927C128.146 128.162 126.147 130.596 124.382 133.19C123.916 130.973 123.585 128.678 123.413 126.315C123.241 123.953 123.224 121.527 123.368 119.055ZM117.193 135.606C119.445 134.862 121.694 134.289 123.922 133.875C122.196 136.498 120.706 139.275 119.482 142.167L110.463 138.343C112.694 137.262 114.944 136.349 117.193 135.606ZM119.167 142.923C117.985 145.83 117.075 148.846 116.443 151.919C115.16 150.052 113.974 148.059 112.909 145.941C111.846 143.825 110.908 141.586 110.098 139.246L119.167 142.923ZM110.736 156.915C112.529 155.364 114.385 153.967 116.282 152.729C115.696 155.814 115.389 158.951 115.367 162.091L105.579 162.016C107.226 160.172 108.947 158.463 110.736 156.915ZM105.582 162.984L115.369 162.909C115.392 166.048 115.699 169.186 116.284 172.271C114.387 171.033 112.53 169.636 110.739 168.085C108.948 166.536 107.226 164.828 105.582 162.984ZM112.909 179.058C113.972 176.939 115.16 174.947 116.443 173.08C117.076 176.152 117.987 179.167 119.167 182.075L110.098 185.753C110.908 183.413 111.846 181.174 112.909 179.058ZM117.193 189.394C114.944 188.65 112.694 187.738 110.463 186.657L119.482 182.833C120.706 185.725 122.197 188.502 123.923 191.126C121.696 190.711 119.445 190.137 117.193 189.394ZM123.368 205.945C123.224 203.473 123.241 201.046 123.413 198.685C123.585 196.321 123.916 194.026 124.382 191.81C126.149 194.404 128.146 196.838 130.348 199.073L123.368 205.945ZM131.315 206.588C128.954 206.758 126.527 206.776 124.054 206.633L130.926 199.653C133.162 201.854 135.596 203.853 138.189 205.619C135.973 206.085 133.678 206.415 131.315 206.588ZM131.525 199.045L138.402 192.059C138.148 194.103 138.031 196.208 138.074 198.36C138.118 200.507 138.316 202.699 138.673 204.917C136.121 203.179 133.725 201.213 131.525 199.045ZM143.344 219.536C142.263 217.305 141.35 215.055 140.607 212.806C139.863 210.554 139.289 208.305 138.874 206.077C141.497 207.803 144.274 209.293 147.166 210.518L143.344 219.536ZM139.338 205.362C141.526 204.847 143.632 204.2 145.633 203.421C147.639 202.64 149.537 201.726 151.326 200.707L147.499 209.733C144.654 208.529 141.921 207.061 139.338 205.362ZM150.943 217.09C148.827 218.153 146.588 219.091 144.248 219.902L147.925 210.832C150.832 212.014 153.848 212.924 156.921 213.556C155.053 214.839 153.061 216.027 150.943 217.09ZM148.245 210.042L151.925 200.965C152.468 202.948 153.167 204.933 154.029 206.901C154.89 208.867 155.915 210.813 157.097 212.723C154.073 212.1 151.106 211.205 148.245 210.042ZM167.016 224.419C165.173 222.774 163.465 221.051 161.916 219.262C160.364 217.47 158.968 215.614 157.729 213.716C160.815 214.302 163.951 214.609 167.092 214.631L167.016 224.419ZM167.098 213.779C164.007 213.756 160.919 213.455 157.883 212.879C159.703 211.562 161.398 210.156 162.947 208.666C164.498 207.173 165.904 205.602 167.174 203.976L167.098 213.779ZM159.476 202.781C156.867 202.265 154.312 201.492 151.854 200.479L151.726 200.426C149.268 199.402 146.909 198.136 144.692 196.653C142.456 195.157 140.367 193.439 138.462 191.536C136.559 189.632 134.841 187.542 133.346 185.307C131.863 183.091 130.598 180.732 129.575 178.276L129.521 178.146C128.507 175.688 127.734 173.134 127.219 170.525C126.698 167.891 126.437 165.203 126.437 162.5C126.437 159.797 126.698 157.109 127.219 154.475C127.735 151.86 128.51 149.3 129.527 146.837L129.567 146.739C130.592 144.278 131.859 141.914 133.345 139.692C134.841 137.458 136.559 135.367 138.462 133.463C140.366 131.559 142.456 129.842 144.69 128.347C146.906 126.865 149.262 125.6 151.717 124.577L151.855 124.519C154.312 123.505 156.866 122.733 159.473 122.218C162.107 121.698 164.795 121.436 167.498 121.436C170.201 121.437 172.889 121.698 175.523 122.218C178.136 122.735 180.693 123.508 183.153 124.524L183.264 124.569C185.724 125.594 188.087 126.86 190.306 128.346C192.541 129.842 194.63 131.559 196.535 133.463C198.439 135.367 200.156 137.457 201.651 139.691C203.138 141.913 204.407 144.278 205.431 146.742L205.469 146.832C206.488 149.296 207.263 151.859 207.78 154.475C208.302 157.109 208.562 159.797 208.563 162.5C208.562 165.203 208.302 167.891 207.78 170.525C207.264 173.131 206.494 175.682 205.482 178.137L205.42 178.285C204.398 180.737 203.133 183.093 201.652 185.306C200.156 187.542 198.439 189.631 196.535 191.536C194.632 193.439 192.541 195.157 190.307 196.652C188.088 198.138 185.725 199.404 183.265 200.428L183.158 200.472C180.697 201.489 178.138 202.263 175.524 202.779C172.89 203.3 170.202 203.561 167.499 203.561C164.797 203.563 162.109 203.302 159.476 202.781ZM195.663 205.362C193.082 207.061 190.347 208.527 187.501 209.733L183.674 200.707C185.463 201.726 187.361 202.639 189.366 203.421C191.368 204.2 193.475 204.847 195.663 205.362ZM167.827 203.976C169.097 205.602 170.502 207.173 172.054 208.664C173.603 210.154 175.298 211.561 177.118 212.877C174.082 213.453 170.994 213.756 167.903 213.778L167.827 203.976ZM173.085 219.262C171.536 221.051 169.829 222.773 167.985 224.418L167.909 214.631C171.048 214.609 174.187 214.302 177.272 213.716C176.033 215.614 174.637 217.47 173.085 219.262ZM180.972 206.901C181.834 204.933 182.533 202.948 183.076 200.965L186.756 210.042C183.895 211.205 180.928 212.1 177.904 212.723C179.086 210.814 180.111 208.867 180.972 206.901ZM184.058 217.09C181.94 216.026 179.947 214.839 178.08 213.556C181.153 212.923 184.168 212.012 187.076 210.832L190.753 219.902C188.413 219.091 186.174 218.153 184.058 217.09ZM194.394 212.806C193.651 215.055 192.738 217.305 191.657 219.536L187.834 210.518C190.726 209.293 193.503 207.803 196.127 206.076C195.712 208.305 195.138 210.554 194.394 212.806ZM196.926 198.36C196.97 196.208 196.853 194.103 196.598 192.058L203.476 199.044C201.276 201.212 198.88 203.178 196.326 204.917C196.685 202.7 196.882 200.507 196.926 198.36ZM203.685 206.586C201.322 206.414 199.027 206.083 196.811 205.617C199.404 203.85 201.838 201.853 204.074 199.651L210.946 206.632C208.474 206.775 206.047 206.758 203.685 206.586ZM211.632 205.944L204.652 199.072C206.853 196.836 208.852 194.402 210.619 191.809C211.084 194.026 211.416 196.321 211.588 198.685C211.759 201.046 211.777 203.472 211.632 205.944ZM217.806 189.392C215.555 190.137 213.306 190.71 211.076 191.123C212.803 188.501 214.292 185.724 215.517 182.832L224.535 186.655C222.306 187.736 220.056 188.649 217.806 189.392ZM215.833 182.075C217.014 179.167 217.925 176.152 218.557 173.08C219.839 174.947 221.026 176.939 222.091 179.058C223.153 181.174 224.091 183.413 224.902 185.754L215.833 182.075ZM224.264 168.085C222.471 169.636 220.615 171.033 218.718 172.271C219.303 169.186 219.611 166.048 219.632 162.909L229.42 162.984C227.775 164.827 226.053 166.536 224.264 168.085Z" fill="black" fill-opacity="0.2"/>
<path d="M125.634 110.345C126.105 110.345 126.579 110.199 126.981 109.899C127.945 109.186 128.189 107.834 127.516 106.826C126.824 105.786 125.419 105.506 124.38 106.198C124.326 106.235 124.27 106.275 124.219 106.315C123.243 107.096 123.085 108.519 123.865 109.495C124.314 110.054 124.971 110.345 125.634 110.345Z" fill="black" fill-opacity="0.2"/>
<path d="M127.152 215.232C127.1 215.192 127.046 215.15 126.991 215.115C125.951 214.422 124.547 214.703 123.854 215.742C123.181 216.752 123.427 218.106 124.393 218.817C124.796 219.115 125.267 219.26 125.736 219.26C126.4 219.26 127.058 218.97 127.504 218.411C128.286 217.436 128.127 216.013 127.152 215.232Z" fill="black" fill-opacity="0.2"/>
<path d="M111.802 202.451C110.762 203.144 110.482 204.548 111.175 205.588C111.211 205.642 111.251 205.698 111.292 205.749C111.739 206.307 112.396 206.598 113.059 206.598C113.555 206.598 114.054 206.435 114.471 206.102C115.426 205.339 115.598 203.96 114.875 202.987C114.163 202.023 112.81 201.779 111.802 202.451Z" fill="black" fill-opacity="0.2"/>
<path d="M117.384 209.477C116.501 210.361 116.501 211.793 117.384 212.676L117.387 212.678C117.828 213.119 118.407 213.34 118.985 213.34C119.563 213.34 120.143 213.119 120.585 212.678C121.469 211.794 121.468 210.361 120.584 209.478C119.7 208.594 118.268 208.594 117.384 209.477Z" fill="black" fill-opacity="0.2"/>
<path d="M118.894 116.273C119.474 116.273 120.053 116.052 120.496 115.611C121.38 114.727 121.38 113.295 120.496 112.412C119.612 111.529 118.18 111.529 117.296 112.412L117.294 112.415C116.41 113.299 116.411 114.729 117.295 115.613C117.736 116.052 118.315 116.273 118.894 116.273Z" fill="black" fill-opacity="0.2"/>
<path d="M142.17 223.889C141.124 223.428 139.875 223.822 139.294 224.838C138.675 225.923 139.052 227.305 140.135 227.925C140.265 227.999 140.404 228.061 140.545 228.108C140.783 228.188 141.024 228.225 141.261 228.225C142.207 228.225 143.09 227.626 143.407 226.678C143.78 225.557 143.23 224.353 142.17 223.889Z" fill="black" fill-opacity="0.2"/>
<path d="M111.565 122.535C111.982 122.869 112.481 123.03 112.976 123.03C113.64 123.03 114.298 122.74 114.744 122.182C114.786 122.13 114.826 122.076 114.861 122.021C115.554 120.981 115.273 119.577 114.234 118.884C113.224 118.211 111.871 118.456 111.159 119.422C110.439 120.395 110.612 121.773 111.565 122.535Z" fill="black" fill-opacity="0.2"/>
<path d="M149.62 98.4581C149.793 98.4581 149.97 98.4379 150.144 98.3965C151.295 98.1261 152.053 97.0047 151.855 95.8229C151.65 94.5908 150.485 93.7573 149.252 93.9635C149.167 93.9773 149.081 93.9974 148.999 94.02C147.798 94.3632 147.102 95.6155 147.445 96.8161C147.73 97.8106 148.636 98.4581 149.62 98.4581Z" fill="black" fill-opacity="0.2"/>
<path d="M141.125 101.357C141.406 101.357 141.692 101.304 141.966 101.193C143.031 100.769 143.623 99.5981 143.301 98.4716C142.958 97.2709 141.706 96.5744 140.505 96.9176C140.37 96.9566 140.237 97.0081 140.111 97.071C138.994 97.6292 138.541 98.9883 139.099 100.106C139.497 100.898 140.295 101.357 141.125 101.357Z" fill="black" fill-opacity="0.2"/>
<path d="M134.46 220.106C134.293 219.994 134.108 219.905 133.918 219.841C132.734 219.446 131.452 220.086 131.057 221.271C130.699 222.348 131.193 223.502 132.173 224.002C132.5 224.169 132.854 224.251 133.203 224.251C133.933 224.251 134.651 223.898 135.088 223.244C135.78 222.203 135.5 220.799 134.46 220.106Z" fill="black" fill-opacity="0.2"/>
<path d="M150.422 226.677C149.254 226.325 148.011 226.963 147.622 228.127C147.227 229.313 147.867 230.594 149.053 230.989C149.084 230.999 149.118 231.01 149.15 231.019C149.357 231.078 149.567 231.107 149.772 231.107C150.757 231.107 151.662 230.459 151.946 229.466C152.287 228.274 151.605 227.033 150.422 226.677Z" fill="black" fill-opacity="0.2"/>
<path d="M133.087 105.343C133.427 105.343 133.772 105.266 134.097 105.104C134.181 105.062 134.264 105.013 134.343 104.962C135.383 104.269 135.663 102.865 134.971 101.825C134.307 100.829 132.989 100.53 131.966 101.116C130.927 101.707 130.523 103.013 131.062 104.093C131.458 104.884 132.257 105.343 133.087 105.343Z" fill="black" fill-opacity="0.2"/>
<path d="M106.979 130.262C107.304 130.424 107.65 130.501 107.989 130.501C108.781 130.501 109.545 130.082 109.959 129.354C110.542 128.331 110.242 127.017 109.247 126.353C108.208 125.661 106.803 125.941 106.111 126.981C106.059 127.059 106.01 127.143 105.969 127.227C105.409 128.345 105.862 129.703 106.979 130.262Z" fill="black" fill-opacity="0.2"/>
<path d="M103.01 138.32C103.335 138.482 103.68 138.559 104.02 138.559C104.85 138.559 105.649 138.101 106.045 137.308C106.108 137.184 106.16 137.049 106.199 136.915C106.542 135.714 105.847 134.462 104.645 134.118C103.52 133.798 102.349 134.388 101.923 135.452C101.487 136.535 101.948 137.79 103.01 138.32Z" fill="black" fill-opacity="0.2"/>
<path d="M100.524 146.983C100.731 147.042 100.941 147.071 101.146 147.071C102.13 147.071 103.035 146.423 103.32 145.43C103.344 145.348 103.362 145.262 103.376 145.177C103.581 143.945 102.749 142.78 101.517 142.574C100.334 142.375 99.2147 143.134 98.9432 144.283C98.6653 145.454 99.3556 146.648 100.524 146.983Z" fill="black" fill-opacity="0.2"/>
<path d="M99.7541 173.774C100.991 173.597 101.85 172.452 101.674 171.215C101.671 171.197 101.669 171.177 101.665 171.159C101.46 169.927 100.293 169.094 99.0614 169.3C97.8406 169.504 97.0121 170.649 97.1969 171.868C97.3641 172.99 98.3284 173.797 99.431 173.797C99.5379 173.797 99.646 173.79 99.7541 173.774Z" fill="black" fill-opacity="0.2"/>
<path d="M106.179 187.997C105.754 186.932 104.583 186.341 103.457 186.663C102.256 187.006 101.56 188.258 101.903 189.459C101.942 189.594 101.993 189.727 102.056 189.853C102.452 190.646 103.252 191.104 104.082 191.104C104.421 191.104 104.767 191.027 105.091 190.863C106.153 190.333 106.615 189.079 106.179 187.997Z" fill="black" fill-opacity="0.2"/>
<path d="M99.0941 155.857C99.2023 155.872 99.3104 155.879 99.4172 155.879C100.517 155.879 101.478 155.077 101.65 153.962C101.841 152.739 101.011 151.587 99.7869 151.384C98.5548 151.179 97.3894 152.011 97.1832 153.243C97.1807 153.261 97.1769 153.281 97.1744 153.298C96.9984 154.534 97.857 155.68 99.0941 155.857Z" fill="black" fill-opacity="0.2"/>
<path d="M103.386 179.817C103.116 178.667 101.994 177.911 100.813 178.106C99.5806 178.311 98.7483 179.476 98.9533 180.709C98.9671 180.794 98.9872 180.88 99.0098 180.962C99.294 181.955 100.199 182.603 101.184 182.603C101.39 182.603 101.598 182.575 101.806 182.515C102.975 182.182 103.665 180.987 103.386 179.817Z" fill="black" fill-opacity="0.2"/>
<path d="M109.942 195.623C109.249 194.584 107.845 194.302 106.805 194.996C105.81 195.66 105.51 196.973 106.093 197.997C106.506 198.725 107.27 199.143 108.063 199.143C108.403 199.143 108.749 199.067 109.073 198.905C110.191 198.346 110.643 196.987 110.085 195.87C110.042 195.785 109.993 195.701 109.942 195.623Z" fill="black" fill-opacity="0.2"/>
<path d="M98.8452 164.837C100.095 164.837 101.107 163.823 101.107 162.574C101.107 161.325 100.095 160.312 98.8452 160.312C97.5955 160.312 96.5834 161.326 96.5834 162.574V162.577C96.5821 163.826 97.5955 164.837 98.8452 164.837Z" fill="black" fill-opacity="0.2"/>
<path d="M158.423 96.7015C158.53 96.7015 158.637 96.6939 158.746 96.6789C158.764 96.6763 158.784 96.6726 158.802 96.67C160.034 96.4651 160.866 95.2984 160.661 94.0663C160.457 92.8455 159.311 92.0157 158.093 92.2005C156.863 92.3841 156.011 93.5257 156.187 94.7578C156.348 95.8868 157.316 96.7015 158.423 96.7015Z" fill="black" fill-opacity="0.2"/>
<path d="M167.536 228.892C166.286 228.892 165.274 229.905 165.274 231.155C165.274 232.405 166.287 233.417 167.536 233.417H167.538C168.788 233.417 169.799 232.405 169.799 231.155C169.799 229.905 168.785 228.892 167.536 228.892Z" fill="black" fill-opacity="0.2"/>
<path d="M167.386 96.1066C168.636 96.1066 169.648 95.0932 169.648 93.8448C169.648 92.5951 168.634 91.583 167.386 91.583H167.383C166.134 91.583 165.123 92.5963 165.123 93.8448C165.123 95.0932 166.138 96.1066 167.386 96.1066Z" fill="black" fill-opacity="0.2"/>
<path d="M158.89 228.339C157.83 228.19 156.781 228.812 156.43 229.864C156.036 231.05 156.676 232.331 157.861 232.726C158.091 232.803 158.336 232.842 158.579 232.842C159.829 232.842 160.841 231.83 160.841 230.58C160.842 229.437 159.992 228.492 158.89 228.339Z" fill="black" fill-opacity="0.2"/>
<path d="M283.361 162.461C283.36 152.311 282.04 142.236 279.439 132.518C276.831 122.753 272.939 113.354 267.865 104.582L267.846 104.549C267.842 104.543 267.837 104.535 267.833 104.528L267.824 104.515C262.77 95.7801 256.58 87.7262 249.427 80.575C242.277 73.4226 234.222 67.2332 225.486 62.1766L225.473 62.1691C225.465 62.1653 225.459 62.1603 225.453 62.1565L225.42 62.1376C216.648 57.0634 207.248 53.1685 197.483 50.5622C187.763 47.9598 177.685 46.6396 167.532 46.6396H167.47C157.318 46.6396 147.24 47.9598 137.519 50.5622C127.753 53.1685 118.354 57.0647 109.582 62.1376L109.549 62.1565C109.542 62.1603 109.535 62.164 109.528 62.1691L109.515 62.1766C100.78 67.2332 92.7249 73.4226 85.575 80.575C78.4226 87.7262 72.2332 95.7801 67.1766 104.515L67.1565 104.549C67.154 104.553 67.1527 104.557 67.1502 104.561L67.1376 104.582C62.0634 113.354 58.1685 122.753 55.5622 132.519C52.9598 142.238 51.6409 152.313 51.6396 162.463V162.5V162.538C51.6409 172.689 52.9598 182.765 55.5622 192.482C58.1685 202.247 62.0634 211.647 67.1376 220.419L67.1565 220.452C67.1603 220.458 67.164 220.465 67.1691 220.472L67.1766 220.484C72.2332 229.221 78.4226 237.276 85.575 244.426C92.7249 251.578 100.78 257.768 109.515 262.823L109.528 262.831C109.535 262.836 109.543 262.839 109.549 262.844L109.582 262.863C118.354 267.938 127.753 271.831 137.519 274.439C147.236 277.04 157.311 278.36 167.463 278.361H167.473H167.5H167.528H167.538C177.69 278.36 187.766 277.04 197.482 274.439C207.244 271.832 216.645 267.939 225.419 262.863L225.452 262.844C225.458 262.841 225.465 262.836 225.473 262.831L225.484 262.823C234.22 257.769 242.275 251.58 249.426 244.426C256.578 237.275 262.769 229.22 267.823 220.484L267.844 220.452C267.849 220.443 267.855 220.434 267.86 220.425L267.863 220.419C272.938 211.647 276.83 202.247 279.437 192.482C282.039 182.763 283.359 172.688 283.36 162.538V162.5L283.361 162.461ZM138.457 270.932C128.986 268.404 119.871 264.625 111.365 259.7L111.348 259.69C102.881 254.792 95.0735 248.792 88.1423 241.86C81.2099 234.929 75.2104 227.12 70.3109 218.653L70.3008 218.635C65.3762 210.13 61.5982 201.015 59.0699 191.545C56.5467 182.118 55.268 172.346 55.2706 162.502C55.268 152.656 56.5467 142.884 59.0699 133.46C61.5982 123.987 65.3762 114.874 70.3008 106.367C75.2016 97.8935 81.2049 90.0798 88.1423 83.1436C95.0785 76.2049 102.892 70.2028 111.366 65.3021C119.871 60.3788 128.986 56.6008 138.458 54.0712C147.874 51.5504 157.636 50.2718 167.474 50.2718H167.528C177.367 50.2718 187.128 51.5504 196.545 54.0712C206.017 56.5995 215.131 60.3788 223.635 65.3021C232.11 70.2028 239.924 76.2049 246.861 83.1436C253.799 90.0798 259.801 97.8922 264.701 106.367L264.714 106.391C269.631 114.89 273.406 123.998 275.934 133.46C278.457 142.884 279.733 152.656 279.73 162.502C279.733 172.347 278.456 182.12 275.934 191.545C273.404 201.017 269.626 210.132 264.701 218.635L264.691 218.653C259.792 227.121 253.792 234.93 246.86 241.86C239.925 248.796 232.111 254.799 223.635 259.7L223.612 259.713C215.113 264.631 206.006 268.405 196.544 270.931C187.127 273.451 177.366 274.729 167.527 274.729H167.473C157.635 274.729 147.872 273.452 138.457 270.932Z" fill="black" fill-opacity="0.2"/>
<path d="M175.219 241.239L175.225 241.191L175.176 241.196C172.646 241.439 170.063 241.562 167.498 241.563C165.977 241.562 164.433 241.519 162.91 241.432L162.881 241.431L162.873 241.46C162.238 243.529 161.555 245.614 160.843 247.656L160.84 247.664L160.841 247.674C162.4 256.127 164.627 264.628 167.462 272.94L167.497 273.047L167.532 272.94C171.089 262.522 173.674 251.856 175.219 241.239Z" fill="black" fill-opacity="0.2"/>
<path d="M167.497 239.197H167.504H167.506H167.538C174.277 239.195 180.948 238.322 187.369 236.604C193.811 234.884 200.015 232.314 205.81 228.964L205.841 228.945L205.874 228.926C211.659 225.577 216.994 221.475 221.734 216.734C226.474 211.995 230.576 206.659 233.927 200.873L233.934 200.86C233.938 200.854 233.942 200.847 233.947 200.84L233.966 200.808C237.315 195.014 239.885 188.81 241.606 182.367C243.328 175.932 244.2 169.247 244.2 162.5C244.2 155.751 243.327 149.065 241.606 142.631C239.886 136.188 237.316 129.984 233.966 124.192L233.947 124.159L233.928 124.125C230.577 118.34 226.476 113.005 221.735 108.265C216.996 103.524 211.66 99.4214 205.875 96.0734L205.843 96.0545C205.839 96.052 205.836 96.0508 205.832 96.0483L205.811 96.0357C200.018 92.6864 193.813 90.1153 187.37 88.3954C180.937 86.6743 174.254 85.8018 167.509 85.8018H167.496C160.75 85.8018 154.067 86.6743 147.635 88.3954C141.193 90.1153 134.988 92.6851 129.194 96.0357L129.187 96.0395C129.179 96.0445 129.171 96.0495 129.162 96.0545L129.128 96.0734C123.345 99.4214 118.008 103.524 113.268 108.265C108.529 113.003 104.427 118.339 101.077 124.125L101.069 124.137C101.066 124.144 101.061 124.151 101.057 124.159L101.038 124.192C97.6874 129.986 95.1176 136.189 93.3977 142.633C91.6753 149.067 90.8027 155.753 90.8027 162.501C90.8027 169.247 91.6753 175.932 93.3964 182.368C95.1163 188.81 97.6861 195.014 101.037 200.809L101.04 200.815C101.045 200.824 101.05 200.833 101.056 200.84L101.074 200.873C104.424 206.659 108.525 211.993 113.266 216.734C118.007 221.475 123.343 225.577 129.126 228.926L129.16 228.945C129.169 228.95 129.176 228.953 129.185 228.958L129.191 228.962C134.986 232.312 141.19 234.883 147.632 236.603C154.053 238.321 160.724 239.192 167.463 239.196H167.497V239.197ZM148.128 234.749C141.837 233.071 135.778 230.559 130.12 227.283C124.469 224.014 119.255 220.008 114.625 215.375C109.993 210.745 105.986 205.532 102.718 199.88C99.4425 194.221 96.9305 188.161 95.2508 181.872C93.5724 175.601 92.7213 169.081 92.7213 162.5C92.7213 155.918 93.5724 149.399 95.2508 143.127C96.928 136.846 99.4349 130.795 102.704 125.141L102.718 125.118C105.986 119.467 109.992 114.253 114.624 109.623C119.254 104.991 124.468 100.985 130.12 97.7154C135.778 94.4415 141.837 91.9295 148.128 90.2499C154.4 88.5715 160.916 87.7203 167.504 87.7203C174.086 87.7203 180.603 88.5715 186.873 90.2499C193.163 91.9295 199.223 94.4415 204.881 97.7154C210.533 100.985 215.747 104.991 220.376 109.623C225.008 114.254 229.015 119.468 232.282 125.118L232.296 125.141C235.565 130.795 238.073 136.846 239.749 143.127C241.427 149.398 242.279 155.917 242.279 162.5C242.279 169.083 241.427 175.603 239.749 181.872C238.072 188.161 235.559 194.221 232.282 199.88L232.272 199.896C229.007 205.541 225.004 210.749 220.376 215.375C215.745 220.007 210.532 224.014 204.881 227.281L204.871 227.288C199.214 230.561 193.157 233.071 186.872 234.748C180.602 236.425 174.083 237.278 167.499 237.278H167.496C160.916 237.279 154.4 236.426 148.128 234.749Z" fill="black" fill-opacity="0.2"/>
<path d="M161.405 241.331L161.358 241.327C157.288 241.014 153.222 240.384 149.271 239.453L149.242 239.446L149.228 239.473C148.245 241.4 147.211 243.332 146.155 245.222L146.15 245.231V245.241C146.212 253.863 146.935 262.621 148.298 271.269L148.316 271.381L148.369 271.282C153.641 261.706 158.022 251.641 161.39 241.376L161.405 241.331Z" fill="black" fill-opacity="0.2"/>
<path d="M147.813 239.096L147.766 239.084C143.825 238.072 139.936 236.742 136.207 235.132L136.179 235.119L136.161 235.144C134.86 236.863 133.505 238.587 132.131 240.267L132.124 240.275L132.123 240.285C130.675 248.797 129.855 257.546 129.685 266.291L129.683 266.403L129.753 266.317C136.638 257.786 142.706 248.641 147.789 239.14L147.813 239.096Z" fill="black" fill-opacity="0.2"/>
<path d="M134.831 234.521L134.786 234.501C132.473 233.449 130.182 232.266 127.974 230.991C126.677 230.24 125.368 229.432 124.083 228.586L124.058 228.567L124.037 228.59C122.456 230.054 120.821 231.516 119.175 232.931L119.167 232.937L119.163 232.946C116.258 241.076 113.926 249.548 112.231 258.13L112.21 258.24L112.294 258.166C120.569 250.956 128.141 243.015 134.801 234.558L134.831 234.521Z" fill="black" fill-opacity="0.2"/>
<path d="M122.832 227.743L122.792 227.716C119.436 225.41 116.232 222.824 113.265 220.024L113.243 220.004L113.217 220.02C111.416 221.184 109.553 222.341 107.677 223.458L107.669 223.463L107.664 223.471C103.399 230.973 99.6348 238.915 96.4766 247.075L96.4364 247.179L96.532 247.12C105.925 241.454 114.761 234.946 122.796 227.779L122.832 227.743Z" fill="black" fill-opacity="0.2"/>
<path d="M112.178 218.983L112.144 218.949C109.235 216.096 106.524 212.996 104.085 209.726L104.068 209.702L104.04 209.713C102.057 210.552 100.022 211.371 97.9903 212.141L97.9803 212.145L97.974 212.152C92.4811 218.801 87.4019 225.972 82.8808 233.469L82.823 233.564L82.9273 233.524C93.1487 229.566 102.977 224.683 112.139 219.009L112.178 218.983Z" fill="black" fill-opacity="0.2"/>
<path d="M103.195 208.509L103.166 208.468C101.682 206.395 100.284 204.228 99.0087 202.023C98.2556 200.723 97.5239 199.37 96.8349 198.003L96.8211 197.974L96.7922 197.981C94.6875 198.466 92.5414 198.918 90.4129 199.323L90.4029 199.324L90.3953 199.33C83.8313 204.92 77.5866 211.1 71.8322 217.703L71.7593 217.788L71.8687 217.766C82.6143 215.644 93.1399 212.536 103.15 208.524L103.195 208.509Z" fill="black" fill-opacity="0.2"/>
<path d="M96.1698 196.65L96.1484 196.607C94.3921 192.941 92.9098 189.106 91.7431 185.212L91.7343 185.183L91.7041 185.184C89.5404 185.295 87.349 185.364 85.1891 185.39H85.179L85.1702 185.395C77.7249 189.753 70.4958 194.749 63.684 200.247L63.5973 200.317L63.7092 200.315C74.6622 200.103 85.5675 198.874 96.122 196.66L96.1698 196.65Z" fill="black" fill-opacity="0.2"/>
<path d="M85.9836 183.852C87.7437 183.852 89.5253 183.826 91.2791 183.769L91.3281 183.768L91.3156 183.721C90.2293 179.811 89.4398 175.776 88.9696 171.725L88.9658 171.696L88.9356 171.692C86.7857 171.42 84.6157 171.107 82.4847 170.757L82.4747 170.755L82.4646 170.759C74.3567 173.761 66.3657 177.418 58.7154 181.629L58.6173 181.682L58.7279 181.7C67.7876 183.129 76.9579 183.852 85.9836 183.852Z" fill="black" fill-opacity="0.2"/>
<path d="M88.81 170.226L88.805 170.177C88.5623 167.645 88.4391 165.061 88.4379 162.5C88.4379 160.975 88.4831 159.43 88.5686 157.912L88.5699 157.884L88.5422 157.875C86.474 157.239 84.3895 156.556 82.3453 155.846L82.3365 155.842L82.3264 155.843C73.8728 157.403 65.3713 159.63 57.061 162.465L56.9541 162.5L57.061 162.535C67.4784 166.088 78.1436 168.673 88.7622 170.22L88.81 170.226Z" fill="black" fill-opacity="0.2"/>
<path d="M88.6226 156.391L88.6691 156.406L88.6729 156.358C88.9847 152.29 89.6146 148.223 90.5475 144.271L90.555 144.242L90.5286 144.228C88.6 143.244 86.6651 142.21 84.778 141.157L84.7692 141.152H84.7591C76.1383 141.213 67.3803 141.936 58.7293 143.299L58.6187 143.318L58.7167 143.371C68.2943 148.642 78.3573 153.024 88.6226 156.391Z" fill="black" fill-opacity="0.2"/>
<path d="M90.8618 142.79L90.9045 142.814L90.9159 142.766C91.9279 138.826 93.2581 134.936 94.8674 131.207L94.8799 131.179L94.8548 131.162C93.1349 129.862 91.4125 128.506 89.7315 127.131L89.724 127.125L89.7139 127.123C81.2037 125.674 72.4545 124.854 63.7092 124.686L63.5973 124.683L63.684 124.754C72.2157 131.638 81.3583 137.707 90.8618 142.79Z" fill="black" fill-opacity="0.2"/>
<path d="M95.4406 129.802L95.4796 129.832L95.4997 129.786C96.552 127.473 97.7338 125.181 99.0099 122.975C99.7579 121.681 100.566 120.372 101.415 119.082L101.431 119.057L101.411 119.036C99.9428 117.454 98.4818 115.819 97.0687 114.174L97.0612 114.167L97.0524 114.163C88.9218 111.257 80.4493 108.925 71.8699 107.23L71.7605 107.209L71.8334 107.293C79.0399 115.567 86.9831 123.141 95.4406 129.802Z" fill="black" fill-opacity="0.2"/>
<path d="M102.223 117.795L102.255 117.831L102.283 117.791C104.586 114.438 107.173 111.233 109.973 108.263L109.994 108.242L109.978 108.216C108.808 106.407 107.652 104.542 106.543 102.675L106.538 102.666L106.529 102.661C99.0263 98.3967 91.0856 94.6325 82.9273 91.4743L82.823 91.4341L82.8808 91.5296C88.5485 100.926 95.0559 109.762 102.223 117.795Z" fill="black" fill-opacity="0.2"/>
<path d="M110.993 107.137L111.018 107.178L111.053 107.145C113.903 104.237 117.006 101.525 120.275 99.0856L120.299 99.068L120.287 99.0404C119.446 97.0565 118.629 95.021 117.86 92.9906L117.856 92.9805L117.848 92.9742C111.198 87.4801 104.026 82.4021 96.532 77.8811L96.4364 77.8232L96.4766 77.9276C100.432 88.1464 105.316 97.9755 110.993 107.137Z" fill="black" fill-opacity="0.2"/>
<path d="M133.34 91.1221L133.35 91.1699L133.394 91.1485C137.06 89.3909 140.895 87.9099 144.789 86.7444L144.817 86.7356L144.816 86.7055C144.706 84.538 144.636 82.3466 144.61 80.1905V80.1804L144.605 80.1716C140.249 72.7275 135.252 65.4984 129.754 58.6854L129.684 58.5986L129.687 58.7105C129.897 69.6636 131.127 80.5689 133.34 91.1221Z" fill="black" fill-opacity="0.2"/>
<path d="M146.232 86.3285L146.278 86.3159C150.19 85.2284 154.225 84.4401 158.275 83.9699L158.305 83.9662L158.309 83.936C158.579 81.7849 158.893 79.6149 159.244 77.4851L159.245 77.475L159.242 77.465C156.241 69.3596 152.583 61.3698 148.372 53.7157L148.319 53.6177L148.301 53.7283C146.593 64.5695 145.896 75.5213 146.232 86.2795V86.3285Z" fill="black" fill-opacity="0.2"/>
<path d="M121.473 98.1507L121.492 98.196L121.531 98.1671C123.602 96.6835 125.77 95.2842 127.974 94.0094C129.277 93.2551 130.63 92.5233 131.997 91.8344L132.024 91.8205L132.018 91.7916C131.536 89.6983 131.083 87.5522 130.676 85.4124L130.675 85.4024L130.668 85.3948C125.079 78.8295 118.897 72.5848 112.293 66.8317L112.208 66.7588L112.23 66.8694C114.352 77.6138 117.462 88.1368 121.473 98.1507Z" fill="black" fill-opacity="0.2"/>
<path d="M167.5 83.4383C169.027 83.4383 170.571 83.4836 172.088 83.5691L172.117 83.5704L172.126 83.5427C172.762 81.472 173.446 79.3875 174.156 77.3458L174.16 77.337L174.159 77.3269C172.599 68.872 170.371 60.3705 167.537 52.0615L167.502 51.9546L167.467 52.0615C163.914 62.4777 161.329 73.1428 159.784 83.7615L159.777 83.8092L159.826 83.8042C162.353 83.5628 164.937 83.4396 167.5 83.4383Z" fill="black" fill-opacity="0.2"/>
<path d="M64.769 223.544C64.0523 222.472 62.6027 222.182 61.5303 222.898C60.5019 223.585 60.1914 224.94 60.7961 225.997C61.221 226.749 62.0106 227.182 62.829 227.182C63.1798 227.182 63.5369 227.101 63.8725 226.933C65.0267 226.358 65.4944 224.954 64.9173 223.8C64.872 223.713 64.8218 223.626 64.769 223.544Z" fill="black" fill-opacity="0.2"/>
<path d="M86.3419 73.9958C86.9064 73.9958 87.4697 73.7947 87.9135 73.3886C88.8224 72.5663 88.9444 71.167 88.1687 70.199C87.3628 69.1907 85.8918 69.0272 84.8848 69.8331C84.8181 69.8872 84.7515 69.9463 84.6912 70.0079C83.7784 70.9206 83.7784 72.4004 84.6912 73.3119C85.1463 73.7682 85.7435 73.9958 86.3419 73.9958Z" fill="black" fill-opacity="0.2"/>
<path d="M79.6271 80.476C80.2255 80.476 80.824 80.2485 81.2804 79.7921C81.3407 79.7305 81.4011 79.6651 81.4551 79.5972C82.261 78.5902 82.0976 77.1192 81.0893 76.3133C80.1199 75.5376 78.7231 75.6596 77.8996 76.5685C77.0648 77.4851 77.09 78.9057 77.9763 79.7921C78.4327 80.2472 79.0299 80.476 79.6271 80.476Z" fill="black" fill-opacity="0.2"/>
<path d="M95.1753 257.612C95.1225 257.568 95.0659 257.527 95.0094 257.488C93.9357 256.773 92.4848 257.063 91.7694 258.137C91.0742 259.179 91.3269 260.576 92.3264 261.313C92.7426 261.62 93.2291 261.77 93.7144 261.77C94.3983 261.77 95.0785 261.471 95.5399 260.894C96.3458 259.886 96.1824 258.416 95.1753 257.612Z" fill="black" fill-opacity="0.2"/>
<path d="M135.965 277.776C134.759 277.411 133.477 278.072 133.077 279.273C132.669 280.497 133.331 281.82 134.555 282.228C134.587 282.238 134.621 282.25 134.655 282.259C134.869 282.321 135.085 282.349 135.298 282.349C136.313 282.349 137.249 281.68 137.542 280.653C137.895 279.425 137.188 278.141 135.965 277.776Z" fill="black" fill-opacity="0.2"/>
<path d="M93.5297 68.0491C94.0175 68.0491 94.5066 67.8982 94.9227 67.5877C95.9172 66.8509 96.1686 65.4567 95.4746 64.4157C94.7593 63.342 93.3084 63.0516 92.2347 63.7682C92.1782 63.8047 92.1216 63.8474 92.0688 63.8902C91.0617 64.696 90.8983 66.1657 91.7042 67.1728C92.1656 67.7486 92.8432 68.0491 93.5297 68.0491Z" fill="black" fill-opacity="0.2"/>
<path d="M75.0331 238.247C74.0248 237.441 72.5551 237.604 71.7492 238.611C71.0313 239.509 71.0829 240.776 71.8158 241.61C72.2697 242.132 72.9172 242.41 73.5785 242.41C74.0223 242.41 74.4737 242.283 74.8722 242.017C75.9459 241.301 76.2363 239.851 75.5197 238.777C75.3852 238.577 75.2192 238.399 75.0331 238.247Z" fill="black" fill-opacity="0.2"/>
<path d="M69.5592 231.01C68.6464 230.099 67.1679 230.099 66.2551 231.01C65.4052 231.86 65.3474 233.203 66.0816 234.119C66.5368 234.694 67.2194 235.001 67.9122 235.001C68.3572 235.001 68.8073 234.874 69.2059 234.61C70.2796 233.892 70.57 232.442 69.8533 231.37C69.7679 231.24 69.6673 231.118 69.5592 231.01Z" fill="black" fill-opacity="0.2"/>
<path d="M66.4764 94.48C66.8749 94.7465 67.325 94.8722 67.7701 94.8722C68.5005 94.8722 69.2171 94.5302 69.671 93.8966C70.3939 92.8946 70.2104 91.489 69.2347 90.7082C68.2264 89.9023 66.7567 90.0658 65.9508 91.0728C65.9081 91.1256 65.8653 91.1835 65.8301 91.2388C65.1123 92.3137 65.4014 93.7646 66.4764 94.48Z" fill="black" fill-opacity="0.2"/>
<path d="M71.9668 86.9352C72.3967 87.2797 72.9122 87.4469 73.4239 87.4469C74.1078 87.4469 74.7842 87.1477 75.2456 86.5744C76.0452 85.5837 75.9057 84.1303 74.9238 83.3119C73.9331 82.4858 72.4596 82.6204 71.6336 83.6111C71.6235 83.6236 71.6122 83.6387 71.6022 83.65C70.7963 84.6596 70.9585 86.1293 71.9668 86.9352Z" fill="black" fill-opacity="0.2"/>
<path d="M78.4906 245.085C77.4169 245.803 77.1265 247.253 77.8418 248.325C77.9764 248.526 78.1411 248.705 78.3296 248.857C78.7596 249.201 79.2751 249.367 79.7868 249.367C80.472 249.367 81.1509 249.069 81.6123 248.492C82.349 247.571 82.2761 246.262 81.4865 245.427C80.7209 244.61 79.4536 244.444 78.4906 245.085Z" fill="black" fill-opacity="0.2"/>
<path d="M126.135 50.2293C126.38 50.2293 126.628 50.1903 126.873 50.1086C126.934 50.0872 126.997 50.0633 127.058 50.0382C128.243 49.5303 128.793 48.1574 128.285 46.9705C127.789 45.8176 126.477 45.2657 125.314 45.7045C124.142 46.142 123.519 47.4332 123.917 48.6301C124.245 49.6107 125.155 50.2293 126.135 50.2293Z" fill="black" fill-opacity="0.2"/>
<path d="M127.139 274.992C127.107 274.982 127.073 274.969 127.039 274.959C125.798 274.603 124.505 275.323 124.151 276.563C123.803 277.784 124.49 279.053 125.692 279.434C125.927 279.508 126.166 279.544 126.4 279.544C127.378 279.544 128.291 278.926 128.615 277.946C129.024 276.722 128.363 275.399 127.139 274.992Z" fill="black" fill-opacity="0.2"/>
<path d="M135.023 47.4028C135.201 47.4028 135.38 47.3827 135.56 47.34C136.751 47.0621 137.534 45.9029 137.332 44.6809C137.119 43.4073 135.912 42.5474 134.643 42.7611C134.557 42.7749 134.468 42.795 134.382 42.8202C133.141 43.1747 132.424 44.4672 132.778 45.7081C133.071 46.7327 134.008 47.4028 135.023 47.4028Z" fill="black" fill-opacity="0.2"/>
<path d="M118.678 271.582C117.596 271.105 116.306 271.512 115.706 272.56C115.066 273.681 115.455 275.108 116.575 275.749C116.709 275.825 116.853 275.888 116.998 275.939C117.244 276.019 117.491 276.059 117.736 276.059C118.715 276.059 119.626 275.441 119.953 274.461C120.339 273.305 119.772 272.061 118.678 271.582Z" fill="black" fill-opacity="0.2"/>
<path d="M117.498 53.7277C117.788 53.7277 118.083 53.6736 118.366 53.5592C119.466 53.1217 120.077 51.9123 119.746 50.7493C119.391 49.5072 118.099 48.7905 116.858 49.1438C116.719 49.1841 116.581 49.2381 116.452 49.3022C115.297 49.8793 114.83 51.2824 115.407 52.4365C115.815 53.255 116.641 53.7277 117.498 53.7277Z" fill="black" fill-opacity="0.2"/>
<path d="M102.71 262.907C101.708 262.185 100.302 262.368 99.5216 263.345C98.7157 264.353 98.8791 265.821 99.8862 266.628C99.939 266.671 99.9968 266.713 100.052 266.749C100.451 267.016 100.901 267.143 101.345 267.143C102.099 267.143 102.841 266.777 103.291 266.103C103.994 265.051 103.73 263.639 102.71 262.907Z" fill="black" fill-opacity="0.2"/>
<path d="M109.152 57.8831C109.503 57.8831 109.859 57.8039 110.194 57.6367C110.282 57.5927 110.368 57.5424 110.448 57.4884C111.521 56.773 111.811 55.3234 111.097 54.2485C110.411 53.2188 109.049 52.9107 107.993 53.5167C106.923 54.1265 106.503 55.4743 107.061 56.5907C107.47 57.4104 108.295 57.8831 109.152 57.8831Z" fill="black" fill-opacity="0.2"/>
<path d="M110.666 267.634C110.494 267.519 110.304 267.426 110.108 267.362C108.884 266.953 107.56 267.614 107.153 268.838C106.781 269.95 107.294 271.143 108.308 271.66C108.644 271.831 109.009 271.915 109.37 271.915C110.124 271.915 110.866 271.551 111.316 270.874C112.031 269.801 111.741 268.348 110.666 267.634Z" fill="black" fill-opacity="0.2"/>
<path d="M101.148 62.6661C101.583 62.6661 102.023 62.5442 102.416 62.2902C103.471 61.61 103.804 60.2095 103.152 59.1245C102.489 58.0181 101.053 57.6598 99.9477 58.3236C99.9163 58.3425 99.8824 58.3639 99.8509 58.3852C98.7772 59.1006 98.4868 60.5502 99.2022 61.6251C99.6523 62.3003 100.393 62.6661 101.148 62.6661Z" fill="black" fill-opacity="0.2"/>
<path d="M85.0169 251.7C84.0262 252.528 83.893 254 84.7177 254.992C84.8195 255.113 84.9327 255.224 85.0559 255.323C85.4859 255.667 86.0013 255.834 86.513 255.834C87.1982 255.834 87.8784 255.535 88.3398 254.957C89.1017 254.005 88.9973 252.64 88.1336 251.814C87.2862 250.995 85.9422 250.931 85.0169 251.7Z" fill="black" fill-opacity="0.2"/>
<path d="M50.6427 128.136C50.8564 128.199 51.0726 128.227 51.2851 128.227C52.2884 128.227 53.2124 127.575 53.518 126.572C53.8914 125.364 53.2301 124.071 52.0231 123.67C50.7998 123.262 49.4759 123.926 49.0673 125.149C49.0573 125.18 49.046 125.216 49.0372 125.248C48.6839 126.489 49.4018 127.782 50.6427 128.136Z" fill="black" fill-opacity="0.2"/>
<path d="M61.6561 102.461C61.9917 102.63 62.3475 102.708 62.6983 102.708C63.518 102.708 64.3088 102.277 64.7338 101.522C65.3335 100.466 65.0242 99.1097 63.997 98.4245C62.9246 97.7104 61.4738 97.9995 60.7571 99.072C60.7031 99.1537 60.6528 99.2392 60.61 99.3272C60.0342 100.483 60.5019 101.884 61.6561 102.461Z" fill="black" fill-opacity="0.2"/>
<path d="M53.386 119.187C53.7217 119.356 54.0775 119.434 54.4295 119.434C55.287 119.434 56.1117 118.961 56.5203 118.142C56.5844 118.014 56.6385 117.875 56.6787 117.736C57.0333 116.496 56.3154 115.202 55.0745 114.849C53.9115 114.515 52.7021 115.128 52.2633 116.228C51.812 117.344 52.2897 118.638 53.386 119.187Z" fill="black" fill-opacity="0.2"/>
<path d="M57.2004 110.663C57.5349 110.832 57.8919 110.91 58.2427 110.91C59.1001 110.91 59.9261 110.436 60.3347 109.617C60.9118 108.463 60.4441 107.059 59.29 106.482C58.1358 105.905 56.7327 106.374 56.1557 107.527L56.1544 107.529C55.5773 108.683 56.0463 110.086 57.2004 110.663Z" fill="black" fill-opacity="0.2"/>
<path d="M45.6967 155.634C45.8086 155.651 45.9205 155.658 46.0299 155.658C47.174 155.658 48.1735 154.817 48.3394 153.653C48.3545 153.544 48.3621 153.43 48.3621 153.32C48.3621 152.029 47.3161 150.984 46.0261 150.984C44.8028 150.984 43.7983 151.924 43.699 153.122C43.5934 154.348 44.4646 155.457 45.6967 155.634Z" fill="black" fill-opacity="0.2"/>
<path d="M51.1682 189.853C50.8916 188.664 49.7312 187.878 48.5091 188.081C47.2368 188.295 46.3768 189.497 46.5881 190.769C46.6031 190.857 46.622 190.947 46.6471 191.03C46.9413 192.056 47.8755 192.724 48.8913 192.724C49.1038 192.724 49.3213 192.695 49.5338 192.634C50.7407 192.291 51.4536 191.061 51.1682 189.853Z" fill="black" fill-opacity="0.2"/>
<path d="M47.448 183.545C48.7254 183.362 49.6142 182.179 49.4319 180.901C49.4294 180.884 49.4256 180.862 49.4219 180.843C49.2106 179.571 48.005 178.712 46.7339 178.925C45.4716 179.135 44.6154 180.32 44.809 181.583C44.9838 182.738 45.9783 183.569 47.1161 183.569C47.2242 183.568 47.3361 183.56 47.448 183.545Z" fill="black" fill-opacity="0.2"/>
<path d="M53.6161 198.742C53.6073 198.709 53.596 198.672 53.5846 198.641C53.176 197.418 51.8534 196.756 50.6301 197.164C49.427 197.566 48.7669 198.851 49.1328 200.057C49.4358 201.066 50.3623 201.721 51.3681 201.721C51.5806 201.721 51.7968 201.69 52.0106 201.631C53.2527 201.275 53.9706 199.982 53.6161 198.742Z" fill="black" fill-opacity="0.2"/>
<path d="M56.7001 207.29C56.2626 206.189 55.0519 205.578 53.8902 205.911C52.6481 206.266 51.9314 207.558 52.286 208.799C52.3249 208.937 52.379 209.074 52.4444 209.204C52.8542 210.022 53.6777 210.496 54.5351 210.496C54.8859 210.496 55.2417 210.418 55.5774 210.249C56.6737 209.702 57.1502 208.406 56.7001 207.29Z" fill="black" fill-opacity="0.2"/>
<path d="M48.1873 137.137C48.4023 137.198 48.6173 137.227 48.8297 137.227C49.8468 137.227 50.7822 136.558 51.0751 135.533C51.099 135.448 51.1204 135.359 51.1342 135.272C51.3467 134 50.4868 132.796 49.2144 132.583C47.9924 132.381 46.8332 133.164 46.5554 134.356C46.27 135.563 46.9816 136.792 48.1873 137.137Z" fill="black" fill-opacity="0.2"/>
<path d="M46.3794 174.278C47.6115 174.101 48.4815 172.993 48.3759 171.766C48.2778 170.568 47.272 169.626 46.0475 169.626C44.7576 169.626 43.7115 170.672 43.7115 171.962C43.7115 172.073 43.7191 172.186 43.7342 172.295C43.9014 173.461 44.8996 174.3 46.045 174.3C46.1556 174.302 46.2675 174.294 46.3794 174.278Z" fill="black" fill-opacity="0.2"/>
<path d="M46.744 146.366C46.8559 146.383 46.9678 146.391 47.0772 146.391C48.215 146.391 49.2095 145.558 49.3842 144.403C49.5766 143.143 48.7204 141.956 47.4582 141.746C46.1846 141.533 44.9827 142.394 44.7702 143.666C44.7677 143.684 44.7639 143.704 44.7614 143.723C44.5803 145 45.4667 146.182 46.744 146.366Z" fill="black" fill-opacity="0.2"/>
<path d="M60.4466 215.614C59.8696 214.462 58.4665 213.993 57.3123 214.57C56.1582 215.147 55.6905 216.55 56.2676 217.704L56.2688 217.707C56.6774 218.524 57.5009 218.996 58.3584 218.996C58.7091 218.996 59.0662 218.916 59.4019 218.75C60.5573 218.173 61.0237 216.769 60.4466 215.614Z" fill="black" fill-opacity="0.2"/>
<path d="M45.6867 164.977C46.9766 164.977 48.0226 163.93 48.0226 162.639C48.0226 161.349 46.9766 160.303 45.6867 160.303C44.3967 160.303 43.3507 161.349 43.3507 162.639V162.641C43.352 163.932 44.398 164.977 45.6867 164.977Z" fill="black" fill-opacity="0.2"/>
<path d="M144.103 45.269C144.213 45.269 144.325 45.2615 144.436 45.2464C144.575 45.225 144.714 45.1936 144.848 45.1484C146.072 44.741 146.732 43.4171 146.325 42.1938C145.944 41.046 144.756 40.3935 143.6 40.6512C142.419 40.9127 141.619 42.0442 141.794 43.2625C141.96 44.4292 142.959 45.269 144.103 45.269Z" fill="black" fill-opacity="0.2"/>
<path d="M162.903 281.894C161.613 281.894 160.567 282.94 160.567 284.23C160.567 285.519 161.613 286.567 162.903 286.567H162.905C164.196 286.567 165.24 285.52 165.24 284.23C165.24 282.94 164.194 281.894 162.903 281.894Z" fill="black" fill-opacity="0.2"/>
<path d="M153.321 43.8408C153.386 43.8408 153.45 43.8383 153.514 43.8333C154.717 43.739 155.665 42.732 155.665 41.5049C155.665 40.215 154.619 39.1689 153.328 39.1689C153.217 39.1689 153.104 39.1765 152.995 39.1916C151.717 39.3739 150.83 40.5582 151.012 41.8355C151.178 43.001 152.177 43.8408 153.321 43.8408Z" fill="black" fill-opacity="0.2"/>
<path d="M145.025 279.879C144.815 279.819 144.596 279.789 144.38 279.789C143.089 279.789 142.043 280.835 142.043 282.125C142.043 283.287 142.891 284.253 144.003 284.43C144.13 284.45 144.257 284.462 144.384 284.462C145.4 284.462 146.335 283.794 146.629 282.767C146.985 281.527 146.265 280.235 145.025 279.879Z" fill="black" fill-opacity="0.2"/>
<path d="M162.625 43.1206C162.753 43.1206 162.884 43.1106 163.011 43.0879C164.283 42.8767 165.144 41.6723 164.932 40.3999C164.731 39.1993 163.648 38.3657 162.462 38.4525C161.247 38.5367 160.289 39.5475 160.289 40.7847C160.288 42.0758 161.335 43.1206 162.625 43.1206Z" fill="black" fill-opacity="0.2"/>
<path d="M153.922 281.217C152.827 281.065 151.747 281.709 151.385 282.794C150.977 284.018 151.638 285.341 152.862 285.748C153.1 285.827 153.354 285.87 153.604 285.87C154.894 285.87 155.94 284.823 155.94 283.532C155.94 282.35 155.061 281.373 153.922 281.217Z" fill="black" fill-opacity="0.2"/>
<path d="M173.496 306.079L173.182 306.09C174.87 306.025 176.555 305.932 178.24 305.807C175.865 302.442 173.642 299.017 171.571 295.546C172.042 294.638 172.501 293.729 172.951 292.816L171.483 292.869C169.204 297.363 166.678 301.799 163.915 306.159C166.745 306.229 169.576 306.212 172.406 306.118L171.881 306.137C169.359 310.639 166.594 315.076 163.589 319.43C168.799 319.558 174.014 319.43 179.219 319.045C176.649 315.696 174.233 312.28 171.97 308.815C172.488 307.905 172.998 306.994 173.496 306.079Z" fill="black" fill-opacity="0.2"/>
<path d="M159.168 305.964L158.773 305.939C160.484 306.042 162.2 306.114 163.916 306.158C161.883 302.574 160.005 298.95 158.285 295.29C158.842 294.434 159.388 293.574 159.926 292.711L158.465 292.62C155.755 296.868 152.811 301.035 149.63 305.099C152.466 305.451 155.314 305.717 158.164 305.899L157.56 305.861C154.608 310.096 151.419 314.238 147.996 318.273C153.174 318.914 158.382 319.299 163.591 319.427C161.366 315.838 159.295 312.205 157.381 308.534C157.986 307.682 158.582 306.823 159.168 305.964Z" fill="black" fill-opacity="0.2"/>
<path d="M144.924 304.44L144.556 304.38C146.243 304.65 147.934 304.893 149.629 305.103C147.96 301.337 146.452 297.544 145.107 293.732C145.745 292.935 146.374 292.133 146.994 291.327L145.547 291.091C142.431 295.051 139.086 298.906 135.515 302.63C138.292 303.262 141.087 303.807 143.896 304.27L143.329 304.179C139.972 308.099 136.384 311.902 132.573 315.573C137.665 316.731 142.815 317.632 147.996 318.275C146.132 314.485 144.43 310.663 142.891 306.819C143.578 306.033 144.255 305.239 144.924 304.44Z" fill="black" fill-opacity="0.2"/>
<path d="M130.9 301.499L130.544 301.405C132.194 301.842 133.851 302.252 135.515 302.629C134.232 298.715 133.11 294.79 132.155 290.864C132.869 290.136 133.574 289.402 134.271 288.66L132.856 288.28C129.361 291.907 125.646 295.406 121.72 298.756C124.419 299.662 127.147 300.487 129.894 301.23L129.338 301.08C125.604 304.644 121.654 308.068 117.493 311.339C122.444 313.001 127.479 314.416 132.572 315.572C131.095 311.616 129.782 307.643 128.636 303.664C129.401 302.948 130.154 302.227 130.9 301.499Z" fill="black" fill-opacity="0.2"/>
<path d="M117.24 297.169L116.908 297.043C118.502 297.643 120.106 298.215 121.719 298.755C120.834 294.733 120.114 290.715 119.555 286.712C120.339 286.059 121.115 285.4 121.883 284.732L120.516 284.213C116.674 287.474 112.627 290.58 108.385 293.518C110.981 294.693 113.614 295.786 116.276 296.802L115.733 296.595C111.66 299.766 107.386 302.777 102.919 305.615C107.676 307.766 112.543 309.676 117.493 311.339C116.42 307.252 115.514 303.17 114.772 299.096C115.604 298.46 116.427 297.815 117.24 297.169Z" fill="black" fill-opacity="0.2"/>
<path d="M104.088 291.492L103.838 291.366C105.341 292.11 106.856 292.828 108.386 293.52C107.909 289.43 107.594 285.358 107.438 281.322C108.285 280.749 109.122 280.172 109.954 279.582L108.642 278.928C104.493 281.786 100.154 284.474 95.6392 286.972C98.0833 288.389 100.571 289.728 103.096 290.996L102.641 290.77C98.2719 293.515 93.7169 296.087 88.991 298.462C93.5095 301.077 98.1587 303.467 102.917 305.616C102.261 301.443 101.77 297.288 101.438 293.161C102.332 292.612 103.214 292.055 104.088 291.492Z" fill="black" fill-opacity="0.2"/>
<path d="M88.766 285.923C89.7064 285.466 90.6405 284.999 91.5659 284.524L91.2352 284.316C92.6886 285.227 94.1558 286.113 95.6406 286.97C95.5752 282.853 95.667 278.773 95.9159 274.736C96.8136 274.252 97.7062 273.759 98.5913 273.26L97.3504 272.477C92.9363 274.907 88.3511 277.148 83.6101 279.186C85.9259 280.854 88.2933 282.451 90.7034 283.978L90.1993 283.66C85.5776 285.96 80.7926 288.061 75.8529 289.956C80.0873 293.008 84.4738 295.847 88.9936 298.46C88.7559 294.246 88.6818 290.062 88.766 285.923Z" fill="black" fill-opacity="0.2"/>
<path d="M79.7994 276.346L79.5479 276.15C80.8844 277.185 82.2372 278.198 83.6088 279.186C83.9533 275.081 84.4511 271.028 85.0974 267.04C86.0403 266.645 86.9769 266.246 87.9073 265.836L86.7532 264.936C82.1177 266.914 77.3339 268.688 72.4143 270.247C74.5353 272.121 76.7141 273.931 78.9394 275.675L78.527 275.354C73.7017 277.182 68.7281 278.8 63.6262 280.197C67.5362 283.65 71.616 286.908 75.8504 289.957C76.0364 285.739 76.3784 281.57 76.8725 277.459C77.8557 277.097 78.83 276.727 79.7994 276.346Z" fill="black" fill-opacity="0.2"/>
<path d="M68.9066 267.046L67.7361 265.929C62.755 267.269 57.6443 268.39 52.4305 269.272C55.9785 273.097 59.7175 276.744 63.63 280.198C64.2322 276.019 64.9866 271.904 65.8842 267.863C66.8976 267.6 67.9034 267.326 68.9066 267.046Z" fill="black" fill-opacity="0.2"/>
<path d="M78.014 257.39L76.9529 256.377C72.1465 257.885 67.2068 259.18 62.1577 260.243C65.4089 263.745 68.8336 267.085 72.4155 270.249C73.1648 266.196 74.0612 262.215 75.0997 258.309C76.0779 258.013 77.0484 257.706 78.014 257.39Z" fill="black" fill-opacity="0.2"/>
<path d="M58.9832 256.706L58.7607 256.448C59.8708 257.732 61.0023 258.998 62.1577 260.244C63.3031 256.287 64.5918 252.411 66.0112 248.627C67.0132 248.427 68.0114 248.22 69.0034 248.002L68.0466 246.888C63.112 247.915 58.073 248.712 52.9422 249.272C54.6533 251.527 56.4323 253.731 58.2741 255.884L57.9297 255.483C52.8378 256.324 47.6454 256.929 42.3676 257.294C45.5207 261.452 48.88 265.451 52.4305 269.275C53.4438 265.177 54.6017 261.157 55.8954 257.224C56.9276 257.059 57.9586 256.888 58.9832 256.706Z" fill="black" fill-opacity="0.2"/>
<path d="M50.1336 245.438L49.989 245.23C50.9495 246.593 51.9339 247.941 52.9435 249.271C54.4761 245.448 56.1394 241.717 57.9285 238.095C58.9456 237.995 59.9576 237.887 60.9685 237.767L60.1286 236.57C55.1198 237.101 50.0229 237.396 44.8645 237.442C46.3304 239.835 47.868 242.185 49.471 244.49L49.2108 244.117C44.0611 244.449 38.831 244.539 33.5443 244.375C36.2687 248.825 39.2145 253.138 42.3689 257.295C43.7833 253.315 45.3334 249.429 47.0106 245.644C48.0541 245.585 49.0938 245.516 50.1336 245.438Z" fill="black" fill-opacity="0.2"/>
<path d="M42.448 233.349L42.2695 233.029C43.1068 234.515 43.9705 235.986 44.8632 237.441C46.7679 233.789 48.7933 230.246 50.9356 226.817C51.9565 226.82 52.9761 226.811 53.992 226.793L53.2754 225.515C48.2351 225.546 43.1395 225.33 37.9999 224.862C39.237 227.428 40.5534 229.955 41.9414 232.443L41.6585 231.938C36.5013 231.754 31.2913 231.319 26.0436 230.629C28.3129 235.333 30.8161 239.921 33.543 244.373C35.3446 240.554 37.272 236.84 39.32 233.242C40.3648 233.287 41.4083 233.324 42.448 233.349Z" fill="black" fill-opacity="0.2"/>
<path d="M36.0047 220.548L35.8903 220.287C36.5667 221.823 37.2682 223.35 37.9987 224.863C40.2592 221.418 42.6291 218.097 45.1021 214.901C46.1179 215.005 47.1313 215.101 48.1459 215.181L47.56 213.839C42.5449 213.368 37.4908 212.643 32.4253 211.661C33.3909 214.313 34.4369 216.935 35.5584 219.524L35.3585 219.066C30.2465 218.368 25.1019 217.417 19.9523 216.201C21.7388 221.109 23.7718 225.928 26.0411 230.63C28.2148 227.009 30.5055 223.507 32.9006 220.13C33.9378 220.281 34.9712 220.42 36.0047 220.548Z" fill="black" fill-opacity="0.2"/>
<path d="M30.8752 207.17L30.7608 206.814C31.2888 208.439 31.842 210.056 32.4266 211.662C35.0203 208.461 37.7133 205.393 40.4943 202.461C41.4938 202.667 42.4946 202.862 43.4941 203.046L43.0478 201.654C38.1043 200.685 33.152 199.456 28.2098 197.972C28.9114 200.735 29.6984 203.478 30.5646 206.195L30.3849 205.637C25.3672 204.429 20.3458 202.964 15.3433 201.239C16.6282 206.301 18.1683 211.297 19.9536 216.203C22.4793 212.818 25.1082 209.563 27.8314 206.443C28.846 206.694 29.8619 206.937 30.8752 207.17Z" fill="black" fill-opacity="0.2"/>
<path d="M24.1602 192.317C25.1447 192.671 26.1303 193.013 27.116 193.346L27.0356 192.968C27.3964 194.641 27.7874 196.311 28.2086 197.972C31.1103 195.049 34.0962 192.266 37.1576 189.629C38.1319 189.934 39.1076 190.227 40.0832 190.512L39.7789 189.078C34.9562 187.617 30.1522 185.898 25.3835 183.926C25.806 186.75 26.3139 189.562 26.9061 192.358L26.7803 191.767C21.9085 190.064 17.0606 188.102 12.2567 185.887C13.0274 191.049 14.0583 196.176 15.3432 201.239C18.1972 198.123 21.1391 195.148 24.1602 192.317Z" fill="black" fill-opacity="0.2"/>
<path d="M24.7587 179.212L24.721 178.86C24.9121 180.55 25.1321 182.238 25.3835 183.923C28.5631 181.304 31.813 178.834 35.1221 176.512C36.06 176.914 37.0029 177.304 37.9446 177.685L37.7837 176.225C33.1331 174.286 28.5216 172.096 23.9729 169.661C24.1125 172.508 24.3375 175.348 24.6443 178.181L24.5814 177.604C19.9045 175.423 15.2753 172.992 10.7153 170.314C10.9706 175.522 11.4835 180.721 12.2554 185.884C15.4048 183.071 18.6296 180.405 21.9198 177.891C22.8653 178.342 23.812 178.782 24.7587 179.212Z" fill="black" fill-opacity="0.2"/>
<path d="M23.8183 164.913L23.8158 164.628C23.8396 166.308 23.8912 167.986 23.9742 169.662C27.3964 167.371 30.8764 165.234 34.3967 163.246C35.2931 163.739 36.1895 164.222 37.0909 164.693L37.0746 163.227C32.6378 160.837 28.2639 158.206 23.9742 155.337C23.8346 158.15 23.7806 160.967 23.8057 163.782L23.8007 163.3C19.3614 160.668 14.9925 157.796 10.7153 154.685C10.4601 159.892 10.4601 165.105 10.7153 170.312C14.1275 167.828 17.6025 165.497 21.1215 163.318C22.0192 163.862 22.9156 164.392 23.8183 164.913Z" fill="black" fill-opacity="0.2"/>
<path d="M24.2834 150.597L24.3186 150.202C24.1728 151.91 24.0571 153.624 23.9742 155.338C27.6076 153.393 31.2749 151.605 34.975 149.978C35.8174 150.555 36.6647 151.123 37.5134 151.68L37.6429 150.218C33.4588 147.406 29.3677 144.359 25.3835 141.078C24.9611 143.904 24.6254 146.744 24.3727 149.589L24.4255 148.986C20.2653 145.931 16.2019 142.639 12.2554 139.117C11.4822 144.279 10.9706 149.479 10.7153 154.688C14.3576 152.552 18.04 150.569 21.7577 148.748C22.5962 149.372 23.4398 149.989 24.2834 150.597Z" fill="black" fill-opacity="0.2"/>
<path d="M26.1643 136.391L26.2334 136.023C25.9204 137.702 25.6375 139.388 25.3835 141.078C29.1892 139.503 33.02 138.091 36.8621 136.841C37.6441 137.5 38.4287 138.147 39.2195 138.787L39.4935 137.347C35.6112 134.134 31.8432 130.693 28.2086 127.03C27.5095 129.784 26.8947 132.56 26.3604 135.354L26.466 134.803C22.6314 131.348 18.9163 127.666 15.3432 123.765C14.0596 128.825 13.0287 133.952 12.2567 139.117C16.0913 137.348 19.9548 135.741 23.8346 134.298C24.6066 135.006 25.3835 135.703 26.1643 136.391Z" fill="black" fill-opacity="0.2"/>
<path d="M29.4557 122.444L29.5588 122.096C29.0785 123.732 28.6297 125.377 28.2085 127.029C32.155 125.845 36.1052 124.823 40.0555 123.965C40.7658 124.698 41.4837 125.423 42.2053 126.138L42.6202 124.737C39.0798 121.152 35.6778 117.351 32.4265 113.34C31.4534 116.013 30.5633 118.716 29.7524 121.443L29.9133 120.899C26.4446 117.077 23.1192 113.041 19.9535 108.799C18.1669 113.705 16.6281 118.703 15.3419 123.764C19.3362 122.388 23.3405 121.176 27.346 120.13C28.0438 120.909 28.7479 121.681 29.4557 122.444Z" fill="black" fill-opacity="0.2"/>
<path d="M34.1277 108.902L34.2597 108.579C33.621 110.155 33.0087 111.741 32.4266 113.34C36.4712 112.557 40.5057 111.937 44.5213 111.48C45.1562 112.281 45.7949 113.071 46.4411 113.856L46.9968 112.499C43.8348 108.578 40.83 104.452 37.9987 100.137C36.7591 102.703 35.6012 105.307 34.5199 107.941L34.7374 107.405C31.671 103.255 28.7668 98.906 26.0436 94.3687C23.7731 99.072 21.7414 103.89 19.9548 108.798C24.066 107.83 28.1734 107.027 32.2619 106.387C32.8767 107.234 33.4991 108.073 34.1277 108.902Z" fill="black" fill-opacity="0.2"/>
<path d="M40.1347 95.8941L40.2893 95.6037C39.4998 97.1023 38.7354 98.6135 37.9987 100.139C42.101 99.7651 46.1783 99.5514 50.219 99.4973C50.7684 100.357 51.3266 101.21 51.8924 102.055L52.5801 100.76C49.8268 96.5403 47.2482 92.1362 44.8632 87.5599C43.3784 89.9851 41.9678 92.4543 40.6288 94.9637L40.8928 94.4659C38.2551 90.0303 35.801 85.4125 33.543 80.6274C30.8161 85.0781 28.3129 89.667 26.0436 94.3703C30.2302 93.8196 34.3979 93.4312 38.5305 93.2049C39.0573 94.1088 39.5916 95.004 40.1347 95.8941Z" fill="black" fill-opacity="0.2"/>
<path d="M46.0827 80.7137C46.5177 81.6641 46.9603 82.6108 47.4104 83.5487L47.6216 83.2307C46.6762 84.6576 45.7546 86.1009 44.862 87.5593C48.9807 87.5971 53.0579 87.7907 57.0848 88.1389C57.5475 89.0504 58.0177 89.9544 58.4942 90.8508L59.3051 89.6338C56.9868 85.1618 54.8595 80.5201 52.941 75.7312C51.2123 78.0093 49.554 80.339 47.9648 82.7152L48.3018 82.2085C46.1217 77.5329 44.1365 72.6937 42.3651 67.7075C39.2119 71.8627 36.265 76.1775 33.5405 80.6269C37.7648 80.4974 41.9464 80.5276 46.0827 80.7137Z" fill="black" fill-opacity="0.2"/>
<path d="M55.8766 71.9937L56.0878 71.7359C55.0167 73.0497 53.9669 74.3812 52.9435 75.7314C57.0383 76.1765 61.0778 76.7762 65.0482 77.5205C65.4178 78.4722 65.7962 79.4189 66.1809 80.3593L67.1126 79.2253C65.2493 74.5433 63.5948 69.7156 62.1578 64.7583C60.2267 66.839 58.3597 68.9776 56.5518 71.1689L56.9013 70.744C55.1939 65.8734 53.6991 60.8634 52.4293 55.7275C48.8788 59.5508 45.5195 63.5501 42.3663 67.7078C46.5781 67.9982 50.7395 68.4445 54.8356 69.0392C55.1738 70.0299 55.5208 71.0143 55.8766 71.9937Z" fill="black" fill-opacity="0.2"/>
<path d="M65.448 61.3301L66.5908 60.1885C65.3751 55.1747 64.3831 50.0388 63.6275 44.8037C59.7163 48.2573 55.9772 51.9046 52.4293 55.7291C56.592 56.4357 60.6881 57.2919 64.705 58.2888C64.9451 59.3072 65.1915 60.3205 65.448 61.3301Z" fill="black" fill-opacity="0.2"/>
<path d="M76.0288 51.6652L76.3268 51.4225C75.0029 52.5101 73.6979 53.6202 72.4155 54.7542C76.3419 55.9976 80.184 57.3793 83.9318 58.8931C84.1066 59.8988 84.2901 60.9009 84.4825 61.8991L85.6165 60.9738C84.7113 56.0152 84.0412 50.9574 83.6087 45.814C81.2878 47.4861 79.0173 49.2287 76.7982 51.0366L77.276 50.6468C76.5619 45.5349 76.0854 40.3299 75.8528 35.042C71.6184 38.0921 67.5387 41.3508 63.6287 44.8032C67.7021 45.9196 71.6913 47.1743 75.59 48.5674C75.7271 49.6033 75.8729 50.6368 76.0288 51.6652Z" fill="black" fill-opacity="0.2"/>
<path d="M87.5112 43.1014L87.7677 42.9304C86.3659 43.867 84.9779 44.8288 83.6088 45.8145C87.3943 47.4414 91.0793 49.199 94.6574 51.0773C94.7303 52.0969 94.8133 53.1103 94.9076 54.1236L96.1296 53.3127C95.721 48.29 95.5538 43.1881 95.638 38.0297C93.1889 39.4466 90.7838 40.9364 88.4227 42.4954L88.8552 42.2087C88.6528 37.0528 88.6943 31.8227 88.991 26.541C84.4712 29.1548 80.0847 31.9937 75.8503 35.0437C79.793 36.5574 83.6402 38.2032 87.3817 39.9746C87.4157 41.0194 87.4572 42.0616 87.5112 43.1014Z" fill="black" fill-opacity="0.2"/>
<path d="M74.8747 70.6744L75.9132 69.6371C74.524 64.7943 73.3522 59.8244 72.4143 54.7515C68.8324 57.9147 65.4077 61.2539 62.1565 64.7566C66.1885 65.6064 70.1475 66.6009 74.0261 67.7362C74.3014 68.7219 74.583 69.7 74.8747 70.6744Z" fill="black" fill-opacity="0.2"/>
<path d="M99.7918 35.7178L100.136 35.5367C98.6213 36.3413 97.1227 37.1711 95.6404 38.0298C99.2436 40.0263 102.735 42.1397 106.108 44.3663C106.08 45.3859 106.063 46.4055 106.055 47.4214L107.353 46.7362C107.445 41.6997 107.788 36.6079 108.386 31.4821C105.776 32.6614 103.205 33.9199 100.672 35.2538L101.221 34.9634C101.534 29.8125 102.099 24.6138 102.92 19.3862C98.1599 21.5361 93.5119 23.9261 88.9934 26.5399C92.7664 28.4383 96.4287 30.4575 99.9766 32.5923C99.905 33.637 99.8434 34.678 99.7918 35.7178Z" fill="black" fill-opacity="0.2"/>
<path d="M112.748 29.5973L113.022 29.4867C111.465 30.1254 109.919 30.7892 108.386 31.4819C111.772 33.8279 115.036 36.2821 118.168 38.8343C118.038 39.8463 117.919 40.8584 117.811 41.8692L119.165 41.3198C119.762 36.3173 120.612 31.2845 121.721 26.2468C119.041 27.1457 116.391 28.1264 113.771 29.1837L114.243 28.9913C115.067 23.8983 116.15 18.78 117.494 13.6631C112.544 15.3252 107.677 17.2362 102.92 19.386C106.487 21.6503 109.929 24.0265 113.246 26.5058C113.068 27.5367 112.902 28.5676 112.748 29.5973Z" fill="black" fill-opacity="0.2"/>
<path d="M126.248 24.8078L126.584 24.7085C124.953 25.1925 123.331 25.703 121.718 26.2449C124.851 28.9165 127.852 31.6862 130.711 34.5401C130.48 35.5346 130.261 36.5303 130.051 37.5235L131.458 37.1112C132.552 32.1941 133.905 27.2745 135.513 22.3713C132.742 23.0012 129.991 23.7153 127.263 24.5099L127.797 24.3527C129.128 19.3665 130.721 14.3841 132.571 9.42676C127.476 10.5847 122.441 11.9991 117.491 13.6624C120.812 16.2724 124 18.9818 127.05 21.7817C126.774 22.7887 126.507 23.7983 126.248 24.8078Z" fill="black" fill-opacity="0.2"/>
<path d="M141.269 18.4656C140.891 19.4412 140.523 20.4181 140.164 21.3962L140.531 21.3283C138.853 21.6464 137.18 21.9934 135.514 22.3731C138.364 25.3465 141.071 28.4016 143.631 31.5283C143.301 32.4951 142.983 33.4632 142.675 34.4313L144.116 34.1622C145.699 29.3784 147.537 24.6185 149.628 19.9014C146.799 20.2521 143.979 20.6884 141.176 21.2076L141.754 21.1008C143.579 16.273 145.661 11.4766 147.994 6.72803C142.815 7.37048 137.665 8.27066 132.572 9.42858C135.616 12.3579 138.515 15.3728 141.269 18.4656Z" fill="black" fill-opacity="0.2"/>
<path d="M154.354 19.3921L154.701 19.3632C153.008 19.5128 151.317 19.6901 149.629 19.9C152.167 23.1425 154.557 26.4528 156.794 29.8197C156.37 30.7475 155.957 31.6804 155.553 32.612L157.011 32.4888C159.066 27.8873 161.369 23.3298 163.916 18.8427C161.074 18.9131 158.232 19.0665 155.398 19.3028L155.96 19.2551C158.257 14.6347 160.802 10.0647 163.591 5.57129C158.382 5.69953 153.174 6.08173 147.996 6.72543C150.729 9.94397 153.313 13.2342 155.744 16.5847C155.27 17.5188 154.807 18.4555 154.354 19.3921Z" fill="black" fill-opacity="0.2"/>
<path d="M168.667 18.8037L168.968 18.8075C167.283 18.7911 165.6 18.8012 163.915 18.8427C166.12 22.3215 168.174 25.8518 170.073 29.4198C169.56 30.3037 169.057 31.1875 168.56 32.0776L170.031 32.0965C172.531 27.7188 175.265 23.4115 178.24 19.1947C175.403 18.9847 172.563 18.8615 169.72 18.8175L170.283 18.8251C173.024 14.4524 176.002 10.1564 179.219 5.95598C174.014 5.57252 168.799 5.44428 163.589 5.57252C165.988 9.04627 168.232 12.5766 170.323 16.1472C169.764 17.031 169.21 17.9136 168.667 18.8037Z" fill="black" fill-opacity="0.2"/>
<path d="M167.5 292.984C149.885 292.984 132.797 289.534 116.71 282.731C101.172 276.158 87.2182 266.749 75.2355 254.768C63.2527 242.784 53.8436 228.829 47.272 213.291C40.4678 197.205 37.0179 180.117 37.0179 162.501C37.0179 144.887 40.4678 127.798 47.272 111.711C53.8436 96.1732 63.2515 82.2191 75.2355 70.2351C87.2195 58.2511 101.172 48.8432 116.71 42.2716C132.797 35.4674 149.886 32.0176 167.5 32.0176C185.116 32.0176 202.204 35.4674 218.29 42.2716C233.828 48.8432 247.784 58.2511 259.767 70.2351C271.748 82.2191 281.157 96.1732 287.729 111.711C294.533 127.799 297.983 144.887 297.983 162.501C297.983 180.117 294.533 197.205 287.729 213.291C281.157 228.829 271.748 242.785 259.767 254.768C247.783 266.749 233.828 276.158 218.29 282.731C202.204 289.534 185.116 292.984 167.5 292.984ZM167.5 34.2014C96.7556 34.2014 39.2018 91.7553 39.2018 162.5C39.2018 233.245 96.7556 290.8 167.5 290.8C238.245 290.8 295.8 233.245 295.8 162.5C295.799 91.7565 238.244 34.2014 167.5 34.2014Z" fill="black" fill-opacity="0.2"/>
<path d="M167.499 330C144.888 330 122.952 325.571 102.3 316.835C82.3541 308.399 64.441 296.324 49.06 280.94C33.6776 265.558 21.6019 247.646 13.1645 227.7C4.42925 207.047 0 185.112 0 162.501C0 139.889 4.42925 117.953 13.1645 97.3015C21.6019 77.3554 33.6776 59.4423 49.06 44.0612C64.441 28.6789 82.3541 16.6019 102.3 8.16455C122.953 -0.570749 144.888 -5 167.499 -5C190.111 -5 212.047 -0.570749 232.698 8.16455C252.645 16.6019 270.556 28.6789 285.939 44.0612C301.322 59.4435 313.398 77.3554 321.834 97.3015C330.571 117.953 334.999 139.889 334.999 162.501C334.999 185.112 330.571 207.048 321.834 227.7C313.397 247.646 301.322 265.559 285.939 280.94C270.558 296.324 252.645 308.399 232.698 316.835C212.047 325.571 190.112 330 167.499 330ZM167.499 -0.686414C77.5188 -0.686414 4.31233 72.5188 4.31233 162.501C4.31233 252.482 77.5188 325.688 167.499 325.688C257.481 325.688 330.686 252.482 330.686 162.501C330.686 72.5188 257.482 -0.686414 167.499 -0.686414Z" fill="black" fill-opacity="0.2"/>
</svg>
