<svg width="197" height="187" viewBox="0 0 197 187" fill="none" xmlns="http://www.w3.org/2000/svg">
<path d="M196.5 178.294C186.46 178.294 178.294 186.462 178.294 196.5C178.294 206.539 186.462 214.707 196.5 214.707C206.54 214.707 214.706 206.539 214.706 196.5C214.708 186.462 206.54 178.294 196.5 178.294ZM196.5 212.593C187.627 212.593 180.409 205.375 180.409 196.502C180.409 187.629 187.627 180.41 196.5 180.41C205.373 180.41 212.593 187.629 212.593 196.502C212.593 205.375 205.375 212.593 196.5 212.593Z" fill="black" fill-opacity="0.2"/>
<path d="M185.204 176.92C182.248 175.743 178.845 175.128 175.22 175.22C171.598 175.31 167.752 176.106 163.946 177.698C164.463 181.791 165.686 185.528 167.424 188.711C169.159 191.897 171.401 194.519 173.9 196.503C173.894 192.532 174.938 188.622 176.921 185.207C178.891 181.788 181.788 178.891 185.204 176.92Z" fill="black" fill-opacity="0.2"/>
<path d="M207.798 176.92C207.344 173.771 206.187 170.516 204.293 167.423C202.404 164.33 199.773 161.407 196.503 158.91C193.233 161.407 190.6 164.33 188.711 167.423C186.816 170.515 185.659 173.771 185.205 176.92C188.621 174.94 192.531 173.895 196.501 173.9C200.472 173.895 204.382 174.94 207.798 176.92Z" fill="black" fill-opacity="0.2"/>
<path d="M176.765 163.612L175.341 168.927L180.657 170.351L182.081 165.036L176.765 163.612Z" fill="black" fill-opacity="0.2"/>
<path d="M196.5 152.209C172.078 152.209 152.208 172.078 152.208 196.501C152.208 220.923 172.077 240.791 196.5 240.791C220.923 240.791 240.792 220.923 240.792 196.501C240.792 172.078 220.923 152.209 196.5 152.209ZM196.5 238.676C173.243 238.676 154.323 219.756 154.323 196.501C154.323 173.245 173.243 154.324 196.5 154.324C219.756 154.324 238.677 173.245 238.677 196.501C238.678 219.756 219.756 238.676 196.5 238.676Z" fill="black" fill-opacity="0.2"/>
<path d="M269.651 195.927H269.647C269.611 191.346 269.154 186.752 268.26 182.237C267.368 177.724 266.041 173.293 264.311 169.029L264.315 169.028L264.141 168.609C264.126 168.572 264.112 168.534 264.095 168.495V168.497L264.094 168.494C264.094 168.494 264.095 168.494 264.095 168.495C264.081 168.46 264.064 168.425 264.05 168.388L263.874 167.964L263.868 167.967C262.072 163.73 259.879 159.665 257.321 155.846C254.765 152.028 251.846 148.456 248.625 145.183L248.628 145.18L248.225 144.771L247.817 144.367L247.814 144.37C244.541 141.149 240.969 138.23 237.15 135.674C233.332 133.118 229.267 130.923 225.031 129.128L225.034 129.122L224.61 128.947C224.573 128.932 224.538 128.916 224.503 128.901C224.503 128.901 224.503 128.903 224.504 128.903L224.501 128.901C224.503 128.901 224.503 128.901 224.503 128.901C224.466 128.885 224.427 128.872 224.391 128.856L223.972 128.681L223.97 128.687C219.705 126.959 215.274 125.63 210.761 124.738C206.248 123.844 201.653 123.388 197.072 123.351V123.347L196.5 123.344L195.928 123.347V123.351C191.347 123.387 186.752 123.844 182.239 124.738C177.726 125.63 173.295 126.957 169.031 128.687L169.03 128.683L168.606 128.858C168.569 128.873 168.534 128.886 168.497 128.903H168.499L168.496 128.904C168.496 128.904 168.496 128.903 168.497 128.903C168.465 128.916 168.432 128.931 168.4 128.945L167.966 129.125L167.969 129.131C163.732 130.928 159.667 133.121 155.848 135.678C152.028 138.234 148.457 141.152 145.185 144.375L145.182 144.372L144.775 144.774L144.371 145.183L144.373 145.186C141.152 148.459 138.233 152.031 135.677 155.849C133.121 159.668 130.928 163.733 129.132 167.969L129.126 167.966L128.95 168.391C128.936 168.426 128.919 168.461 128.905 168.498C128.905 168.498 128.906 168.498 128.906 168.497L128.905 168.5V168.498C128.888 168.535 128.875 168.573 128.859 168.612L128.685 169.031L128.689 169.032C126.959 173.298 125.632 177.727 124.739 182.242C123.846 186.755 123.39 191.349 123.353 195.93H123.349L123.346 196.502L123.349 197.075H123.353C123.388 201.656 123.846 206.25 124.738 210.765C125.63 215.278 126.959 219.709 128.688 223.973L128.683 223.974L128.86 224.403C128.875 224.437 128.887 224.473 128.902 224.507V224.505L128.903 224.508H128.902C128.915 224.539 128.928 224.57 128.941 224.603L129.123 225.039L129.129 225.036C130.925 229.274 133.118 233.338 135.674 237.157C138.23 240.976 141.149 244.548 144.371 247.821L144.368 247.824L144.772 248.231L145.18 248.635L145.183 248.632C148.456 251.853 152.028 254.77 155.847 257.328C159.665 259.884 163.73 262.079 167.966 263.874L167.963 263.88L168.392 264.058C168.426 264.073 168.46 264.088 168.494 264.102C168.494 264.101 168.494 264.101 168.493 264.101L168.496 264.102C168.496 264.102 168.494 264.102 168.494 264.104C168.531 264.118 168.568 264.133 168.603 264.148L169.027 264.324L169.028 264.319C173.292 266.049 177.723 267.377 182.237 268.269C186.751 269.163 191.345 269.618 195.926 269.655V269.66L196.498 269.663L197.072 269.66V269.655C201.653 269.62 206.248 269.163 210.761 268.269C215.274 267.377 219.705 266.049 223.969 264.319L223.97 264.324L224.389 264.149C224.426 264.133 224.464 264.12 224.503 264.104H224.501L224.504 264.102V264.104C224.54 264.089 224.575 264.073 224.612 264.058L225.035 263.883L225.032 263.877C229.27 262.08 233.334 259.887 237.153 257.331C240.972 254.775 244.544 251.856 247.817 248.635L247.82 248.638L248.227 248.235L248.631 247.827L248.628 247.824C251.849 244.551 254.768 240.979 257.324 237.16C259.88 233.341 262.073 229.277 263.87 225.041L263.876 225.042L264.051 224.617C264.066 224.582 264.082 224.547 264.097 224.511C264.095 224.511 264.095 224.511 264.095 224.513L264.097 224.51C264.097 224.511 264.097 224.511 264.098 224.513C264.113 224.476 264.128 224.437 264.144 224.399L264.318 223.98L264.314 223.979C266.042 219.713 267.371 215.283 268.263 210.769C269.157 206.256 269.613 201.662 269.65 197.081H269.654L269.657 196.508L269.651 195.927ZM269.141 195.932L257.659 196.02C257.632 192.337 257.272 188.656 256.585 185.037C258.812 186.489 260.989 188.128 263.091 189.948C265.191 191.765 267.21 193.769 269.141 195.932ZM244.507 222.153C243.591 219.8 242.52 217.573 241.324 215.474L251.913 219.964C250.498 223.303 248.778 226.51 246.784 229.538C246.181 226.971 245.423 224.501 244.507 222.153ZM246.264 230.316C244.224 233.312 241.917 236.123 239.374 238.704L231.178 230.636C233.576 230.936 236.045 231.072 238.57 231.021C241.09 230.97 243.662 230.737 246.264 230.316ZM241.628 214.772C243.954 214.135 246.283 213.315 248.591 212.303C250.896 211.291 253.181 210.089 255.421 208.703C254.691 212.252 253.64 215.732 252.275 219.089L241.628 214.772ZM250.66 201.842C248.91 200.022 247.066 198.373 245.159 196.883L256.66 196.972C256.634 200.598 256.28 204.221 255.604 207.783C254.06 205.647 252.408 203.659 250.66 201.842ZM244.507 170.848C245.421 168.5 246.181 166.029 246.784 163.463C248.778 166.491 250.498 169.697 251.913 173.037L241.324 177.526C242.519 175.427 243.591 173.2 244.507 170.848ZM238.57 161.979C236.045 161.928 233.576 162.066 231.177 162.364L239.373 154.295C241.916 156.876 244.222 159.687 246.262 162.681C243.662 162.264 241.09 162.031 238.57 161.979ZM252.275 173.91C253.64 177.267 254.69 180.747 255.42 184.295C253.179 182.908 250.896 181.706 248.59 180.696C246.281 179.684 243.952 178.864 241.626 178.227L252.275 173.91ZM245.16 196.116C247.067 194.626 248.911 192.979 250.66 191.157C252.407 189.34 254.059 187.352 255.603 185.216C256.278 188.778 256.634 192.401 256.66 196.028L245.16 196.116ZM260.544 177.075C259.296 179.56 257.902 181.898 256.398 184.088C255.654 180.483 254.587 176.945 253.202 173.535L263.842 169.221C262.892 171.966 261.79 174.593 260.544 177.075ZM255.517 164.951C258.156 165.823 260.796 166.894 263.412 168.162L252.833 172.647C251.396 169.255 249.649 165.997 247.622 162.919C250.237 163.404 252.876 164.078 255.517 164.951ZM248.274 145.532C248.442 148.432 248.423 151.279 248.221 154.05C248.019 156.823 247.631 159.515 247.084 162.115C245.011 159.072 242.668 156.217 240.085 153.594L248.274 145.532ZM238.951 144.78C241.722 144.578 244.569 144.559 247.469 144.727L239.407 152.916C236.784 150.333 233.929 147.988 230.886 145.917C233.486 145.37 236.178 144.981 238.951 144.78ZM238.705 153.628L230.637 161.823C230.935 159.425 231.073 156.956 231.022 154.431C230.97 151.911 230.737 149.339 230.318 146.739C233.312 148.777 236.124 151.085 238.705 153.628ZM224.839 129.589C226.107 132.205 227.178 134.845 228.05 137.484C228.923 140.125 229.596 142.764 230.082 145.378C227.006 143.352 223.748 141.605 220.355 140.168L224.839 129.589ZM229.538 146.217C226.972 146.82 224.501 147.58 222.153 148.494C219.801 149.411 217.574 150.482 215.476 151.677L219.966 141.088C223.302 142.501 226.51 144.223 229.538 146.217ZM215.925 132.457C218.407 131.211 221.034 130.111 223.78 129.159L219.466 139.799C216.054 138.413 212.518 137.345 208.913 136.603C211.103 135.099 213.441 133.705 215.925 132.457ZM219.091 140.726L214.774 151.375C214.137 149.049 213.317 146.72 212.305 144.41C211.293 142.105 210.091 139.82 208.706 137.58C212.254 138.311 215.734 139.363 219.091 140.726ZM197.069 123.86C199.231 125.791 201.236 127.81 203.053 129.909C204.873 132.012 206.512 134.189 207.964 136.414C204.345 135.729 200.664 135.367 196.981 135.341L197.069 123.86ZM196.973 136.342C200.6 136.369 204.223 136.723 207.785 137.398C205.649 138.942 203.661 140.594 201.844 142.341C200.024 144.091 198.375 145.935 196.886 147.842L196.973 136.342ZM196.116 147.842C194.627 145.935 192.979 144.091 191.158 142.341C189.341 140.594 187.353 138.942 185.217 137.398C188.779 136.723 192.401 136.367 196.028 136.342L196.116 147.842ZM189.948 129.91C191.765 127.811 193.768 125.791 195.932 123.861L196.021 135.342C192.338 135.369 188.656 135.729 185.037 136.416C186.49 134.189 188.128 132.012 189.948 129.91ZM173.91 140.726C177.267 139.361 180.748 138.311 184.295 137.58C182.909 139.82 181.707 142.105 180.696 144.41C179.684 146.718 178.864 149.047 178.227 151.373L173.91 140.726ZM177.527 151.677C175.428 150.482 173.201 149.411 170.848 148.495C168.5 147.581 166.03 146.821 163.463 146.218C166.491 144.224 169.699 142.503 173.038 141.09L177.527 151.677ZM177.075 132.457C179.561 133.707 181.898 135.099 184.089 136.603C180.484 137.347 176.947 138.414 173.535 139.799L169.221 129.159C171.966 130.111 174.593 131.211 177.075 132.457ZM164.951 137.484C165.823 134.845 166.894 132.205 168.162 129.589L172.648 140.168C169.255 141.605 165.997 143.352 162.919 145.379C163.404 142.765 164.078 140.125 164.951 137.484ZM162.364 161.824L154.295 153.628C156.876 151.085 159.688 148.779 162.683 146.739C162.264 149.339 162.031 151.911 161.98 154.431C161.929 156.956 162.067 159.425 162.364 161.824ZM148.494 222.153C147.58 224.501 146.82 226.971 146.217 229.538C144.223 226.51 142.502 223.302 141.089 219.962L151.677 215.474C150.483 217.573 149.412 219.8 148.494 222.153ZM154.431 231.021C156.956 231.073 159.426 230.934 161.825 230.636L153.629 238.706C151.086 236.125 148.779 233.313 146.739 230.318C149.341 230.737 151.912 230.97 154.431 231.021ZM140.726 219.091C139.362 215.734 138.312 212.253 137.581 208.706C139.822 210.092 142.107 211.294 144.412 212.305C146.72 213.317 149.049 214.137 151.375 214.772L140.726 219.091ZM137.399 207.784C136.723 204.222 136.368 200.6 136.343 196.973L147.842 196.884C145.935 198.374 144.092 200.022 142.343 201.843C140.595 203.66 138.943 205.648 137.399 207.784ZM136.343 196.029C136.369 192.402 136.723 188.78 137.399 185.218C138.943 187.354 140.595 189.342 142.341 191.159C144.092 192.979 145.935 194.628 147.842 196.118L136.343 196.029ZM144.412 180.697C142.105 181.708 139.822 182.91 137.581 184.298C138.313 180.75 139.363 177.268 140.726 173.913L151.375 178.23C149.049 178.864 146.72 179.686 144.412 180.697ZM141.089 173.037C142.503 169.697 144.223 166.491 146.217 163.463C146.82 166.029 147.58 168.5 148.494 170.848C149.41 173.2 150.483 175.427 151.677 177.525L141.089 173.037ZM146.739 162.684C148.778 159.689 151.086 156.877 153.629 154.296L161.825 162.364C159.426 162.066 156.957 161.929 154.432 161.979C151.912 162.031 149.34 162.264 146.739 162.684ZM154.05 144.78C156.823 144.981 159.513 145.37 162.115 145.917C159.072 147.99 156.217 150.333 153.595 152.916L145.533 144.727C148.432 144.559 151.28 144.578 154.05 144.78ZM144.727 145.534L152.916 153.596C150.334 156.218 147.988 159.074 145.918 162.116C145.371 159.516 144.983 156.823 144.781 154.051C144.578 151.28 144.559 148.434 144.727 145.534ZM137.484 164.951C140.126 164.078 142.764 163.405 145.378 162.92C143.353 165.997 141.605 169.255 140.168 172.647L129.589 168.162C132.205 166.894 134.846 165.823 137.484 164.951ZM139.8 173.535C138.413 176.945 137.345 180.483 136.604 184.088C135.099 181.898 133.707 179.56 132.458 177.075C131.211 174.593 130.111 171.966 129.16 169.221L139.8 173.535ZM129.909 189.949C132.012 188.129 134.189 186.491 136.415 185.038C135.728 188.657 135.368 192.337 135.341 196.022L123.859 195.933C125.791 193.769 127.81 191.765 129.909 189.949ZM123.862 197.069L135.344 196.98C135.371 200.663 135.73 204.345 136.418 207.964C134.192 206.511 132.014 204.873 129.912 203.053C127.812 201.235 125.791 199.233 123.862 197.069ZM132.458 215.926C133.705 213.44 135.099 211.103 136.604 208.912C137.347 212.517 138.415 216.054 139.8 219.465L129.16 223.78C130.111 221.035 131.211 218.408 132.458 215.926ZM137.484 228.051C134.846 227.179 132.205 226.108 129.589 224.84L140.168 220.355C141.605 223.747 143.354 227.005 145.379 230.083C142.766 229.597 140.126 228.923 137.484 228.051ZM144.727 247.468C144.559 244.568 144.578 241.72 144.781 238.951C144.983 236.178 145.371 233.486 145.918 230.886C147.99 233.928 150.334 236.784 152.916 239.406L144.727 247.468ZM154.05 248.222C151.28 248.422 148.434 248.443 145.533 248.275L153.595 240.086C156.217 242.669 159.072 245.014 162.115 247.086C159.515 247.632 156.823 248.02 154.05 248.222ZM154.297 239.374L162.364 231.178C162.067 233.576 161.929 236.045 161.98 238.57C162.031 241.089 162.264 243.66 162.683 246.262C159.689 244.223 156.878 241.917 154.297 239.374ZM168.162 263.412C166.894 260.796 165.823 258.155 164.951 255.517C164.078 252.875 163.406 250.237 162.919 247.623C165.996 249.648 169.254 251.396 172.646 252.832L168.162 263.412ZM163.463 246.784C166.03 246.181 168.5 245.421 170.848 244.507C173.201 243.591 175.428 242.518 177.527 241.324L173.037 251.912C169.699 250.499 166.493 248.778 163.463 246.784ZM177.077 260.543C174.594 261.79 171.968 262.89 169.223 263.841L173.537 253.201C176.947 254.588 180.485 255.655 184.09 256.397C181.898 257.902 179.562 259.296 177.077 260.543ZM173.912 252.275L178.229 241.626C178.866 243.952 179.686 246.281 180.698 248.589C181.708 250.896 182.91 253.179 184.296 255.419C180.749 254.689 177.269 253.639 173.912 252.275ZM195.934 269.141C193.771 267.211 191.767 265.189 189.95 263.09C188.13 260.989 186.491 258.812 185.038 256.585C188.658 257.272 192.338 257.632 196.022 257.658L195.934 269.141ZM196.029 256.658C192.403 256.632 188.78 256.278 185.218 255.602C187.354 254.058 189.342 252.408 191.159 250.66C192.979 248.909 194.628 247.066 196.118 245.158L196.029 256.658ZM187.087 243.756C184.027 243.151 181.03 242.244 178.146 241.055L177.996 240.993C175.112 239.793 172.345 238.307 169.743 236.567C167.121 234.812 164.67 232.797 162.435 230.564C160.202 228.331 158.188 225.878 156.434 223.257C154.693 220.657 153.21 217.89 152.009 215.008L151.946 214.856C150.757 211.973 149.85 208.976 149.245 205.915C148.634 202.825 148.328 199.672 148.328 196.501C148.328 193.33 148.634 190.177 149.245 187.087C149.851 184.019 150.76 181.016 151.953 178.127L152 178.011C153.202 175.124 154.689 172.351 156.432 169.745C158.188 167.124 160.202 164.671 162.435 162.436C164.668 160.203 167.121 158.189 169.742 156.435C172.341 154.696 175.105 153.212 177.985 152.012L178.148 151.944C181.03 150.755 184.025 149.849 187.084 149.245C190.174 148.634 193.327 148.327 196.498 148.327C199.67 148.329 202.823 148.634 205.913 149.245C208.978 149.851 211.978 150.758 214.864 151.95L214.994 152.003C217.88 153.205 220.652 154.69 223.255 156.433C225.877 158.189 228.329 160.203 230.563 162.436C232.796 164.671 234.811 167.122 236.565 169.743C238.309 172.349 239.798 175.124 241 178.014L241.044 178.121C242.239 181.011 243.149 184.017 243.755 187.087C244.367 190.177 244.672 193.33 244.674 196.501C244.672 199.672 244.367 202.825 243.755 205.915C243.15 208.973 242.246 211.965 241.059 214.846L240.986 215.019C239.787 217.896 238.303 220.66 236.566 223.256C234.811 225.878 232.796 228.33 230.563 230.564C228.33 232.797 225.877 234.812 223.256 236.566C220.653 238.309 217.882 239.794 214.995 240.996L214.87 241.048C211.982 242.241 208.981 243.148 205.914 243.754C202.824 244.365 199.671 244.672 196.5 244.672C193.33 244.673 190.177 244.368 187.087 243.756ZM229.54 246.784C226.512 248.778 223.304 250.498 219.964 251.912L215.475 241.324C217.574 242.518 219.801 243.589 222.153 244.507C224.501 245.421 226.973 246.181 229.54 246.784ZM196.885 245.158C198.375 247.066 200.022 248.909 201.844 250.658C203.661 252.406 205.649 254.057 207.785 255.601C204.223 256.276 200.6 256.632 196.973 256.657L196.885 245.158ZM203.053 263.09C201.236 265.189 199.233 267.21 197.069 269.139L196.981 257.658C200.664 257.632 204.345 257.272 207.964 256.585C206.512 258.812 204.873 260.989 203.053 263.09ZM212.305 248.589C213.317 246.281 214.137 243.952 214.774 241.626L219.091 252.275C215.734 253.639 212.254 254.689 208.706 255.419C210.093 253.181 211.295 250.896 212.305 248.589ZM215.926 260.543C213.441 259.294 211.103 257.902 208.913 256.397C212.518 255.654 216.054 254.586 219.466 253.201L223.78 263.841C221.035 262.89 218.408 261.79 215.926 260.543ZM228.051 255.517C227.18 258.155 226.109 260.796 224.84 263.412L220.355 252.832C223.748 251.396 227.006 249.648 230.084 247.622C229.597 250.237 228.924 252.875 228.051 255.517ZM231.022 238.57C231.073 236.045 230.936 233.576 230.637 231.176L238.706 239.372C236.125 241.915 233.314 244.222 230.318 246.262C230.739 243.661 230.97 241.089 231.022 238.57ZM238.951 248.22C236.178 248.018 233.486 247.63 230.886 247.083C233.929 245.011 236.784 242.667 239.407 240.085L247.469 248.273C244.569 248.442 241.722 248.422 238.951 248.22ZM248.274 247.467L240.085 239.405C242.668 236.782 245.013 233.927 247.085 230.884C247.631 233.486 248.02 236.178 248.222 238.951C248.423 241.72 248.444 244.567 248.274 247.467ZM255.517 228.049C252.876 228.923 250.237 229.595 247.622 230.08C249.647 227.004 251.395 223.746 252.831 220.353L263.411 224.839C260.796 226.107 258.156 227.178 255.517 228.049ZM253.202 219.465C254.588 216.054 255.656 212.517 256.398 208.912C257.902 211.103 259.294 213.44 260.544 215.926C261.79 218.408 262.89 221.035 263.842 223.781L253.202 219.465ZM263.092 203.053C260.989 204.873 258.812 206.511 256.587 207.964C257.272 204.345 257.634 200.663 257.659 196.98L269.141 197.069C267.212 199.231 265.191 201.235 263.092 203.053Z" fill="black" fill-opacity="0.2"/>
<path d="M147.387 135.316C147.938 135.316 148.494 135.145 148.966 134.793C150.098 133.956 150.384 132.371 149.595 131.188C148.782 129.968 147.134 129.639 145.915 130.452C145.851 130.495 145.786 130.542 145.726 130.589C144.581 131.505 144.395 133.175 145.311 134.319C145.838 134.976 146.608 135.316 147.387 135.316Z" fill="black" fill-opacity="0.2"/>
<path d="M139.48 142.271C140.16 142.271 140.84 142.012 141.359 141.494C142.396 140.457 142.396 138.777 141.359 137.742C140.322 136.705 138.642 136.705 137.605 137.742L137.602 137.745C136.565 138.782 136.567 140.46 137.604 141.497C138.121 142.012 138.8 142.271 139.48 142.271Z" fill="black" fill-opacity="0.2"/>
<path d="M130.881 149.617C131.371 150.009 131.956 150.198 132.537 150.198C133.316 150.198 134.087 149.857 134.611 149.202C134.66 149.142 134.707 149.078 134.748 149.013C135.561 147.794 135.232 146.146 134.012 145.334C132.828 144.544 131.241 144.832 130.404 145.965C129.561 147.106 129.763 148.723 130.881 149.617Z" fill="black" fill-opacity="0.2"/>
<path d="M175.525 121.371C175.729 121.371 175.935 121.347 176.14 121.299C177.49 120.982 178.379 119.666 178.148 118.28C177.907 116.834 176.54 115.856 175.093 116.098C174.994 116.114 174.892 116.138 174.797 116.165C173.388 116.567 172.571 118.036 172.974 119.445C173.308 120.611 174.37 121.371 175.525 121.371Z" fill="black" fill-opacity="0.2"/>
<path d="M165.559 124.772C165.889 124.772 166.224 124.71 166.546 124.581C167.795 124.082 168.49 122.709 168.112 121.387C167.71 119.979 166.24 119.162 164.832 119.564C164.674 119.61 164.518 119.671 164.37 119.744C163.059 120.399 162.528 121.994 163.183 123.305C163.649 124.234 164.586 124.772 165.559 124.772Z" fill="black" fill-opacity="0.2"/>
<path d="M156.13 129.447C156.528 129.447 156.934 129.358 157.314 129.167C157.413 129.119 157.51 129.061 157.603 129.001C158.823 128.188 159.152 126.54 158.339 125.321C157.561 124.153 156.015 123.802 154.814 124.489C153.596 125.182 153.121 126.714 153.754 127.981C154.218 128.909 155.156 129.447 156.13 129.447Z" fill="black" fill-opacity="0.2"/>
<path d="M125.502 158.682C125.882 158.872 126.288 158.962 126.686 158.962C127.615 158.962 128.512 158.471 128.997 157.617C129.682 156.416 129.329 154.875 128.163 154.096C126.943 153.284 125.295 153.613 124.483 154.832C124.422 154.924 124.365 155.023 124.316 155.121C123.66 156.433 124.191 158.025 125.502 158.682Z" fill="black" fill-opacity="0.2"/>
<path d="M120.845 168.135C121.226 168.325 121.632 168.415 122.03 168.415C123.003 168.415 123.941 167.878 124.406 166.948C124.48 166.802 124.54 166.644 124.586 166.486C124.989 165.077 124.173 163.608 122.763 163.206C121.443 162.829 120.07 163.521 119.57 164.771C119.058 166.04 119.599 167.512 120.845 168.135Z" fill="black" fill-opacity="0.2"/>
<path d="M117.928 178.298C118.171 178.367 118.418 178.401 118.658 178.401C119.813 178.401 120.875 177.642 121.208 176.476C121.236 176.381 121.258 176.279 121.275 176.18C121.515 174.735 120.539 173.367 119.093 173.125C117.705 172.892 116.393 173.783 116.074 175.131C115.748 176.504 116.558 177.906 117.928 178.298Z" fill="black" fill-opacity="0.2"/>
<path d="M116.251 188.708C116.378 188.726 116.505 188.735 116.63 188.735C117.921 188.735 119.048 187.794 119.25 186.485C119.474 185.05 118.5 183.699 117.064 183.46C115.618 183.22 114.251 184.196 114.009 185.642C114.006 185.662 114.002 185.686 113.999 185.707C113.793 187.156 114.8 188.5 116.251 188.708Z" fill="black" fill-opacity="0.2"/>
<path d="M185.853 119.311C185.978 119.311 186.103 119.302 186.232 119.284C186.252 119.281 186.276 119.277 186.296 119.274C187.742 119.033 188.718 117.665 188.478 116.219C188.239 114.787 186.894 113.814 185.465 114.03C184.022 114.246 183.022 115.585 183.229 117.03C183.417 118.355 184.553 119.311 185.853 119.311Z" fill="black" fill-opacity="0.2"/>
<path d="M196.367 118.613C197.833 118.613 199.02 117.424 199.02 115.959C199.02 114.493 197.832 113.306 196.367 113.306H196.364C194.898 113.306 193.712 114.495 193.712 115.959C193.712 117.424 194.903 118.613 196.367 118.613Z" fill="black" fill-opacity="0.2"/>
<path d="M332.422 196.456C332.421 184.547 330.872 172.729 327.82 161.328C324.761 149.872 320.195 138.846 314.242 128.555L314.22 128.517C314.216 128.51 314.21 128.501 314.206 128.492L314.195 128.477C308.266 118.229 301.004 108.781 292.613 100.392C284.225 92.0009 274.775 84.7399 264.526 78.8078L264.511 78.799C264.502 78.7945 264.495 78.7886 264.488 78.7842L264.449 78.7621C254.159 72.8093 243.131 68.24 231.675 65.1825C220.273 62.1295 208.45 60.5808 196.538 60.5808H196.466C184.556 60.5808 172.733 62.1295 161.329 65.1825C149.872 68.24 138.845 72.8108 128.555 78.7621L128.517 78.7842C128.508 78.7886 128.5 78.7931 128.492 78.799L128.477 78.8078C118.229 84.7399 108.779 92.0009 100.391 100.392C92.0007 108.781 84.7397 118.229 78.8076 128.477L78.784 128.517C78.781 128.521 78.7795 128.526 78.7766 128.53L78.7619 128.555C72.8091 138.846 68.2398 149.872 65.1823 161.329C62.1292 172.73 60.582 184.55 60.5806 196.457V196.502V196.546C60.582 208.454 62.1292 220.274 65.1823 231.674C68.2398 243.13 72.8091 254.158 78.7619 264.448L78.784 264.486C78.7884 264.494 78.7928 264.503 78.7987 264.51L78.8076 264.525C84.7397 274.774 92.0007 284.224 100.391 292.612C108.779 301.002 118.229 308.263 128.477 314.194L128.492 314.203C128.5 314.209 128.509 314.213 128.517 314.219L128.555 314.241C138.845 320.194 149.872 324.762 161.329 327.821C172.729 330.872 184.547 332.421 196.457 332.422H196.469H196.501H196.534H196.546C208.456 332.421 220.276 330.872 231.674 327.821C243.126 324.763 254.154 320.195 264.448 314.241L264.486 314.219C264.493 314.215 264.502 314.209 264.511 314.203L264.524 314.194C274.772 308.265 284.222 301.004 292.611 292.612C301.002 284.222 308.265 274.772 314.194 264.525L314.219 264.486C314.225 264.476 314.231 264.466 314.237 264.455L314.241 264.448C320.194 254.158 324.76 243.13 327.819 231.674C330.871 220.273 332.419 208.453 332.421 196.546V196.502L332.422 196.456ZM162.429 323.707C151.319 320.741 140.626 316.308 130.646 310.53L130.627 310.518C120.694 304.772 111.534 297.734 103.403 289.601C95.2706 281.47 88.2323 272.309 82.4845 262.376L82.4727 262.355C76.6955 252.377 72.2634 241.684 69.2973 230.575C66.3372 219.516 64.8372 208.052 64.8401 196.503C64.8372 184.953 66.3372 173.489 69.2973 162.433C72.2634 151.321 76.6955 140.629 82.4727 130.65C88.222 120.709 95.2647 111.542 103.403 103.405C111.54 95.2649 120.707 88.2237 130.648 82.4745C140.626 76.6987 151.319 72.2666 162.431 69.299C173.476 66.3418 184.929 64.8418 196.47 64.8418H196.534C208.077 64.8418 219.528 66.3418 230.575 69.299C241.687 72.2651 252.379 76.6987 262.355 82.4745C272.297 88.2237 281.464 95.2649 289.602 103.405C297.741 111.542 304.782 120.707 310.531 130.65L310.546 130.678C316.315 140.648 320.744 151.332 323.708 162.433C326.669 173.489 328.166 184.953 328.163 196.503C328.166 208.053 326.667 219.518 323.708 230.575C320.741 241.687 316.309 252.38 310.531 262.355L310.52 262.376C304.772 272.311 297.734 281.471 289.601 289.601C281.465 297.738 272.299 304.781 262.355 310.53L262.328 310.545C252.358 316.315 241.674 320.743 230.573 323.706C219.526 326.661 208.075 328.161 196.532 328.161H196.469C184.928 328.161 173.475 326.663 162.429 323.707Z" fill="black" fill-opacity="0.2"/>
<path d="M196.497 286.477H196.506H196.507H196.546C204.451 286.474 212.277 285.451 219.81 283.435C227.367 281.417 234.646 278.402 241.444 274.472L241.48 274.449L241.519 274.427C248.305 270.498 254.564 265.687 260.125 260.125C265.685 254.565 270.498 248.305 274.429 241.518L274.437 241.503C274.442 241.495 274.446 241.487 274.452 241.479L274.474 241.441C278.403 234.644 281.418 227.366 283.437 219.807C285.458 212.258 286.48 204.416 286.48 196.5C286.48 188.583 285.457 180.739 283.437 173.192C281.42 165.633 278.405 158.354 274.474 151.559L274.452 151.521L274.43 151.481C270.499 144.695 265.688 138.436 260.126 132.875C254.566 127.313 248.306 122.501 241.52 118.573L241.482 118.551C241.478 118.548 241.475 118.546 241.47 118.544L241.445 118.529C234.649 114.6 227.37 111.583 219.811 109.566C212.264 107.547 204.425 106.523 196.512 106.523H196.496C188.583 106.523 180.742 107.547 173.196 109.566C165.639 111.583 158.36 114.598 151.562 118.529L151.555 118.533C151.545 118.539 151.536 118.545 151.525 118.551L151.486 118.573C144.701 122.501 138.44 127.313 132.88 132.875C127.319 138.434 122.508 144.694 118.577 151.481L118.568 151.496C118.564 151.503 118.558 151.512 118.554 151.521L118.532 151.559C114.601 158.357 111.586 165.635 109.569 173.194C107.548 180.742 106.524 188.586 106.524 196.502C106.524 204.416 107.548 212.258 109.567 219.808C111.585 227.366 114.599 234.644 118.53 241.442L118.535 241.45C118.54 241.46 118.546 241.47 118.552 241.479L118.574 241.518C122.504 248.305 127.315 254.563 132.877 260.125C138.438 265.687 144.698 270.498 151.483 274.427L151.522 274.449C151.533 274.455 151.542 274.46 151.552 274.466L151.559 274.47C158.357 278.399 165.636 281.415 173.193 283.433C180.726 285.449 188.552 286.471 196.457 286.476H196.497V286.477ZM173.775 281.259C166.394 279.29 159.286 276.343 152.649 272.5C146.02 268.665 139.903 263.966 134.471 258.531C129.037 253.099 124.337 246.984 120.502 240.352C116.66 233.714 113.713 226.605 111.743 219.227C109.774 211.87 108.775 204.221 108.775 196.5C108.775 188.779 109.774 181.132 111.743 173.773C113.71 166.405 116.651 159.306 120.486 152.673L120.502 152.646C124.337 146.017 129.036 139.9 134.47 134.468C139.902 129.035 146.018 124.336 152.649 120.499C159.286 116.659 166.394 113.712 173.775 111.741C181.133 109.772 188.777 108.774 196.506 108.774C204.227 108.774 211.873 109.772 219.228 111.741C226.607 113.712 233.717 116.659 240.354 120.499C246.985 124.336 253.101 129.035 258.532 134.468C263.966 139.902 268.666 146.018 272.499 152.646L272.516 152.673C276.35 159.306 279.293 166.405 281.259 173.773C283.228 181.13 284.226 188.778 284.226 196.5C284.226 204.223 283.228 211.872 281.259 219.227C279.291 226.605 276.343 233.714 272.499 240.352L272.488 240.372C268.657 246.994 263.961 253.103 258.532 258.531C253.098 263.964 246.983 268.665 240.354 272.498L240.342 272.506C233.706 276.346 226.6 279.29 219.227 281.258C211.872 283.225 204.224 284.225 196.5 284.225H196.496C188.777 284.227 181.133 283.227 173.775 281.259Z" fill="black" fill-opacity="0.2"/>
<path d="M103.967 189.334L104.021 189.351L104.026 189.295C104.391 184.523 105.13 179.751 106.225 175.116L106.234 175.082L106.203 175.065C103.94 173.911 101.67 172.698 99.4564 171.462L99.446 171.456H99.4342C89.3207 171.529 79.0465 172.377 68.8976 173.975L68.7678 173.998L68.8829 174.06C80.1188 180.244 91.924 185.384 103.967 189.334Z" fill="black" fill-opacity="0.2"/>
<path d="M106.594 173.378L106.644 173.406L106.657 173.35C107.844 168.727 109.405 164.164 111.293 159.789L111.308 159.757L111.278 159.736C109.26 158.211 107.24 156.621 105.268 155.008L105.259 155L105.247 154.999C95.2634 153.298 84.9994 152.337 74.7399 152.139L74.6086 152.136L74.7104 152.219C84.7192 160.295 95.4448 167.415 106.594 173.378Z" fill="black" fill-opacity="0.2"/>
<path d="M111.965 158.141L112.011 158.177L112.035 158.123C113.269 155.41 114.655 152.721 116.152 150.132C117.03 148.615 117.978 147.079 118.974 145.566L118.993 145.537L118.97 145.511C117.247 143.656 115.533 141.737 113.875 139.808L113.866 139.799L113.856 139.795C104.318 136.386 94.3783 133.65 84.3135 131.662L84.1852 131.637L84.2707 131.736C92.7249 141.442 102.043 150.327 111.965 158.141Z" fill="black" fill-opacity="0.2"/>
<path d="M119.922 144.055L119.959 144.098L119.992 144.051C122.694 140.117 125.729 136.358 129.014 132.874L129.039 132.849L129.02 132.818C127.646 130.695 126.291 128.508 124.99 126.318L124.984 126.307L124.974 126.302C116.172 121.299 106.856 116.883 97.2854 113.178L97.163 113.131L97.2308 113.243C103.88 124.266 111.514 134.632 119.922 144.055Z" fill="black" fill-opacity="0.2"/>
<path d="M130.21 131.552L130.239 131.601L130.281 131.561C133.624 128.15 137.264 124.968 141.099 122.107L141.127 122.086L141.114 122.054C140.127 119.727 139.169 117.339 138.266 114.957L138.261 114.945L138.253 114.938C130.45 108.492 122.037 102.535 113.245 97.2312L113.133 97.1633L113.18 97.2857C117.821 109.274 123.551 120.805 130.21 131.552Z" fill="black" fill-opacity="0.2"/>
<path d="M156.426 112.765L156.438 112.821L156.49 112.796C160.791 110.734 165.289 108.997 169.857 107.629L169.891 107.619L169.89 107.584C169.76 105.041 169.679 102.47 169.648 99.9405V99.9288L169.642 99.9184C164.531 91.1855 158.67 82.7047 152.22 74.7121L152.137 74.6104L152.14 74.7416C152.387 87.5911 153.831 100.385 156.426 112.765Z" fill="black" fill-opacity="0.2"/>
<path d="M171.55 107.141L171.605 107.126C176.193 105.851 180.928 104.926 185.678 104.374L185.714 104.37L185.718 104.334C186.035 101.811 186.404 99.2651 186.816 96.7666L186.817 96.7548L186.813 96.743C183.292 87.2343 179.002 77.8612 174.061 68.8819L173.999 68.7668L173.978 68.8966C171.974 81.6148 171.156 94.4628 171.55 107.084V107.141Z" fill="black" fill-opacity="0.2"/>
<path d="M142.505 121.01L142.527 121.063L142.573 121.029C145.002 119.289 147.546 117.647 150.132 116.152C151.66 115.267 153.247 114.408 154.851 113.6L154.882 113.584L154.875 113.55C154.31 111.094 153.779 108.576 153.301 106.066L153.3 106.054L153.292 106.045C146.735 98.3435 139.483 91.0176 131.735 84.2684L131.636 84.1829L131.661 84.3127C134.151 96.9173 137.8 109.262 142.505 121.01Z" fill="black" fill-opacity="0.2"/>
<path d="M196.501 103.751C198.292 103.751 200.103 103.804 201.883 103.904L201.917 103.906L201.928 103.873C202.674 101.444 203.476 98.9986 204.31 96.6033L204.314 96.593L204.312 96.5812C202.482 86.6624 199.869 76.689 196.544 66.9413L196.503 66.8159L196.462 66.9413C192.293 79.161 189.261 91.6727 187.448 104.13L187.441 104.186L187.498 104.18C190.463 103.897 193.494 103.752 196.501 103.751Z" fill="black" fill-opacity="0.2"/>
<path d="M101.291 92.6736C101.953 92.6736 102.614 92.4376 103.135 91.9612C104.201 90.9966 104.344 89.355 103.434 88.2193C102.489 87.0365 100.763 86.8447 99.5816 87.7901C99.5034 87.8536 99.4253 87.9229 99.3545 87.9951C98.2837 89.0659 98.2837 90.8019 99.3545 91.8712C99.8884 92.4066 100.589 92.6736 101.291 92.6736Z" fill="black" fill-opacity="0.2"/>
<path d="M93.4137 100.275C94.1158 100.275 94.8179 100.008 95.3532 99.4728C95.424 99.4005 95.4948 99.3238 95.5583 99.2442C96.5037 98.0628 96.3119 96.3371 95.1291 95.3917C93.9919 94.4817 92.3533 94.6248 91.3872 95.6911C90.4078 96.7663 90.4373 98.433 91.4772 99.4728C92.0125 100.007 92.7131 100.275 93.4137 100.275Z" fill="black" fill-opacity="0.2"/>
<path d="M109.723 85.6972C110.296 85.6972 110.869 85.5202 111.358 85.1559C112.524 84.2916 112.819 82.656 112.005 81.4347C111.166 80.1752 109.464 79.8344 108.204 80.6751C108.138 80.7179 108.071 80.7681 108.009 80.8182C106.828 81.7636 106.636 83.4878 107.582 84.6692C108.123 85.3447 108.918 85.6972 109.723 85.6972Z" fill="black" fill-opacity="0.2"/>
<path d="M77.9861 116.704C78.4537 117.017 78.9817 117.164 79.5038 117.164C80.3607 117.164 81.2014 116.763 81.7339 116.02C82.582 114.844 82.3666 113.195 81.2221 112.28C80.0392 111.334 78.315 111.526 77.3696 112.707C77.3195 112.769 77.2693 112.837 77.228 112.902C76.3859 114.163 76.7251 115.865 77.9861 116.704Z" fill="black" fill-opacity="0.2"/>
<path d="M84.4271 107.853C84.9315 108.257 85.5362 108.454 86.1365 108.454C86.9388 108.454 87.7323 108.103 88.2736 107.43C89.2117 106.268 89.0479 104.563 87.896 103.603C86.7338 102.634 85.0052 102.791 84.0362 103.954C84.0244 103.968 84.0111 103.986 83.9993 103.999C83.0539 105.184 83.2442 106.908 84.4271 107.853Z" fill="black" fill-opacity="0.2"/>
<path d="M147.974 64.7919C148.261 64.7919 148.552 64.7462 148.84 64.6503C148.912 64.6252 148.986 64.5972 149.056 64.5677C150.447 63.9719 151.092 62.3612 150.496 60.9689C149.915 59.6164 148.375 58.9689 147.011 59.4837C145.636 59.9969 144.904 61.5117 145.372 62.9158C145.757 64.0663 146.825 64.7919 147.974 64.7919Z" fill="black" fill-opacity="0.2"/>
<path d="M158.401 61.4758C158.609 61.4758 158.82 61.4522 159.031 61.4021C160.428 61.0761 161.347 59.7162 161.109 58.2826C160.86 56.7885 159.444 55.7797 157.954 56.0304C157.854 56.0466 157.749 56.0702 157.649 56.0997C156.193 56.5157 155.351 58.0319 155.767 59.4876C156.111 60.6897 157.21 61.4758 158.401 61.4758Z" fill="black" fill-opacity="0.2"/>
<path d="M137.841 68.8966C138.182 68.8966 138.528 68.8331 138.86 68.6989C140.151 68.1857 140.868 66.7668 140.478 65.4025C140.062 63.9453 138.546 63.1046 137.09 63.519C136.928 63.5662 136.766 63.6297 136.614 63.7049C135.26 64.3819 134.711 66.0279 135.388 67.3818C135.867 68.342 136.837 68.8966 137.841 68.8966Z" fill="black" fill-opacity="0.2"/>
<path d="M128.05 73.7707C128.462 73.7707 128.879 73.6778 129.273 73.4816C129.376 73.43 129.477 73.371 129.571 73.3076C130.829 72.4684 131.17 70.7678 130.332 69.5067C129.527 68.2988 127.93 67.9374 126.691 68.6483C125.435 69.3637 124.943 70.9448 125.598 72.2545C126.077 73.2161 127.045 73.7707 128.05 73.7707Z" fill="black" fill-opacity="0.2"/>
<path d="M118.661 79.3827C119.172 79.3827 119.688 79.2396 120.148 78.9417C121.385 78.1438 121.776 76.5007 121.012 75.2279C120.234 73.9299 118.549 73.5096 117.253 74.2883C117.216 74.3105 117.176 74.3355 117.139 74.3606C115.879 75.1998 115.539 76.9004 116.378 78.1615C116.906 78.9535 117.775 79.3827 118.661 79.3827Z" fill="black" fill-opacity="0.2"/>
<path d="M59.4109 156.188C59.6617 156.262 59.9154 156.294 60.1646 156.294C61.3416 156.294 62.4257 155.53 62.7841 154.353C63.2221 152.936 62.4463 151.42 61.0304 150.949C59.5953 150.47 58.0422 151.248 57.5629 152.684C57.5511 152.72 57.5378 152.762 57.5275 152.8C57.113 154.256 57.9552 155.772 59.4109 156.188Z" fill="black" fill-opacity="0.2"/>
<path d="M72.3312 126.067C72.725 126.265 73.1424 126.356 73.5539 126.356C74.5156 126.356 75.4433 125.851 75.9418 124.966C76.6454 123.727 76.2825 122.135 75.0775 121.331C73.8194 120.494 72.1174 120.833 71.2767 122.091C71.2133 122.187 71.1543 122.287 71.1041 122.39C70.4286 123.746 70.9773 125.39 72.3312 126.067Z" fill="black" fill-opacity="0.2"/>
<path d="M62.6292 145.689C63.023 145.887 63.4404 145.978 63.8534 145.978C64.8593 145.978 65.8268 145.424 66.3062 144.464C66.3814 144.313 66.4448 144.149 66.492 143.987C66.908 142.531 66.0658 141.014 64.61 140.599C63.2457 140.209 61.8269 140.927 61.3121 142.217C60.7826 143.527 61.3431 145.045 62.6292 145.689Z" fill="black" fill-opacity="0.2"/>
<path d="M67.1041 135.689C67.4964 135.887 67.9153 135.978 68.3268 135.978C69.3327 135.978 70.3017 135.422 70.7811 134.462C71.458 133.108 70.9094 131.461 69.5554 130.784C68.2014 130.107 66.5554 130.657 65.8785 132.009L65.877 132.012C65.2 133.366 65.7501 135.012 67.1041 135.689Z" fill="black" fill-opacity="0.2"/>
<path d="M53.6087 188.447C53.74 188.466 53.8712 188.475 53.9995 188.475C55.3417 188.475 56.5143 187.488 56.709 186.122C56.7267 185.994 56.7355 185.861 56.7355 185.732C56.7355 184.217 55.5084 182.991 53.9951 182.991C52.56 182.991 51.3816 184.094 51.265 185.5C51.1412 186.938 52.1633 188.239 53.6087 188.447Z" fill="black" fill-opacity="0.2"/>
<path d="M56.5305 166.746C56.7827 166.819 57.0349 166.853 57.2842 166.853C58.4774 166.853 59.5747 166.068 59.9184 164.864C59.9464 164.766 59.9715 164.661 59.9877 164.559C60.2369 163.067 59.2281 161.654 57.7355 161.404C56.3019 161.167 54.942 162.086 54.6161 163.484C54.2813 164.9 55.1161 166.342 56.5305 166.746Z" fill="black" fill-opacity="0.2"/>
<path d="M54.8372 177.573C54.9685 177.593 55.0998 177.602 55.2281 177.602C56.5629 177.602 57.7295 176.626 57.9345 175.27C58.1602 173.792 57.1558 172.4 55.675 172.154C54.1809 171.903 52.7709 172.913 52.5216 174.406C52.5187 174.427 52.5142 174.45 52.5113 174.472C52.2989 175.971 53.3387 177.357 54.8372 177.573Z" fill="black" fill-opacity="0.2"/>
<path d="M169.053 58.973C169.182 58.973 169.313 58.9642 169.444 58.9465C169.606 58.9214 169.77 58.8845 169.926 58.8315C171.363 58.3536 172.137 56.8005 171.659 55.3654C171.212 54.0188 169.819 53.2533 168.463 53.5557C167.077 53.8624 166.139 55.1899 166.344 56.6191C166.538 57.9878 167.711 58.973 169.053 58.973Z" fill="black" fill-opacity="0.2"/>
<path d="M179.867 57.2977C179.943 57.2977 180.018 57.2947 180.093 57.2888C181.504 57.1782 182.617 55.9968 182.617 54.5573C182.617 53.044 181.389 51.8169 179.875 51.8169C179.745 51.8169 179.612 51.8257 179.484 51.8434C177.985 52.0573 176.944 53.4467 177.158 54.9452C177.353 56.3124 178.525 57.2977 179.867 57.2977Z" fill="black" fill-opacity="0.2"/>
<path d="M190.782 56.4521C190.932 56.4521 191.086 56.4403 191.235 56.4138C192.727 56.166 193.737 54.753 193.488 53.2604C193.252 51.8519 191.982 50.874 190.59 50.9758C189.165 51.0746 188.041 52.2604 188.041 53.7117C188.04 55.2265 189.268 56.4521 190.782 56.4521Z" fill="black" fill-opacity="0.2"/>
<path d="M28.488 182.536L28.5293 182.073C28.3582 184.077 28.2225 186.088 28.1251 188.098C32.3876 185.816 36.69 183.719 41.0306 181.81C42.0188 182.487 43.0129 183.154 44.0085 183.807L44.1604 182.092C39.2519 178.793 34.4525 175.219 29.7785 171.369C29.2829 174.685 28.8891 178.017 28.5927 181.355L28.6546 180.647C23.7741 177.063 19.0072 173.201 14.3774 169.069C13.4704 175.125 12.8701 181.225 12.5707 187.335C16.8435 184.83 21.1635 182.504 25.5249 180.368C26.5086 181.099 27.4983 181.824 28.488 182.536Z" fill="black" fill-opacity="0.2"/>
<path d="M30.6944 165.871L30.7755 165.439C30.4082 167.409 30.0764 169.387 29.7784 171.369C34.243 169.521 38.7371 167.865 43.2444 166.399C44.1618 167.172 45.0822 167.931 46.0099 168.682L46.3314 166.992C41.7769 163.223 37.3566 159.187 33.0926 154.889C32.2725 158.12 31.5513 161.377 30.9244 164.654L31.0483 164.008C26.5498 159.955 22.1915 155.635 17.9998 151.058C16.4939 156.995 15.2844 163.01 14.3788 169.069C18.8773 166.993 23.4098 165.108 27.9613 163.415C28.8669 164.246 29.7784 165.064 30.6944 165.871Z" fill="black" fill-opacity="0.2"/>
<path d="M34.5556 149.51L34.6766 149.101C34.1132 151.02 33.5866 152.951 33.0925 154.889C37.7223 153.499 42.3565 152.3 46.9906 151.294C47.824 152.154 48.6661 153.004 49.5127 153.843L49.9995 152.2C45.8461 147.993 41.855 143.535 38.0409 138.83C36.8993 141.966 35.855 145.137 34.9037 148.336L35.0925 147.697C31.0232 143.213 27.1221 138.479 23.4082 133.502C21.3124 139.258 19.5071 145.12 17.9982 151.058C22.684 149.443 27.3816 148.022 32.0807 146.794C32.8993 147.709 33.7252 148.614 34.5556 149.51Z" fill="black" fill-opacity="0.2"/>
<path d="M40.0365 133.623L40.1914 133.244C39.4421 135.092 38.7238 136.954 38.0409 138.83C42.7857 137.911 47.5187 137.184 52.2296 136.647C52.9745 137.586 53.7237 138.514 54.4818 139.434L55.1337 137.843C51.4243 133.243 47.8993 128.402 44.5778 123.34C43.1235 126.35 41.7651 129.405 40.4967 132.495L40.7518 131.867C37.1545 126.998 33.7475 121.896 30.5528 116.573C27.8891 122.091 25.5056 127.743 23.4098 133.501C28.2328 132.365 33.0513 131.423 37.8477 130.672C38.569 131.666 39.2991 132.65 40.0365 133.623Z" fill="black" fill-opacity="0.2"/>
<path d="M47.0836 118.363L47.265 118.022C46.3388 119.78 45.442 121.553 44.5777 123.342C49.3904 122.904 54.1735 122.653 58.9139 122.59C59.5584 123.599 60.2133 124.599 60.877 125.59L61.6838 124.071C58.4537 119.121 55.4287 113.954 52.6307 108.586C50.8889 111.431 49.234 114.327 47.6632 117.271L47.973 116.687C44.8786 111.484 41.9996 106.066 39.3506 100.453C36.1515 105.674 33.215 111.058 30.5527 116.575C35.4642 115.929 40.3535 115.473 45.2016 115.208C45.8196 116.268 46.4464 117.319 47.0836 118.363Z" fill="black" fill-opacity="0.2"/>
<path d="M54.0615 100.555C54.5719 101.67 55.091 102.78 55.619 103.881L55.8668 103.507C54.7577 105.181 53.6766 106.875 52.6294 108.586C57.4612 108.63 62.2444 108.857 66.9685 109.266C67.5113 110.335 68.0629 111.395 68.6219 112.447L69.5732 111.019C66.8535 105.773 64.3579 100.328 62.1072 94.7096C60.0792 97.3821 58.1338 100.115 56.2695 102.903L56.6648 102.308C54.1073 96.8231 51.7784 91.1462 49.7002 85.2966C46.0011 90.1712 42.5439 95.2331 39.3478 100.453C44.3035 100.301 49.2091 100.336 54.0615 100.555Z" fill="black" fill-opacity="0.2"/>
<path d="M65.5511 90.3241L65.7989 90.0218C64.5423 91.5631 63.3107 93.125 62.1101 94.7091C66.9139 95.2312 71.6528 95.9347 76.3106 96.8079C76.7442 97.9244 77.1882 99.035 77.6395 100.138L78.7324 98.8078C76.5466 93.3153 74.6056 87.6516 72.9198 81.836C70.6543 84.277 68.4641 86.7858 66.3431 89.3566L66.7532 88.8581C64.7502 83.1443 62.9965 77.2667 61.5069 71.2417C57.3417 75.7269 53.4007 80.4186 49.7017 85.2962C54.6426 85.6369 59.5246 86.1605 64.3299 86.8581C64.7266 88.0203 65.1337 89.1752 65.5511 90.3241Z" fill="black" fill-opacity="0.2"/>
<path d="M76.7796 77.8143L78.1203 76.475C76.694 70.5931 75.5303 64.5681 74.6439 58.4265C70.0554 62.4781 65.669 66.7568 61.5068 71.2435C66.3903 72.0724 71.1955 73.0768 75.9079 74.2464C76.1896 75.4411 76.4787 76.6299 76.7796 77.8143Z" fill="black" fill-opacity="0.2"/>
<path d="M89.1924 66.4764L89.5419 66.1918C87.9888 67.4676 86.4579 68.7699 84.9534 70.1003C89.5596 71.559 94.067 73.1799 98.4637 74.9557C98.6687 76.1356 98.884 77.3111 99.1097 78.4822L100.44 77.3967C99.3781 71.5796 98.592 65.646 98.0846 59.6122C95.3619 61.5738 92.6982 63.618 90.095 65.739L90.6555 65.2817C89.8177 59.2847 89.2587 53.1786 88.9859 46.9751C84.0184 50.5532 79.2323 54.3762 74.6453 58.4263C79.424 59.7361 84.1039 61.208 88.6776 62.8422C88.8384 64.0576 89.0095 65.2699 89.1924 66.4764Z" fill="black" fill-opacity="0.2"/>
<path d="M102.663 56.4293L102.964 56.2287C101.319 57.3275 99.6908 58.4559 98.0846 59.6122C102.526 61.5207 106.849 63.5827 111.046 65.7862C111.132 66.9823 111.229 68.1711 111.34 69.3599L112.773 68.4086C112.294 62.5163 112.098 56.5311 112.197 50.4795C109.323 52.1417 106.502 53.8895 103.732 55.7184L104.239 55.3821C104.002 49.3335 104.051 43.1978 104.399 37.0017C99.0964 40.0681 93.9504 43.3984 88.9829 46.9766C93.6082 48.7524 98.1215 50.683 102.511 52.7612C102.551 53.9869 102.599 55.2096 102.663 56.4293Z" fill="black" fill-opacity="0.2"/>
<path d="M87.8385 88.7769L89.0567 87.5601C87.427 81.8788 86.0523 76.0484 84.9521 70.0972C80.75 73.808 76.7323 77.7254 72.9182 81.8345C77.6483 82.8316 82.2928 83.9982 86.8429 85.3301C87.1659 86.4864 87.4963 87.6339 87.8385 88.7769Z" fill="black" fill-opacity="0.2"/>
<path d="M117.07 47.7675L117.474 47.5552C115.697 48.4991 113.939 49.4725 112.2 50.4799C116.427 52.8221 120.523 55.3014 124.48 57.9135C124.447 59.1096 124.427 60.3058 124.418 61.4975L125.94 60.6937C126.048 54.7852 126.45 48.8118 127.152 42.7986C124.09 44.182 121.074 45.6584 118.102 47.2233L118.747 46.8826C119.114 40.8399 119.776 34.7411 120.739 28.6084C115.155 31.1305 109.703 33.9343 104.402 37.0007C108.828 39.2278 113.124 41.5965 117.287 44.1009C117.202 45.3266 117.13 46.5478 117.07 47.7675Z" fill="black" fill-opacity="0.2"/>
<path d="M132.269 40.5874L132.59 40.4576C130.764 41.2068 128.95 41.9856 127.152 42.7983C131.124 45.5505 134.953 48.4295 138.627 51.4236C138.475 52.6109 138.335 53.7982 138.208 54.984L139.797 54.3395C140.497 48.4708 141.494 42.5667 142.795 36.6567C139.652 37.7113 136.543 38.8617 133.469 40.1021L134.022 39.8764C134.99 33.9016 136.26 27.8972 137.837 21.8943C132.03 23.8441 126.32 26.086 120.739 28.6081C124.924 31.2644 128.962 34.052 132.853 36.9605C132.645 38.17 132.45 39.3794 132.269 40.5874Z" fill="black" fill-opacity="0.2"/>
<path d="M148.106 34.9689L148.5 34.8524C146.587 35.4203 144.685 36.0191 142.792 36.6548C146.468 39.789 149.988 43.0382 153.342 46.3863C153.071 47.5529 152.814 48.7211 152.568 49.8862L154.218 49.4025C155.502 43.6341 157.089 37.8627 158.975 32.1105C155.724 32.8495 152.497 33.6872 149.297 34.6194L149.923 34.435C151.485 28.5855 153.354 22.7404 155.524 16.9248C149.547 18.2832 143.64 19.9425 137.834 21.8938C141.729 24.9557 145.469 28.1342 149.047 31.4188C148.723 32.6002 148.41 33.7846 148.106 34.9689Z" fill="black" fill-opacity="0.2"/>
<path d="M165.729 27.5284C165.285 28.6729 164.853 29.8189 164.432 30.9664L164.863 30.8867C162.894 31.2599 160.931 31.667 158.977 32.1124C162.32 35.6006 165.496 39.1846 168.499 42.8527C168.112 43.9869 167.739 45.1226 167.378 46.2583L169.068 45.9427C170.925 40.3306 173.081 34.7466 175.534 29.2127C172.215 29.6242 168.907 30.136 165.62 30.7451L166.297 30.6198C168.438 24.9561 170.881 19.3293 173.618 13.7585C167.541 14.5122 161.5 15.5683 155.525 16.9267C159.096 20.3632 162.497 23.9001 165.729 27.5284Z" fill="black" fill-opacity="0.2"/>
<path d="M181.078 28.6156L181.485 28.5817C179.5 28.7572 177.516 28.9652 175.536 29.2115C178.513 33.0153 181.317 36.8987 183.941 40.8486C183.444 41.937 182.959 43.0314 182.485 44.1243L184.196 43.9798C186.606 38.5816 189.308 33.235 192.296 27.9711C188.962 28.0537 185.628 28.2336 182.304 28.5109L182.963 28.4548C185.658 23.0345 188.643 17.6732 191.914 12.4019C185.804 12.5523 179.695 13.0007 173.62 13.7558C176.826 17.5316 179.857 21.3915 182.71 25.3221C182.153 26.418 181.611 27.5168 181.078 28.6156Z" fill="black" fill-opacity="0.2"/>
<path d="M197.87 27.9251L198.223 27.9296C196.246 27.9104 194.271 27.9222 192.295 27.9708C194.882 32.0519 197.292 36.1935 199.519 40.3793C198.917 41.4162 198.327 42.453 197.745 43.4973L199.47 43.5194C202.403 38.3837 205.61 33.3307 209.1 28.3838C205.773 28.1375 202.441 27.993 199.105 27.9413L199.765 27.9502C202.981 22.8204 206.475 17.7807 210.249 12.853C204.143 12.4031 198.025 12.2527 191.913 12.4031C194.727 16.4783 197.36 20.6199 199.813 24.8086C199.156 25.8455 198.507 26.8809 197.87 27.9251Z" fill="black" fill-opacity="0.2"/>
<path d="M196.501 349.576C175.836 349.576 155.789 345.529 136.918 337.548C118.689 329.838 102.319 318.799 88.2617 304.743C74.2043 290.685 63.166 274.314 55.4566 256.086C47.4744 237.214 43.4272 217.167 43.4272 196.502C43.4272 175.839 47.4744 155.79 55.4566 136.919C63.166 118.69 74.2028 102.32 88.2617 88.2612C102.321 74.2023 118.689 63.1655 136.918 55.4562C155.789 47.4739 175.838 43.4268 196.501 43.4268C217.166 43.4268 237.213 47.4739 256.085 55.4562C274.313 63.1655 290.685 74.2023 304.742 88.2612C318.798 102.32 329.836 118.69 337.546 136.919C345.528 155.792 349.575 175.839 349.575 196.502C349.575 217.167 345.528 237.214 337.546 256.086C329.836 274.314 318.798 290.686 304.742 304.743C290.683 318.799 274.313 329.838 256.085 337.548C237.213 345.529 217.166 349.576 196.501 349.576ZM196.501 45.9887C113.508 45.9887 45.9892 113.507 45.9892 196.501C45.9892 279.494 113.508 347.014 196.501 347.014C279.495 347.014 347.015 279.494 347.015 196.501C347.013 113.509 279.493 45.9887 196.501 45.9887Z" fill="black" fill-opacity="0.2"/>
<path d="M196.5 393.002C169.974 393.002 144.239 387.805 120.012 377.558C96.6128 367.661 75.5983 353.494 57.5541 335.447C39.5086 317.402 25.342 296.389 15.4438 272.989C5.19613 248.761 0 223.028 0 196.501C0 169.975 5.19613 144.241 15.4438 120.014C25.342 96.6143 39.5086 75.5997 57.5541 57.5556C75.5983 39.51 96.6128 25.342 120.012 15.4438C144.241 5.19613 169.974 0 196.5 0C223.026 0 248.761 5.19613 272.988 15.4438C296.387 25.342 317.4 39.51 335.446 57.5556C353.493 75.6012 367.659 96.6143 377.556 120.014C387.805 144.241 393 169.975 393 196.501C393 223.028 387.805 248.762 377.556 272.989C367.658 296.389 353.493 317.403 335.446 335.447C317.402 353.494 296.387 367.661 272.988 377.558C248.761 387.805 223.028 393.002 196.5 393.002ZM196.5 5.06043C90.9403 5.06043 5.05896 90.9403 5.05896 196.501C5.05896 302.063 90.9403 387.943 196.5 387.943C302.061 387.943 387.941 302.063 387.941 196.501C387.941 90.9403 302.063 5.06043 196.5 5.06043Z" fill="black" fill-opacity="0.2"/>
</svg>
