<svg width="132" height="123" viewBox="0 0 132 123" fill="none" xmlns="http://www.w3.org/2000/svg">
<path d="M71.4222 -74.5441C71.4208 -86.4526 69.8721 -98.271 66.8205 -109.672C63.7615 -121.128 59.1952 -132.154 53.2424 -142.445L53.2203 -142.483C53.2159 -142.49 53.21 -142.499 53.2056 -142.508L53.1952 -142.523C47.2661 -152.771 40.0036 -162.219 31.6128 -170.608C23.225 -178.999 13.7752 -186.26 3.52599 -192.192L3.51125 -192.201C3.5024 -192.205 3.49501 -192.211 3.48764 -192.216L3.44928 -192.238C-6.8412 -198.191 -17.8691 -202.76 -29.3248 -205.817C-40.7274 -208.871 -52.5503 -210.419 -64.4617 -210.419H-64.534C-76.4439 -210.419 -88.2669 -208.871 -99.6709 -205.817C-111.128 -202.76 -122.154 -198.189 -132.445 -192.238L-132.483 -192.216C-132.492 -192.211 -132.5 -192.207 -132.508 -192.201L-132.523 -192.192C-142.771 -186.26 -152.221 -178.999 -160.608 -170.608C-168.999 -162.219 -176.26 -152.771 -182.192 -142.523L-182.216 -142.483C-182.219 -142.479 -182.22 -142.474 -182.223 -142.47L-182.238 -142.445C-188.191 -132.154 -192.76 -121.128 -195.818 -109.671C-198.871 -98.2696 -200.418 -86.4496 -200.419 -74.5426V-74.4984V-74.4541C-200.418 -62.5457 -198.871 -50.7257 -195.818 -39.3261C-192.76 -27.8704 -188.191 -16.8425 -182.238 -6.55197L-182.216 -6.51363C-182.212 -6.50626 -182.207 -6.49739 -182.201 -6.49002L-182.192 -6.47528C-176.26 3.77391 -168.999 13.2237 -160.608 21.6115C-152.221 30.0023 -142.771 37.2633 -132.523 43.194L-132.508 43.2028C-132.5 43.2087 -132.491 43.2131 -132.483 43.219L-132.445 43.2412C-122.154 49.1939 -111.128 53.7617 -99.6709 56.8207C-88.2713 59.8723 -76.4528 61.421 -64.5428 61.4225H-64.531H-64.4986H-64.4661H-64.4543C-52.5444 61.421 -40.7244 59.8723 -29.3263 56.8207C-17.8736 53.7632 -6.84563 49.1954 3.44781 43.2412L3.48616 43.219C3.49353 43.2146 3.5024 43.2087 3.51125 43.2028L3.52451 43.194C13.7722 37.2648 23.222 30.0038 31.6113 21.6115C40.0021 13.2222 47.2646 3.77243 53.1938 -6.47528L53.2188 -6.51363C53.2247 -6.52396 53.2306 -6.53427 53.2365 -6.54459L53.241 -6.55197C59.1937 -16.8425 63.76 -27.8704 66.819 -39.3261C69.8706 -50.7272 71.4193 -62.5471 71.4208 -74.4541V-74.4984L71.4222 -74.5441ZM-98.5706 52.7072C-109.681 49.7411 -120.374 45.3075 -130.354 39.5303L-130.373 39.5185C-140.306 33.7722 -149.465 26.7339 -157.597 18.6012C-165.729 10.47 -172.768 1.30933 -178.515 -8.62422L-178.527 -8.64487C-184.304 -18.6227 -188.737 -29.3158 -191.703 -40.4249C-194.663 -51.4838 -196.163 -62.9483 -196.16 -74.4969C-196.163 -86.047 -194.663 -97.5115 -191.703 -108.567C-188.737 -119.679 -184.304 -130.371 -178.527 -140.35C-172.778 -150.291 -165.735 -159.458 -157.597 -167.595C-149.46 -175.735 -140.293 -182.776 -130.352 -188.526C-120.374 -194.301 -109.681 -198.733 -98.5691 -201.701C-87.5235 -204.658 -76.0708 -206.158 -64.5296 -206.158H-64.4661C-52.9234 -206.158 -41.4722 -204.658 -30.4251 -201.701C-19.3131 -198.735 -8.62141 -194.301 1.35492 -188.526C11.2973 -182.776 20.4639 -175.735 28.6025 -167.595C36.7411 -159.458 43.7823 -150.293 49.5315 -140.35L49.5463 -140.322C55.3147 -130.352 59.7439 -119.668 62.7084 -108.567C65.6686 -97.5115 67.1656 -86.047 67.1627 -74.4969C67.1656 -62.9468 65.6671 -51.4823 62.7084 -40.4249C59.7409 -29.3129 55.3088 -18.6197 49.5315 -8.64487L49.5198 -8.62422C43.772 1.31081 36.7337 10.4715 28.601 18.6012C20.4654 26.7383 11.2988 33.7811 1.35492 39.5303L1.32835 39.545C-8.64207 45.3149 -19.3263 49.7426 -30.4266 52.7057C-41.4737 55.6614 -52.9249 57.1614 -64.4676 57.1614H-64.531C-76.0723 57.1614 -87.525 55.6629 -98.5706 52.7072Z" fill="black" fill-opacity="0.2"/>
<path d="M12.0805 -22.0546L12.0407 -22.0959L12.0082 -22.0487C9.30768 -18.1181 6.27229 -14.3571 2.98471 -10.8704L2.96112 -10.8453L2.9803 -10.8158C4.34902 -8.70075 5.70593 -6.51346 7.01123 -4.31731L7.01714 -4.307L7.02745 -4.30109C15.8268 0.701822 25.1424 5.11772 34.7175 8.82418L34.8399 8.87139L34.7706 8.75781C28.1232 -2.26128 20.489 -12.6285 12.0805 -22.0546Z" fill="black" fill-opacity="0.2"/>
<path d="M1.7945 -9.54996L1.76206 -9.6001L1.72223 -9.55734C-1.62436 -6.14586 -5.26298 -2.96593 -9.09776 -0.104595L-9.12579 -0.0824862L-9.11251 -0.050024C-8.12726 2.27739 -7.16857 4.66528 -6.26445 7.04727L-6.26002 7.05906L-6.25118 7.06644C1.54671 13.5103 9.95964 19.4675 18.7561 24.7743L18.8681 24.8436L18.8195 24.7212C14.1808 12.7301 8.45228 1.2007 1.7945 -9.54996Z" fill="black" fill-opacity="0.2"/>
<path d="M-10.5034 0.992559L-10.524 0.937988L-10.5727 0.971908C-12.9975 2.70788 -15.5388 4.34947 -18.1331 5.85094C-19.6464 6.72704 -21.2319 7.58395 -22.8499 8.39958L-22.8839 8.4158L-22.8735 8.4512C-22.3071 10.9069 -21.7776 13.4246 -21.2998 15.9349L-21.2983 15.9467L-21.2909 15.9556C-14.732 23.6576 -7.4813 30.9849 0.263487 37.7327L0.363789 37.8197L0.338709 37.6899C-2.14947 25.0882 -5.79547 12.7403 -10.5034 0.992559Z" fill="black" fill-opacity="0.2"/>
<path d="M-64.503 15.4775H-64.4941H-64.4926H-64.4543C-56.5487 15.4745 -48.7228 14.451 -41.1905 12.4348C-33.633 10.4171 -26.3543 7.40236 -19.5564 3.47171L-19.5195 3.44957L-19.4812 3.42744C-12.6951 -0.501724 -6.43555 -5.3129 -0.875122 -10.8748C4.6853 -16.4352 9.49796 -22.6948 13.4286 -29.4823L13.4374 -29.4971C13.4419 -29.5045 13.4463 -29.5133 13.4522 -29.5207L13.4743 -29.559C17.4035 -36.3555 20.4182 -43.6341 22.4374 -51.1931C24.458 -58.7417 25.4801 -66.5838 25.4801 -74.4997C25.4801 -82.4171 24.4565 -90.2607 22.4374 -97.8078C20.4197 -105.367 17.405 -112.645 13.4743 -119.44L13.4522 -119.479L13.4301 -119.519C9.49944 -126.305 4.68826 -132.564 -0.873642 -138.125C-6.43407 -143.687 -12.6936 -148.499 -19.4797 -152.427L-19.5181 -152.449C-19.5225 -152.452 -19.5254 -152.453 -19.5298 -152.456L-19.5549 -152.471C-26.3513 -156.4 -33.63 -159.416 -41.189 -161.434C-48.7361 -163.453 -56.5753 -164.477 -64.4882 -164.477H-64.5044C-72.4173 -164.477 -80.258 -163.453 -87.8036 -161.434C-95.3611 -159.416 -102.64 -156.402 -109.438 -152.471L-109.445 -152.467C-109.455 -152.461 -109.464 -152.455 -109.475 -152.449L-109.514 -152.427C-116.299 -148.499 -122.56 -143.687 -128.12 -138.125C-133.681 -132.566 -138.492 -126.306 -142.423 -119.519L-142.432 -119.504C-142.436 -119.496 -142.442 -119.488 -142.446 -119.479L-142.468 -119.44C-146.399 -112.643 -149.414 -105.365 -151.431 -97.8063C-153.452 -90.2577 -154.476 -82.4141 -154.476 -74.4982C-154.476 -66.5838 -153.452 -58.7417 -151.433 -51.1916C-149.415 -43.6341 -146.401 -36.3555 -142.47 -29.5576L-142.465 -29.5502C-142.46 -29.5399 -142.454 -29.5295 -142.448 -29.5207L-142.426 -29.4823C-138.496 -22.6948 -133.685 -16.4367 -128.123 -10.8748C-122.562 -5.3129 -116.302 -0.501724 -109.517 3.42744L-109.478 3.44957C-109.467 3.45547 -109.458 3.4599 -109.448 3.46581L-109.441 3.47023C-102.643 7.3994 -95.3641 10.4156 -87.8066 12.4333C-80.2742 14.4495 -72.4483 15.4716 -64.5428 15.476H-64.503V15.4775ZM-87.2255 10.2592C-94.606 8.29024 -101.714 5.34337 -108.351 1.49974C-114.98 -2.33504 -121.097 -7.03413 -126.529 -12.4692C-131.963 -17.9013 -136.663 -24.0163 -140.498 -30.6475C-144.34 -37.2861 -147.287 -44.3952 -149.257 -51.7727C-151.226 -59.1296 -152.225 -66.7785 -152.225 -74.4997C-152.225 -82.2209 -151.226 -89.8683 -149.257 -97.2267C-147.29 -104.595 -144.349 -111.694 -140.514 -118.327L-140.498 -118.353C-136.663 -124.983 -131.964 -131.1 -126.53 -136.532C-121.098 -141.965 -114.982 -146.664 -108.351 -150.501C-101.714 -154.341 -94.606 -157.288 -87.2255 -159.259C-79.8671 -161.228 -72.2227 -162.226 -64.4941 -162.226C-56.7729 -162.226 -49.127 -161.228 -41.7716 -159.259C-34.3926 -157.288 -27.2835 -154.341 -20.6464 -150.501C-14.0151 -146.664 -7.89867 -141.965 -2.46803 -136.532C2.96555 -131.098 7.66612 -124.982 11.4994 -118.353L11.5156 -118.327C15.3504 -111.694 18.2929 -104.595 20.2589 -97.2267C22.2279 -89.8698 23.2265 -82.2224 23.2265 -74.4997C23.2265 -66.777 22.2279 -59.1281 20.2589 -51.7727C18.2914 -44.3952 15.343 -37.2861 11.4994 -30.6475L11.4876 -30.6284C7.65726 -24.006 2.96112 -17.8969 -2.46803 -12.4692C-7.90163 -7.0356 -14.0166 -2.33504 -20.6464 1.49826L-20.6582 1.50563C-27.2938 5.34631 -34.3999 8.29024 -41.773 10.2578C-49.1284 12.2253 -56.7759 13.2253 -64.5 13.2253H-64.5044C-72.2227 13.2268 -79.8671 12.2268 -87.2255 10.2592Z" fill="black" fill-opacity="0.2"/>
<path d="M36.7617 22.4522C36.5404 22.6277 36.3457 22.8386 36.1879 23.0732C35.3487 24.3342 35.6909 26.0334 36.9505 26.8741C37.4165 27.1853 37.9446 27.3358 38.4682 27.3358C39.2086 27.3358 39.9357 27.0378 40.4623 26.4788C41.393 25.4995 41.4785 23.9626 40.6142 22.8799C39.6673 21.6956 37.9416 21.5053 36.7617 22.4522Z" fill="black" fill-opacity="0.2"/>
<path d="M28.8766 30.0431C28.7306 30.1566 28.5979 30.2909 28.4784 30.4295C27.5123 31.5932 27.6672 33.3234 28.8295 34.2924C29.3427 34.7187 29.9666 34.9281 30.5832 34.9281C31.2734 34.9281 31.9608 34.6685 32.4844 34.1626C33.5006 33.1921 33.6201 31.5888 32.7292 30.4723C31.7823 29.2879 30.0566 29.0961 28.8766 30.0431Z" fill="black" fill-opacity="0.2"/>
<path d="M47.2793 14.1395C46.1215 13.3696 44.5906 13.5923 43.6982 14.6114C42.834 15.5908 42.772 17.079 43.6156 18.1365C44.1569 18.812 44.9549 19.166 45.7572 19.166C46.356 19.166 46.9622 18.9683 47.4666 18.5642C47.6878 18.3887 47.8811 18.1763 48.0374 17.9403C48.8781 16.6808 48.5374 14.9802 47.2793 14.1395Z" fill="black" fill-opacity="0.2"/>
<path d="M11.6866 43.1746C11.6188 43.2188 11.5539 43.2675 11.4919 43.3176C10.309 44.2616 10.1173 45.9872 11.0627 47.17C11.604 47.847 12.4005 48.1966 13.2043 48.1966C13.7604 48.1966 14.3223 48.0284 14.8046 47.6818C15.9993 46.8234 16.3076 45.1671 15.486 43.9356C14.6468 42.676 12.9447 42.3339 11.6866 43.1746Z" fill="black" fill-opacity="0.2"/>
<path d="M20.514 36.9503C19.3473 37.8161 19.0523 39.4517 19.8665 40.673C20.3945 41.465 21.2647 41.8942 22.1496 41.8942C22.6718 41.8942 23.1998 41.7453 23.6673 41.4341C23.7352 41.3883 23.8001 41.3412 23.8605 41.2895C25.0434 40.3456 25.2352 38.6214 24.2897 37.437C23.3635 36.2836 21.6909 36.0742 20.514 36.9503Z" fill="black" fill-opacity="0.2"/>
<path d="M53.9223 5.43722C52.7261 4.64226 51.1347 4.90774 50.2586 6.01096C49.3958 7.08763 49.4651 8.65986 50.4607 9.65984C50.9961 10.1952 51.6996 10.4622 52.3987 10.4622C53.1008 10.4622 53.8028 10.1952 54.3367 9.65984C54.4636 9.53152 54.5816 9.38993 54.6819 9.23655C55.5226 7.97846 55.1804 6.27791 53.9223 5.43722Z" fill="black" fill-opacity="0.2"/>
<path d="M59.5875 -3.91811C58.2763 -4.57444 56.6878 -4.08181 55.9754 -2.81634C55.2704 -1.57743 55.6332 0.0139875 56.8382 0.814858C57.3058 1.12754 57.8338 1.2765 58.3559 1.2765C59.2423 1.2765 60.1125 0.847302 60.6391 0.0552812C60.704 -0.0405869 60.7615 -0.140883 60.8116 -0.242651C61.4901 -1.59513 60.9414 -3.2426 59.5875 -3.91811Z" fill="black" fill-opacity="0.2"/>
<path d="M2.55543 48.6185C1.3696 49.2262 0.77225 50.6229 1.20588 51.9253C1.58788 53.0728 2.6572 53.7985 3.80616 53.7985C4.09377 53.7985 4.38433 53.7542 4.67194 53.6598C4.9035 53.5817 5.12768 53.471 5.32975 53.3368C6.58933 52.4976 6.93004 50.7955 6.09081 49.5359C5.30763 48.3618 3.77814 47.9887 2.55543 48.6185Z" fill="black" fill-opacity="0.2"/>
<path d="M88.6315 -3.89928L88.5017 -3.62199C89.3262 -5.40074 90.1227 -7.19275 90.8852 -8.99805C86.0991 -8.31811 81.3351 -7.8314 76.6051 -7.52904C75.9089 -8.50543 75.2069 -9.47297 74.4945 -10.4287L73.7659 -8.87416C77.2393 -4.09396 80.5195 0.916332 83.5829 6.13901C85.1714 3.22752 86.6684 0.268845 88.0829 -2.72818L87.8292 -2.18688C91.1787 2.85585 94.3277 8.12276 97.2524 13.5976C100.185 8.22305 102.851 2.69951 105.233 -2.94351C100.359 -2.05119 95.4988 -1.35208 90.6684 -0.841761C89.9988 -1.87125 89.3203 -2.88896 88.6315 -3.89928Z" fill="black" fill-opacity="0.2"/>
<path d="M80.8336 10.9869L80.602 11.3718C81.6256 9.64617 82.6212 7.89987 83.5828 6.13882C78.754 6.33646 73.9664 6.34531 69.2275 6.17422C68.6331 5.13293 68.0284 4.10196 67.4163 3.07837L66.5343 4.55624C69.5151 9.6624 72.2732 14.9736 74.8042 20.475C76.6965 17.7022 78.5047 14.8733 80.2304 11.9942L79.8587 12.6152C82.6905 17.9677 85.2937 23.5192 87.6639 29.2567C91.1182 24.2006 94.3187 18.9721 97.2523 13.596C92.3128 13.9972 87.4102 14.2051 82.5519 14.2287C81.9899 13.1402 81.4162 12.0591 80.8336 10.9869Z" fill="black" fill-opacity="0.2"/>
<path d="M71.5844 25.0237L71.3883 25.2907C72.5535 23.7052 73.695 22.1004 74.8056 20.4751C69.9797 20.1904 65.2128 19.7259 60.5167 19.0828C60.027 17.9884 59.53 16.9014 59.0226 15.8232L57.9976 17.2067C60.4533 22.5828 62.6745 28.1432 64.645 33.8673C66.7703 31.3378 68.8205 28.742 70.7924 26.093L70.4561 26.5488C72.7393 32.1549 74.7835 37.9395 76.5682 43.8834C80.5047 39.1976 84.2097 34.3157 87.6639 29.2582C82.7097 29.1638 77.8085 28.885 72.9767 28.4249C72.5225 27.2848 72.0579 26.1506 71.5844 25.0237Z" fill="black" fill-opacity="0.2"/>
<path d="M60.9917 38.0767L59.7217 39.4749C61.4371 45.2801 62.8972 51.2373 64.089 57.3287C68.468 53.0559 72.6361 48.5662 76.5712 43.8804C71.6523 43.2949 66.8057 42.5309 62.0388 41.5958C61.6981 40.4173 61.3515 39.2418 60.9917 38.0767Z" fill="black" fill-opacity="0.2"/>
<path d="M49.1599 50.0103L47.7514 51.2802C48.8871 57.2285 49.7484 63.3007 50.3281 69.4806C55.1127 65.6591 59.7056 61.6016 64.0875 57.3303C59.2498 56.261 54.5021 55.019 49.8517 53.6149C49.6319 52.4099 49.4003 51.2064 49.1599 50.0103Z" fill="black" fill-opacity="0.2"/>
<path d="M49.4017 27.6736L48.2483 28.945C50.1583 34.5393 51.8176 40.2929 53.2143 46.1838C57.2246 42.2693 61.0417 38.1573 64.6464 33.8667C59.8736 33.1072 55.1775 32.1721 50.5669 31.0659C50.1878 29.9258 49.7984 28.7975 49.4017 27.6736Z" fill="black" fill-opacity="0.2"/>
<path d="M38.6569 38.5116L37.3782 39.665C38.7262 45.4231 39.8074 51.3109 40.6127 57.3124C44.9932 53.8139 49.2011 50.0971 53.2143 46.1841C48.5403 44.954 43.9578 43.5573 39.4785 42.0027C39.2159 40.8346 38.9416 39.6679 38.6569 38.5116Z" fill="black" fill-opacity="0.2"/>
<path d="M36.1999 60.718L35.9152 60.9259C37.5022 59.7504 39.0685 58.5454 40.6113 57.3124C36.0818 55.6251 31.6615 53.7829 27.3592 51.7918C27.2147 50.6015 27.0554 49.4157 26.8873 48.2343L25.5023 49.2579C26.2707 55.1177 26.7663 61.0867 26.9713 67.1353C29.7589 65.333 32.4919 63.4436 35.1689 61.4761L34.6704 61.8448C35.2087 67.8743 35.4668 74.0055 35.43 80.2105C40.57 76.8845 45.5449 73.3034 50.3266 69.4834C45.6201 67.9377 41.0184 66.2357 36.5288 64.3773C36.4344 63.1516 36.3223 61.9333 36.1999 60.718Z" fill="black" fill-opacity="0.2"/>
<path d="M22.2426 70.0864L21.8857 70.2988C23.5995 69.2737 25.2942 68.2191 26.9726 67.1336C22.6334 65.0068 18.4167 62.7339 14.3341 60.3239C14.3075 59.1263 14.2707 57.9301 14.2176 56.7399L12.7426 57.6174C12.93 63.5274 12.8252 69.5097 12.4255 75.5509C15.3931 74.0273 18.3134 72.4123 21.1836 70.7147L20.6172 71.0524C20.5538 77.1084 20.1983 83.2308 19.542 89.4033C24.9874 86.6054 30.2927 83.5346 35.4328 80.2102C30.9018 78.2087 26.4904 76.0554 22.2087 73.7604C22.2323 72.5318 22.2426 71.3061 22.2426 70.0864Z" fill="black" fill-opacity="0.2"/>
<path d="M7.42416 78.0143L7.09819 78.1677C8.88875 77.3256 10.6646 76.4554 12.4241 75.5498C8.31943 73.0011 4.35188 70.3182 0.531833 67.5129C0.624753 66.3182 0.705876 65.1251 0.773723 63.9348L-0.785263 64.6634C-1.19087 70.5572 -1.89146 76.504 -2.89441 82.4745C0.194079 81.2606 3.24422 79.9553 6.25602 78.56L5.70587 78.8167C5.03773 84.8343 4.07017 90.8948 2.79879 96.9685C8.50231 94.731 14.0908 92.203 19.5406 89.4036C15.2294 86.9582 11.0539 84.3786 7.02297 81.6692C7.17046 80.445 7.30322 79.2311 7.42416 78.0143Z" fill="black" fill-opacity="0.2"/>
<path d="M-8.117 84.4241L-8.49163 84.5553C-6.61259 83.8931 -4.74683 83.2014 -2.89434 82.4728C-6.72174 79.5274 -10.4016 76.458 -13.9208 73.284C-13.7099 72.1056 -13.5093 70.9256 -13.3234 69.7487L-14.9473 70.315C-15.9399 76.1394 -17.2334 81.986 -18.8293 87.8252C-15.6258 86.9241 -12.4503 85.9285 -9.30431 84.84L-9.90754 85.048C-11.173 90.9683 -12.7453 96.9004 -14.6199 102.819C-8.71877 101.161 -2.9032 99.2086 2.80029 96.9682C-1.24539 94.1054 -5.14063 91.1172 -8.87806 88.0184C-8.6111 86.8193 -8.35741 85.6202 -8.117 84.4241Z" fill="black" fill-opacity="0.2"/>
<path d="M-64.4987 78.5764C-85.1637 78.5764 -105.211 74.5293 -124.082 66.5485C-142.311 58.8376 -158.681 47.7993 -172.738 33.7434C-186.796 19.6845 -197.834 3.31444 -205.543 -14.914C-213.526 -33.7856 -217.573 -53.8326 -217.573 -74.4977C-217.573 -95.1612 -213.526 -115.21 -205.543 -134.081C-197.834 -152.31 -186.797 -168.68 -172.738 -182.739C-158.679 -196.798 -142.311 -207.834 -124.082 -215.544C-105.211 -223.526 -85.1623 -227.573 -64.4987 -227.573C-43.8337 -227.573 -23.7866 -223.526 -4.9151 -215.544C13.3134 -207.834 29.6849 -196.798 43.7423 -182.739C57.7982 -168.68 68.8365 -152.31 76.5459 -134.081C84.5281 -115.208 88.5753 -95.1612 88.5753 -74.4977C88.5753 -53.8326 84.5281 -33.7856 76.5459 -14.914C68.8365 3.31444 57.7982 19.686 43.7423 33.7434C29.6834 47.7993 13.3134 58.8376 -4.9151 66.5485C-23.7866 74.5293 -43.8337 78.5764 -64.4987 78.5764ZM-64.4987 -225.011C-147.492 -225.011 -215.011 -157.493 -215.011 -74.4991C-215.011 8.49434 -147.492 76.0145 -64.4987 76.0145C18.4947 76.0145 86.0149 8.49434 86.0149 -74.4991C86.0134 -157.491 18.4933 -225.011 -64.4987 -225.011Z" fill="black" fill-opacity="0.2"/>
<path d="M-64.5 122.002C-91.0264 122.002 -116.761 116.805 -140.988 106.558C-164.387 96.661 -185.402 82.4944 -203.446 64.4474C-221.491 46.4018 -235.658 25.3886 -245.556 1.98914C-255.804 -22.2393 -261 -47.9722 -261 -74.4985C-261 -101.025 -255.804 -126.759 -245.556 -150.986C-235.658 -174.386 -221.491 -195.4 -203.446 -213.444C-185.402 -231.49 -164.387 -245.658 -140.988 -255.556C-116.759 -265.804 -91.0264 -271 -64.5 -271C-37.9736 -271 -12.2393 -265.804 11.9876 -255.556C35.3871 -245.658 56.4003 -231.49 74.4459 -213.444C92.4929 -195.399 106.659 -174.386 116.556 -150.986C126.805 -126.759 132 -101.025 132 -74.4985C132 -47.9722 126.805 -22.2378 116.556 1.98914C106.658 25.3886 92.4929 46.4033 74.4459 64.4474C56.4018 82.4944 35.3871 96.661 11.9876 106.558C-12.2393 116.805 -37.9722 122.002 -64.5 122.002ZM-64.5 -265.94C-170.06 -265.94 -255.941 -180.06 -255.941 -74.4985C-255.941 31.0627 -170.06 116.943 -64.5 116.943C41.0612 116.943 126.941 31.0627 126.941 -74.4985C126.941 -180.06 41.0626 -265.94 -64.5 -265.94Z" fill="black" fill-opacity="0.2"/>
</svg>
