<svg width="224" height="238" viewBox="0 0 224 238" fill="none" xmlns="http://www.w3.org/2000/svg">
<path d="M196.5 22.2939C186.461 22.2939 178.294 30.462 178.294 40.5003C178.294 50.5386 186.462 58.7066 196.5 58.7066C206.54 58.7066 214.707 50.5386 214.707 40.5003C214.708 30.462 206.54 22.2939 196.5 22.2939ZM196.5 56.5931C187.627 56.5931 180.409 49.3749 180.409 40.5018C180.409 31.6287 187.627 24.4104 196.5 24.4104C205.373 24.4104 212.593 31.6287 212.593 40.5018C212.593 49.3749 205.375 56.5931 196.5 56.5931Z" fill="black" fill-opacity="0.2"/>
<path d="M219.102 40.5003C219.107 44.4707 218.062 48.3807 216.081 51.7966C214.111 55.214 211.214 58.1107 207.797 60.0812C210.754 61.2582 214.157 61.8732 217.782 61.7818C221.404 61.6918 225.25 60.8953 229.056 59.3039C228.539 55.211 227.316 51.4736 225.578 48.2922C223.844 45.1064 221.601 42.4855 219.102 40.5003Z" fill="black" fill-opacity="0.2"/>
<path d="M185.204 60.0812C185.658 63.2301 186.815 66.4852 188.709 69.578C190.598 72.6709 193.229 75.5941 196.499 78.0911C199.769 75.5941 202.402 72.6694 204.291 69.578C206.186 66.4867 207.343 63.2316 207.797 60.0827C204.381 62.0634 200.471 63.1077 196.5 63.1032C192.53 63.1077 188.62 62.062 185.204 60.0812Z" fill="black" fill-opacity="0.2"/>
<path d="M176.919 51.7966C174.938 48.3807 173.894 44.4707 173.899 40.5003C171.4 42.484 169.158 45.1064 167.422 48.2922C165.685 51.4736 164.462 55.211 163.944 59.3039C167.751 60.8953 171.596 61.6918 175.219 61.7818C178.844 61.8732 182.245 61.2582 185.204 60.0812C181.786 58.1107 178.891 55.214 176.919 51.7966Z" fill="black" fill-opacity="0.2"/>
<path d="M185.204 20.9205C182.248 19.7435 178.846 19.1284 175.221 19.2199C171.598 19.3099 167.753 20.1063 163.946 21.6978C164.464 25.7906 165.687 29.5281 167.424 32.7109C169.16 35.8968 171.402 38.5192 173.9 40.5029C173.895 36.5325 174.939 32.6225 176.921 29.2065C178.892 25.7877 181.788 22.891 185.204 20.9205Z" fill="black" fill-opacity="0.2"/>
<path d="M207.798 20.9205C207.344 17.7716 206.187 14.5164 204.293 11.4235C202.404 8.33064 199.773 5.40737 196.503 2.91034C193.233 5.40737 190.6 8.33064 188.711 11.4235C186.816 14.515 185.659 17.7716 185.205 20.9205C188.621 18.9397 192.531 17.8955 196.501 17.8999C200.472 17.8955 204.382 18.9397 207.798 20.9205Z" fill="black" fill-opacity="0.2"/>
<path d="M216.083 29.2053C218.064 32.6212 219.108 36.5313 219.104 40.5017C221.602 38.518 223.844 35.8956 225.58 32.7112C227.317 29.5298 228.54 25.7924 229.059 21.6995C225.252 20.1081 221.407 19.3116 217.785 19.2216C214.16 19.1302 210.758 19.7452 207.8 20.9222C211.216 22.8912 214.112 25.7879 216.083 29.2053Z" fill="black" fill-opacity="0.2"/>
<path d="M161.666 36.6186L157.774 40.5097L161.666 44.4008L165.557 40.5097L161.666 36.6186Z" fill="black" fill-opacity="0.2"/>
<path d="M180.648 66.6602L175.333 68.0844L176.757 73.3997L182.072 71.9756L180.648 66.6602Z" fill="black" fill-opacity="0.2"/>
<path d="M214.759 7.59202L209.443 9.01672L210.868 14.332L216.183 12.9073L214.759 7.59202Z" fill="black" fill-opacity="0.2"/>
<path d="M210.858 66.6637L209.434 71.9789L214.749 73.403L216.173 68.0878L210.858 66.6637Z" fill="black" fill-opacity="0.2"/>
<path d="M176.766 7.61173L175.342 12.9269L180.657 14.351L182.081 9.03586L176.766 7.61173Z" fill="black" fill-opacity="0.2"/>
<path d="M196.5 -3.79041C172.078 -3.79041 152.208 16.0782 152.208 40.5014C152.208 64.923 172.077 84.7916 196.5 84.7916C220.923 84.7916 240.791 64.923 240.791 40.5014C240.791 16.0782 220.923 -3.79041 196.5 -3.79041ZM196.5 82.6766C173.243 82.6766 154.323 63.7564 154.323 40.5014C154.323 17.2449 173.243 -1.67538 196.5 -1.67538C219.756 -1.67538 238.676 17.2449 238.676 40.5014C238.678 63.7564 219.756 82.6766 196.5 82.6766Z" fill="black" fill-opacity="0.2"/>
<path d="M269.651 39.9274H269.647C269.612 35.3463 269.154 30.7519 268.261 26.2372C267.368 21.724 266.041 17.2934 264.311 13.0294L264.315 13.0279L264.141 12.609C264.126 12.5721 264.112 12.5338 264.095 12.4954V12.4969L264.094 12.494C264.094 12.494 264.095 12.494 264.095 12.4954C264.081 12.4601 264.064 12.4247 264.05 12.3878L263.874 11.9645L263.868 11.9674C262.072 7.72999 259.879 3.66513 257.321 -0.153423C254.765 -3.97198 251.846 -7.54423 248.625 -10.8171L248.628 -10.82L248.225 -11.2286L247.817 -11.6327L247.814 -11.6297C244.541 -14.851 240.969 -17.7698 237.15 -20.3258C233.332 -22.8819 229.267 -25.0765 225.031 -26.8715L225.034 -26.8774L224.61 -27.0529C224.574 -27.0677 224.538 -27.0839 224.503 -27.0986C224.503 -27.0986 224.503 -27.0972 224.504 -27.0972L224.501 -27.0986C224.503 -27.0986 224.503 -27.0986 224.503 -27.0986C224.466 -27.1149 224.428 -27.1281 224.391 -27.1444L223.972 -27.3184L223.97 -27.3125C219.705 -29.0411 215.274 -30.37 210.761 -31.2623C206.248 -32.1561 201.653 -32.6119 197.072 -32.6488V-32.6532L196.5 -32.6561L195.928 -32.6532V-32.6488C191.347 -32.6134 186.752 -32.1561 182.239 -31.2623C177.726 -30.37 173.295 -29.0426 169.031 -27.3125L169.03 -27.3169L168.606 -27.1414C168.57 -27.1267 168.534 -27.1134 168.497 -27.0972H168.499L168.496 -27.0957C168.496 -27.0957 168.496 -27.0972 168.497 -27.0972C168.465 -27.0839 168.432 -27.0692 168.4 -27.0544L167.966 -26.8745L167.969 -26.8686C163.732 -25.0721 159.667 -22.8789 155.848 -20.3214C152.028 -17.7654 148.458 -14.848 145.185 -11.6253L145.182 -11.6283L144.775 -11.2256L144.371 -10.8171L144.374 -10.8141C141.152 -7.54128 138.234 -3.96903 135.677 -0.150471C133.121 3.66808 130.928 7.73294 129.132 11.9689L129.126 11.9659L128.95 12.3907C128.936 12.4261 128.919 12.4615 128.905 12.4984C128.905 12.4984 128.906 12.4984 128.906 12.4969L128.905 12.4999V12.4984C128.888 12.5353 128.875 12.5736 128.859 12.612L128.685 13.0308L128.689 13.0323C126.959 17.2978 125.632 21.7269 124.74 26.2417C123.846 30.7549 123.39 35.3493 123.353 39.9304H123.349L123.346 40.5026L123.349 41.0749H123.353C123.388 45.656 123.846 50.2503 124.738 54.765C125.63 59.2783 126.959 63.7089 128.688 67.9729L128.683 67.9744L128.86 68.4036C128.875 68.4375 128.887 68.4729 128.902 68.5068V68.5054L128.903 68.5083H128.902C128.915 68.5393 128.928 68.5702 128.942 68.6027L129.123 69.0393L129.129 69.0363C130.925 73.2738 133.118 77.3386 135.675 81.1572C138.231 84.9757 141.149 88.548 144.371 91.8208L144.368 91.8238L144.772 92.2308L145.18 92.635L145.183 92.632C148.456 95.8532 152.028 98.7706 155.847 101.328C159.666 103.884 163.73 106.079 167.966 107.874L167.963 107.88L168.393 108.058C168.426 108.073 168.46 108.088 168.494 108.102C168.494 108.101 168.494 108.101 168.493 108.101L168.496 108.102C168.496 108.102 168.494 108.102 168.494 108.104C168.531 108.119 168.568 108.133 168.603 108.148L169.027 108.324L169.028 108.319C173.292 110.049 177.723 111.377 182.238 112.269C186.751 113.163 191.345 113.619 195.926 113.655V113.66L196.499 113.663L197.072 113.66V113.655C201.653 113.62 206.248 113.163 210.761 112.269C215.274 111.377 219.705 110.049 223.969 108.319L223.97 108.324L224.389 108.15C224.426 108.133 224.464 108.12 224.503 108.104H224.501L224.504 108.102V108.104C224.54 108.089 224.575 108.073 224.612 108.058L225.035 107.883L225.032 107.877C229.27 106.08 233.335 103.887 237.153 101.331C240.972 98.775 244.544 95.8562 247.817 92.635L247.82 92.6379L248.227 92.2353L248.631 91.8267L248.628 91.8238C251.849 88.5509 254.768 84.9787 257.324 81.1601C259.88 77.3416 262.073 73.2767 263.87 69.0407L263.876 69.0422L264.051 68.6174C264.066 68.582 264.082 68.5466 264.097 68.5112C264.095 68.5112 264.095 68.5112 264.095 68.5127L264.097 68.5098C264.097 68.5112 264.097 68.5112 264.098 68.5127C264.113 68.4758 264.128 68.4375 264.144 68.3991L264.318 67.9803L264.314 67.9788C266.042 63.7133 267.371 59.2827 268.264 54.7695C269.157 50.2562 269.613 45.6619 269.65 41.0808H269.654L269.657 40.5085L269.651 39.9274ZM269.141 39.9318L257.659 40.0203C257.632 36.3375 257.272 32.6561 256.585 29.0366C258.812 30.4894 260.989 32.128 263.091 33.9481C265.191 35.7652 267.21 37.7696 269.141 39.9318ZM244.507 66.1529C243.591 63.8004 242.52 61.5733 241.324 59.4744L251.913 63.9641C250.498 67.3033 248.778 70.5098 246.784 73.5378C246.181 70.9714 245.423 68.5009 244.507 66.1529ZM246.264 74.3165C244.224 77.3121 241.917 80.1233 239.374 82.7044L231.178 74.6366C233.576 74.936 236.045 75.0717 238.571 75.0215C241.09 74.9699 243.662 74.7369 246.264 74.3165ZM241.628 58.7724C243.954 58.1352 246.283 57.3152 248.591 56.3034C250.896 55.2916 253.181 54.0895 255.421 52.7031C254.691 56.2518 253.64 59.7325 252.275 63.0894L241.628 58.7724ZM250.66 45.8418C248.91 44.0218 247.066 42.3728 245.159 40.8831L256.66 40.9716C256.634 44.5984 256.28 48.2208 255.604 51.7828C254.06 49.6471 252.408 47.6589 250.66 45.8418ZM244.507 14.8479C245.422 12.4999 246.181 10.0294 246.784 7.46304C248.778 10.491 250.498 13.6975 251.913 17.0367L241.324 21.5264C242.519 19.4275 243.591 17.2004 244.507 14.8479ZM238.571 5.97927C236.045 5.92765 233.576 6.06628 231.177 6.36422L239.373 -1.70504C241.916 0.876064 244.222 3.68725 246.262 6.68133C243.662 6.26393 241.09 6.03089 238.571 5.97927ZM252.275 17.9099C253.64 21.2668 254.69 24.7476 255.42 28.2947C253.18 26.9083 250.896 25.7063 248.59 24.6959C246.281 23.6842 243.953 22.8641 241.627 22.2269L252.275 17.9099ZM245.16 40.1162C247.068 38.6265 248.911 36.979 250.66 35.1575C252.407 33.3404 254.059 31.3522 255.603 29.2166C256.278 32.7785 256.634 36.4009 256.66 40.0277L245.16 40.1162ZM260.544 21.075C259.296 23.5603 257.902 25.898 256.398 28.0882C255.654 24.4836 254.587 20.9452 253.202 17.5352L263.842 13.2211C262.892 15.9659 261.79 18.5927 260.544 21.075ZM255.517 8.95123C258.156 9.8229 260.796 10.8937 263.413 12.1621L252.833 16.6473C251.396 13.255 249.649 9.99694 247.622 6.91879C250.237 7.40403 252.876 8.07808 255.517 8.95123ZM248.274 -10.4675C248.442 -7.56783 248.423 -4.72124 248.221 -1.94988C248.019 0.822964 247.631 3.51469 247.084 6.11497C245.012 3.07222 242.668 0.216778 240.085 -2.40562L248.274 -10.4675ZM238.951 -11.2197C241.722 -11.4218 244.569 -11.441 247.469 -11.2728L239.407 -3.08408C236.784 -5.66666 233.929 -8.01177 230.886 -10.0826C233.487 -10.6297 236.178 -11.0191 238.951 -11.2197ZM238.705 -2.3717L230.637 5.82294C230.935 3.42472 231.074 0.955715 231.022 -1.56934C230.97 -4.08849 230.737 -6.66075 230.318 -9.26102C233.312 -7.22269 236.124 -4.91446 238.705 -2.3717ZM224.839 -26.4113C226.108 -23.7948 227.178 -21.1547 228.05 -18.5161C228.923 -15.8745 229.596 -13.2359 230.082 -10.6224C227.006 -12.6474 223.748 -14.3952 220.355 -15.8318L224.839 -26.4113ZM229.538 -9.78315C226.972 -9.17991 224.501 -8.42033 222.153 -7.50588C219.801 -6.58848 217.574 -5.51769 215.476 -4.32301L219.966 -14.9114C223.302 -13.4985 226.51 -11.7772 229.538 -9.78315ZM215.925 -23.5426C218.407 -24.7889 221.034 -25.8892 223.78 -26.8405L219.466 -16.2005C216.054 -17.5869 212.518 -18.6548 208.913 -19.3966C211.103 -20.9011 213.441 -22.2949 215.925 -23.5426ZM219.091 -15.2743L214.774 -4.62538C214.137 -6.95132 213.317 -9.2802 212.305 -11.5899C211.293 -13.8952 210.091 -16.1799 208.706 -18.4203C212.254 -17.6887 215.734 -16.6371 219.091 -15.2743ZM197.069 -32.1399C199.232 -30.2092 201.236 -28.1901 203.053 -26.0913C204.873 -23.9881 206.512 -21.8111 207.965 -19.5854C204.345 -20.2713 200.664 -20.6326 196.981 -20.6592L197.069 -32.1399ZM196.973 -19.6577C200.6 -19.6312 204.223 -19.2772 207.785 -18.6017C205.649 -17.0574 203.661 -15.4055 201.844 -13.6592C200.024 -11.9085 198.375 -10.0649 196.886 -8.15779L196.973 -19.6577ZM196.117 -8.15779C194.627 -10.0649 192.979 -11.9085 191.158 -13.6592C189.341 -15.4055 187.353 -17.0574 185.217 -18.6017C188.779 -19.2772 192.401 -19.6326 196.028 -19.6577L196.117 -8.15779ZM189.948 -26.0898C191.766 -28.1886 193.769 -30.2093 195.932 -32.1384L196.021 -20.6577C192.338 -20.6311 188.656 -20.2713 185.037 -19.584C186.49 -21.8111 188.128 -23.9881 189.948 -26.0898ZM173.91 -15.2743C177.267 -16.6386 180.748 -17.6887 184.295 -18.4203C182.909 -16.1799 181.707 -13.8952 180.696 -11.5899C179.685 -9.28168 178.864 -6.95279 178.227 -4.62685L173.91 -15.2743ZM177.527 -4.32301C175.428 -5.51769 173.201 -6.58848 170.848 -7.5044C168.5 -8.41885 166.03 -9.17843 163.463 -9.78167C166.491 -11.7758 169.699 -13.497 173.039 -14.91L177.527 -4.32301ZM177.075 -23.5426C179.561 -22.2934 181.898 -20.9011 184.089 -19.3966C180.484 -18.6533 176.947 -17.5855 173.536 -16.2005L169.221 -26.8405C171.966 -25.8892 174.593 -24.7889 177.075 -23.5426ZM164.952 -18.5161C165.823 -21.1547 166.894 -23.7948 168.162 -26.4113L172.648 -15.8318C169.255 -14.3952 165.997 -12.6474 162.919 -10.6209C163.404 -13.2345 164.078 -15.8745 164.952 -18.5161ZM162.365 5.82441L154.295 -2.3717C156.876 -4.91446 159.688 -7.22122 162.683 -9.26102C162.264 -6.66075 162.031 -4.08849 161.98 -1.56934C161.93 0.955715 162.067 3.42472 162.365 5.82441ZM148.494 66.1529C147.58 68.5009 146.82 70.9714 146.217 73.5378C144.223 70.5098 142.502 67.3018 141.089 63.9626L151.677 59.4744C150.483 61.5733 149.412 63.8004 148.494 66.1529ZM154.431 75.0215C156.956 75.0731 159.427 74.9345 161.825 74.6366L153.629 82.7058C151.086 80.1247 148.779 77.3135 146.739 74.318C149.341 74.7369 151.912 74.9699 154.431 75.0215ZM140.726 63.0909C139.362 59.734 138.312 56.2532 137.582 52.7061C139.822 54.0925 142.107 55.2945 144.412 56.3048C146.72 57.3166 149.049 58.1367 151.375 58.7724L140.726 63.0909ZM137.399 51.7842C136.723 48.2223 136.368 44.5999 136.343 40.9731L147.843 40.8846C145.936 42.3743 144.092 44.0218 142.343 45.8433C140.595 47.6604 138.943 49.6486 137.399 51.7842ZM136.343 40.0292C136.369 36.4023 136.723 32.78 137.399 29.218C138.943 31.3537 140.595 33.3419 142.341 35.159C144.092 36.979 145.936 38.628 147.843 40.1176L136.343 40.0292ZM144.412 24.6974C142.105 25.7077 139.822 26.9098 137.582 28.2977C138.313 24.7505 139.363 21.2682 140.726 17.9128L151.375 22.2299C149.049 22.8641 146.72 23.6856 144.412 24.6974ZM141.089 17.0367C142.503 13.6975 144.223 10.491 146.217 7.46304C146.82 10.0294 147.58 12.4999 148.494 14.8479C149.41 17.2004 150.483 19.4275 151.677 21.5249L141.089 17.0367ZM146.739 6.68428C148.778 3.68873 151.086 0.877541 153.629 -1.70356L161.825 6.36422C159.427 6.06628 156.958 5.92912 154.433 5.97927C151.912 6.03089 149.34 6.26393 146.739 6.68428ZM154.05 -11.2197C156.823 -11.0191 159.514 -10.6297 162.115 -10.0826C159.073 -8.0103 156.217 -5.66666 153.595 -3.08408L145.533 -11.2728C148.433 -11.441 151.281 -11.4218 154.05 -11.2197ZM144.728 -10.466L152.916 -2.40415C150.334 0.218254 147.989 3.07369 145.918 6.11644C145.371 3.51617 144.983 0.822964 144.781 -1.9484C144.579 -4.71977 144.559 -7.56635 144.728 -10.466ZM137.484 8.95123C140.126 8.07808 142.764 7.40551 145.378 6.92027C143.353 9.99694 141.605 13.255 140.169 16.6473L129.589 12.1621C132.206 10.8937 134.846 9.8229 137.484 8.95123ZM139.8 17.5352C138.413 20.9452 137.346 24.4836 136.604 28.0882C135.099 25.898 133.707 23.5603 132.458 21.075C131.211 18.5927 130.111 15.9659 129.16 13.2211L139.8 17.5352ZM129.909 33.9496C132.012 32.1295 134.189 30.4909 136.415 29.0381C135.728 32.6575 135.368 36.3375 135.341 40.0218L123.859 39.9333C125.791 37.7696 127.81 35.7652 129.909 33.9496ZM123.862 41.069L135.344 40.9805C135.371 44.6634 135.731 48.3447 136.418 51.9642C134.192 50.5114 132.014 48.8727 129.912 47.0527C127.812 45.2356 125.791 43.2327 123.862 41.069ZM132.458 59.9258C133.706 57.4405 135.099 55.1028 136.604 52.9125C137.347 56.5172 138.415 60.0541 139.8 63.4656L129.16 67.7797C130.111 65.0349 131.211 62.4081 132.458 59.9258ZM137.484 72.051C134.846 71.1794 132.206 70.1086 129.589 68.8402L140.169 64.3549C141.605 67.7472 143.354 71.0053 145.379 74.0835C142.766 73.5967 140.126 72.9227 137.484 72.051ZM144.728 91.4683C144.559 88.5686 144.579 85.7206 144.781 82.9507C144.983 80.1778 145.371 77.4861 145.918 74.8858C147.99 77.9286 150.334 80.784 152.916 83.4064L144.728 91.4683ZM154.05 92.222C151.281 92.4226 148.434 92.4432 145.533 92.2751L153.595 84.0864C156.217 86.6689 159.073 89.014 162.115 91.0863C159.515 91.632 156.823 92.0199 154.05 92.222ZM154.297 83.374L162.365 75.1779C162.067 77.5761 161.93 80.0451 161.98 82.5701C162.031 85.0893 162.264 87.6601 162.683 90.2618C159.689 88.2235 156.878 85.9167 154.297 83.374ZM168.162 107.412C166.894 104.796 165.823 102.156 164.952 99.5169C164.078 96.8754 163.406 94.2367 162.919 91.6232C165.996 93.6482 169.254 95.396 172.646 96.8326L168.162 107.412ZM163.463 90.7839C166.03 90.1807 168.5 89.4211 170.848 88.5067C173.201 87.5908 175.428 86.5185 177.527 85.3238L173.037 95.9122C169.699 94.4993 166.493 92.778 163.463 90.7839ZM177.077 104.543C174.595 105.79 171.968 106.89 169.223 107.841L173.537 97.2013C176.947 98.5877 180.485 99.6556 184.09 100.397C181.898 101.902 179.562 103.296 177.077 104.543ZM173.912 96.275L178.229 85.6262C178.866 87.9521 179.686 90.281 180.698 92.5892C181.708 94.896 182.91 97.1792 184.297 99.4196C180.749 98.6895 177.269 97.6393 173.912 96.275ZM195.934 113.141C193.771 111.212 191.767 109.189 189.95 107.091C188.13 104.989 186.491 102.812 185.038 100.585C188.658 101.272 192.338 101.632 196.022 101.658L195.934 113.141ZM196.03 100.659C192.403 100.632 188.78 100.278 185.218 99.6025C187.354 98.0582 189.342 96.4078 191.159 94.66C192.979 92.9093 194.628 91.0656 196.118 89.1586L196.03 100.659ZM187.087 87.756C184.027 87.1512 181.03 86.2441 178.146 85.0554L177.996 84.9934C175.112 83.7928 172.345 82.3076 169.744 80.5672C167.121 78.812 164.67 76.7973 162.435 74.5643C160.202 72.3313 158.188 69.8785 156.434 67.2576C154.694 64.6573 153.21 61.8904 152.009 59.0084L151.946 58.8565C150.757 55.973 149.85 52.976 149.245 49.9155C148.635 46.8256 148.328 43.6722 148.328 40.5011C148.328 37.3301 148.635 34.1767 149.245 31.0867C149.851 28.0189 150.76 25.016 151.953 22.1266L152 22.0116C153.202 19.1237 154.689 16.3509 156.432 13.7447C158.188 11.1238 160.202 8.67098 162.435 6.43649C164.668 4.20346 167.121 2.18874 169.742 0.435066C172.341 -1.30386 175.105 -2.78762 177.985 -3.9882L178.148 -4.05606C181.03 -5.24484 184.025 -6.15043 187.084 -6.75515C190.174 -7.36576 193.328 -7.67255 196.499 -7.67255C199.67 -7.67107 202.823 -7.36576 205.913 -6.75515C208.978 -6.14895 211.978 -5.24189 214.864 -4.05016L214.994 -3.99706C217.88 -2.79501 220.652 -1.30976 223.255 0.43359C225.877 2.18874 228.329 4.20346 230.563 6.43649C232.796 8.67098 234.811 11.1223 236.565 13.7432C238.309 16.3494 239.798 19.1237 241 22.0145L241.044 22.1207C242.239 25.0116 243.149 28.0174 243.755 31.0867C244.367 34.1767 244.672 37.3301 244.674 40.5011C244.672 43.6722 244.367 46.8256 243.755 49.9155C243.15 52.973 242.246 55.9656 241.059 58.8461L240.986 59.0187C239.787 61.8962 238.304 64.6602 236.566 67.2561C234.811 69.8785 232.796 72.3298 230.563 74.5643C228.33 76.7973 225.877 78.8121 223.256 80.5657C220.653 82.3091 217.882 83.7943 214.996 84.9964L214.87 85.048C211.982 86.2412 208.981 87.1483 205.914 87.7545C202.824 88.3651 199.671 88.6719 196.5 88.6719C193.33 88.6733 190.177 88.368 187.087 87.756ZM229.54 90.7839C226.512 92.778 223.304 94.4978 219.964 95.9122L215.475 85.3238C217.574 86.5185 219.801 87.5893 222.153 88.5067C224.501 89.4211 226.973 90.1807 229.54 90.7839ZM196.885 89.1586C198.375 91.0656 200.022 92.9093 201.844 94.6585C203.661 96.4063 205.649 98.0567 207.785 99.601C204.223 100.276 200.6 100.632 196.973 100.657L196.885 89.1586ZM203.053 107.091C201.236 109.189 199.233 111.21 197.069 113.139L196.981 101.658C200.664 101.632 204.345 101.272 207.965 100.585C206.512 102.812 204.873 104.989 203.053 107.091ZM212.305 92.5892C213.317 90.281 214.137 87.9521 214.774 85.6262L219.091 96.275C215.734 97.6393 212.254 98.6895 208.706 99.4196C210.093 97.1806 211.295 94.896 212.305 92.5892ZM215.926 104.543C213.441 103.294 211.103 101.902 208.913 100.397C212.518 99.6541 216.054 98.5862 219.466 97.2013L223.78 107.841C221.035 106.89 218.408 105.79 215.926 104.543ZM228.051 99.5169C227.18 102.156 226.109 104.796 224.841 107.412L220.355 96.8326C223.748 95.396 227.006 93.6482 230.084 91.6217C229.597 94.2367 228.925 96.8754 228.051 99.5169ZM231.022 82.5701C231.074 80.0451 230.936 77.5761 230.637 75.1764L238.706 83.3725C236.125 85.9152 233.314 88.222 230.318 90.2618C230.739 87.6616 230.97 85.0893 231.022 82.5701ZM238.951 92.2205C236.178 92.0184 233.487 91.6305 230.886 91.0834C233.929 89.0111 236.784 86.6675 239.407 84.0849L247.469 92.2736C244.569 92.4418 241.722 92.4226 238.951 92.2205ZM248.274 91.4668L240.085 83.4049C242.668 80.7825 245.013 77.9271 247.085 74.8844C247.631 77.4861 248.02 80.1778 248.222 82.9507C248.423 85.7206 248.444 88.5671 248.274 91.4668ZM255.517 72.0496C252.876 72.9227 250.237 73.5953 247.622 74.0805C249.647 71.0038 251.395 67.7458 252.831 64.3535L263.411 68.8387C260.796 70.1071 258.156 71.1779 255.517 72.0496ZM253.202 63.4656C254.588 60.0541 255.656 56.5172 256.398 52.9125C257.902 55.1028 259.295 57.4405 260.544 59.9258C261.79 62.4081 262.89 65.0349 263.842 67.7812L253.202 63.4656ZM263.092 47.0527C260.989 48.8727 258.812 50.5114 256.587 51.9642C257.272 48.3447 257.634 44.6634 257.659 40.9805L269.141 41.069C267.212 43.2312 265.191 45.2356 263.092 47.0527Z" fill="black" fill-opacity="0.2"/>
<path d="M149.167 102.362C149.107 102.315 149.043 102.266 148.978 102.225C147.758 101.412 146.111 101.741 145.298 102.961C144.509 104.145 144.797 105.734 145.931 106.569C146.403 106.918 146.956 107.088 147.506 107.088C148.285 107.088 149.056 106.747 149.58 106.092C150.497 104.948 150.312 103.278 149.167 102.362Z" fill="black" fill-opacity="0.2"/>
<path d="M131.159 87.3694C129.94 88.182 129.611 89.8295 130.423 91.0493C130.466 91.1127 130.513 91.1776 130.561 91.238C131.086 91.8929 131.856 92.2336 132.634 92.2336C133.215 92.2336 133.801 92.0433 134.291 91.6525C135.41 90.7572 135.612 89.1392 134.764 87.9977C133.929 86.8664 132.342 86.5803 131.159 87.3694Z" fill="black" fill-opacity="0.2"/>
<path d="M137.708 95.6118C136.671 96.6486 136.671 98.3286 137.708 99.3654L137.711 99.3669C138.229 99.8846 138.907 100.144 139.586 100.144C140.264 100.144 140.944 99.8846 141.463 99.3669C142.5 98.33 142.499 96.6486 141.462 95.6133C140.425 94.5764 138.745 94.5764 137.708 95.6118Z" fill="black" fill-opacity="0.2"/>
<path d="M166.785 112.52C165.558 111.979 164.093 112.442 163.412 113.634C162.684 114.907 163.127 116.527 164.398 117.255C164.55 117.342 164.714 117.414 164.879 117.47C165.158 117.563 165.441 117.607 165.718 117.607C166.829 117.607 167.864 116.904 168.236 115.791C168.674 114.477 168.028 113.064 166.785 112.52Z" fill="black" fill-opacity="0.2"/>
<path d="M157.741 108.082C157.545 107.951 157.328 107.846 157.105 107.771C155.716 107.308 154.211 108.059 153.748 109.45C153.328 110.712 153.907 112.066 155.058 112.653C155.441 112.849 155.856 112.945 156.266 112.945C157.123 112.945 157.965 112.531 158.477 111.764C159.289 110.542 158.96 108.895 157.741 108.082Z" fill="black" fill-opacity="0.2"/>
<path d="M176.466 115.79C175.096 115.377 173.637 116.125 173.182 117.491C172.719 118.881 173.469 120.384 174.86 120.848C174.897 120.859 174.937 120.873 174.974 120.883C175.217 120.952 175.463 120.986 175.704 120.986C176.859 120.986 177.921 120.227 178.254 119.061C178.654 117.663 177.854 116.207 176.466 115.79Z" fill="black" fill-opacity="0.2"/>
<path d="M125.501 2.68177C125.882 2.87203 126.288 2.96201 126.686 2.96201C127.615 2.96201 128.512 2.47086 128.997 1.61689C129.681 0.416316 129.329 -1.12496 128.162 -1.90371C126.942 -2.71639 125.295 -2.38748 124.482 -1.16774C124.422 -1.07629 124.364 -0.977478 124.316 -0.878659C123.659 0.432534 124.19 2.02544 125.501 2.68177Z" fill="black" fill-opacity="0.2"/>
<path d="M120.846 12.1348C121.226 12.3251 121.632 12.4151 122.03 12.4151C123.003 12.4151 123.941 11.8782 124.406 10.9475C124.48 10.8015 124.54 10.6437 124.586 10.4858C124.989 9.07727 124.173 7.60823 122.763 7.20557C121.443 6.82946 120.07 7.52121 119.57 8.77048C119.058 10.0404 119.599 11.5124 120.846 12.1348Z" fill="black" fill-opacity="0.2"/>
<path d="M117.928 22.2977C118.171 22.3671 118.418 22.401 118.658 22.401C119.813 22.401 120.875 21.6414 121.208 20.4762C121.236 20.3804 121.258 20.2786 121.274 20.1798C121.515 18.7343 120.538 17.3671 119.093 17.1252C117.705 16.8922 116.392 17.783 116.074 19.1311C115.748 20.5043 116.558 21.9054 117.928 22.2977Z" fill="black" fill-opacity="0.2"/>
<path d="M117.025 53.7282C118.477 53.5202 119.484 52.1765 119.278 50.7252C119.275 50.7046 119.272 50.681 119.267 50.6603C119.027 49.2149 117.658 48.237 116.213 48.4789C114.781 48.7178 113.809 50.0615 114.025 51.4922C114.222 52.8078 115.353 53.7547 116.646 53.7547C116.772 53.7547 116.898 53.7459 117.025 53.7282Z" fill="black" fill-opacity="0.2"/>
<path d="M124.562 70.4124C124.064 69.1632 122.691 68.47 121.369 68.8475C119.961 69.2502 119.143 70.7192 119.546 72.1278C119.592 72.2856 119.652 72.4419 119.726 72.5894C120.191 73.5201 121.129 74.057 122.102 74.057C122.5 74.057 122.906 73.967 123.286 73.7753C124.533 73.1529 125.074 71.6824 124.562 70.4124Z" fill="black" fill-opacity="0.2"/>
<path d="M116.251 32.708C116.378 32.7257 116.504 32.7345 116.63 32.7345C117.92 32.7345 119.047 31.7935 119.249 30.4853C119.473 29.0502 118.5 27.6991 117.063 27.4602C115.618 27.2198 114.251 28.1962 114.009 29.6416C114.006 29.6623 114.001 29.6858 113.999 29.7065C113.792 31.1564 114.799 32.5 116.251 32.708Z" fill="black" fill-opacity="0.2"/>
<path d="M121.287 60.8169C120.97 59.4674 119.654 58.581 118.268 58.8096C116.822 59.05 115.846 60.4172 116.086 61.8641C116.102 61.9629 116.126 62.0647 116.153 62.1605C116.486 63.3257 117.548 64.0853 118.703 64.0853C118.945 64.0853 119.189 64.0528 119.433 63.982C120.804 63.5912 121.614 62.19 121.287 60.8169Z" fill="black" fill-opacity="0.2"/>
<path d="M128.977 79.3597C128.164 78.14 126.517 77.8096 125.297 78.6238C124.131 79.4025 123.778 80.9438 124.462 82.1443C124.946 82.9983 125.843 83.4894 126.774 83.4894C127.172 83.4894 127.577 83.3994 127.958 83.2092C129.269 82.5543 129.8 80.96 129.145 79.6488C129.095 79.55 129.038 79.4512 128.977 79.3597Z" fill="black" fill-opacity="0.2"/>
<path d="M115.959 43.2432C117.425 43.2432 118.612 42.053 118.612 40.5884C118.612 39.1223 117.425 37.935 115.959 37.935C114.493 37.935 113.306 39.1238 113.306 40.5884V40.5913C113.304 42.0574 114.493 43.2432 115.959 43.2432Z" fill="black" fill-opacity="0.2"/>
<path d="M207.056 117.703C206.771 117.703 206.484 117.749 206.214 117.839C204.823 118.302 204.072 119.805 204.535 121.196C204.905 122.308 205.941 123.011 207.053 123.011C207.175 123.011 207.298 123.002 207.42 122.986C208.714 122.809 209.711 121.7 209.711 120.356C209.711 118.892 208.522 117.703 207.056 117.703Z" fill="black" fill-opacity="0.2"/>
<path d="M196.543 118.389C195.077 118.389 193.89 119.578 193.89 121.044C193.89 122.51 195.078 123.697 196.543 123.697H196.546C198.012 123.697 199.198 122.51 199.198 121.044C199.198 119.578 198.009 118.389 196.543 118.389Z" fill="black" fill-opacity="0.2"/>
<path d="M186.4 117.74C185.156 117.564 183.926 118.294 183.515 119.529C183.052 120.92 183.802 122.423 185.193 122.886C185.463 122.976 185.751 123.022 186.035 123.022C187.501 123.022 188.689 121.834 188.689 120.368C188.69 119.027 187.693 117.918 186.4 117.74Z" fill="black" fill-opacity="0.2"/>
<path d="M216.657 115.756C216.62 115.766 216.581 115.78 216.544 115.791C215.153 116.254 214.402 117.757 214.865 119.148C215.236 120.26 216.271 120.964 217.383 120.964C217.637 120.964 217.896 120.927 218.15 120.849C219.538 120.433 220.337 118.976 219.938 117.579C219.536 116.17 218.069 115.355 216.657 115.756Z" fill="black" fill-opacity="0.2"/>
<path d="M332.423 40.4558C332.421 28.5474 330.873 16.7289 327.821 5.3278C324.762 -6.12787 320.196 -17.1543 314.243 -27.4448L314.221 -27.4832C314.216 -27.4906 314.21 -27.4994 314.206 -27.5082L314.196 -27.523C308.267 -37.7707 301.004 -47.219 292.613 -55.6083C284.225 -63.9991 274.776 -71.2601 264.526 -77.1922L264.512 -77.2011C264.503 -77.2055 264.495 -77.2114 264.488 -77.2158L264.45 -77.238C254.159 -83.1907 243.131 -87.76 231.676 -90.8175C220.273 -93.8706 208.45 -95.4193 196.539 -95.4193H196.466C184.557 -95.4193 172.734 -93.8706 161.33 -90.8175C149.872 -87.76 138.846 -83.1892 128.555 -77.238L128.517 -77.2158C128.508 -77.2114 128.501 -77.207 128.492 -77.2011L128.477 -77.1922C118.23 -71.2601 108.78 -63.9991 100.392 -55.6083C92.0012 -47.219 84.7402 -37.7707 78.8081 -27.523L78.7845 -27.4832C78.7815 -27.4788 78.78 -27.4743 78.7771 -27.4699L78.7623 -27.4448C72.8096 -17.1543 68.2403 -6.12788 65.1828 5.32925C62.1297 16.7304 60.5825 28.5503 60.5811 40.4573V40.5016V40.5458C60.5825 52.4543 62.1297 64.2743 65.1828 75.6739C68.2403 87.1295 72.8096 98.1575 78.7623 108.448L78.7845 108.486C78.7889 108.494 78.7933 108.503 78.7992 108.51L78.8081 108.525C84.7402 118.774 92.0012 128.224 100.392 136.611C108.78 145.002 118.23 152.263 128.477 158.194L128.492 158.203C128.501 158.209 128.51 158.213 128.517 158.219L128.555 158.241C138.846 164.194 149.872 168.762 161.33 171.821C172.729 174.872 184.548 176.421 196.458 176.422H196.469H196.502H196.534H196.546C208.456 176.421 220.276 174.872 231.674 171.821C243.127 168.763 254.155 164.195 264.448 158.241L264.487 158.219C264.494 158.215 264.503 158.209 264.512 158.203L264.525 158.194C274.773 152.265 284.222 145.004 292.612 136.611C301.003 128.222 308.265 118.772 314.194 108.525L314.219 108.486C314.225 108.476 314.231 108.466 314.237 108.455L314.241 108.448C320.194 98.1575 324.76 87.1295 327.819 75.6739C330.871 64.2728 332.42 52.4528 332.421 40.5458V40.5016L332.423 40.4558ZM162.43 167.707C151.319 164.741 140.626 160.307 130.647 154.53L130.628 154.518C120.694 148.772 111.535 141.734 103.404 133.601C95.2711 125.47 88.2328 116.309 82.485 106.376L82.4732 106.355C76.696 96.3773 72.2639 85.6841 69.2978 74.5751C66.3376 63.5162 64.8377 52.0516 64.8406 40.5031C64.8377 28.953 66.3376 17.4885 69.2978 6.43251C72.2639 -4.6795 76.696 -15.3712 82.4732 -25.3504C88.2224 -35.2914 95.2652 -44.458 103.404 -52.5951C111.541 -60.7351 120.707 -67.7764 130.648 -73.5256C140.626 -79.3014 151.319 -83.7335 162.431 -86.701C173.477 -89.6582 184.93 -91.1582 196.471 -91.1582H196.534C208.077 -91.1582 219.528 -89.6582 230.575 -86.701C241.687 -83.735 252.379 -79.3014 262.355 -73.5256C272.298 -67.7764 281.464 -60.7351 289.603 -52.5951C297.742 -44.458 304.783 -35.2929 310.532 -25.3504L310.547 -25.3224C316.315 -15.352 320.744 -4.6677 323.709 6.43251C326.669 17.4885 328.166 28.953 328.163 40.5031C328.166 52.0531 326.668 63.5176 323.709 74.5751C320.741 85.6871 316.309 96.3802 310.532 106.355L310.52 106.376C304.772 116.311 297.734 125.471 289.601 133.601C281.466 141.738 272.299 148.781 262.355 154.53L262.329 154.545C252.358 160.315 241.674 164.743 230.574 167.706C219.527 170.661 208.076 172.161 196.533 172.161H196.469C184.928 172.161 173.476 170.663 162.43 167.707Z" fill="black" fill-opacity="0.2"/>
<path d="M236.577 124.236L236.566 124.181L236.515 124.205C232.213 126.268 227.713 128.004 223.147 129.371L223.111 129.382L223.113 129.419C223.243 131.953 223.322 134.522 223.355 137.062V137.073L223.361 137.084C228.474 145.823 234.337 154.302 240.782 162.291L240.865 162.392L240.862 162.26C240.616 149.41 239.173 136.618 236.577 124.236Z" fill="black" fill-opacity="0.2"/>
<path d="M221.452 129.861L221.397 129.876C216.81 131.152 212.074 132.075 207.324 132.627L207.29 132.631L207.285 132.668C206.965 135.202 206.597 137.748 206.188 140.237L206.187 140.249L206.191 140.261C209.713 149.77 214.001 159.143 218.943 168.122L219.005 168.238L219.026 168.107C221.032 155.392 221.847 142.546 221.455 129.92L221.452 129.861Z" fill="black" fill-opacity="0.2"/>
<path d="M205.556 132.871L205.563 132.815L205.506 132.821C202.538 133.106 199.507 133.25 196.499 133.252C194.714 133.25 192.903 133.2 191.117 133.098L191.083 133.097L191.072 133.131C190.328 135.559 189.527 138.004 188.692 140.399L188.688 140.41L188.689 140.421C190.518 150.337 193.13 160.311 196.456 170.061L196.497 170.187L196.538 170.061C200.711 157.84 203.743 145.327 205.556 132.871Z" fill="black" fill-opacity="0.2"/>
<path d="M196.497 130.477H196.506H196.507H196.546C204.451 130.474 212.277 129.451 219.81 127.435C227.367 125.417 234.646 122.402 241.444 118.472L241.481 118.449L241.519 118.427C248.305 114.498 254.565 109.687 260.125 104.125C265.685 98.5647 270.498 92.3051 274.429 85.5176L274.438 85.5028C274.442 85.4955 274.446 85.4866 274.452 85.4792L274.474 85.4409C278.404 78.6445 281.418 71.3658 283.438 63.8068C285.458 56.2582 286.48 48.4161 286.48 40.5002C286.48 32.5829 285.457 24.7393 283.438 17.1921C281.42 9.63317 278.405 2.35445 274.474 -4.44048L274.452 -4.47883L274.43 -4.51864C270.5 -11.3047 265.688 -17.5643 260.126 -23.1247C254.566 -28.6866 248.307 -33.4993 241.52 -37.427L241.482 -37.4491C241.478 -37.452 241.475 -37.4535 241.47 -37.4565L241.445 -37.4712C234.649 -41.4004 227.37 -44.4166 219.811 -46.4343C212.264 -48.4534 204.425 -49.477 196.512 -49.477H196.496C188.583 -49.477 180.742 -48.4534 173.196 -46.4343C165.639 -44.4166 158.36 -41.4019 151.562 -37.4712L151.555 -37.4668C151.545 -37.4609 151.536 -37.455 151.526 -37.4491L151.486 -37.427C144.701 -33.4993 138.44 -28.6866 132.88 -23.1247C127.319 -17.5657 122.508 -11.3062 118.577 -4.51864L118.569 -4.50389C118.564 -4.49652 118.558 -4.48768 118.554 -4.47883L118.532 -4.44048C114.601 2.3574 111.586 9.63464 109.569 17.1936C107.548 24.7422 106.524 32.5858 106.524 40.5017C106.524 48.4161 107.548 56.2582 109.567 63.8083C111.585 71.3658 114.6 78.6445 118.53 85.4424L118.535 85.4497C118.541 85.4601 118.546 85.4704 118.552 85.4792L118.574 85.5176C122.504 92.3051 127.315 98.5632 132.877 104.125C138.439 109.687 144.698 114.498 151.483 118.427L151.523 118.449C151.533 118.455 151.542 118.46 151.552 118.466L151.559 118.47C158.357 122.399 165.636 125.415 173.194 127.433C180.726 129.449 188.552 130.472 196.457 130.476H196.497V130.477ZM173.775 125.259C166.394 123.29 159.287 120.343 152.649 116.5C146.02 112.665 139.903 107.966 134.471 102.531C129.038 97.0986 124.337 90.9836 120.502 84.3524C116.66 77.7138 113.713 70.6047 111.743 63.2272C109.774 55.8703 108.775 48.2214 108.775 40.5002C108.775 32.779 109.774 25.1316 111.743 17.7732C113.71 10.4045 116.651 3.30578 120.486 -3.32691L120.502 -3.35347C124.337 -9.98322 129.036 -16.0997 134.47 -21.5318C139.902 -26.9654 146.018 -31.6645 152.649 -35.5007C159.287 -39.3414 166.394 -42.2883 173.775 -44.2588C181.133 -46.2278 188.777 -47.2263 196.506 -47.2263C204.227 -47.2263 211.873 -46.2278 219.229 -44.2588C226.608 -42.2883 233.717 -39.3414 240.354 -35.5007C246.985 -31.6645 253.101 -26.9654 258.532 -21.5318C263.966 -16.0982 268.666 -9.98174 272.5 -3.35347L272.516 -3.32691C276.351 3.30578 279.293 10.4045 281.259 17.7732C283.228 25.1301 284.227 32.7775 284.227 40.5002C284.227 48.2229 283.228 55.8718 281.259 63.2272C279.292 70.6047 276.343 77.7138 272.5 84.3524L272.488 84.3716C268.657 90.9939 263.961 97.103 258.532 102.531C253.098 107.964 246.984 112.665 240.354 116.498L240.342 116.506C233.706 120.346 226.6 123.29 219.227 125.258C211.872 127.225 204.224 128.225 196.5 128.225H196.496C188.777 128.227 181.133 127.227 173.775 125.259Z" fill="black" fill-opacity="0.2"/>
<path d="M189.352 132.981L189.296 132.976C184.521 132.609 179.751 131.87 175.116 130.777L175.082 130.77L175.066 130.801C173.912 133.062 172.7 135.329 171.461 137.545L171.455 137.556V137.568C171.527 147.682 172.375 157.957 173.974 168.103L173.996 168.234L174.058 168.117C180.243 156.883 185.383 145.076 189.334 133.034L189.352 132.981Z" fill="black" fill-opacity="0.2"/>
<path d="M173.406 130.358L173.35 130.345C168.728 129.158 164.165 127.597 159.79 125.708L159.758 125.693L159.737 125.723C158.21 127.739 156.62 129.761 155.008 131.733L155.001 131.742L155 131.754C153.3 141.739 152.339 152.003 152.14 162.262L152.137 162.393L152.219 162.293C160.296 152.284 167.415 141.556 173.378 130.41L173.406 130.358Z" fill="black" fill-opacity="0.2"/>
<path d="M158.176 124.992L158.123 124.968C155.409 123.734 152.722 122.346 150.132 120.85C148.61 119.97 147.074 119.022 145.567 118.029L145.537 118.007L145.512 118.033C143.658 119.752 141.739 121.467 139.809 123.126L139.8 123.134L139.795 123.144C136.387 132.682 133.651 142.62 131.663 152.688L131.638 152.818L131.737 152.731C141.444 144.272 150.328 134.957 158.14 125.035L158.176 124.992Z" fill="black" fill-opacity="0.2"/>
<path d="M144.1 117.041L144.052 117.009C140.116 114.304 136.356 111.27 132.876 107.985L132.85 107.961L132.819 107.981C130.707 109.346 128.522 110.703 126.321 112.013L126.311 112.019L126.305 112.029C121.302 120.83 116.886 130.147 113.181 139.719L113.134 139.842L113.246 139.772C124.265 133.125 134.631 125.491 144.057 117.082L144.1 117.041Z" fill="black" fill-opacity="0.2"/>
<path d="M131.601 106.763L131.561 106.723C128.148 103.376 124.968 99.7392 122.107 95.903L122.086 95.8749L122.054 95.8882C119.728 96.872 117.34 97.8321 114.956 98.7363L114.945 98.7407L114.937 98.7495C108.493 106.549 102.535 114.962 97.2309 123.757L97.1631 123.869L97.2855 123.822C109.277 119.179 120.806 113.45 131.555 106.794L131.601 106.763Z" fill="black" fill-opacity="0.2"/>
<path d="M121.063 94.4764L121.029 94.4277C119.288 91.9956 117.647 89.4543 116.152 86.8673C115.268 85.3423 114.41 83.7553 113.602 82.1505L113.586 82.1166L113.552 82.1255C111.083 82.6948 108.565 83.2243 106.068 83.6992L106.056 83.7007L106.047 83.708C98.3467 90.2655 91.0208 97.5162 84.2701 105.262L84.1846 105.361L84.3129 105.336C96.919 102.847 109.267 99.2006 121.01 94.4941L121.063 94.4764Z" fill="black" fill-opacity="0.2"/>
<path d="M112.821 80.5631L112.796 80.5129C110.736 76.2121 108.997 71.7136 107.628 67.1444L107.618 67.1104L107.583 67.1119C105.044 67.2417 102.473 67.3228 99.9396 67.3538H99.9278L99.9174 67.3597C91.183 72.4717 82.7022 78.333 74.7111 84.7828L74.6094 84.8654L74.7406 84.8625C87.5901 84.6147 100.383 83.1722 112.765 80.5749L112.821 80.5631Z" fill="black" fill-opacity="0.2"/>
<path d="M100.871 65.5502C102.936 65.5502 105.026 65.5192 107.083 65.4528L107.141 65.4514L107.126 65.3968C105.852 60.8098 104.926 56.0752 104.374 51.323L104.37 51.2891L104.334 51.2847C101.812 50.9661 99.2664 50.5988 96.7664 50.1873L96.7546 50.1858L96.7428 50.1903C87.2311 53.7124 77.8565 58.0015 68.8816 62.9425L68.7666 63.0045L68.8964 63.0251C79.5246 64.7021 90.2827 65.5502 100.871 65.5502Z" fill="black" fill-opacity="0.2"/>
<path d="M104.187 49.5648L104.181 49.5072C103.896 46.5367 103.752 43.5058 103.75 40.5014C103.75 38.7123 103.803 36.8996 103.904 35.1194L103.905 35.0855L103.873 35.0752C101.446 34.3289 99.001 33.528 96.6028 32.6946L96.5925 32.6902L96.5807 32.6917C86.6634 34.5221 76.69 37.1342 66.9408 40.4601L66.8154 40.5014L66.9408 40.5427C79.1619 44.7108 91.6736 47.7432 104.131 49.5574L104.187 49.5648Z" fill="black" fill-opacity="0.2"/>
<path d="M103.967 33.3337L104.022 33.3514L104.026 33.2954C104.392 28.5225 105.131 23.7512 106.225 19.1155L106.234 19.0816L106.203 19.0654C103.941 17.9105 101.671 16.6982 99.4571 15.4622L99.4468 15.4563H99.435C89.3215 15.5285 79.0472 16.3766 68.8983 17.9754L68.7686 17.9975L68.8836 18.0595C80.1195 24.2438 91.9247 29.3839 103.967 33.3337Z" fill="black" fill-opacity="0.2"/>
<path d="M106.594 17.3777L106.645 17.4057L106.658 17.3496C107.845 12.7272 109.406 8.16387 111.294 3.78927L111.308 3.75682L111.279 3.73617C109.261 2.21111 107.24 0.62114 105.268 -0.992418L105.26 -0.999782L105.248 -1.00126C95.2641 -2.70184 85.0002 -3.66348 74.7406 -3.86112L74.6094 -3.86407L74.7111 -3.78147C84.7199 4.29517 95.4455 11.4146 106.594 17.3777Z" fill="black" fill-opacity="0.2"/>
<path d="M111.966 2.14102L112.011 2.17642L112.035 2.12332C113.269 -0.590517 114.656 -3.27927 116.153 -5.86775C117.03 -7.38543 117.979 -8.92082 118.974 -10.4341L118.994 -10.4636L118.97 -10.4887C117.247 -12.3441 115.533 -14.263 113.876 -16.1921L113.867 -16.201L113.856 -16.2054C104.318 -19.6139 94.3787 -22.3499 84.3139 -24.3381L84.1855 -24.3632L84.2711 -24.2643C92.7253 -14.5579 102.044 -5.67307 111.966 2.14102Z" fill="black" fill-opacity="0.2"/>
<path d="M75.983 112.115C75.1423 110.857 73.4417 110.516 72.1836 111.357C70.9772 112.162 70.6129 113.752 71.3223 114.992C71.8208 115.874 72.7471 116.382 73.7072 116.382C74.1187 116.382 74.5376 116.287 74.9314 116.09C76.2854 115.416 76.834 113.768 76.1571 112.414C76.104 112.312 76.045 112.211 75.983 112.115Z" fill="black" fill-opacity="0.2"/>
<path d="M111.654 152.08C111.592 152.029 111.526 151.981 111.459 151.936C110.2 151.096 108.498 151.437 107.658 152.697C106.843 153.919 107.139 155.558 108.312 156.422C108.8 156.782 109.371 156.959 109.94 156.959C110.742 156.959 111.54 156.608 112.082 155.931C113.027 154.748 112.835 153.024 111.654 152.08Z" fill="black" fill-opacity="0.2"/>
<path d="M159.506 175.736C158.092 175.307 156.587 176.083 156.118 177.491C155.639 178.928 156.416 180.48 157.851 180.959C157.89 180.971 157.929 180.984 157.969 180.994C158.22 181.068 158.474 181.101 158.723 181.101C159.915 181.101 161.012 180.316 161.356 179.111C161.77 177.67 160.941 176.164 159.506 175.736Z" fill="black" fill-opacity="0.2"/>
<path d="M88.024 129.362C86.8411 128.417 85.117 128.608 84.1715 129.79C83.3294 130.843 83.3898 132.33 84.2497 133.307C84.7821 133.919 85.5417 134.245 86.3175 134.245C86.8382 134.245 87.3677 134.096 87.8352 133.785C89.0948 132.945 89.4355 131.244 88.5948 129.984C88.437 129.75 88.2423 129.54 88.024 129.362Z" fill="black" fill-opacity="0.2"/>
<path d="M81.6023 120.873C80.5315 119.804 78.797 119.804 77.7262 120.873C76.7292 121.87 76.6613 123.445 77.5227 124.52C78.0566 125.194 78.8575 125.554 79.6701 125.554C80.1923 125.554 80.7203 125.405 81.1878 125.096C82.4474 124.253 82.7881 122.553 81.9474 121.295C81.8471 121.143 81.7291 121 81.6023 120.873Z" fill="black" fill-opacity="0.2"/>
<path d="M92.0806 137.385C90.821 138.228 90.4803 139.928 91.3195 141.186C91.4774 141.422 91.6706 141.632 91.8918 141.81C92.3962 142.214 93.0009 142.409 93.6012 142.409C94.405 142.409 95.2015 142.059 95.7428 141.382C96.6071 140.301 96.5215 138.766 95.5953 137.787C94.6971 136.828 93.2104 136.633 92.0806 137.385Z" fill="black" fill-opacity="0.2"/>
<path d="M149.152 172.47C149.114 172.458 149.074 172.443 149.034 172.431C147.578 172.014 146.062 172.858 145.646 174.313C145.238 175.746 146.044 177.234 147.454 177.681C147.73 177.768 148.01 177.81 148.285 177.81C149.432 177.81 150.503 177.085 150.884 175.936C151.363 174.499 150.587 172.948 149.152 172.47Z" fill="black" fill-opacity="0.2"/>
<path d="M139.226 168.47C137.956 167.91 136.443 168.387 135.74 169.618C134.989 170.932 135.445 172.606 136.759 173.358C136.917 173.448 137.085 173.522 137.256 173.581C137.543 173.675 137.834 173.722 138.122 173.722C139.269 173.722 140.338 172.997 140.722 171.848C141.175 170.491 140.509 169.032 139.226 168.47Z" fill="black" fill-opacity="0.2"/>
<path d="M120.493 158.293C119.318 157.446 117.669 157.66 116.753 158.806C115.807 159.989 115.999 161.711 117.181 162.658C117.243 162.708 117.31 162.757 117.375 162.8C117.843 163.112 118.371 163.261 118.892 163.261C119.776 163.261 120.647 162.832 121.175 162.042C121.999 160.807 121.689 159.151 120.493 158.293Z" fill="black" fill-opacity="0.2"/>
<path d="M129.827 163.838C129.625 163.703 129.402 163.593 129.172 163.518C127.737 163.039 126.184 163.815 125.706 165.25C125.269 166.555 125.871 167.955 127.061 168.561C127.455 168.761 127.883 168.86 128.306 168.86C129.191 168.86 130.061 168.433 130.589 167.639C131.428 166.38 131.088 164.676 129.827 163.838Z" fill="black" fill-opacity="0.2"/>
<path d="M99.7365 145.146C98.5742 146.117 98.4179 147.844 99.3854 149.008C99.5049 149.149 99.6376 149.281 99.7822 149.396C100.287 149.8 100.891 149.996 101.492 149.996C102.295 149.996 103.093 149.645 103.635 148.966C104.528 147.85 104.406 146.248 103.393 145.279C102.399 144.319 100.822 144.244 99.7365 145.146Z" fill="black" fill-opacity="0.2"/>
<path d="M59.4109 0.187856C59.6617 0.261602 59.9154 0.294064 60.1646 0.294064C61.3416 0.294064 62.4257 -0.46995 62.7841 -1.64694C63.2221 -3.06433 62.4463 -4.58055 61.0304 -5.05105C59.5953 -5.5304 58.0422 -4.75165 57.5629 -3.31656C57.5511 -3.27968 57.5378 -3.23838 57.5275 -3.20003C57.113 -1.74428 57.9552 -0.228071 59.4109 0.187856Z" fill="black" fill-opacity="0.2"/>
<path d="M53.6087 32.4469C53.74 32.4661 53.8712 32.475 53.9995 32.475C55.3417 32.475 56.5143 31.4883 56.709 30.1225C56.7267 29.9942 56.7355 29.8614 56.7355 29.7316C56.7355 28.2169 55.5084 26.9912 53.9951 26.9912C52.56 26.9912 51.3816 28.0945 51.265 29.5C51.1412 30.9381 52.1633 32.239 53.6087 32.4469Z" fill="black" fill-opacity="0.2"/>
<path d="M60.0277 72.5893C59.7033 71.1941 58.3419 70.2723 56.9083 70.5112C55.4157 70.7619 54.4068 72.1719 54.6546 73.6645C54.6723 73.7678 54.6944 73.8725 54.7239 73.9698C55.0691 75.1733 56.1649 75.958 57.3567 75.958C57.6059 75.958 57.8611 75.9241 58.1103 75.8518C59.5263 75.4491 60.3625 74.0067 60.0277 72.5893Z" fill="black" fill-opacity="0.2"/>
<path d="M55.663 65.1903C57.1616 64.975 58.2043 63.587 57.9905 62.0885C57.9875 62.0679 57.9831 62.0428 57.9787 62.0207C57.7309 60.528 56.3164 59.5207 54.8253 59.7699C53.3445 60.0162 52.3401 61.4071 52.5672 62.8879C52.7722 64.2434 53.9389 65.2183 55.2737 65.2183C55.4005 65.2168 55.5318 65.208 55.663 65.1903Z" fill="black" fill-opacity="0.2"/>
<path d="M62.8993 83.0175C62.8889 82.9792 62.8757 82.9364 62.8624 82.8995C62.383 81.4644 60.8314 80.6886 59.3963 81.1665C57.9848 81.6385 57.2105 83.1458 57.6397 84.5603C57.9952 85.7447 59.0822 86.5131 60.2621 86.5131C60.5114 86.5131 60.7651 86.4762 61.0158 86.4069C62.473 85.9895 63.3152 84.4733 62.8993 83.0175Z" fill="black" fill-opacity="0.2"/>
<path d="M66.5172 93.0466C66.0039 91.7546 64.5836 91.0378 63.2208 91.4286C61.7635 91.8446 60.9228 93.3608 61.3388 94.8165C61.3845 94.9788 61.4479 95.1395 61.5246 95.2915C62.0054 96.2516 62.9715 96.8077 63.9774 96.8077C64.3889 96.8077 64.8063 96.7162 65.2001 96.5171C66.4862 95.8755 67.0452 94.3549 66.5172 93.0466Z" fill="black" fill-opacity="0.2"/>
<path d="M56.5301 10.7464C56.7823 10.8187 57.0346 10.8526 57.2838 10.8526C58.477 10.8526 59.5743 10.068 59.918 8.86444C59.946 8.76562 59.9711 8.66089 59.9873 8.55913C60.2366 7.06651 59.2277 5.65354 57.7351 5.40428C56.3015 5.16682 54.9417 6.08571 54.6157 7.48393C54.2809 8.89984 55.1157 10.3423 56.5301 10.7464Z" fill="black" fill-opacity="0.2"/>
<path d="M54.41 54.3187C55.8554 54.1107 56.8761 52.8113 56.7522 51.3718C56.6371 49.9662 55.4572 48.8615 54.0207 48.8615C52.5074 48.8615 51.2803 50.0886 51.2803 51.6019C51.2803 51.7317 51.2891 51.8644 51.3068 51.9927C51.503 53.36 52.6741 54.3453 54.0177 54.3453C54.1475 54.3467 54.2788 54.3379 54.41 54.3187Z" fill="black" fill-opacity="0.2"/>
<path d="M54.8369 21.5725C54.9681 21.5931 55.0994 21.602 55.2277 21.602C56.5625 21.602 57.7292 20.6256 57.9342 19.2701C58.1598 17.7923 57.1554 16.3999 55.6746 16.1536C54.1805 15.9029 52.7705 16.9132 52.5212 18.4058C52.5183 18.4265 52.5139 18.4501 52.5109 18.4722C52.2985 19.9707 53.3383 21.3572 54.8369 21.5725Z" fill="black" fill-opacity="0.2"/>
<path d="M70.9123 102.811C70.2353 101.458 68.5893 100.908 67.2354 101.585C65.8814 102.262 65.3327 103.908 66.0097 105.262L66.0112 105.265C66.4905 106.224 67.4566 106.778 68.4625 106.778C68.874 106.778 69.2929 106.684 69.6867 106.489C71.0421 105.812 71.5893 104.165 70.9123 102.811Z" fill="black" fill-opacity="0.2"/>
<path d="M53.5968 43.4073C55.1101 43.4073 56.3372 42.1786 56.3372 40.6639C56.3372 39.1506 55.1101 37.9235 53.5968 37.9235C52.0836 37.9235 50.8564 39.1506 50.8564 40.6639V40.6668C50.8579 42.1816 52.0851 43.4073 53.5968 43.4073Z" fill="black" fill-opacity="0.2"/>
<path d="M202.055 180.561C200.542 180.561 199.314 181.788 199.314 183.301C199.314 184.815 200.542 186.043 202.055 186.043H202.058C203.571 186.043 204.797 184.815 204.797 183.301C204.797 181.788 203.567 180.561 202.055 180.561Z" fill="black" fill-opacity="0.2"/>
<path d="M191.108 180.567C189.594 180.567 188.367 181.794 188.367 183.307C188.367 184.819 189.594 186.049 191.108 186.049H191.111C192.625 186.049 193.85 184.82 193.85 183.307C193.85 181.794 192.622 180.567 191.108 180.567Z" fill="black" fill-opacity="0.2"/>
<path d="M212.967 179.729C212.674 179.729 212.377 179.778 212.098 179.871C210.66 180.35 209.886 181.902 210.364 183.338C210.747 184.486 211.817 185.212 212.963 185.212C213.089 185.212 213.216 185.203 213.343 185.185C214.679 185.004 215.707 183.856 215.707 182.47C215.707 180.955 214.48 179.729 212.967 179.729Z" fill="black" fill-opacity="0.2"/>
<path d="M170.134 178.203C169.888 178.132 169.631 178.097 169.378 178.097C167.863 178.097 166.636 179.324 166.636 180.837C166.636 182.201 167.631 183.334 168.935 183.542C169.084 183.566 169.233 183.579 169.382 183.579C170.574 183.579 171.671 182.796 172.016 181.591C172.434 180.136 171.589 178.62 170.134 178.203Z" fill="black" fill-opacity="0.2"/>
<path d="M180.572 179.772C179.288 179.593 178.021 180.348 177.596 181.621C177.117 183.058 177.892 184.609 179.329 185.087C179.608 185.18 179.906 185.23 180.199 185.23C181.712 185.23 182.939 184.002 182.939 182.487C182.939 181.101 181.909 179.955 180.572 179.772Z" fill="black" fill-opacity="0.2"/>
<path d="M223.354 178.099C222.042 178.303 221.041 179.438 221.041 180.807C221.041 182.321 222.268 183.548 223.781 183.548C224.035 183.548 224.293 183.512 224.537 183.442C225.992 183.026 226.834 181.509 226.418 180.055C226.034 178.707 224.705 177.884 223.354 178.099Z" fill="black" fill-opacity="0.2"/>
<path d="M220.278 207.421L219.864 207.476C221.842 207.202 223.817 206.895 225.783 206.55C222.619 202.899 219.627 199.16 216.808 195.346C217.25 194.236 217.68 193.116 218.1 192.001L216.394 192.233C214.256 197.744 211.823 203.215 209.099 208.62C212.438 208.374 215.767 208.026 219.085 207.581L218.396 207.675C215.975 213.224 213.256 218.722 210.248 224.148C216.351 223.698 222.435 222.945 228.467 221.889C225.076 218.275 221.855 214.573 218.812 210.789C219.312 209.669 219.801 208.544 220.278 207.421Z" fill="black" fill-opacity="0.2"/>
<path d="M203.534 208.939L203.166 208.952C205.146 208.875 207.123 208.766 209.099 208.62C206.313 204.672 203.706 200.654 201.276 196.582C201.828 195.517 202.366 194.451 202.894 193.38L201.173 193.442C198.499 198.713 195.536 203.918 192.294 209.033C195.614 209.114 198.936 209.095 202.256 208.984L201.639 209.007C198.68 214.288 195.437 219.493 191.912 224.601C198.024 224.751 204.142 224.601 210.248 224.149C207.234 220.22 204.399 216.213 201.744 212.148C202.352 211.08 202.95 210.012 203.534 208.939Z" fill="black" fill-opacity="0.2"/>
<path d="M186.725 208.805L186.262 208.775C188.269 208.896 190.283 208.98 192.296 209.032C189.911 204.827 187.708 200.576 185.69 196.283C186.343 195.278 186.983 194.27 187.615 193.256L185.901 193.15C182.722 198.134 179.268 203.022 175.537 207.79C178.864 208.203 182.205 208.514 185.548 208.728L184.839 208.684C181.376 213.651 177.635 218.511 173.619 223.244C179.694 223.997 185.803 224.448 191.914 224.598C189.305 220.387 186.874 216.126 184.629 211.82C185.339 210.82 186.038 209.812 186.725 208.805Z" fill="black" fill-opacity="0.2"/>
<path d="M170.016 207.016L169.584 206.945C171.563 207.262 173.547 207.547 175.535 207.793C173.578 203.376 171.808 198.926 170.23 194.454C170.979 193.519 171.717 192.578 172.444 191.632L170.746 191.355C167.091 196.001 163.166 200.523 158.978 204.892C162.236 205.634 165.515 206.272 168.809 206.817L168.144 206.709C164.206 211.308 159.997 215.769 155.526 220.076C161.5 221.434 167.541 222.492 173.619 223.246C171.433 218.8 169.436 214.316 167.631 209.806C168.436 208.884 169.231 207.952 170.016 207.016Z" fill="black" fill-opacity="0.2"/>
<path d="M153.563 203.566L153.146 203.455C155.081 203.968 157.025 204.449 158.978 204.892C157.472 200.3 156.156 195.696 155.035 191.089C155.873 190.236 156.701 189.374 157.518 188.504L155.858 188.059C151.758 192.314 147.4 196.418 142.794 200.348C145.96 201.411 149.161 202.378 152.384 203.25L151.732 203.075C147.351 207.256 142.717 211.272 137.835 215.11C143.643 217.06 149.55 218.719 155.525 220.076C153.792 215.434 152.252 210.774 150.907 206.106C151.805 205.266 152.689 204.42 153.563 203.566Z" fill="black" fill-opacity="0.2"/>
<path d="M137.538 198.486L137.149 198.339C139.019 199.042 140.901 199.714 142.793 200.348C141.755 195.629 140.91 190.916 140.253 186.22C141.174 185.453 142.084 184.68 142.985 183.897L141.382 183.287C136.874 187.113 132.127 190.756 127.15 194.203C130.196 195.582 133.284 196.864 136.407 198.056L135.77 197.814C130.992 201.534 125.978 205.066 120.737 208.395C126.318 210.918 132.028 213.159 137.835 215.11C136.576 210.315 135.513 205.526 134.643 200.747C135.619 200.001 136.584 199.244 137.538 198.486Z" fill="black" fill-opacity="0.2"/>
<path d="M122.109 191.826L121.816 191.678C123.58 192.551 125.357 193.393 127.152 194.205C126.591 189.407 126.223 184.629 126.04 179.895C127.032 179.222 128.015 178.545 128.991 177.854L127.451 177.087C122.584 180.439 117.494 183.593 112.198 186.523C115.065 188.186 117.984 189.756 120.946 191.244L120.412 190.979C115.286 194.199 109.943 197.216 104.398 200.003C109.699 203.07 115.154 205.874 120.736 208.395C119.966 203.5 119.389 198.625 119 193.784C120.049 193.14 121.084 192.486 122.109 191.826Z" fill="black" fill-opacity="0.2"/>
<path d="M104.134 185.293C105.237 184.756 106.333 184.209 107.419 183.651L107.031 183.408C108.736 184.476 110.457 185.515 112.199 186.521C112.122 181.691 112.23 176.905 112.522 172.169C113.575 171.601 114.622 171.023 115.661 170.437L114.205 169.519C109.027 172.37 103.647 174.998 98.0856 177.389C100.802 179.346 103.58 181.219 106.407 183.011L105.816 182.638C100.394 185.336 94.7803 187.8 88.9854 190.024C93.9529 193.604 99.0988 196.934 104.401 200.001C104.122 195.057 104.035 190.148 104.134 185.293Z" fill="black" fill-opacity="0.2"/>
<path d="M93.6149 174.059L93.32 173.828C94.8878 175.042 96.4748 176.231 98.0839 177.39C98.4881 172.575 99.0721 167.82 99.8302 163.141C100.936 162.678 102.035 162.209 103.127 161.728L101.773 160.672C96.3347 162.994 90.7226 165.075 84.9513 166.904C87.4395 169.101 89.9955 171.225 92.6061 173.271L92.1223 172.895C86.4616 175.039 80.6268 176.938 74.6416 178.576C79.2286 182.626 84.0147 186.449 88.9822 190.026C89.2005 185.078 89.6017 180.187 90.1813 175.364C91.3347 174.939 92.4778 174.505 93.6149 174.059Z" fill="black" fill-opacity="0.2"/>
<path d="M80.8365 163.147L79.4634 161.838C73.6198 163.41 67.6243 164.724 61.5078 165.759C65.67 170.246 70.0564 174.525 74.6463 178.576C75.3528 173.674 76.2378 168.846 77.2909 164.106C78.4796 163.798 79.6596 163.476 80.8365 163.147Z" fill="black" fill-opacity="0.2"/>
<path d="M91.5206 151.819L90.2757 150.631C84.6371 152.4 78.8422 153.919 72.9189 155.167C76.7331 159.274 80.7507 163.193 84.9528 166.904C85.8318 162.15 86.8834 157.479 88.1017 152.897C89.2492 152.55 90.3878 152.19 91.5206 151.819Z" fill="black" fill-opacity="0.2"/>
<path d="M69.1956 151.017L68.9345 150.715C70.2369 152.221 71.5643 153.706 72.9198 155.168C74.2634 150.526 75.7752 145.979 77.4404 141.54C78.6159 141.305 79.787 141.062 80.9507 140.807L79.8283 139.5C74.0392 140.705 68.1278 141.64 62.1086 142.296C64.116 144.942 66.203 147.528 68.3638 150.053L67.9596 149.582C61.9862 150.569 55.8948 151.278 49.7031 151.708C53.4022 156.585 57.3432 161.277 61.5083 165.762C62.6971 160.955 64.0555 156.239 65.5732 151.625C66.7841 151.432 67.9935 151.231 69.1956 151.017Z" fill="black" fill-opacity="0.2"/>
<path d="M58.8131 137.798L58.6435 137.554C59.7703 139.153 60.9251 140.734 62.1095 142.295C63.9074 137.81 65.8587 133.433 67.9575 129.184C69.1507 129.066 70.3381 128.939 71.5239 128.799L70.5386 127.395C64.6626 128.018 58.6833 128.364 52.6317 128.417C54.3515 131.226 56.1553 133.982 58.0358 136.686L57.7305 136.249C51.6892 136.638 45.5536 136.743 39.3516 136.551C42.5477 141.771 46.0034 146.832 49.704 151.708C51.3633 147.04 53.1818 142.481 55.1494 138.04C56.3736 137.97 57.5933 137.889 58.8131 137.798Z" fill="black" fill-opacity="0.2"/>
<path d="M49.7974 123.616L49.588 123.242C50.5703 124.985 51.5835 126.711 52.6307 128.417C54.8652 124.133 57.2413 119.976 59.7546 115.954C60.9522 115.957 62.1484 115.947 63.3401 115.926L62.4994 114.426C56.5865 114.463 50.6086 114.209 44.5792 113.661C46.0305 116.671 47.5747 119.636 49.203 122.554L48.8712 121.962C42.8211 121.746 36.709 121.236 30.5527 120.426C33.215 125.944 36.1515 131.327 39.3506 136.55C41.4642 132.069 43.7252 127.712 46.1278 123.491C47.3535 123.544 48.5777 123.587 49.7974 123.616Z" fill="black" fill-opacity="0.2"/>
<path d="M42.238 108.6L42.1038 108.294C42.8973 110.096 43.7203 111.886 44.5772 113.662C47.2291 109.621 50.0093 105.724 52.9105 101.975C54.1022 102.097 55.291 102.21 56.4812 102.304L55.7939 100.729C49.9105 100.177 43.9813 99.3261 38.0389 98.1742C39.1716 101.285 40.3988 104.361 41.7144 107.398L41.4799 106.861C35.4829 106.043 29.4475 104.926 23.4062 103.5C25.5021 109.258 27.887 114.911 30.5493 120.428C33.0994 116.18 35.7867 112.071 38.5964 108.109C39.8132 108.286 41.0256 108.45 42.238 108.6Z" fill="black" fill-opacity="0.2"/>
<path d="M36.2201 92.9042L36.0859 92.4868C36.7054 94.3939 37.3543 96.2907 38.0402 98.1741C41.0829 94.419 44.2422 90.8202 47.5047 87.3807C48.6773 87.6226 49.8513 87.8512 51.0238 88.0665L50.5003 86.4338C44.7009 85.2966 38.8912 83.8556 33.0933 82.1138C33.9163 85.3556 34.8396 88.5739 35.8558 91.7612L35.6449 91.1063C29.7585 89.6889 23.8677 87.9707 17.999 85.9471C19.5064 91.8851 21.3132 97.7464 23.4075 103.502C26.3706 99.5311 29.4547 95.7125 32.6494 92.0518C33.8396 92.3467 35.0313 92.6314 36.2201 92.9042Z" fill="black" fill-opacity="0.2"/>
<path d="M28.3434 75.4799C29.4983 75.8959 30.6546 76.2971 31.8109 76.6879L31.7165 76.244C32.1398 78.2071 32.5985 80.1658 33.0926 82.1141C36.4967 78.6849 39.9997 75.421 43.5911 72.3266C44.7341 72.685 45.8787 73.0286 47.0232 73.3634L46.6663 71.6806C41.0085 69.9667 35.3729 67.9505 29.7785 65.6364C30.2741 68.949 30.8699 72.2484 31.5646 75.5286L31.4171 74.8354C25.7018 72.8369 20.0146 70.536 14.3789 67.9372C15.283 73.9932 16.4925 80.0079 17.9998 85.9474C21.3479 82.2911 24.7992 78.8014 28.3434 75.4799Z" fill="black" fill-opacity="0.2"/>
<path d="M29.0451 60.1068L29.0009 59.6938C29.2251 61.6761 29.4832 63.6569 29.7781 65.6333C33.5082 62.561 37.3209 59.6628 41.2028 56.9387C42.3031 57.4107 43.4093 57.8679 44.514 58.3148L44.3252 56.6024C38.8695 54.3281 33.4595 51.7588 28.1233 48.9019C28.287 52.2411 28.551 55.5729 28.9109 58.8974L28.8371 58.2204C23.3505 55.6614 17.9198 52.809 12.5703 49.6674C12.8697 55.7779 13.4715 61.8767 14.3771 67.9341C18.0717 64.6333 21.8549 61.5065 25.7148 58.5567C26.8239 59.0861 27.9345 59.6024 29.0451 60.1068Z" fill="black" fill-opacity="0.2"/>
<path d="M27.9418 43.3324L27.9389 42.9976C27.9669 44.968 28.0274 46.9371 28.1247 48.9031C32.1394 46.2158 36.222 43.7085 40.3518 41.3766C41.4034 41.9548 42.455 42.5212 43.5125 43.0743L43.4933 41.3545C38.2883 38.5507 33.1571 35.4637 28.1247 32.0979C27.961 35.3973 27.8976 38.7026 27.9271 42.0049L27.9212 41.4401C22.7132 38.3516 17.5879 34.9829 12.5703 31.3325C12.2709 37.4416 12.2709 43.5566 12.5703 49.6657C16.5732 46.7512 20.6498 44.0167 24.7781 41.4607C25.8312 42.0993 26.8828 42.7203 27.9418 43.3324Z" fill="black" fill-opacity="0.2"/>
<path d="M28.4876 26.5361L28.5289 26.073C28.3578 28.0774 28.2221 30.0877 28.1248 32.098C32.3873 29.8163 36.6896 27.719 41.0303 25.8104C42.0185 26.4874 43.0126 27.1541 44.0081 27.8075L44.16 26.0921C39.2515 22.7928 34.4521 19.2191 29.7781 15.3695C29.2826 18.6851 28.8888 22.017 28.5923 25.3547L28.6543 24.6467C23.7738 21.0627 19.0068 17.2014 14.3771 13.0687C13.47 19.1247 12.8697 25.2249 12.5703 31.3355C16.8431 28.8296 21.1632 26.5037 25.5245 24.368C26.5083 25.0995 27.4979 25.8237 28.4876 26.5361Z" fill="black" fill-opacity="0.2"/>
<path d="M30.6944 9.87099L30.7755 9.43885C30.4083 11.4093 30.0764 13.3872 29.7785 15.3695C34.2431 13.5214 38.7371 11.8651 43.2445 10.399C44.1619 11.1719 45.0822 11.9315 46.0099 12.6822L46.3315 10.9919C41.7769 7.22351 37.3566 3.18667 33.0926 -1.11123C32.2726 2.12031 31.5513 5.37692 30.9245 8.65419L31.0484 8.00817C26.5499 3.9551 22.1915 -0.364922 17.9998 -4.94159C16.4939 0.994952 15.2845 7.00966 14.3789 13.0686C18.8774 10.9934 23.4098 9.10846 27.9614 7.41525C28.867 8.24563 29.7785 9.06421 30.6944 9.87099Z" fill="black" fill-opacity="0.2"/>
<path d="M196.501 193.576C175.836 193.576 155.789 189.529 136.917 181.548C118.689 173.838 102.319 162.799 88.2612 148.743C74.2038 134.684 63.1655 118.314 55.4562 100.086C47.4739 81.2144 43.4268 61.1673 43.4268 40.5023C43.4268 19.8387 47.4739 -0.209831 55.4562 -19.0814C63.1655 -37.3099 74.2023 -53.6799 88.2612 -67.7388C102.32 -81.7977 118.689 -92.8345 136.917 -100.544C155.789 -108.526 175.837 -112.573 196.501 -112.573C217.166 -112.573 237.213 -108.526 256.084 -100.544C274.313 -92.8345 290.684 -81.7977 304.742 -67.7388C318.798 -53.6799 329.836 -37.3099 337.545 -19.0814C345.528 -0.208359 349.575 19.8387 349.575 40.5023C349.575 61.1673 345.528 81.2144 337.545 100.086C329.836 118.314 318.798 134.686 304.742 148.743C290.683 162.799 274.313 173.838 256.084 181.548C237.213 189.529 217.166 193.576 196.501 193.576ZM196.501 -110.011C113.507 -110.011 45.9887 -42.4927 45.9887 40.5008C45.9887 123.494 113.507 191.014 196.501 191.014C279.494 191.014 347.014 123.494 347.014 40.5008C347.013 -42.4912 279.493 -110.011 196.501 -110.011Z" fill="black" fill-opacity="0.2"/>
<path d="M196.5 237.002C169.974 237.002 144.239 231.805 120.012 221.558C96.6128 211.661 75.5983 197.494 57.5541 179.447C39.5086 161.402 25.342 140.389 15.4438 116.989C5.19613 92.7607 0 67.0278 0 40.5015C0 13.9751 5.19613 -11.7592 15.4438 -35.9861C25.342 -59.3857 39.5086 -80.4003 57.5541 -98.4444C75.5983 -116.49 96.6128 -130.658 120.012 -140.556C144.241 -150.804 169.974 -156 196.5 -156C223.026 -156 248.761 -150.804 272.988 -140.556C296.387 -130.658 317.4 -116.49 335.446 -98.4444C353.493 -80.3988 367.659 -59.3857 377.556 -35.9861C387.805 -11.7592 393 13.9751 393 40.5015C393 67.0278 387.805 92.7622 377.556 116.989C367.658 140.389 353.493 161.403 335.446 179.447C317.402 197.494 296.387 211.661 272.988 221.558C248.761 231.805 223.028 237.002 196.5 237.002ZM196.5 -150.94C90.9403 -150.94 5.05896 -65.0597 5.05896 40.5015C5.05896 146.063 90.9403 231.943 196.5 231.943C302.061 231.943 387.941 146.063 387.941 40.5015C387.941 -65.0597 302.063 -150.94 196.5 -150.94Z" fill="black" fill-opacity="0.2"/>
</svg>
