<svg width="83" height="82" viewBox="0 0 83 82" fill="none" xmlns="http://www.w3.org/2000/svg">
<path d="M41.9939 67.9134C41.9303 68.022 41.8584 68.1059 41.778 68.1651C41.6938 68.2247 41.6011 68.2597 41.5001 68.2699C41.3252 68.2877 41.1772 68.2419 41.0562 68.1325C40.9312 68.0235 40.8541 67.8253 40.8248 67.5377L40.7216 66.5234C40.6923 66.2358 40.7277 66.0241 40.8277 65.8883C40.9243 65.7567 41.06 65.6821 41.2348 65.6643C41.3942 65.648 41.527 65.6797 41.6332 65.7592C41.7395 65.8387 41.8284 65.9985 41.8999 66.2385C41.9438 66.399 42.011 66.5197 42.1017 66.6008C42.2789 66.7595 42.5166 66.8766 42.8148 66.9523C43.1092 67.0283 43.4002 67.0517 43.6877 67.0225C44.0453 66.9861 44.3657 66.8749 44.6491 66.689C44.9326 66.5031 45.1711 66.2236 45.3648 65.8505C45.5585 65.4774 45.6308 65.0499 45.5817 64.568L45.5028 63.7927C45.4443 63.2176 45.1875 62.7588 44.7325 62.4164C44.2736 62.0744 43.6731 61.9412 42.9308 62.0167C42.4878 62.0618 42.1189 62.1602 41.8242 62.312C41.6525 62.4001 41.4761 62.5574 41.295 62.784C41.1833 62.921 41.0943 63.0106 41.0279 63.0527C40.9619 63.0986 40.8842 63.1262 40.7948 63.1353C40.6355 63.1515 40.4895 63.1055 40.3567 62.9973C40.224 62.8891 40.1493 62.7534 40.1327 62.5902C40.1161 62.4269 40.1799 62.2437 40.3241 62.0406C40.5335 61.7444 40.8168 61.4996 41.1741 61.3062C41.654 61.0453 42.1971 60.884 42.8034 60.8223C43.5106 60.7503 44.1628 60.8312 44.7598 61.0649C45.2422 61.2514 45.6701 61.5789 46.0437 62.0474C46.4177 62.5197 46.6349 63.0532 46.6954 63.6478L46.7779 64.4581C46.8412 65.0798 46.7564 65.6735 46.5234 66.2391C46.2869 66.8089 45.927 67.2657 45.4437 67.6094C44.9604 67.953 44.4312 68.1542 43.856 68.2127C43.5101 68.2479 43.1834 68.2399 42.8759 68.1888C42.5649 68.1419 42.2708 68.0501 41.9939 67.9134Z" fill="white"/>
<path d="M30.9393 64.7754C30.9801 64.7763 31.2931 64.539 31.8785 64.0636C32.2957 63.7266 32.5719 63.5082 32.7069 63.4082L32.8172 63.2961C32.5506 62.8771 32.3704 62.3628 32.2764 61.7534L32.0303 60.2137L31.8185 60.1451C31.4469 60.0246 31.2099 59.9005 31.1076 59.7729C31.0015 59.6441 30.9822 59.4756 31.0497 59.2675C31.1172 59.0594 31.2304 58.9319 31.3893 58.8849C31.5471 58.8416 31.8136 58.8808 32.1889 59.0024L32.3171 59.044C32.711 59.1717 32.9361 59.2755 32.9923 59.3553C33.0474 59.4389 33.1054 59.6651 33.1665 60.0339L33.4144 61.568C33.5522 62.397 33.8273 62.8783 34.2398 63.0121L34.563 63.1169L35.1739 61.233C35.1206 61.2198 35.068 61.2048 35.016 61.1879C34.4921 61.0181 34.2921 60.7418 34.4162 60.359C34.4837 60.1509 34.5969 60.0234 34.7559 59.9764C34.9099 59.9319 35.1727 59.9699 35.5443 60.0903L36.6869 60.4608C37.0548 60.5801 37.2918 60.7041 37.3978 60.833C37.5002 60.9606 37.5176 61.1285 37.4501 61.3365C37.3827 61.5446 37.2701 61.6703 37.1123 61.7136C36.9496 61.7594 36.6843 61.7227 36.3165 61.6034L34.8671 66.0736C34.9204 66.0867 34.973 66.1017 35.025 66.1186C35.5527 66.2897 35.7538 66.5684 35.6285 66.9549C35.5611 67.163 35.4485 67.2886 35.2907 67.3319C35.1329 67.3752 34.8683 67.3366 34.4967 67.2162L33.3541 66.8457C32.9862 66.7264 32.7511 66.603 32.6487 66.4754C32.5464 66.3477 32.529 66.1799 32.5964 65.9718C32.6639 65.7637 32.7771 65.6361 32.9361 65.5891C33.0938 65.5458 33.3567 65.5838 33.7245 65.7031L34.1908 64.2651L34.0347 64.2145C33.9084 64.1735 33.7959 64.1658 33.6973 64.1913C33.5987 64.2168 33.4358 64.3201 33.2088 64.5011L31.9773 65.4877C31.7171 65.6949 31.4539 65.8354 31.1877 65.9092C30.9214 65.9831 30.5895 65.9555 30.1919 65.8266C29.943 65.7459 29.7785 65.6515 29.6986 65.5435C29.6186 65.4354 29.5813 65.3289 29.5866 65.2238C29.5919 65.1188 29.6428 64.9176 29.7392 64.6204L29.7753 64.5089C29.8922 64.1485 30.0126 63.9165 30.1365 63.8129C30.2592 63.7131 30.4227 63.6963 30.6271 63.7626C31.0024 63.8842 31.1065 64.2219 30.9393 64.7754Z" fill="white"/>
<path d="M26.2373 57.5975L27.0604 56.675L26.1554 55.8675C25.9397 55.6751 25.8244 55.4963 25.8094 55.3311C25.789 55.1663 25.8386 55.0169 25.9582 54.8828C26.0752 54.7516 26.2181 54.6854 26.3868 54.6841C26.5499 54.6831 26.7394 54.7788 26.9551 54.9712L28.8963 56.7033C29.112 56.8957 29.23 57.0743 29.2505 57.2392C29.2654 57.4043 29.2131 57.5539 29.0935 57.688C28.9764 57.8192 28.8349 57.8839 28.6688 57.8823C28.5001 57.8836 28.3094 57.7894 28.0966 57.5995L27.9567 57.4747L24.8281 60.9811L24.9681 61.1059C25.1837 61.2984 25.3018 61.477 25.3223 61.6419C25.3372 61.807 25.2849 61.9566 25.1652 62.0907C25.0456 62.2248 24.9042 62.2923 24.741 62.2933C24.5723 62.2946 24.3802 62.199 24.1645 62.0066L22.1047 60.161C21.4985 59.6201 21.1672 59.0261 21.111 58.3792C21.0493 57.7325 21.2304 57.1717 21.6543 56.6966C21.8883 56.4342 22.1691 56.2398 22.4967 56.1133C22.7431 56.019 23.0494 55.9808 23.4156 55.9987C23.7763 56.0169 24.1064 56.0811 24.4059 56.1913C24.7 56.3018 25.0277 56.5183 25.3891 56.8408L26.2373 57.5975ZM25.4376 58.4938L24.6069 57.7526C24.2163 57.4042 23.8294 57.2159 23.446 57.188C23.0571 57.1603 22.7521 57.2704 22.5311 57.5181C22.3438 57.728 22.2732 57.9948 22.3194 58.3187C22.3626 58.6399 22.5561 58.9539 22.9001 59.2608L23.9319 60.1814L25.4376 58.4938Z" fill="white"/>
<path d="M17.82 46.6581C18.7905 46.2161 19.7401 46.1571 20.6688 46.4811C21.5923 46.8031 22.2386 47.3693 22.6077 48.1799C22.9396 48.9086 22.9707 49.6885 22.701 50.5196C22.3664 51.5475 21.6695 52.3027 20.6101 52.7851C19.5507 53.2675 18.5217 53.2983 17.5231 52.8774C16.7192 52.5353 16.1513 51.9999 15.8194 51.2711C15.4503 50.4606 15.4492 49.6005 15.8162 48.6908C16.178 47.7792 16.8459 47.1016 17.82 46.6581ZM18.3178 47.7512C17.653 48.054 17.1952 48.5049 16.9444 49.1042C16.6901 49.705 16.6795 50.2614 16.9126 50.7733C17.1441 51.2817 17.5699 51.6371 18.1901 51.8397C18.8103 52.0423 19.451 51.9931 20.1123 51.692C20.7735 51.3908 21.2313 50.9399 21.4856 50.339C21.7364 49.7398 21.746 49.186 21.5145 48.6777C21.2814 48.1657 20.8565 47.8077 20.2399 47.6035C19.6233 47.3993 18.9825 47.4485 18.3178 47.7512Z" fill="white"/>
<path d="M14.8874 37.4064L19.5863 37.3484C19.5822 37.0164 19.6301 36.7853 19.7301 36.6552C19.8301 36.525 19.9777 36.4587 20.173 36.4563C20.3917 36.4536 20.5488 36.522 20.6443 36.6615C20.7358 36.7971 20.784 37.0602 20.7888 37.4507L20.8007 38.4116C20.8055 38.8022 20.7639 39.0684 20.6758 39.2101C20.5876 39.3479 20.4322 39.4182 20.2096 39.4209C20.0026 39.4235 19.8514 39.3589 19.756 39.2273C19.6567 39.0957 19.6051 38.8698 19.6011 38.5495L14.9023 38.6075L14.9226 40.2538L18.268 40.2125C19.1508 40.2016 19.8325 40.3593 20.3131 40.6854C20.7898 41.0076 21.032 41.4891 21.04 42.1296C21.0503 42.9694 20.8485 43.3919 20.4345 43.397L19.7079 43.4059C19.3291 43.4106 19.0765 43.363 18.9503 43.2629C18.824 43.1629 18.7597 43.0133 18.7572 42.8141C18.7523 42.4157 19.0408 42.2129 19.6228 42.2057L19.8103 42.2034C19.8136 42.1526 19.815 42.1135 19.8147 42.0862C19.8122 41.8792 19.691 41.7146 19.4512 41.5926C19.2114 41.4705 18.8219 41.4128 18.2829 41.4195L14.9375 41.4608C14.9422 41.5232 14.9449 41.5877 14.9457 41.6541C14.9526 42.2126 14.753 42.4944 14.3467 42.4994C14.1319 42.5021 13.9787 42.4356 13.8872 42.3C13.7918 42.1644 13.7416 41.8994 13.7368 41.5049L13.6878 37.5384C13.683 37.1517 13.7247 36.8875 13.8128 36.7458C13.9009 36.6041 14.0543 36.5319 14.273 36.5292C14.4644 36.5268 14.6137 36.5894 14.7207 36.717C14.8278 36.8446 14.8833 37.0744 14.8874 37.4064Z" fill="white"/>
<path d="M18.272 26.8439L22.5954 28.6853C22.7255 28.3798 22.8626 28.1877 23.0065 28.1089C23.1505 28.0301 23.3123 28.0289 23.492 28.1055C23.6932 28.1912 23.8094 28.3171 23.8406 28.4832C23.8697 28.6442 23.8077 28.9044 23.6546 29.2638L23.2781 30.1479C23.125 30.5072 22.9796 30.734 22.8419 30.8282C22.7056 30.9188 22.5351 30.9205 22.3302 30.8332C22.1398 30.7521 22.0274 30.6321 21.9932 30.4731C21.9554 30.3127 21.9993 30.0851 22.1248 29.7904L17.8013 27.9491L17.1562 29.4639L20.2343 30.7749C21.0466 31.1208 21.6068 31.5398 21.9152 32.0321C22.2215 32.5192 22.2491 33.0574 21.9981 33.6468C21.669 34.4195 21.314 34.7247 20.933 34.5625L20.2646 34.2778C19.916 34.1293 19.7041 33.9838 19.6288 33.8414C19.5536 33.699 19.5551 33.5361 19.6331 33.3529C19.7893 32.9863 20.1351 32.917 20.6705 33.1451L20.8431 33.2186C20.8665 33.1734 20.8836 33.1382 20.8944 33.113C20.9755 32.9226 20.9309 32.7231 20.7607 32.5148C20.5904 32.3064 20.2573 32.0966 19.7614 31.8854L16.6832 30.5744C16.6623 30.6334 16.6389 30.6935 16.6128 30.7546C16.394 31.2685 16.0976 31.4459 15.7239 31.2867C15.5262 31.2025 15.4128 31.0799 15.3837 30.9189C15.3511 30.7564 15.412 30.4937 15.5666 30.1307L17.121 26.4811C17.2725 26.1253 17.4171 25.9003 17.5549 25.8061C17.6927 25.712 17.8622 25.7077 18.0634 25.7934C18.2395 25.8684 18.3508 25.9859 18.3974 26.1458C18.4439 26.3058 18.4021 26.5385 18.272 26.8439Z" fill="white"/>
<path d="M43.2325 12.9298C43.3048 12.8269 43.3835 12.7492 43.4685 12.6968C43.5573 12.6444 43.6526 12.6172 43.7541 12.6153C43.9299 12.6121 44.0735 12.6699 44.1851 12.789C44.3007 12.9079 44.3611 13.1119 44.3665 13.4009L44.3855 14.4203C44.3909 14.7093 44.3381 14.9173 44.2272 15.0444C44.1201 15.1675 43.9786 15.2307 43.8029 15.234C43.6428 15.237 43.513 15.1945 43.4137 15.1065C43.3144 15.0185 43.239 14.8519 43.1876 14.6067C43.1572 14.4432 43.1001 14.3173 43.0165 14.229C42.853 14.0562 42.6259 13.9198 42.3349 13.8197C42.0478 13.7196 41.7598 13.6722 41.4708 13.6776C41.1114 13.6843 40.7829 13.7685 40.4851 13.9303C40.1872 14.0922 39.9264 14.351 39.7025 14.7068C39.4786 15.0626 39.3712 15.4826 39.3802 15.9669L39.3947 16.7461C39.4055 17.3241 39.6234 17.8025 40.0485 18.1814C40.4775 18.5602 41.065 18.7426 41.811 18.7287C42.2562 18.7205 42.632 18.6529 42.9383 18.5261C43.1166 18.4524 43.3054 18.3102 43.5046 18.0994C43.6273 17.9721 43.7234 17.8902 43.7931 17.8538C43.8626 17.8134 43.9423 17.7924 44.0322 17.7907C44.1923 17.7877 44.334 17.8457 44.4574 17.9645C44.5807 18.0833 44.6439 18.2247 44.6469 18.3888C44.65 18.5528 44.5712 18.7301 44.4107 18.9206C44.1776 19.1984 43.875 19.4189 43.5029 19.5821C43.0031 19.8024 42.4485 19.9183 41.8392 19.9296C41.1284 19.9428 40.4852 19.8083 39.9095 19.526C39.4443 19.3003 39.0449 18.9385 38.7113 18.4407C38.3777 17.939 38.2053 17.3894 38.1942 16.7919L38.179 15.9775C38.1674 15.3527 38.3011 14.768 38.58 14.2237C38.8628 13.6753 39.2593 13.2499 39.7694 12.9474C40.2794 12.6449 40.8235 12.4882 41.4015 12.4775C41.7491 12.471 42.074 12.506 42.3763 12.5824C42.6824 12.6548 42.9678 12.7706 43.2325 12.9298Z" fill="white"/>
<path d="M53.9892 16.9714C53.9487 16.9671 53.6171 17.1777 52.9944 17.6031C52.5507 17.9044 52.2575 18.0993 52.1146 18.1877L51.9954 18.2903C52.2264 18.7299 52.3635 19.2573 52.4067 19.8725L52.5247 21.4272L52.7301 21.5132C53.0904 21.664 53.3163 21.8072 53.4077 21.9429C53.5028 22.08 53.5081 22.2495 53.4236 22.4513C53.3392 22.6531 53.2158 22.7708 53.0535 22.8046C52.8927 22.8346 52.6303 22.7735 52.2663 22.6212L52.142 22.5692C51.7601 22.4094 51.5443 22.2873 51.4949 22.2031C51.447 22.1153 51.4078 21.8851 51.3774 21.5124L51.2573 19.9631C51.1885 19.1256 50.9542 18.6231 50.5542 18.4557L50.2407 18.3245L49.4762 20.1514C49.5281 20.1689 49.5793 20.1883 49.6298 20.2094C50.1378 20.422 50.3142 20.7139 50.1589 21.085C50.0745 21.2868 49.9511 21.4046 49.7888 21.4383C49.6316 21.4699 49.3728 21.4103 49.0124 21.2595L47.9044 20.7958C47.5477 20.6465 47.3218 20.5032 47.2267 20.3661C47.1353 20.2304 47.1318 20.0617 47.2162 19.8599C47.3007 19.6581 47.4233 19.5422 47.5841 19.5121C47.75 19.4799 48.0114 19.5384 48.3681 19.6877L50.1823 15.3528C50.1303 15.3353 50.0791 15.316 50.0287 15.2949C49.517 15.0807 49.3395 14.7863 49.4964 14.4115C49.5808 14.2097 49.7034 14.0938 49.8643 14.0637C50.0251 14.0336 50.2856 14.0939 50.646 14.2447L51.754 14.7085C52.1108 14.8578 52.3349 15.0002 52.4263 15.1359C52.5177 15.2716 52.5212 15.4403 52.4368 15.6421C52.3523 15.8439 52.2289 15.9616 52.0666 15.9953C51.9058 16.0254 51.647 15.9658 51.2903 15.8165L50.7067 17.211L50.858 17.2744C50.9806 17.3257 51.092 17.3427 51.1924 17.3254C51.2928 17.3081 51.4636 17.2187 51.7048 17.0571L53.0138 16.1757C53.2902 15.9908 53.5641 15.8725 53.8355 15.8209C54.1069 15.7694 54.4354 15.8243 54.821 15.9856C55.0624 16.0867 55.2185 16.1943 55.2892 16.3086C55.36 16.4229 55.3884 16.5322 55.3744 16.6364C55.3604 16.7407 55.2931 16.9369 55.1724 17.2252L55.1272 17.3333C54.9809 17.6828 54.8417 17.9041 54.7097 17.997C54.5791 18.0864 54.4148 18.0896 54.2166 18.0066C53.8526 17.8543 53.7769 17.5092 53.9892 16.9714Z" fill="white"/>
<path d="M58.0817 24.5137L57.1851 25.3649L58.0202 26.2445C58.2193 26.4541 58.3194 26.6419 58.3206 26.8077C58.3274 26.9736 58.2656 27.1185 58.1353 27.2422C58.0078 27.3632 57.86 27.4174 57.6917 27.4048C57.529 27.3923 57.3482 27.2812 57.1491 27.0716L55.3579 25.1849C55.1588 24.9753 55.0559 24.7875 55.0492 24.6215C55.048 24.4557 55.1125 24.3109 55.2428 24.1872C55.3703 24.0662 55.5167 24.0133 55.6821 24.0287C55.8503 24.0413 56.0326 24.1511 56.229 24.3579L56.3581 24.4938L59.7659 21.2582L59.6368 21.1223C59.4378 20.9126 59.3349 20.7248 59.3282 20.5589C59.3269 20.3931 59.3915 20.2483 59.5218 20.1246C59.6521 20.0009 59.7986 19.9452 59.9613 19.9578C60.1295 19.9704 60.3131 20.0815 60.5122 20.2912L62.4122 22.3008C62.9716 22.8901 63.2526 23.5094 63.2551 24.1588C63.2631 24.8083 63.0362 25.3522 62.5745 25.7907C62.3195 26.0327 62.0236 26.2033 61.6867 26.3023C61.4334 26.3758 61.1249 26.3886 60.7615 26.3405C60.4035 26.2925 60.0798 26.2012 59.7904 26.0666C59.5066 25.9321 59.1979 25.6893 58.8644 25.338L58.0817 24.5137ZM58.9528 23.6866L59.7193 24.494C60.0797 24.8736 60.4498 25.0931 60.8296 25.1527C61.2148 25.2125 61.5279 25.128 61.7687 24.8994C61.9726 24.7057 62.065 24.4456 62.0459 24.1191C62.0294 23.7954 61.8625 23.4664 61.5451 23.1321L60.593 22.1293L58.9528 23.6866Z" fill="white"/>
<path d="M65.5653 36.1119C64.5616 36.472 63.6103 36.4523 62.7116 36.0526C61.8179 35.6554 61.2206 35.0376 60.9199 34.1993C60.6494 33.4455 60.683 32.6657 61.0205 31.8599C61.4389 30.8631 62.1959 30.1682 63.2916 29.775C64.3873 29.3819 65.4153 29.4364 66.3756 29.9384C67.1485 30.3458 67.6701 30.9264 67.9406 31.6802C68.2414 32.5185 68.1713 33.3757 67.7304 34.2519C67.2944 35.1304 66.5727 35.7504 65.5653 36.1119ZM65.1596 34.9813C65.8472 34.7346 66.3407 34.323 66.6402 33.7466C66.9434 33.1689 67 32.6153 66.81 32.0858C66.6213 31.5601 66.2264 31.1706 65.625 30.9174C65.0237 30.6642 64.3811 30.6603 63.6973 30.9056C63.0134 31.151 62.5199 31.5626 62.2167 32.1403C61.9172 32.7167 61.8618 33.2678 62.0505 33.7936C62.2404 34.323 62.6342 34.715 63.2319 34.9696C63.8295 35.2241 64.4721 35.228 65.1596 34.9813Z" fill="white"/>
<path d="M67.7226 45.5744L63.0351 45.2435C63.0117 45.5747 62.9448 45.801 62.8344 45.9224C62.724 46.0439 62.5714 46.0977 62.3766 46.084C62.1584 46.0686 62.0075 45.9874 61.9238 45.8405C61.8438 45.6978 61.8176 45.4317 61.8451 45.042L61.9128 44.0835C61.9403 43.6938 62.0038 43.432 62.1033 43.298C62.2026 43.168 62.3632 43.1108 62.5853 43.1265C62.7919 43.1411 62.9372 43.2179 63.0214 43.357C63.1094 43.4963 63.1422 43.7258 63.1196 44.0453L67.8072 44.3762L67.9231 42.7338L64.5857 42.4982C63.7051 42.436 63.0388 42.2226 62.5868 41.8578C62.1384 41.4972 61.9368 40.9974 61.9819 40.3584C62.041 39.5206 62.2771 39.1163 62.6902 39.1455L63.4149 39.1966C63.7929 39.2233 64.0406 39.2917 64.1582 39.4018C64.2757 39.5119 64.3275 39.6663 64.3134 39.8651C64.2854 40.2625 63.9811 40.4408 63.4005 40.3998L63.2134 40.3866C63.206 40.4369 63.2013 40.4758 63.1993 40.503C63.1848 40.7096 63.2919 40.8836 63.5208 41.025C63.7497 41.1665 64.133 41.2562 64.6707 41.2942L68.0081 41.5298C68.0086 41.4671 68.0112 41.4027 68.0159 41.3365C68.0552 40.7793 68.2775 40.515 68.6828 40.5436C68.8971 40.5587 69.0442 40.6376 69.1242 40.7803C69.2081 40.9233 69.2362 41.1916 69.2084 41.5851L68.929 45.5421C68.9018 45.9278 68.8384 46.1877 68.7389 46.3216C68.6394 46.4556 68.4805 46.5149 68.2623 46.4994C68.0714 46.486 67.9279 46.4112 67.8317 46.2752C67.7356 46.1392 67.6992 45.9056 67.7226 45.5744Z" fill="white"/>
<path d="M63.4758 55.8208L59.3195 53.6281C59.1646 53.9217 59.0121 54.1019 58.8621 54.1685C58.7121 54.2351 58.5508 54.2229 58.378 54.1318C58.1846 54.0297 58.0792 53.8946 58.0619 53.7265C58.0462 53.5636 58.1295 53.3095 58.3118 52.964L58.7601 52.114C58.9424 51.7685 59.1061 51.5546 59.2512 51.4721C59.3944 51.3931 59.5645 51.4056 59.7614 51.5095C59.9446 51.6061 60.0466 51.735 60.0675 51.8962C60.0919 52.0592 60.0294 52.2824 59.88 52.5657L64.0363 54.7584L64.8045 53.3021L61.8453 51.741C61.0645 51.3291 60.5408 50.8651 60.2743 50.349C60.0093 49.8383 60.0263 49.2996 60.3252 48.733C60.7171 47.9902 61.0961 47.7154 61.4624 47.9086L62.105 48.2476C62.4401 48.4244 62.6393 48.5869 62.7024 48.735C62.7656 48.8832 62.7507 49.0453 62.6578 49.2216C62.4718 49.574 62.1215 49.6144 61.6067 49.3428L61.4409 49.2553C61.4137 49.2984 61.3938 49.332 61.381 49.3562C61.2844 49.5393 61.3123 49.7418 61.4647 49.9635C61.6172 50.1852 61.9318 50.4219 62.4086 50.6734L65.3677 52.2345C65.3934 52.1774 65.4218 52.1195 65.4528 52.0608C65.7134 51.5667 66.0234 51.4145 66.3827 51.604C66.5727 51.7043 66.6756 51.8358 66.6912 51.9987C66.7104 52.1633 66.6279 52.4201 66.4438 52.7691L64.5929 56.2776C64.4124 56.6196 64.2496 56.8319 64.1046 56.9143C63.9595 56.9968 63.7902 56.987 63.5967 56.8849C63.4274 56.7956 63.3262 56.6693 63.2931 56.5061C63.26 56.3429 63.3209 56.1144 63.4758 55.8208Z" fill="white"/>
<path d="M34.7892 60.5345C34.8464 60.3153 34.9716 60.1522 35.165 60.0451C35.3584 59.9381 35.5912 59.9201 35.8634 59.991C36.1355 60.0619 36.3299 60.1913 36.4465 60.3791C36.563 60.5669 36.5927 60.7704 36.5356 60.9897C36.4785 61.2089 36.3532 61.372 36.1598 61.4791C35.9664 61.5861 35.7336 61.6041 35.4614 61.5332C35.1893 61.4623 34.9949 61.3329 34.8784 61.1451C34.7618 60.9573 34.7321 60.7538 34.7892 60.5345Z" fill="white"/>
<path d="M29.4333 21.1738L29.9229 19.0718L27.8208 18.5822L27.3312 20.6843L29.4333 21.1738Z" fill="white"/>
<path d="M42.2048 41.9219L42.6943 39.8198L40.5922 39.3303L40.1027 41.4323L42.2048 41.9219Z" fill="white"/>
<path d="M55.66 62.612L56.1572 60.5117L54.0569 60.0145L53.5597 62.1148L55.66 62.612Z" fill="white"/>
</svg>
