<svg width="83" height="82" viewBox="0 0 83 82" fill="none" xmlns="http://www.w3.org/2000/svg">
<path d="M41.994 67.9134C41.9305 68.022 41.8585 68.1059 41.7782 68.1651C41.6939 68.2247 41.6013 68.2597 41.5003 68.2699C41.3254 68.2877 41.1774 68.2419 41.0563 68.1325C40.9314 68.0235 40.8543 67.8253 40.825 67.5377L40.7217 66.5234C40.6925 66.2358 40.7278 66.0241 40.8279 65.8883C40.9244 65.7567 41.0601 65.6821 41.235 65.6643C41.3944 65.648 41.5272 65.6797 41.6334 65.7592C41.7397 65.8387 41.8286 65.9985 41.9001 66.2385C41.9439 66.399 42.0112 66.5197 42.1019 66.6008C42.279 66.7595 42.5167 66.8766 42.815 66.9523C43.1094 67.0283 43.4003 67.0517 43.6879 67.0225C44.0454 66.9861 44.3659 66.8749 44.6493 66.689C44.9327 66.5031 45.1713 66.2236 45.365 65.8505C45.5586 65.4774 45.631 65.0499 45.5819 64.568L45.503 63.7927C45.4444 63.2176 45.1877 62.7588 44.7327 62.4164C44.2738 62.0744 43.6733 61.9412 42.931 62.0167C42.488 62.0618 42.1191 62.1602 41.8244 62.312C41.6527 62.4001 41.4763 62.5574 41.2952 62.784C41.1835 62.921 41.0945 63.0106 41.0281 63.0527C40.9621 63.0986 40.8844 63.1262 40.795 63.1353C40.6357 63.1515 40.4896 63.1055 40.3569 62.9973C40.2242 62.8891 40.1495 62.7534 40.1329 62.5902C40.1163 62.4269 40.1801 62.2437 40.3243 62.0406C40.5337 61.7444 40.817 61.4996 41.1742 61.3062C41.6542 61.0453 42.1973 60.884 42.8035 60.8223C43.5108 60.7503 44.163 60.8312 44.76 61.0649C45.2423 61.2514 45.6703 61.5789 46.0439 62.0474C46.4178 62.5197 46.6351 63.0532 46.6956 63.6478L46.7781 64.4581C46.8414 65.0798 46.7565 65.6735 46.5235 66.2391C46.2871 66.8089 45.9272 67.2657 45.4439 67.6094C44.9606 67.953 44.4313 68.1542 43.8562 68.2127C43.5103 68.2479 43.1836 68.2399 42.8761 68.1888C42.565 68.1419 42.271 68.0501 41.994 67.9134Z" fill="black"/>
<path d="M30.9398 64.7754C30.9806 64.7763 31.2936 64.539 31.879 64.0636C32.2962 63.7266 32.5723 63.5082 32.7074 63.4082L32.8177 63.2961C32.5511 62.8771 32.3708 62.3628 32.2769 61.7534L32.0308 60.2137L31.819 60.1451C31.4474 60.0246 31.2104 59.9005 31.1081 59.7729C31.002 59.6441 30.9827 59.4756 31.0502 59.2675C31.1176 59.0594 31.2309 58.9319 31.3898 58.8849C31.5476 58.8416 31.8141 58.8808 32.1894 59.0024L32.3176 59.044C32.7115 59.1717 32.9366 59.2755 32.9928 59.3553C33.0478 59.4389 33.1059 59.6651 33.167 60.0339L33.4149 61.568C33.5527 62.397 33.8278 62.8783 34.2403 63.0121L34.5635 63.1169L35.1743 61.233C35.1211 61.2198 35.0685 61.2048 35.0165 61.1879C34.4925 61.0181 34.2926 60.7418 34.4167 60.359C34.4842 60.1509 34.5974 60.0234 34.7564 59.9764C34.9104 59.9319 35.1732 59.9699 35.5448 60.0903L36.6874 60.4608C37.0553 60.5801 37.2923 60.7041 37.3983 60.833C37.5007 60.9606 37.5181 61.1285 37.4506 61.3365C37.3832 61.5446 37.2706 61.6703 37.1128 61.7136C36.9501 61.7594 36.6848 61.7227 36.317 61.6034L34.8676 66.0736C34.9209 66.0867 34.9735 66.1017 35.0255 66.1186C35.5531 66.2897 35.7543 66.5684 35.629 66.9549C35.5616 67.163 35.4489 67.2886 35.2912 67.3319C35.1334 67.3752 34.8687 67.3366 34.4972 67.2162L33.3546 66.8457C32.9867 66.7264 32.7516 66.603 32.6492 66.4754C32.5469 66.3477 32.5295 66.1799 32.5969 65.9718C32.6644 65.7637 32.7776 65.6361 32.9366 65.5891C33.0943 65.5458 33.3571 65.5838 33.725 65.7031L34.1913 64.2651L34.0352 64.2145C33.9089 64.1735 33.7964 64.1658 33.6978 64.1913C33.5992 64.2168 33.4363 64.3201 33.2093 64.5011L31.9778 65.4877C31.7176 65.6949 31.4544 65.8354 31.1882 65.9092C30.9219 65.9831 30.59 65.9555 30.1924 65.8266C29.9435 65.7459 29.779 65.6515 29.6991 65.5435C29.6191 65.4354 29.5818 65.3289 29.5871 65.2238C29.5924 65.1188 29.6433 64.9176 29.7397 64.6204L29.7758 64.5089C29.8927 64.1485 30.0131 63.9165 30.137 63.8129C30.2597 63.7131 30.4232 63.6963 30.6276 63.7626C31.0029 63.8842 31.107 64.2219 30.9398 64.7754Z" fill="black"/>
<path d="M26.2376 57.5975L27.0607 56.675L26.1557 55.8675C25.94 55.6751 25.8247 55.4963 25.8098 55.3311C25.7893 55.1663 25.8389 55.0169 25.9585 54.8828C26.0756 54.7516 26.2184 54.6854 26.3871 54.6841C26.5503 54.6831 26.7397 54.7788 26.9554 54.9712L28.8966 56.7033C29.1123 56.8957 29.2304 57.0743 29.2508 57.2392C29.2658 57.4043 29.2134 57.5539 29.0938 57.688C28.9768 57.8192 28.8352 57.8839 28.6691 57.8823C28.5004 57.8836 28.3097 57.7894 28.0969 57.5995L27.957 57.4747L24.8285 60.9811L24.9684 61.1059C25.1841 61.2984 25.3022 61.477 25.3226 61.6419C25.3375 61.807 25.2852 61.9566 25.1656 62.0907C25.0459 62.2248 24.9045 62.2923 24.7414 62.2933C24.5727 62.2946 24.3805 62.199 24.1648 62.0066L22.1051 60.161C21.4988 59.6201 21.1676 59.0261 21.1114 58.3792C21.0496 57.7325 21.2307 57.1717 21.6546 56.6966C21.8887 56.4342 22.1695 56.2398 22.497 56.1133C22.7434 56.019 23.0497 55.9808 23.4159 55.9987C23.7766 56.0169 24.1067 56.0811 24.4063 56.1913C24.7003 56.3018 25.028 56.5183 25.3895 56.8408L26.2376 57.5975ZM25.438 58.4938L24.6073 57.7526C24.2167 57.4042 23.8297 57.2159 23.4463 57.188C23.0574 57.1603 22.7524 57.2704 22.5314 57.5181C22.3441 57.728 22.2736 57.9948 22.3197 58.3187C22.3629 58.6399 22.5565 58.9539 22.9004 59.2608L23.9322 60.1814L25.438 58.4938Z" fill="black"/>
<path d="M17.8202 46.6581C18.7907 46.2161 19.7403 46.1571 20.669 46.4811C21.5925 46.8031 22.2388 47.3693 22.6079 48.1799C22.9398 48.9086 22.9709 49.6885 22.7012 50.5196C22.3667 51.5475 21.6697 52.3027 20.6103 52.7851C19.5509 53.2675 18.5219 53.2983 17.5234 52.8774C16.7194 52.5353 16.1515 51.9999 15.8197 51.2711C15.4506 50.4606 15.4495 49.6005 15.8164 48.6908C16.1782 47.7792 16.8461 47.1016 17.8202 46.6581ZM18.318 47.7512C17.6532 48.054 17.1954 48.5049 16.9447 49.1042C16.6903 49.705 16.6797 50.2614 16.9128 50.7733C17.1443 51.2817 17.5702 51.6371 18.1904 51.8397C18.8106 52.0423 19.4513 51.9931 20.1125 51.692C20.7738 51.3908 21.2315 50.9399 21.4859 50.339C21.7366 49.7398 21.7463 49.186 21.5148 48.6777C21.2817 48.1657 20.8568 47.8077 20.2401 47.6035C19.6235 47.3993 18.9828 47.4485 18.318 47.7512Z" fill="black"/>
<path d="M14.8876 37.4064L19.5864 37.3484C19.5823 37.0164 19.6302 36.7853 19.7302 36.6552C19.8302 36.525 19.9778 36.4587 20.1731 36.4563C20.3918 36.4536 20.5489 36.522 20.6444 36.6615C20.7359 36.7971 20.7841 37.0602 20.7889 37.4507L20.8008 38.4116C20.8056 38.8022 20.764 39.0684 20.6759 39.2101C20.5877 39.3479 20.4323 39.4182 20.2097 39.4209C20.0027 39.4235 19.8515 39.3589 19.7561 39.2273C19.6568 39.0957 19.6052 38.8698 19.6012 38.5495L14.9024 38.6075L14.9227 40.2538L18.2682 40.2125C19.1509 40.2016 19.8326 40.3593 20.3132 40.6854C20.7899 41.0076 21.0322 41.4891 21.0401 42.1296C21.0504 42.9694 20.8486 43.3919 20.4346 43.397L19.7081 43.4059C19.3292 43.4106 19.0766 43.363 18.9504 43.2629C18.8241 43.1629 18.7598 43.0133 18.7573 42.8141C18.7524 42.4157 19.0409 42.2129 19.6229 42.2057L19.8104 42.2034C19.8137 42.1526 19.8152 42.1135 19.8148 42.0862C19.8123 41.8792 19.6911 41.7146 19.4513 41.5926C19.2115 41.4705 18.8221 41.4128 18.2831 41.4195L14.9376 41.4608C14.9423 41.5232 14.945 41.5877 14.9458 41.6541C14.9527 42.2126 14.7531 42.4944 14.3469 42.4994C14.132 42.5021 13.9789 42.4356 13.8873 42.3C13.7919 42.1644 13.7418 41.8994 13.7369 41.5049L13.6879 37.5384C13.6831 37.1517 13.7248 36.8875 13.8129 36.7458C13.901 36.6041 14.0544 36.5319 14.2732 36.5292C14.4646 36.5268 14.6138 36.5894 14.7208 36.717C14.8279 36.8446 14.8835 37.0744 14.8876 37.4064Z" fill="black"/>
<path d="M18.2722 26.8439L22.5957 28.6853C22.7258 28.3798 22.8628 28.1877 23.0068 28.1089C23.1507 28.0301 23.3125 28.0289 23.4922 28.1055C23.6935 28.1912 23.8097 28.3171 23.8408 28.4832C23.8699 28.6442 23.8079 28.9044 23.6549 29.2638L23.2783 30.1479C23.1253 30.5072 22.9799 30.734 22.8421 30.8282C22.7059 30.9188 22.5353 30.9205 22.3305 30.8332C22.14 30.7521 22.0277 30.6321 21.9935 30.4731C21.9557 30.3127 21.9995 30.0851 22.125 29.7904L17.8016 27.9491L17.1564 29.4639L20.2346 30.7749C21.0468 31.1208 21.6071 31.5398 21.9154 32.0321C22.2217 32.5192 22.2494 33.0574 21.9983 33.6468C21.6692 34.4195 21.3142 34.7247 20.9333 34.5625L20.2648 34.2778C19.9162 34.1293 19.7043 33.9838 19.6291 33.8414C19.5539 33.699 19.5553 33.5361 19.6334 33.3529C19.7895 32.9863 20.1353 32.917 20.6708 33.1451L20.8433 33.2186C20.8668 33.1734 20.8839 33.1382 20.8946 33.113C20.9757 32.9226 20.9312 32.7231 20.7609 32.5148C20.5907 32.3064 20.2576 32.0966 19.7616 31.8854L16.6835 30.5744C16.6626 30.6334 16.6391 30.6935 16.6131 30.7546C16.3942 31.2685 16.0979 31.4459 15.7241 31.2867C15.5265 31.2025 15.4131 31.0799 15.384 30.9189C15.3513 30.7564 15.4123 30.4937 15.5669 30.1307L17.1212 26.4811C17.2727 26.1253 17.4174 25.9003 17.5551 25.8061C17.6929 25.712 17.8624 25.7077 18.0637 25.7934C18.2398 25.8684 18.3511 25.9859 18.3976 26.1458C18.4441 26.3058 18.4023 26.5385 18.2722 26.8439Z" fill="black"/>
<path d="M43.2329 12.9298C43.3052 12.8269 43.3838 12.7492 43.4688 12.6968C43.5577 12.6444 43.6529 12.6172 43.7544 12.6153C43.9302 12.6121 44.0739 12.6699 44.1855 12.789C44.301 12.9079 44.3615 13.1119 44.3668 13.4009L44.3858 14.4203C44.3912 14.7093 44.3384 14.9173 44.2275 15.0444C44.1204 15.1675 43.979 15.2307 43.8032 15.234C43.6431 15.237 43.5134 15.1945 43.4141 15.1065C43.3147 15.0185 43.2394 14.8519 43.1879 14.6067C43.1575 14.4432 43.1005 14.3173 43.0168 14.229C42.8534 14.0562 42.6262 13.9198 42.3352 13.8197C42.0481 13.7196 41.7601 13.6722 41.4711 13.6776C41.1118 13.6843 40.7832 13.7685 40.4854 13.9303C40.1876 14.0922 39.9267 14.351 39.7028 14.7068C39.479 15.0626 39.3715 15.4826 39.3806 15.9669L39.3951 16.7461C39.4058 17.3241 39.6238 17.8025 40.0489 18.1814C40.4779 18.5602 41.0654 18.7426 41.8113 18.7287C42.2565 18.7205 42.6323 18.6529 42.9386 18.5261C43.1169 18.4524 43.3057 18.3102 43.505 18.0994C43.6276 17.9721 43.7238 17.8902 43.7934 17.8538C43.863 17.8134 43.9427 17.7924 44.0325 17.7907C44.1926 17.7877 44.3344 17.8457 44.4577 17.9645C44.581 18.0833 44.6442 18.2247 44.6473 18.3888C44.6503 18.5528 44.5716 18.7301 44.411 18.9206C44.1779 19.1984 43.8753 19.4189 43.5033 19.5821C43.0034 19.8024 42.4488 19.9183 41.8395 19.9296C41.1287 19.9428 40.4855 19.8083 39.9098 19.526C39.4446 19.3003 39.0452 18.9385 38.7117 18.4407C38.378 17.939 38.2057 17.3894 38.1945 16.7919L38.1794 15.9775C38.1677 15.3527 38.3014 14.768 38.5804 14.2237C38.8632 13.6753 39.2596 13.2499 39.7697 12.9474C40.2798 12.6449 40.8238 12.4882 41.4019 12.4775C41.7495 12.471 42.0744 12.506 42.3766 12.5824C42.6827 12.6548 42.9681 12.7706 43.2329 12.9298Z" fill="black"/>
<path d="M53.9896 16.9714C53.949 16.9671 53.6174 17.1777 52.9948 17.6031C52.5511 17.9044 52.2578 18.0993 52.115 18.1877L51.9958 18.2903C52.2268 18.7299 52.3639 19.2573 52.4071 19.8725L52.525 21.4272L52.7304 21.5132C53.0908 21.664 53.3166 21.8072 53.4081 21.9429C53.5031 22.08 53.5084 22.2495 53.424 22.4513C53.3395 22.6531 53.2161 22.7708 53.0538 22.8046C52.893 22.8346 52.6306 22.7735 52.2667 22.6212L52.1424 22.5692C51.7604 22.4094 51.5447 22.2873 51.4953 22.2031C51.4473 22.1153 51.4082 21.8851 51.3778 21.5124L51.2576 19.9631C51.1889 19.1256 50.9546 18.6231 50.5546 18.4557L50.2411 18.3245L49.4765 20.1514C49.5285 20.1689 49.5797 20.1883 49.6301 20.2094C50.1382 20.422 50.3146 20.7139 50.1593 21.085C50.0748 21.2868 49.9514 21.4046 49.7891 21.4383C49.6319 21.4699 49.3732 21.4103 49.0128 21.2595L47.9048 20.7958C47.548 20.6465 47.3221 20.5032 47.2271 20.3661C47.1357 20.2304 47.1322 20.0617 47.2166 19.8599C47.3011 19.6581 47.4237 19.5422 47.5845 19.5121C47.7504 19.4799 48.0117 19.5384 48.3685 19.6877L50.1826 15.3528C50.1307 15.3353 50.0795 15.316 50.029 15.2949C49.5173 15.0807 49.3399 14.7863 49.4967 14.4115C49.5812 14.2097 49.7038 14.0938 49.8646 14.0637C50.0254 14.0336 50.286 14.0939 50.6463 14.2447L51.7544 14.7085C52.1111 14.8578 52.3352 15.0002 52.4267 15.1359C52.5181 15.2716 52.5216 15.4403 52.4371 15.6421C52.3527 15.8439 52.2293 15.9616 52.067 15.9953C51.9062 16.0254 51.6474 15.9658 51.2907 15.8165L50.7071 17.211L50.8584 17.2744C50.9809 17.3257 51.0924 17.3427 51.1928 17.3254C51.2932 17.3081 51.464 17.2187 51.7052 17.0571L53.0141 16.1757C53.2906 15.9908 53.5645 15.8725 53.8359 15.8209C54.1073 15.7694 54.4358 15.8243 54.8214 15.9856C55.0628 16.0867 55.2189 16.1943 55.2896 16.3086C55.3603 16.4229 55.3887 16.5322 55.3747 16.6364C55.3608 16.7407 55.2934 16.9369 55.1728 17.2252L55.1276 17.3333C54.9813 17.6828 54.8421 17.9041 54.7101 17.997C54.5795 18.0864 54.4151 18.0896 54.217 18.0066C53.853 17.8543 53.7772 17.5092 53.9896 16.9714Z" fill="black"/>
<path d="M58.0819 24.5137L57.1853 25.3649L58.0204 26.2445C58.2194 26.4541 58.3196 26.6419 58.3208 26.8077C58.3275 26.9736 58.2658 27.1185 58.1355 27.2422C58.008 27.3632 57.8601 27.4174 57.6919 27.4048C57.5292 27.3923 57.3484 27.2812 57.1493 27.0716L55.358 25.1849C55.159 24.9753 55.0561 24.7875 55.0494 24.6215C55.0482 24.4557 55.1127 24.3109 55.243 24.1872C55.3705 24.0662 55.5169 24.0133 55.6823 24.0287C55.8505 24.0413 56.0328 24.1511 56.2291 24.3579L56.3582 24.4938L59.7661 21.2582L59.637 21.1223C59.438 20.9126 59.3351 20.7248 59.3283 20.5589C59.3271 20.3931 59.3916 20.2483 59.522 20.1246C59.6523 20.0009 59.7988 19.9452 59.9615 19.9578C60.1297 19.9704 60.3133 20.0815 60.5123 20.2912L62.4123 22.3008C62.9718 22.8901 63.2527 23.5094 63.2552 24.1588C63.2633 24.8083 63.0364 25.3522 62.5747 25.7907C62.3197 26.0327 62.0238 26.2033 61.6869 26.3023C61.4335 26.3758 61.1251 26.3886 60.7616 26.3405C60.4037 26.2925 60.08 26.2012 59.7906 26.0666C59.5068 25.9321 59.1981 25.6893 58.8646 25.338L58.0819 24.5137ZM58.953 23.6866L59.7195 24.494C60.0799 24.8736 60.45 25.0931 60.8297 25.1527C61.215 25.2125 61.5281 25.128 61.7689 24.8994C61.9728 24.7057 62.0652 24.4456 62.0461 24.1191C62.0296 23.7954 61.8627 23.4664 61.5453 23.1321L60.5932 22.1293L58.953 23.6866Z" fill="black"/>
<path d="M65.5655 36.1119C64.5617 36.472 63.6105 36.4523 62.7118 36.0526C61.8181 35.6554 61.2208 35.0376 60.92 34.1993C60.6496 33.4455 60.6831 32.6657 61.0206 31.8599C61.4391 30.8631 62.1961 30.1682 63.2918 29.775C64.3875 29.3819 65.4155 29.4364 66.3758 29.9384C67.1487 30.3458 67.6703 30.9264 67.9408 31.6802C68.2416 32.5185 68.1715 33.3757 67.7305 34.2519C67.2946 35.1304 66.5729 35.7504 65.5655 36.1119ZM65.1598 34.9813C65.8474 34.7346 66.3409 34.323 66.6404 33.7466C66.9435 33.1689 67.0001 32.6153 66.8102 32.0858C66.6215 31.5601 66.2265 31.1706 65.6252 30.9174C65.0239 30.6642 64.3813 30.6603 63.6975 30.9056C63.0136 31.151 62.5201 31.5626 62.2169 32.1403C61.9174 32.7167 61.862 33.2678 62.0506 33.7936C62.2406 34.323 62.6344 34.715 63.232 34.9696C63.8297 35.2241 64.4723 35.228 65.1598 34.9813Z" fill="black"/>
<path d="M67.7228 45.5744L63.0352 45.2435C63.0118 45.5747 62.9449 45.801 62.8346 45.9224C62.7242 46.0439 62.5716 46.0977 62.3767 46.084C62.1585 46.0686 62.0076 45.9874 61.924 45.8405C61.844 45.6978 61.8178 45.4317 61.8453 45.042L61.9129 44.0835C61.9404 43.6938 62.004 43.432 62.1035 43.298C62.2027 43.168 62.3634 43.1108 62.5855 43.1265C62.792 43.1411 62.9374 43.2179 63.0215 43.357C63.1096 43.4963 63.1423 43.7258 63.1198 44.0453L67.8073 44.3762L67.9233 42.7338L64.5859 42.4982C63.7053 42.436 63.0389 42.2226 62.5869 41.8578C62.1386 41.4972 61.9369 40.9974 61.982 40.3584C62.0412 39.5206 62.2773 39.1163 62.6903 39.1455L63.4151 39.1966C63.793 39.2233 64.0408 39.2917 64.1583 39.4018C64.2759 39.5119 64.3276 39.6663 64.3136 39.8651C64.2855 40.2625 63.9812 40.4408 63.4006 40.3998L63.2136 40.3866C63.2061 40.4369 63.2014 40.4758 63.1995 40.503C63.1849 40.7096 63.2921 40.8836 63.521 41.025C63.7498 41.1665 64.1332 41.2562 64.6709 41.2942L68.0083 41.5298C68.0088 41.4671 68.0114 41.4027 68.016 41.3365C68.0554 40.7793 68.2777 40.515 68.6829 40.5436C68.8972 40.5587 69.0444 40.6376 69.1244 40.7803C69.2083 40.9233 69.2363 41.1916 69.2085 41.5851L68.9292 45.5421C68.902 45.9278 68.8386 46.1877 68.7391 46.3216C68.6395 46.4556 68.4807 46.5149 68.2625 46.4994C68.0715 46.486 67.928 46.4112 67.8319 46.2752C67.7358 46.1392 67.6994 45.9056 67.7228 45.5744Z" fill="black"/>
<path d="M63.4759 55.8208L59.3196 53.6281C59.1647 53.9217 59.0122 54.1019 58.8622 54.1685C58.7123 54.2351 58.5509 54.2229 58.3782 54.1318C58.1847 54.0297 58.0793 53.8946 58.062 53.7265C58.0463 53.5636 58.1296 53.3095 58.3119 52.964L58.7603 52.114C58.9425 51.7685 59.1062 51.5546 59.2513 51.4721C59.3945 51.3931 59.5646 51.4056 59.7616 51.5095C59.9447 51.6061 60.0467 51.735 60.0677 51.8962C60.0921 52.0592 60.0295 52.2824 59.8801 52.5657L64.0364 54.7584L64.8046 53.3021L61.8455 51.741C61.0647 51.3291 60.541 50.8651 60.2744 50.349C60.0094 49.8383 60.0264 49.2996 60.3253 48.733C60.7172 47.9902 61.0963 47.7154 61.4625 47.9086L62.1051 48.2476C62.4402 48.4244 62.6394 48.5869 62.7026 48.735C62.7657 48.8832 62.7508 49.0453 62.6579 49.2216C62.472 49.574 62.1216 49.6144 61.6068 49.3428L61.441 49.2553C61.4138 49.2984 61.3939 49.332 61.3811 49.3562C61.2845 49.5393 61.3124 49.7418 61.4649 49.9635C61.6173 50.1852 61.9319 50.4219 62.4087 50.6734L65.3678 52.2345C65.3935 52.1774 65.4219 52.1195 65.4529 52.0608C65.7135 51.5667 66.0235 51.4145 66.3828 51.604C66.5728 51.7043 66.6757 51.8358 66.6914 51.9987C66.7105 52.1633 66.628 52.4201 66.4439 52.7691L64.593 56.2776C64.4125 56.6196 64.2498 56.8319 64.1047 56.9143C63.9596 56.9968 63.7903 56.987 63.5969 56.8849C63.4276 56.7956 63.3263 56.6693 63.2932 56.5061C63.2601 56.3429 63.321 56.1144 63.4759 55.8208Z" fill="black"/>
<path d="M34.7894 60.5345C34.8465 60.3153 34.9718 60.1522 35.1652 60.0451C35.3586 59.9381 35.5913 59.9201 35.8635 59.991C36.1357 60.0619 36.33 60.1913 36.4466 60.3791C36.5631 60.5669 36.5929 60.7704 36.5357 60.9897C36.4786 61.2089 36.3533 61.372 36.1599 61.4791C35.9665 61.5861 35.7337 61.6041 35.4616 61.5332C35.1894 61.4623 34.995 61.3329 34.8785 61.1451C34.7619 60.9573 34.7322 60.7538 34.7894 60.5345Z" fill="black"/>
<path d="M29.4334 21.1738L29.9229 19.0718L27.8209 18.5822L27.3313 20.6843L29.4334 21.1738Z" fill="black"/>
<path d="M42.2051 41.9219L42.6947 39.8198L40.5926 39.3303L40.103 41.4323L42.2051 41.9219Z" fill="black"/>
<path d="M55.6603 62.612L56.1575 60.5117L54.0572 60.0145L53.56 62.1148L55.6603 62.612Z" fill="black"/>
</svg>
